<svg width="211" height="232" viewBox="0 0 211 232" fill="none" xmlns="http://www.w3.org/2000/svg">
<path d="M143 208H188V225H143V208Z" fill="black"/>
<path d="M121 208.6C121 205.507 123.537 203 126.667 203H132.333C135.463 203 138 205.507 138 208.6V225.4C138 228.493 135.463 231 132.333 231H126.667C123.537 231 121 228.493 121 225.4V208.6Z" fill="black"/>
<path fill-rule="evenodd" clip-rule="evenodd" d="M132.333 208.6H126.667L126.667 225.4H132.333V208.6ZM126.667 203C123.537 203 121 205.507 121 208.6V225.4C121 228.493 123.537 231 126.667 231H132.333C135.463 231 138 228.493 138 225.4V208.6C138 205.507 135.463 203 132.333 203H126.667Z" fill="black"/>
<path d="M194 208.6C194 205.507 196.537 203 199.667 203H205.333C208.463 203 211 205.507 211 208.6V225.4C211 228.493 208.463 231 205.333 231H199.667C196.537 231 194 228.493 194 225.4V208.6Z" fill="black"/>
<path fill-rule="evenodd" clip-rule="evenodd" d="M205.333 208.6H199.667L199.667 225.4H205.333V208.6ZM199.667 203C196.537 203 194 205.507 194 208.6V225.4C194 228.493 196.537 231 199.667 231H205.333C208.463 231 211 228.493 211 225.4V208.6C211 205.507 208.463 203 205.333 203H199.667Z" fill="black"/>
<path d="M160 158H172V214H160V158Z" fill="black"/>
<path fill-rule="evenodd" clip-rule="evenodd" d="M188.5 141C191.538 141 194 143.462 194 146.5V157.5C194 160.538 191.538 163 188.5 163C185.462 163 183 160.538 183 157.5V146.5C183 143.462 185.462 141 188.5 141Z" fill="black"/>
<path fill-rule="evenodd" clip-rule="evenodd" d="M149 141C152.314 141 155 143.462 155 146.5V157.5C155 160.538 152.314 163 149 163C145.686 163 143 160.538 143 157.5V146.5C143 143.462 145.686 141 149 141Z" fill="black"/>
<path d="M132 147H205V158H132V147Z" fill="black"/>
<path d="M21.8532 120.463C21.8532 117.446 24.2992 115 27.3165 115H60.0963C63.1136 115 65.5596 117.446 65.5596 120.463V120.463C65.5596 123.481 63.1136 125.927 60.0963 125.927H27.3165C24.2992 125.927 21.8532 123.481 21.8532 120.463V120.463Z" fill="black"/>
<path d="M0 125.927C0 122.909 2.446 120.463 5.4633 120.463H81.9495C84.9668 120.463 87.4128 122.909 87.4128 125.927V196.949C87.4128 199.967 84.9668 202.413 81.9495 202.413H5.4633C2.446 202.413 0 199.967 0 196.949V125.927Z" fill="black"/>
<path d="M27.3165 128.658C27.3165 127.15 28.5395 125.927 30.0481 125.927H57.3646C58.8733 125.927 60.0963 127.15 60.0963 128.658V128.658C60.0963 130.167 58.8733 131.39 57.3646 131.39H30.0481C28.5395 131.39 27.3165 130.167 27.3165 128.658V128.658Z" fill="white"/>
<path d="M10.9266 136.853H38.2431V164.17H10.9266V136.853Z" fill="white"/>
<path d="M49.1697 136.853H76.4862V164.17H49.1697V136.853Z" fill="white"/>
<path d="M21.8532 186.023C21.8532 189.04 19.4072 191.486 16.3899 191.486C13.3726 191.486 10.9266 189.04 10.9266 186.023C10.9266 183.006 13.3726 180.56 16.3899 180.56C19.4072 180.56 21.8532 183.006 21.8532 186.023Z" fill="white"/>
<path d="M76.4862 186.023C76.4862 189.04 74.0402 191.486 71.0229 191.486C68.0056 191.486 65.5596 189.04 65.5596 186.023C65.5596 183.006 68.0056 180.56 71.0229 180.56C74.0402 180.56 76.4862 183.006 76.4862 186.023Z" fill="white"/>
<path fill-rule="evenodd" clip-rule="evenodd" d="M47.9725 173.046C50.3286 174.931 50.7106 178.369 48.8258 180.725L11.9451 226.826C10.0603 229.182 6.62224 229.564 4.26613 227.679C1.91002 225.794 1.52802 222.356 3.41291 220L40.2935 173.899C42.1784 171.543 45.6164 171.161 47.9725 173.046Z" fill="black"/>
<path fill-rule="evenodd" clip-rule="evenodd" d="M43.3354 163.266C45.9865 161.826 49.3036 162.807 50.7444 165.458L81.2863 221.657C82.727 224.308 81.7459 227.625 79.0948 229.066C76.4437 230.507 73.1266 229.526 71.6858 226.875L41.1439 170.675C39.7032 168.024 40.6843 164.707 43.3354 163.266Z" fill="black"/>
<path fill-rule="evenodd" clip-rule="evenodd" d="M10.9266 213.339C10.9266 210.322 13.3726 207.876 16.3899 207.876H73.7546V218.803H16.3899C13.3726 218.803 10.9266 216.357 10.9266 213.339Z" fill="black"/>
<path d="M26 4H65.5L72 34H19L26 4Z" fill="white"/>
<path d="M0 39.375C0 36.2684 2.5184 33.75 5.625 33.75H84.375C87.4816 33.75 90 36.2684 90 39.375V61.875C90 64.9816 87.4816 67.5 84.375 67.5H5.625C2.5184 67.5 0 64.9816 0 61.875V39.375Z" fill="black"/>
<path fill-rule="evenodd" clip-rule="evenodd" d="M11.25 45V56.25H78.75V45H11.25ZM5.625 33.75C2.5184 33.75 0 36.2684 0 39.375V61.875C0 64.9816 2.5184 67.5 5.625 67.5H84.375C87.4816 67.5 90 64.9816 90 61.875V39.375C90 36.2684 87.4816 33.75 84.375 33.75H5.625Z" fill="black"/>
<path fill-rule="evenodd" clip-rule="evenodd" d="M17.1637 3.84622C17.9293 1.54929 20.0789 0 22.5 0H67.5C69.9212 0 72.0708 1.54929 72.8364 3.84622L84.0864 37.5962C84.6582 39.3116 84.3705 41.1972 83.3133 42.664C82.2561 44.1308 80.5582 45 78.75 45H11.25C9.44192 45 7.74403 44.1308 6.6868 42.664C5.62958 41.1972 5.34192 39.3116 5.9137 37.5962L17.1637 3.84622ZM26.5543 11.25L19.0543 33.75H70.9458L63.4458 11.25H26.5543Z" fill="black"/>
<path d="M78.75 45C78.75 48.1066 76.2316 50.625 73.125 50.625C70.0184 50.625 67.5 48.1066 67.5 45C67.5 41.8934 70.0184 39.375 73.125 39.375C76.2316 39.375 78.75 41.8934 78.75 45Z" fill="white"/>
<path d="M22.5 45C22.5 48.1066 19.9816 50.625 16.875 50.625C13.7684 50.625 11.25 48.1066 11.25 45C11.25 41.8934 13.7684 39.375 16.875 39.375C19.9816 39.375 22.5 41.8934 22.5 45Z" fill="white"/>
<path d="M11.25 78.75C11.25 75.6434 13.7684 73.125 16.875 73.125V73.125C19.9816 73.125 22.5 75.6434 22.5 78.75V84.375C22.5 87.4816 19.9816 90 16.875 90V90C13.7684 90 11.25 87.4816 11.25 84.375V78.75Z" fill="black"/>
<path fill-rule="evenodd" clip-rule="evenodd" d="M16.875 73.125C13.7684 73.125 11.25 75.6434 11.25 78.75V84.375C11.25 87.4816 13.7684 90 16.875 90C19.9816 90 22.5 87.4816 22.5 84.375V78.75C22.5 75.6434 19.9816 73.125 16.875 73.125Z" fill="black"/>
<path d="M67.5 78.75C67.5 75.6434 70.0184 73.125 73.125 73.125V73.125C76.2316 73.125 78.75 75.6434 78.75 78.75V84.375C78.75 87.4816 76.2316 90 73.125 90V90C70.0184 90 67.5 87.4816 67.5 84.375V78.75Z" fill="black"/>
<path fill-rule="evenodd" clip-rule="evenodd" d="M73.125 73.125C70.0184 73.125 67.5 75.6434 67.5 78.75V84.375C67.5 87.4816 70.0184 90 73.125 90C76.2316 90 78.75 87.4816 78.75 84.375V78.75C78.75 75.6434 76.2316 73.125 73.125 73.125Z" fill="black"/>
<path d="M120 5C120 2.23858 122.239 0 125 0H195C197.761 0 200 2.23858 200 5V65C200 67.7614 197.761 70 195 70H125C122.239 70 120 67.7614 120 65V5Z" fill="black"/>
<path fill-rule="evenodd" clip-rule="evenodd" d="M130 10V60H190V10H130ZM125 0C122.239 0 120 2.23858 120 5V65C120 67.7614 122.239 70 125 70H195C197.761 70 200 67.7614 200 65V5C200 2.23858 197.761 0 195 0H125Z" fill="black"/>
<path d="M115 20C115 17.2386 117.239 15 120 15H200C202.761 15 205 17.2386 205 20V30C205 32.7614 202.761 35 200 35H120C117.239 35 115 32.7614 115 30V20Z" fill="black"/>
<path d="M130 80C130 77.2386 132.239 75 135 75V75C137.761 75 140 77.2386 140 80V85C140 87.7614 137.761 90 135 90V90C132.239 90 130 87.7614 130 85V80Z" fill="black"/>
<path fill-rule="evenodd" clip-rule="evenodd" d="M135 75C132.239 75 130 77.2386 130 80V85C130 87.7614 132.239 90 135 90C137.761 90 140 87.7614 140 85V80C140 77.2386 137.761 75 135 75Z" fill="black"/>
<path d="M180 80C180 77.2386 182.239 75 185 75V75C187.761 75 190 77.2386 190 80V85C190 87.7614 187.761 90 185 90V90C182.239 90 180 87.7614 180 85V80Z" fill="black"/>
<path fill-rule="evenodd" clip-rule="evenodd" d="M185 75C182.239 75 180 77.2386 180 80V85C180 87.7614 182.239 90 185 90C187.761 90 190 87.7614 190 85V80C190 77.2386 187.761 75 185 75Z" fill="black"/>
<path d="M130 15H190V40H130V15Z" fill="white"/>
<path d="M140 55C140 57.7614 137.761 60 135 60C132.239 60 130 57.7614 130 55C130 52.2386 132.239 50 135 50C137.761 50 140 52.2386 140 55Z" fill="white"/>
<path d="M190 55C190 57.7614 187.761 60 185 60C182.239 60 180 57.7614 180 55C180 52.2386 182.239 50 185 50C187.761 50 190 52.2386 190 55Z" fill="white"/>
<path d="M145 7.50002C145 6.1193 146.119 5.00002 147.5 5.00002H172.5C173.881 5.00002 175 6.1193 175 7.50002V7.50002C175 8.88073 173.881 10 172.5 10H147.5C146.119 10 145 8.88073 145 7.50002V7.50002Z" fill="white"/>
</svg>
