<?xml version="1.0" standalone="no"?>
<!DOCTYPE svg PUBLIC "-//W3C//DTD SVG 20010904//EN"
 "http://www.w3.org/TR/2001/REC-SVG-20010904/DTD/svg10.dtd">
<svg version="1.0" xmlns="http://www.w3.org/2000/svg"
 width="1488.000000pt" height="1488.000000pt" viewBox="0 0 1488.000000 1488.000000"
 preserveAspectRatio="xMidYMid meet">
<metadata>
Created by potrace 1.14, written by Peter Selinger 2001-2017
</metadata>
<g transform="translate(0.000000,1488.000000) scale(0.100000,-0.100000)"
fill="#000000" stroke="none">
<path d="M848 10235 c-2 -2 -19 -6 -39 -8 -19 -2 -39 -6 -44 -9 -12 -7 -72
-20 -81 -18 -4 1 -10 -2 -13 -7 -3 -4 -28 -19 -54 -32 -130 -66 -203 -226
-212 -467 -9 -233 107 -420 395 -636 73 -55 217 -148 229 -148 6 0 11 -3 11
-7 0 -5 10 -13 23 -19 65 -32 163 -89 169 -98 4 -6 8 -8 8 -4 0 3 37 -14 83
-38 82 -45 215 -111 462 -229 288 -138 345 -165 352 -166 5 -1 20 -10 35 -20
14 -10 29 -19 33 -19 8 0 285 -138 360 -180 33 -18 80 -44 105 -57 53 -28 112
-61 160 -91 19 -12 51 -30 70 -41 102 -57 353 -231 455 -315 277 -228 485
-487 580 -724 28 -69 63 -178 71 -222 2 -14 7 -36 10 -50 25 -108 24 -403 -1
-517 -9 -41 -12 -57 -19 -96 -12 -63 -72 -252 -100 -311 -46 -98 -76 -160
-103 -206 -54 -97 -151 -298 -169 -350 -25 -76 -23 -190 4 -252 47 -107 188
-209 322 -234 14 -3 39 -8 55 -13 33 -8 226 -7 265 3 14 3 47 11 75 17 88 21
183 77 259 154 82 82 81 80 128 160 37 64 88 184 88 207 0 8 4 18 9 24 10 11
33 106 56 229 30 162 37 235 37 385 1 215 -13 334 -67 572 -14 65 -33 134 -41
153 -8 19 -14 37 -14 40 -1 21 -14 66 -21 71 -5 3 -9 15 -9 28 0 12 -3 26 -7
30 -4 3 -8 16 -10 28 -2 12 -7 26 -11 32 -5 6 -17 34 -27 61 -20 58 -29 78
-84 198 -22 48 -40 88 -39 90 1 1 -10 22 -24 47 -14 25 -45 81 -68 125 -59
110 -83 152 -167 287 -68 110 -258 387 -273 398 -3 3 -20 25 -37 50 -17 25
-40 56 -52 70 -11 14 -24 30 -28 35 -33 42 -100 121 -108 127 -5 4 -7 8 -3 8
4 0 -3 10 -15 23 -20 21 -92 103 -135 154 -126 150 -475 500 -652 653 -34 30
-70 62 -79 71 -17 17 -131 113 -196 166 -67 55 -329 255 -355 272 -14 8 -48
32 -76 53 -28 21 -56 38 -62 38 -5 0 -12 3 -14 8 -1 4 -21 19 -43 33 -140 91
-185 119 -194 119 -5 0 -11 3 -13 8 -1 4 -19 15 -38 26 -184 98 -290 151 -375
186 -55 22 -108 45 -117 50 -10 6 -26 10 -36 10 -10 0 -22 3 -26 8 -4 4 -11 7
-14 8 -4 0 -33 8 -65 17 -32 10 -82 22 -110 28 -29 5 -63 12 -77 15 -30 7
-286 15 -292 9z"/>
<path d="M3830 10228 c-177 -44 -261 -94 -322 -189 -20 -32 -58 -142 -64 -184
-2 -16 -8 -55 -13 -85 -8 -49 -7 -170 2 -210 42 -181 196 -372 427 -530 19
-13 37 -27 40 -30 3 -3 16 -11 30 -19 14 -8 70 -43 126 -77 55 -34 141 -83
189 -108 49 -26 94 -51 102 -57 7 -6 13 -8 13 -4 0 5 8 2 18 -6 9 -8 31 -21
47 -28 17 -7 37 -17 45 -22 8 -5 24 -13 35 -18 11 -5 106 -50 210 -101 105
-51 246 -119 315 -152 281 -134 641 -318 730 -373 19 -12 42 -24 50 -28 8 -4
32 -17 52 -29 165 -102 213 -132 216 -140 2 -4 8 -8 14 -8 9 0 243 -166 274
-195 6 -5 36 -30 65 -55 72 -60 214 -201 276 -275 59 -70 183 -253 183 -271 0
-7 3 -14 8 -16 13 -6 110 -234 112 -266 0 -4 5 -23 10 -42 27 -102 35 -177 35
-330 0 -128 -8 -237 -19 -270 -3 -8 -7 -28 -10 -45 -3 -16 -8 -43 -11 -60 -6
-32 -52 -190 -62 -215 -4 -8 -7 -17 -8 -20 -14 -43 -55 -126 -192 -390 -96
-183 -125 -269 -125 -362 1 -218 213 -370 517 -371 189 -1 311 36 433 133 56
44 121 110 122 123 0 4 9 17 20 29 39 42 138 274 154 359 3 13 5 24 6 24 1 0
3 11 6 25 2 14 7 36 10 50 7 27 8 28 19 105 4 28 9 59 11 70 30 155 22 474
-15 675 -6 30 -12 66 -15 80 -2 14 -9 43 -14 65 -6 22 -13 51 -16 65 -6 35
-60 210 -90 296 -80 226 -235 543 -382 782 -35 57 -64 108 -64 113 0 5 -4 9
-8 9 -5 0 -15 12 -23 27 -14 28 -168 254 -179 263 -3 3 -17 21 -30 40 -13 19
-27 37 -30 40 -3 3 -17 21 -30 40 -14 19 -32 44 -41 55 -9 11 -39 47 -65 80
-110 137 -161 196 -319 370 -152 168 -496 504 -615 601 -19 16 -44 37 -54 46
-11 10 -24 18 -28 18 -5 0 -6 5 -3 10 3 6 2 10 -3 10 -5 0 -56 39 -113 86
-133 109 -115 95 -249 195 -164 123 -400 281 -510 342 -19 11 -46 27 -60 37
-29 19 -359 183 -380 188 -8 2 -32 12 -55 22 -42 19 -143 52 -232 75 -48 13
-68 18 -133 31 -47 9 -305 11 -340 2z"/>
<path d="M12458 10175 c-2 -2 -34 -6 -73 -9 -71 -6 -115 -12 -170 -22 -16 -3
-46 -7 -65 -10 -51 -7 -308 -70 -358 -88 -23 -8 -43 -15 -45 -15 -2 0 -33 -10
-57 -18 -8 -4 -24 -8 -35 -10 -11 -1 -29 -7 -40 -12 -11 -5 -54 -21 -95 -36
-41 -14 -84 -31 -95 -35 -11 -5 -42 -18 -70 -30 -74 -31 -83 -35 -170 -75
-233 -107 -533 -265 -699 -368 -138 -85 -495 -339 -547 -389 -8 -7 -43 -37
-79 -67 -155 -127 -451 -412 -550 -530 -25 -30 -52 -61 -60 -70 -14 -14 -122
-149 -142 -176 -4 -5 -18 -23 -31 -40 -79 -100 -205 -303 -269 -430 -42 -84
-104 -248 -114 -305 -3 -14 -9 -42 -14 -63 -28 -129 8 -308 80 -391 24 -28 37
-41 90 -86 30 -27 186 -101 255 -123 57 -17 130 -37 160 -43 11 -2 31 -6 45
-9 14 -3 41 -8 60 -10 19 -3 44 -8 55 -10 19 -4 45 -7 185 -21 83 -9 626 -9
700 0 116 13 198 25 230 33 14 3 34 7 45 9 40 6 259 58 310 74 17 5 49 11 73
14 23 3 46 7 51 11 23 14 235 6 293 -11 9 -3 25 -6 35 -9 125 -25 347 -144
483 -261 53 -44 169 -163 198 -203 15 -20 30 -38 33 -41 13 -10 91 -145 116
-198 77 -168 89 -342 35 -475 -36 -86 -190 -265 -243 -282 -10 -4 -19 -10 -19
-13 0 -4 -21 -19 -47 -32 -27 -14 -50 -28 -53 -32 -10 -13 -141 -69 -243 -103
-292 -98 -575 -115 -872 -51 -62 13 -189 63 -250 98 -116 66 -156 99 -330 267
-126 122 -179 165 -238 191 -82 36 -185 27 -261 -22 -117 -77 -197 -198 -197
-300 0 -46 38 -116 93 -171 52 -52 167 -132 231 -162 18 -8 39 -19 47 -24 44
-29 371 -153 435 -164 11 -2 27 -6 35 -10 19 -7 127 -35 160 -41 14 -3 36 -8
50 -11 14 -3 36 -8 50 -11 14 -2 48 -9 75 -14 28 -5 64 -12 80 -15 17 -3 41
-7 55 -9 14 -3 48 -7 75 -11 28 -3 64 -8 80 -10 32 -5 133 -14 225 -21 162
-11 545 0 646 20 12 2 43 7 70 11 53 6 89 13 89 15 0 1 11 3 25 5 14 2 45 8
70 14 25 7 52 13 60 15 8 2 35 10 60 17 25 7 47 13 50 13 3 1 10 4 15 7 6 4
24 10 40 14 45 12 65 20 164 66 78 36 261 148 261 161 0 4 5 8 11 8 12 0 10
-1 109 95 150 146 265 353 324 582 47 184 64 426 42 603 -64 501 -343 857
-794 1014 -40 14 -82 28 -95 30 -12 3 -33 8 -47 11 -14 4 -45 11 -70 16 -25 4
-56 11 -70 13 -171 35 -642 41 -915 11 -22 -2 -67 -7 -100 -10 -33 -3 -76 -7
-95 -10 -19 -2 -57 -6 -85 -9 -27 -2 -70 -7 -95 -10 -25 -4 -65 -8 -90 -11
-25 -2 -45 -4 -45 -5 0 -2 -28 -5 -129 -14 -44 -5 -88 -9 -97 -11 -90 -18
-451 -26 -544 -12 -198 28 -297 126 -289 286 3 50 9 91 14 99 2 1 3 5 4 10 9
39 22 76 48 131 33 70 107 194 120 199 4 2 8 8 8 13 0 6 5 15 10 22 6 7 24 30
41 52 17 22 47 60 67 85 47 58 325 336 376 375 21 17 48 38 60 48 11 10 30 26
41 35 113 96 464 330 580 387 22 11 42 22 45 26 19 20 490 231 545 243 6 1 53
16 105 34 161 52 353 96 510 118 25 3 54 8 65 10 41 8 224 17 335 17 177 0
312 -10 440 -34 30 -6 69 -13 85 -16 114 -20 277 -97 338 -160 53 -54 66 -81
81 -173 8 -45 -36 -166 -91 -249 -40 -60 -194 -256 -222 -281 -19 -18 -95
-117 -133 -175 -71 -106 -91 -211 -54 -283 20 -38 80 -99 110 -113 12 -5 36
-18 54 -29 17 -11 32 -17 32 -14 0 4 6 2 13 -4 16 -13 143 -52 184 -56 17 -2
35 -6 40 -9 23 -14 251 -23 363 -13 37 3 131 16 150 21 3 1 19 5 35 9 191 50
338 152 398 278 42 86 51 137 51 273 -1 55 -9 136 -18 180 -10 44 -19 90 -22
102 -6 30 -56 164 -88 238 -36 81 -158 295 -168 295 -4 0 -8 5 -8 11 0 8 -89
133 -131 182 -65 79 -173 190 -239 247 -29 25 -57 50 -64 55 -33 28 -96 75
-101 75 -3 0 -15 8 -26 19 -73 68 -396 210 -539 237 -14 2 -31 7 -39 10 -8 2
-30 7 -50 10 -20 3 -47 7 -61 10 -14 3 -38 7 -55 9 -34 6 -403 14 -407 10z"/>
<path d="M1010 5884 c-41 -7 -95 -20 -120 -29 -48 -17 -146 -70 -165 -89 -7
-6 -27 -25 -46 -42 -59 -54 -90 -94 -129 -167 -39 -73 -76 -198 -66 -223 3 -7
2 -15 -2 -18 -15 -9 1 -184 19 -218 6 -10 7 -18 3 -18 -3 0 -2 -6 4 -12 6 -7
11 -17 11 -23 1 -5 15 -39 32 -75 41 -83 169 -212 254 -255 33 -16 62 -30 65
-31 3 0 12 -4 20 -7 68 -29 271 -44 340 -25 8 3 35 10 60 17 90 26 183 83 260
161 44 43 90 105 90 119 0 6 5 11 10 11 6 0 10 9 10 20 0 11 3 20 8 20 4 0 18
35 32 78 34 108 35 268 1 377 -46 151 -175 301 -316 369 -103 49 -120 54 -215
62 -36 3 -69 7 -75 8 -5 1 -44 -3 -85 -10z"/>
</g>
</svg>
