<svg width="110" height="83" viewBox="0 0 110 83" fill="none" xmlns="http://www.w3.org/2000/svg">
<path d="M20.4595 82.944C18.0915 82.944 16.0115 82.752 14.2195 82.368C12.4275 81.984 10.8595 81.056 9.51551 79.584C8.23551 78.112 7.59551 75.84 7.59551 72.768C7.59551 68.48 8.87551 62.72 11.4355 55.488C14.0595 48.256 17.4835 40.992 21.7075 33.696C18.5075 33.888 15.9795 34.368 14.1235 35.136C12.2675 35.904 11.0515 37.088 10.4755 38.688C10.7315 38.688 10.9875 39.008 11.2435 39.648C11.5635 40.288 11.7235 40.96 11.7235 41.664C11.7235 42.816 11.2115 43.744 10.1875 44.448C9.16351 45.088 7.88351 45.408 6.34751 45.408C4.55551 45.408 3.11551 44.928 2.02751 43.968C0.939508 43.008 0.395508 41.632 0.395508 39.84C0.395508 37.664 1.22751 35.68 2.89151 33.888C4.61951 32.096 6.98751 30.688 9.99551 29.664C13.0035 28.576 16.3315 28.032 19.9795 28.032C21.3235 28.032 22.9875 28.128 24.9715 28.32C30.2195 20 35.7555 13.216 41.5795 7.968C47.4675 2.656 53.0675 0 58.3795 0C61.4515 0 63.9795 0.448 65.9635 1.344L50.8915 72H37.0675L44.4595 37.152C42.0915 36.064 39.9155 35.264 37.9315 34.752C35.9475 34.24 33.8355 33.888 31.5955 33.696C27.9475 41.568 24.9395 49.632 22.5715 57.888C20.2675 66.08 19.1155 72.64 19.1155 77.568C19.1155 80 19.5635 81.792 20.4595 82.944ZM50.8915 6.816C48.1395 8.288 45.2595 11.04 42.2515 15.072C39.3075 19.04 36.4275 23.872 33.6115 29.568C38.2195 30.464 42.1235 31.584 45.3235 32.928L50.8915 6.816Z" fill="#282229"/>
<path d="M75.1765 72.576C71.5285 72.576 68.4885 71.328 66.0565 68.832C63.6245 66.336 62.4085 62.432 62.4085 57.12C62.4085 52.384 63.3365 47.424 65.1925 42.24C67.1125 36.992 69.9285 32.576 73.6405 28.992C77.4165 25.344 81.8965 23.52 87.0805 23.52C89.7045 23.52 91.6565 23.968 92.9365 24.864C94.2165 25.76 94.8565 26.944 94.8565 28.416V29.088L95.9125 24H109.737L102.825 56.64C102.569 57.6 102.441 58.624 102.441 59.712C102.441 60.992 102.729 61.92 103.305 62.496C103.945 63.008 104.969 63.264 106.377 63.264C107.273 63.264 107.977 63.136 108.489 62.88C107.081 66.464 105.737 68.992 104.457 70.464C103.177 71.872 101.321 72.576 98.8885 72.576C96.2645 72.576 94.1205 71.808 92.4565 70.272C90.8565 68.672 89.8645 66.464 89.4805 63.648C85.5765 69.6 80.8085 72.576 75.1765 72.576ZM81.4165 63.264C83.0165 63.264 84.5845 62.528 86.1205 61.056C87.7205 59.52 88.8085 57.44 89.3845 54.816L93.9925 33.12C93.9925 32.288 93.6725 31.488 93.0325 30.72C92.3925 29.888 91.4005 29.472 90.0565 29.472C87.4965 29.472 85.1925 30.976 83.1445 33.984C81.0965 36.928 79.4965 40.512 78.3445 44.736C77.1925 48.896 76.6165 52.576 76.6165 55.776C76.6165 58.976 77.0645 61.024 77.9605 61.92C78.9205 62.816 80.0725 63.264 81.4165 63.264Z" fill="#282229"/>
</svg>
