<svg width="113" height="69" viewBox="0 0 113 69" fill="none" xmlns="http://www.w3.org/2000/svg">
<path d="M29.363 8.19221L6.03495 66.1762C5.77895 66.8162 5.42695 67.2962 4.97895 67.6162C4.53095 67.9362 4.01895 68.0962 3.44295 68.0962C2.54695 68.0962 1.87495 67.8722 1.42695 67.4242C0.978953 66.9122 0.722953 66.3042 0.658953 65.6002C0.594953 65.2802 0.626953 64.8962 0.754953 64.4482L26.099 2.43221C26.419 1.72821 26.803 1.24821 27.251 0.992207C27.763 0.672207 28.339 0.512207 28.979 0.512207C29.619 0.512207 30.163 0.704206 30.611 1.08821C31.123 1.40821 31.507 1.8562 31.763 2.43221L57.011 64.1602C57.139 64.5442 57.203 64.9282 57.203 65.3122C57.203 66.2082 56.915 66.9122 56.339 67.4242C55.763 67.8722 55.091 68.0962 54.323 68.0962C53.683 68.0962 53.107 67.9362 52.595 67.6162C52.147 67.2322 51.795 66.7522 51.539 66.1762L27.635 7.8082L29.363 8.19221ZM11.603 48.6082L14.003 42.9442H43.763L44.915 48.6082H11.603Z" fill="#282229"/>
<path d="M109.714 18.9442C110.546 18.9442 111.218 19.2322 111.73 19.8082C112.306 20.3842 112.594 21.0882 112.594 21.9202V65.1202C112.594 65.8882 112.306 66.5602 111.73 67.1362C111.154 67.7122 110.482 68.0002 109.714 68.0002C108.882 68.0002 108.178 67.7122 107.602 67.1362C107.09 66.5602 106.834 65.8882 106.834 65.1202V53.6962L108.466 52.9282C108.466 54.7202 107.954 56.5442 106.93 58.4002C105.97 60.2562 104.626 61.9842 102.898 63.5842C101.17 65.1842 99.1222 66.4962 96.7542 67.5202C94.4502 68.4802 91.9542 68.9602 89.2662 68.9602C84.9142 68.9602 81.0102 67.8402 77.5542 65.6002C74.1622 63.3602 71.4742 60.2882 69.4902 56.3842C67.5702 52.4802 66.6102 48.0962 66.6102 43.2322C66.6102 38.2402 67.6022 33.8562 69.5862 30.0802C71.5702 26.2402 74.2582 23.2322 77.6502 21.0562C81.0422 18.8802 84.8822 17.7922 89.1702 17.7922C91.9222 17.7922 94.4822 18.2722 96.8502 19.2322C99.2822 20.1922 101.394 21.5042 103.186 23.1682C104.978 24.8322 106.354 26.7522 107.314 28.9282C108.338 31.0402 108.85 33.2482 108.85 35.5522L106.834 34.1122V21.9202C106.834 21.0882 107.09 20.3842 107.602 19.8082C108.178 19.2322 108.882 18.9442 109.714 18.9442ZM89.7462 63.5842C93.1382 63.5842 96.1462 62.7202 98.7702 60.9922C101.394 59.2002 103.442 56.7682 104.914 53.6962C106.45 50.5602 107.218 47.0722 107.218 43.2322C107.218 39.4562 106.45 36.0642 104.914 33.0562C103.442 30.0482 101.394 27.6482 98.7702 25.8562C96.1462 24.0642 93.1382 23.1682 89.7462 23.1682C86.4182 23.1682 83.4102 24.0322 80.7222 25.7602C78.0982 27.4882 76.0182 29.8562 74.4822 32.8642C73.0102 35.8722 72.2742 39.3282 72.2742 43.2322C72.2742 47.0722 73.0102 50.5602 74.4822 53.6962C76.0182 56.7682 78.0982 59.2002 80.7222 60.9922C83.3462 62.7202 86.3542 63.5842 89.7462 63.5842Z" fill="#282229"/>
</svg>
