<svg width="363" height="259" viewBox="0 0 363 259" fill="none" xmlns="http://www.w3.org/2000/svg">
<g filter="url(#filter0_d_1414_26)">
<rect x="10" y="10" width="343" height="239" rx="6" fill="#FFFDFF"/>
</g>
<path d="M125.2 165.5C124.467 165.5 123.833 165.367 123.3 165.1C122.833 164.9 122.6 164.5 122.6 163.9C122.6 163.233 122.8 162.767 123.2 162.5C123.667 162.167 124.267 161.9 125 161.7C126.933 161.167 128.6 160.333 130 159.2C131.467 158.067 132.567 156.667 133.3 155C134.967 151.267 136.533 147.6 138 144C139.467 140.333 140.9 136.733 142.3 133.2C143.7 129.6 145.1 125.967 146.5 122.3C147.9 118.567 149.3 114.8 150.7 111C151.7 108.267 152.333 106.3 152.6 105.1C152.867 103.833 153.067 103.1 153.2 102.9C154.4 102.567 155.533 102.267 156.6 102C157.667 101.733 158.8 101.367 160 100.9C161.2 100.433 162.2 99.8332 163 99.0999C163.867 98.3666 164.5 97.7999 164.9 97.3999C165.167 97.1999 165.433 97.0999 165.7 97.0999C165.967 97.0332 166.233 97.2332 166.5 97.6999C166.7 98.0999 166.867 98.5332 167 98.9999C167.2 99.3999 167.367 99.8666 167.5 100.4C168.9 104.867 170.333 109.433 171.8 114.1C173.267 118.7 174.733 123.3 176.2 127.9C177.733 132.5 179.233 137.067 180.7 141.6C182.167 146.067 183.6 150.433 185 154.7C185.4 156.033 186 157.167 186.8 158.1C187.667 159.033 188.633 159.767 189.7 160.3C190.767 160.833 191.967 161.3 193.3 161.7C194.033 161.9 194.6 162.167 195 162.5C195.467 162.767 195.7 163.2 195.7 163.8C195.7 164.267 195.5 164.633 195.1 164.9C194.7 165.167 194.233 165.3 193.7 165.3C192.367 165.3 190.7 165.233 188.7 165.1C186.767 165.033 184.8 164.967 182.8 164.9C180.8 164.833 179.033 164.8 177.5 164.8C176.233 164.8 174.667 164.833 172.8 164.9C171 164.967 169.167 165.033 167.3 165.1C165.433 165.167 163.833 165.2 162.5 165.2C161.9 165.2 161.367 165.1 160.9 164.9C160.5 164.633 160.3 164.267 160.3 163.8C160.3 163.2 160.533 162.733 161 162.4C161.467 162.067 162.033 161.833 162.7 161.7C165.167 161.167 166.967 160.467 168.1 159.6C169.233 158.733 169.6 157.433 169.2 155.7C168.933 154.433 168.6 153.1 168.2 151.7C167.8 150.3 167.4 148.9 167 147.5C166.667 146.033 166.3 144.633 165.9 143.3C165.767 142.767 165.6 142.367 165.4 142.1C165.2 141.833 164.8 141.7 164.2 141.7H146.5C146.033 141.7 145.667 141.833 145.4 142.1C145.133 142.367 144.933 142.8 144.8 143.4C144.533 144.333 144.233 145.267 143.9 146.2C143.567 147.133 143.233 148.067 142.9 149C142.633 149.933 142.367 150.867 142.1 151.8C141.833 152.733 141.567 153.633 141.3 154.5C140.833 156.5 141.033 158.033 141.9 159.1C142.767 160.167 144.633 161.033 147.5 161.7C149.1 162.033 149.9 162.733 149.9 163.8C149.9 164.267 149.7 164.633 149.3 164.9C148.967 165.1 148.4 165.2 147.6 165.2C145.667 165.2 143.867 165.133 142.2 165C140.533 164.933 138.7 164.9 136.7 164.9C134.7 164.9 132.8 165 131 165.2C129.2 165.4 127.267 165.5 125.2 165.5ZM149.3 136.3H162.3C163.3 136.3 163.8 136.067 163.8 135.6C163.8 135.4 163.767 135.233 163.7 135.1C163.7 134.967 163.667 134.8 163.6 134.6L156.9 112C156.7 111.267 156.5 110.9 156.3 110.9C156.167 110.9 155.933 111.267 155.6 112L147.7 134.6C147.567 134.867 147.5 135.133 147.5 135.4C147.5 135.733 147.667 135.967 148 136.1C148.4 136.233 148.833 136.3 149.3 136.3Z" fill="#282229"/>
<path d="M207.873 166.4C206.073 166.4 204.406 165.967 202.873 165.1C201.339 164.233 200.106 163.1 199.173 161.7C198.306 160.3 197.873 158.767 197.873 157.1C197.873 154.833 198.573 152.933 199.973 151.4C201.439 149.867 203.573 148.5 206.373 147.3L215.273 143.4C216.606 142.8 217.406 142.267 217.673 141.8C218.006 141.333 218.173 140.467 218.173 139.2L218.273 133.5C218.339 131.633 218.006 130.167 217.273 129.1C216.539 127.967 215.439 127.4 213.973 127.4C213.106 127.4 212.239 127.6 211.373 128C210.506 128.333 209.839 128.733 209.373 129.2C209.173 129.467 209.006 129.8 208.873 130.2C208.806 130.533 208.773 130.9 208.773 131.3C208.773 131.7 208.806 132.2 208.873 132.8C208.939 133.333 208.973 133.8 208.973 134.2C208.973 134.6 208.439 135.133 207.373 135.8C206.306 136.4 205.073 136.967 203.673 137.5C202.273 137.967 201.073 138.2 200.073 138.2C199.606 138.2 199.173 138 198.773 137.6C198.439 137.2 198.273 136.7 198.273 136.1C198.273 135.033 198.639 134 199.373 133C200.106 131.933 201.306 130.733 202.973 129.4C204.706 127.933 206.606 126.633 208.673 125.5C210.739 124.367 212.773 123.467 214.773 122.8C216.839 122.133 218.573 121.8 219.973 121.8C223.573 121.8 226.439 122.967 228.573 125.3C230.706 127.567 231.706 130.6 231.573 134.4L231.073 154.6C231.006 156.133 231.273 157.433 231.873 158.5C232.473 159.567 233.206 160.1 234.073 160.1C235.339 160.1 236.439 159.667 237.373 158.8C237.573 158.6 237.773 158.5 237.973 158.5C238.306 158.5 238.573 158.6 238.773 158.8C239.039 159 239.173 159.267 239.173 159.6C239.173 160.4 238.573 161.433 237.373 162.7C236.106 163.9 234.773 164.8 233.373 165.4C231.973 166.067 230.506 166.4 228.973 166.4C225.239 166.4 222.139 164.5 219.673 160.7H219.473C217.273 162.7 215.273 164.133 213.473 165C211.739 165.933 209.873 166.4 207.873 166.4ZM213.873 159.9C214.606 159.9 215.206 159.8 215.673 159.6C216.139 159.333 216.606 158.933 217.073 158.4C217.273 158.133 217.439 157.8 217.573 157.4C217.706 156.933 217.773 156.4 217.773 155.8L218.073 148.6C218.073 147.933 217.973 147.5 217.773 147.3C217.573 147.1 217.339 147 217.073 147C216.939 147 216.773 147.033 216.573 147.1C216.373 147.167 216.139 147.267 215.873 147.4C213.939 148.333 212.506 149.3 211.573 150.3C210.639 151.233 210.173 152.767 210.173 154.9C210.173 156.833 210.573 158.167 211.373 158.9C212.173 159.567 213.006 159.9 213.873 159.9Z" fill="#282229"/>
<defs>
<filter id="filter0_d_1414_26" x="0" y="0" width="363" height="259" filterUnits="userSpaceOnUse" color-interpolation-filters="sRGB">
<feFlood flood-opacity="0" result="BackgroundImageFix"/>
<feColorMatrix in="SourceAlpha" type="matrix" values="0 0 0 0 0 0 0 0 0 0 0 0 0 0 0 0 0 0 127 0" result="hardAlpha"/>
<feOffset/>
<feGaussianBlur stdDeviation="5"/>
<feComposite in2="hardAlpha" operator="out"/>
<feColorMatrix type="matrix" values="0 0 0 0 0.953831 0 0 0 0 0.926389 0 0 0 0 0.958333 0 0 0 1 0"/>
<feBlend mode="normal" in2="BackgroundImageFix" result="effect1_dropShadow_1414_26"/>
<feBlend mode="normal" in="SourceGraphic" in2="effect1_dropShadow_1414_26" result="shape"/>
</filter>
</defs>
</svg>
