<svg width="363" height="259" viewBox="0 0 363 259" fill="none" xmlns="http://www.w3.org/2000/svg">
<g filter="url(#filter0_d_1414_29)">
<rect x="10" y="10" width="343" height="239" rx="6" fill="#FFFDFF"/>
</g>
<path d="M118.7 161C117.166 161 116.066 160.367 115.4 159.1C114.733 157.833 114.666 156.6 115.2 155.4L144.6 85.5999C145.333 83.7999 146.6 82.8999 148.4 82.8999C150.133 82.8999 151.366 83.7999 152.1 85.5999L181.6 155.5C182.2 156.767 182.1 158 181.3 159.2C180.566 160.4 179.5 161 178.1 161C177.3 161 176.566 160.8 175.9 160.4C175.3 160 174.8 159.4 174.4 158.6L146.9 91.8999H150L122.3 158.6C121.966 159.4 121.466 160 120.8 160.4C120.2 160.8 119.5 161 118.7 161ZM125.3 142.4L128.3 135.7H168.9L171.9 142.4H125.3Z" fill="#282229"/>
<path d="M214.459 161.5C209.326 161.5 204.726 160.3 200.659 157.9C196.593 155.433 193.359 152.1 190.959 147.9C188.626 143.7 187.459 138.967 187.459 133.7C187.459 128.367 188.659 123.6 191.059 119.4C193.526 115.2 196.859 111.9 201.059 109.5C205.259 107.033 209.993 105.8 215.259 105.8C220.526 105.8 225.226 107.033 229.359 109.5C233.559 111.9 236.859 115.2 239.259 119.4C241.726 123.6 242.993 128.367 243.059 133.7L239.959 136.1C239.959 140.9 238.826 145.233 236.559 149.1C234.359 152.9 231.326 155.933 227.459 158.2C223.659 160.4 219.326 161.5 214.459 161.5ZM215.259 154.5C219.126 154.5 222.559 153.6 225.559 151.8C228.626 150 231.026 147.533 232.759 144.4C234.559 141.2 235.459 137.633 235.459 133.7C235.459 129.7 234.559 126.133 232.759 123C231.026 119.867 228.626 117.4 225.559 115.6C222.559 113.733 219.126 112.8 215.259 112.8C211.459 112.8 208.026 113.733 204.959 115.6C201.893 117.4 199.459 119.867 197.659 123C195.859 126.133 194.959 129.7 194.959 133.7C194.959 137.633 195.859 141.2 197.659 144.4C199.459 147.533 201.893 150 204.959 151.8C208.026 153.6 211.459 154.5 215.259 154.5ZM239.159 161C238.026 161 237.093 160.667 236.359 160C235.626 159.267 235.259 158.333 235.259 157.2V140.1L237.159 132.2L243.059 133.7V157.2C243.059 158.333 242.693 159.267 241.959 160C241.226 160.667 240.293 161 239.159 161Z" fill="#282229"/>
<defs>
<filter id="filter0_d_1414_29" x="0" y="0" width="363" height="259" filterUnits="userSpaceOnUse" color-interpolation-filters="sRGB">
<feFlood flood-opacity="0" result="BackgroundImageFix"/>
<feColorMatrix in="SourceAlpha" type="matrix" values="0 0 0 0 0 0 0 0 0 0 0 0 0 0 0 0 0 0 127 0" result="hardAlpha"/>
<feOffset/>
<feGaussianBlur stdDeviation="5"/>
<feComposite in2="hardAlpha" operator="out"/>
<feColorMatrix type="matrix" values="0 0 0 0 0.953831 0 0 0 0 0.926389 0 0 0 0 0.958333 0 0 0 1 0"/>
<feBlend mode="normal" in2="BackgroundImageFix" result="effect1_dropShadow_1414_29"/>
<feBlend mode="normal" in="SourceGraphic" in2="effect1_dropShadow_1414_29" result="shape"/>
</filter>
</defs>
</svg>
