<svg width="705" height="319" viewBox="0 0 705 319" fill="none" xmlns="http://www.w3.org/2000/svg">
<g clip-path="url(#clip0_1350_19)">
<path d="M343.3 283.4C364.591 283.4 381.85 274.253 381.85 262.97C381.85 251.687 364.591 242.54 343.3 242.54C322.009 242.54 304.75 251.687 304.75 262.97C304.75 274.253 322.009 283.4 343.3 283.4Z" fill="#1E73E4"/>
<path d="M328.31 252.04C330.9 252.04 333 250.925 333 249.55C333 248.175 330.9 247.06 328.31 247.06C325.72 247.06 323.62 248.175 323.62 249.55C323.62 250.925 325.72 252.04 328.31 252.04Z" fill="#73BBEF"/>
<path opacity="0.3" d="M357.73 251.02C359.785 251.02 361.45 250.138 361.45 249.05C361.45 247.962 359.785 247.08 357.73 247.08C355.676 247.08 354.01 247.962 354.01 249.05C354.01 250.138 355.676 251.02 357.73 251.02Z" fill="#164F8E"/>
<path d="M320.92 260.44C322.925 260.44 324.55 259.576 324.55 258.51C324.55 257.444 322.925 256.58 320.92 256.58C318.915 256.58 317.29 257.444 317.29 258.51C317.29 259.576 318.915 260.44 320.92 260.44Z" fill="#164F8E"/>
<path d="M343.74 262.91C345.121 262.91 346.24 262.315 346.24 261.58C346.24 260.845 345.121 260.25 343.74 260.25C342.359 260.25 341.24 260.845 341.24 261.58C341.24 262.315 342.359 262.91 343.74 262.91Z" fill="#164F8E"/>
<path d="M352.77 259.09C353.731 259.09 354.51 258.678 354.51 258.17C354.51 257.662 353.731 257.25 352.77 257.25C351.809 257.25 351.03 257.662 351.03 258.17C351.03 258.678 351.809 259.09 352.77 259.09Z" fill="#164F8E"/>
<path d="M373.19 258.51C374.836 258.51 376.17 257.803 376.17 256.93C376.17 256.057 374.836 255.35 373.19 255.35C371.544 255.35 370.21 256.057 370.21 256.93C370.21 257.803 371.544 258.51 373.19 258.51Z" fill="#164F8E"/>
<path d="M365.31 262.92C366.707 262.92 367.84 262.32 367.84 261.58C367.84 260.84 366.707 260.24 365.31 260.24C363.913 260.24 362.78 260.84 362.78 261.58C362.78 262.32 363.913 262.92 365.31 262.92Z" fill="#164F8E"/>
<path opacity="0.4" d="M316.44 262.68C317.583 262.68 318.51 262.187 318.51 261.58C318.51 260.972 317.583 260.48 316.44 260.48C315.297 260.48 314.37 260.972 314.37 261.58C314.37 262.187 315.297 262.68 316.44 262.68Z" fill="#164F8E"/>
<path d="M335.43 253.72C336.595 253.72 337.54 253.219 337.54 252.6C337.54 251.981 336.595 251.48 335.43 251.48C334.265 251.48 333.32 251.981 333.32 252.6C333.32 253.219 334.265 253.72 335.43 253.72Z" fill="#73BBEF"/>
<path opacity="0.3" d="M359.57 253.72C360.735 253.72 361.68 253.219 361.68 252.6C361.68 251.981 360.735 251.48 359.57 251.48C358.405 251.48 357.46 251.981 357.46 252.6C357.46 253.219 358.405 253.72 359.57 253.72Z" fill="#164F8E"/>
<path opacity="0.3" d="M364.24 251.49C365.234 251.49 366.04 251.06 366.04 250.53C366.04 250 365.234 249.57 364.24 249.57C363.246 249.57 362.44 250 362.44 250.53C362.44 251.06 363.246 251.49 364.24 251.49Z" fill="#164F8E"/>
<path opacity="0.5" d="M326.96 249.24C327.706 249.24 328.31 248.922 328.31 248.53C328.31 248.138 327.706 247.82 326.96 247.82C326.214 247.82 325.61 248.138 325.61 248.53C325.61 248.922 326.214 249.24 326.96 249.24Z" fill="#164F8E"/>
<path d="M365.05 264.23H321.55C318.998 264.23 316.93 266.298 316.93 268.85V274.97C316.93 277.522 318.998 279.59 321.55 279.59H365.05C367.602 279.59 369.67 277.522 369.67 274.97V268.85C369.67 266.298 367.602 264.23 365.05 264.23Z" fill="#1B61AF"/>
<path d="M326.8 278.32C330.34 278.32 333.21 275.45 333.21 271.91C333.21 268.37 330.34 265.5 326.8 265.5C323.26 265.5 320.39 268.37 320.39 271.91C320.39 275.45 323.26 278.32 326.8 278.32Z" fill="#624689"/>
<path d="M326.8 276.74C329.468 276.74 331.63 274.578 331.63 271.91C331.63 269.242 329.468 267.08 326.8 267.08C324.132 267.08 321.97 269.242 321.97 271.91C321.97 274.578 324.132 276.74 326.8 276.74Z" fill="#F1E9F4"/>
<path d="M326.8 276C329.059 276 330.89 274.169 330.89 271.91C330.89 269.651 329.059 267.82 326.8 267.82C324.541 267.82 322.71 269.651 322.71 271.91C322.71 274.169 324.541 276 326.8 276Z" fill="#29160D"/>
<path d="M361.1 278.32C364.64 278.32 367.51 275.45 367.51 271.91C367.51 268.37 364.64 265.5 361.1 265.5C357.56 265.5 354.69 268.37 354.69 271.91C354.69 275.45 357.56 278.32 361.1 278.32Z" fill="#624689"/>
<path d="M361.1 276.74C363.768 276.74 365.93 274.578 365.93 271.91C365.93 269.242 363.768 267.08 361.1 267.08C358.432 267.08 356.27 269.242 356.27 271.91C356.27 274.578 358.432 276.74 361.1 276.74Z" fill="#F1E9F4"/>
<path d="M361.1 276.12C363.425 276.12 365.31 274.235 365.31 271.91C365.31 269.585 363.425 267.7 361.1 267.7C358.775 267.7 356.89 269.585 356.89 271.91C356.89 274.235 358.775 276.12 361.1 276.12Z" fill="#29160D"/>
<path d="M206 199.6L178.8 202.4C182.26 177.07 184 160 184 151.2C184 130.67 172.8 120.4 150.4 120.4C146.66 120.4 142.13 120.67 136.8 121.2C137.33 130.27 137.6 140.94 137.6 153.2C137.6 165.46 135.73 183.2 132 206.4C104.26 208.54 76 210 47.2 210.8C56.8 193.74 70.46 172 88.2 145.6C105.93 119.2 119.66 97.54 129.4 80.6C139.13 63.67 144 51.54 144 44.2C144 36.86 142.6 30.8 139.8 26C137 21.2 133.86 17.4 130.4 14.6C126.93 11.8 122.46 8.8 117 5.6C111.53 2.4 107.6 0.54 105.2 0C100.13 24.8 90 51.87 74.8 81.2C65.73 98.54 58.93 111.34 54.4 119.6C49.86 127.87 40.53 143.87 26.4 167.6C12.26 191.34 4.33 204.67 2.6 207.6C0.86 210.54 0 213.07 0 215.2C0 229.07 3.46 239.74 10.4 247.2L123.6 251.6C120.4 267.6 118.8 277.6 118.8 281.6C118.8 292 122 300.6 128.4 307.4C134.8 314.2 145.06 317.6 159.2 317.6C163.73 317.6 168.93 317.33 174.8 316.8C173.2 309.33 172.4 298.07 172.4 283C172.4 267.93 172.53 257.87 172.8 252.8H177.2C198.26 252.8 208.8 242 208.8 220.4C208.8 213.2 207.86 206.27 206 199.6Z" fill="#AB2BC0"/>
<path d="M306.79 251.4C305.01 247.53 303.43 243.39 302.03 238.99C301.65 248.5 296.36 260.39 291.52 271.28C288.04 279.08 284.73 286.51 283.06 293.16C285.67 295.41 288.33 297.46 291.03 299.3C291.66 293.57 295.08 285.4 299.74 274.94C302.75 268.18 305.9 261.09 308.12 254.12C307.66 253.24 307.22 252.33 306.79 251.4ZM267.1 181.43C257.46 184.21 248.51 186.79 242.08 190.2C242.16 193.73 242.32 197.19 242.55 200.57C246.95 196.61 260.76 192.62 269.59 190.07C278.82 187.41 287.81 184.82 294.39 181.4V180.2C294.39 176.95 294.48 173.72 294.66 170.5C290.61 174.64 276.28 178.77 267.1 181.43ZM457.64 93.49C453.1 94.7 442.91 97.57 432.11 101.6C420.38 105.98 411.58 110.33 405.59 114.75C406.03 118.25 406.39 121.91 406.69 125.74C414.09 116.8 440.87 107.22 459.2 102.37C458.75 99.34 458.23 96.38 457.64 93.49ZM277.51 119.95C267.06 119.48 257.32 119.04 250.07 120.12C249.18 123.29 248.37 126.5 247.64 129.76C252.66 127.83 268.28 128.54 277.1 128.94C285.32 129.31 293.07 129.67 299.19 129.21C299.95 129.15 300.95 129.08 302.08 128.93C303.05 125.82 304.1 122.72 305.25 119.64C305.27 119.59 305.28 119.55 305.3 119.5C305.32 119.44 305.34 119.39 305.36 119.33L304.24 119.27C300.46 120.99 286.22 120.35 277.51 119.95ZM379.62 258.31C377.27 261.46 374.8 264.24 372.21 266.63C378.19 267.28 388.31 268.17 399.23 268.17C406.86 268.17 414.87 267.73 422.14 266.49C424.73 263.01 427.14 259.37 429.38 255.56C417.45 259.64 396.6 259.71 379.62 258.31ZM458.7 168.92C456.05 171.37 444.03 173.91 435.92 175.62C424.76 177.97 413.39 180.37 405.54 184.52C404.98 188.89 404.29 193.19 403.49 197.4L404.5 197.59C405.81 191.16 424.96 187.12 437.78 184.42C445.32 182.84 451.92 181.44 457.02 179.64C457.66 176.1 458.22 172.53 458.71 168.92H458.7Z" fill="#AB2BC0"/>
<path d="M457.64 93.49C453.1 94.7 442.91 97.57 432.11 101.6C420.38 105.98 411.58 110.33 405.59 114.75C403.71 99.67 400.51 87.69 395.99 78.8C388.26 63.6 378.53 56 366.79 56C347.33 56 330.39 69.34 315.99 96C313.54 100.53 311.3 105.1 309.28 109.72C307.86 112.9 306.57 116.11 305.36 119.33L304.24 119.27C300.46 120.99 286.22 120.35 277.51 119.95C267.06 119.48 257.32 119.04 250.07 120.12C254.06 105.67 259.58 92.2 266.59 79.69C267.24 78.52 267.91 77.35 268.59 76.2C269.46 74.73 270.35 73.28 271.25 71.86C288.64 44.35 311.15 26.66 338.79 18.8C345.72 18.8 349.46 24.4 349.99 35.6C365.19 28.94 378.92 25.6 391.19 25.6C413.59 25.6 430.86 35.47 442.99 55.2C449.77 66.22 454.65 78.98 457.64 93.49Z" fill="#AB2BC0"/>
<path d="M302.08 128.93C299.45 137.46 297.49 146.11 296.22 154.89C295.67 158.6 295.25 162.34 294.95 166.1C294.83 167.56 294.73 169.03 294.66 170.5C290.61 174.64 276.28 178.77 267.1 181.43C257.46 184.21 248.51 186.79 242.08 190.2C242.02 187.96 241.99 185.7 241.99 183.4C241.99 168.6 243.12 154.54 245.38 141.2C245.94 137.88 246.57 134.61 247.28 131.39C247.39 130.85 247.51 130.3 247.64 129.76C252.66 127.83 268.28 128.54 277.1 128.94C285.32 129.31 293.07 129.67 299.19 129.21C299.95 129.15 300.95 129.08 302.08 128.93Z" fill="#AB2BC0"/>
<path d="M302.03 238.99C301.65 248.5 296.36 260.39 291.52 271.28C288.04 279.08 284.73 286.51 283.06 293.16C278.29 289.05 273.67 284.26 269.19 278.8C255.85 262.52 247.41 241 243.9 214.24C243.48 211.13 243.14 207.95 242.87 204.7C242.74 203.34 242.64 201.96 242.55 200.57C246.95 196.61 260.76 192.62 269.59 190.07C278.82 187.41 287.81 184.82 294.39 181.4C294.44 193.17 295.15 204.02 296.54 213.95C297.21 218.8 298.04 223.43 299.04 227.84C299.91 231.73 300.91 235.45 302.03 238.99Z" fill="#AB2BC0"/>
<path d="M422.14 266.49C413.61 278.01 403.22 287.71 390.99 295.6C374.06 306.53 354.06 312 330.99 312C326.27 312 321.65 311.54 317.13 310.6C313.55 309.87 310.03 308.84 306.58 307.52C301.24 305.48 296.06 302.75 291.03 299.3C291.66 293.57 295.08 285.4 299.74 274.94C302.75 268.18 305.9 261.09 308.12 254.12C313.01 263.79 319.16 270.57 326.55 274.45C329.21 275.86 332.03 276.89 335.01 277.54C337.61 278.11 340.34 278.4 343.19 278.4C354.11 278.4 363.78 274.48 372.21 266.63C378.19 267.28 388.31 268.17 399.23 268.17C406.86 268.17 414.87 267.73 422.14 266.49Z" fill="#AB2BC0"/>
<path d="M461.19 131.2C461.19 140.5 460.76 149.61 459.9 158.51C459.58 162.01 459.18 165.48 458.71 168.92H458.7C456.05 171.37 444.03 173.91 435.92 175.62C424.76 177.97 413.39 180.37 405.54 184.52C406.91 174 407.59 163.03 407.59 151.6C407.59 148.68 407.56 145.83 407.5 143.05C407.42 139.05 407.27 135.19 407.06 131.48C406.95 129.53 406.83 127.62 406.69 125.74C414.09 116.8 440.87 107.22 459.2 102.37C460.53 111.37 461.19 120.98 461.19 131.2Z" fill="#AB2BC0"/>
<path d="M457.02 179.64C453.58 198.88 447.99 217.12 440.26 234.35C438.92 237.34 437.52 240.31 436.04 243.24C434.5 246.33 432.88 249.38 431.19 252.4C430.6 253.47 430 254.52 429.38 255.56C417.45 259.64 396.6 259.71 379.62 258.31C383.46 253.19 386.98 247.08 390.19 240C394.38 230.75 397.81 221 400.49 210.74C401.63 206.39 402.63 201.94 403.49 197.4L404.5 197.59C405.81 191.16 424.96 187.12 437.78 184.42C445.32 182.84 451.92 181.44 457.02 179.64Z" fill="#AB2BC0"/>
<path d="M701.99 199.6L674.79 202.4C678.25 177.07 679.99 160 679.99 151.2C679.99 130.67 668.79 120.4 646.39 120.4C642.65 120.4 638.12 120.67 632.79 121.2C633.32 130.27 633.59 140.94 633.59 153.2C633.59 165.46 631.72 183.2 627.99 206.4C600.25 208.54 571.99 210 543.19 210.8C552.79 193.74 566.45 172 584.19 145.6C601.92 119.2 615.65 97.54 625.39 80.6C635.12 63.67 639.99 51.54 639.99 44.2C639.99 36.86 638.59 30.8 635.79 26C632.99 21.2 629.85 17.4 626.39 14.6C622.92 11.8 618.45 8.8 612.99 5.6C607.52 2.4 603.59 0.54 601.19 0C596.12 24.8 585.99 51.87 570.79 81.2C561.72 98.54 554.92 111.34 550.39 119.6C545.85 127.87 536.52 143.87 522.39 167.6C508.25 191.34 500.32 204.67 498.59 207.6C496.85 210.54 495.99 213.07 495.99 215.2C495.99 229.07 499.45 239.74 506.39 247.2L619.59 251.6C616.39 267.6 614.79 277.6 614.79 281.6C614.79 292 617.99 300.6 624.39 307.4C630.79 314.2 641.06 317.6 655.19 317.6C659.72 317.6 664.92 317.33 670.79 316.8C669.19 309.33 668.39 298.07 668.39 283C668.39 267.93 668.52 257.87 668.79 252.8H673.19C694.25 252.8 704.79 242 704.79 220.4C704.79 213.2 703.85 206.27 701.99 199.6Z" fill="#AB2BC0"/>
<path d="M444.21 256.6C439.85 261.85 431.64 264.87 422.14 266.49C414.87 267.73 406.86 268.17 399.23 268.17C388.31 268.17 378.19 267.28 372.21 266.63C374.8 264.24 377.27 261.46 379.62 258.31C396.6 259.71 417.45 259.64 429.38 255.56C432.91 254.37 435.66 252.82 437.29 250.85C438.31 249.62 438.38 248.72 438.3 248C438.15 246.58 437.34 244.97 436.04 243.24C437.52 240.31 438.92 237.34 440.26 234.35C444.15 238.51 446.81 242.72 447.26 247.08C447.61 250.49 446.55 253.79 444.21 256.6Z" fill="#1E73E4"/>
<path d="M462.28 101.58C461.28 101.83 460.26 102.09 459.2 102.37C440.87 107.22 414.09 116.8 406.69 125.74C406.03 126.53 405.53 127.31 405.2 128.09C404.92 128.74 405.47 129.92 407.06 131.48C407.27 135.19 407.42 139.05 407.5 143.05C403.77 140.7 392.96 133.82 396.93 124.54C398.35 121.22 401.22 117.97 405.59 114.75C411.58 110.33 420.38 105.98 432.11 101.6C442.91 97.57 453.1 94.7 457.64 93.49C459.1 93.1 459.97 92.88 460.11 92.85C462.52 92.25 464.96 93.72 465.56 96.13C466.16 98.54 464.69 100.98 462.28 101.58Z" fill="#1E73E4"/>
<path d="M467.89 169.98C467.3 174.58 463.31 177.42 457.02 179.64C451.92 181.44 445.32 182.84 437.78 184.42C424.96 187.12 404.87 190.58 403.56 197.01L403.49 197.4C402.63 201.94 401.63 206.39 400.49 210.74C397.29 206.65 395.34 202.45 395.43 198.03C395.55 191.96 399.5 187.72 405.54 184.52C413.39 180.37 424.76 177.97 435.92 175.62C444.03 173.91 456.05 171.37 458.7 168.92H458.71C459.18 165.48 459.58 162.01 459.9 158.51C465.47 162.04 468.45 165.61 467.89 169.98Z" fill="#1E73E4"/>
<path d="M304.58 166.4C305.8 173.1 301.5 177.73 294.39 181.4C287.81 184.82 278.82 187.41 269.59 190.07C260.76 192.62 246.95 196.61 242.55 200.57C241.69 201.34 241.19 202.11 241.15 202.87C241.12 203.53 241.27 203.7 241.36 203.8C241.68 204.15 242.2 204.44 242.87 204.7C243.14 207.95 243.48 211.13 243.9 214.24C239.99 213.5 236.86 212.2 234.73 209.88C232.92 207.9 232.03 205.33 232.16 202.45C232.41 197.15 236.19 193.33 242.08 190.2C248.51 186.79 257.46 184.21 267.1 181.43C276.28 178.77 290.61 174.64 294.66 170.5C295.48 169.66 295.88 168.83 295.73 168C295.61 167.37 295.35 166.73 294.95 166.1C295.25 162.34 295.67 158.6 296.22 154.89C300.67 158.16 303.76 161.9 304.58 166.4Z" fill="#1E73E4"/>
<path d="M260.75 69.06C262.31 67.13 265.14 66.83 267.08 68.39C267.12 68.43 268.7 69.71 271.25 71.86C270.35 73.28 269.46 74.73 268.59 76.2C267.91 77.35 267.24 78.52 266.59 79.69C263.46 77.05 261.46 75.42 261.42 75.39C259.48 73.82 259.19 70.99 260.75 69.06Z" fill="#1E73E4"/>
<path d="M313.33 120.61C312.87 126.66 306.52 128.35 302.08 128.93C300.95 129.08 299.95 129.15 299.19 129.21C293.07 129.67 285.32 129.31 277.1 128.94C268.28 128.54 252.66 127.83 247.64 129.76C247.17 129.94 246.79 130.14 246.52 130.37C246.6 130.56 246.8 130.9 247.28 131.39C246.57 134.61 245.94 137.88 245.38 141.2C240.12 137.88 236.98 134.11 237.52 129.22C238.13 123.73 242.88 121.18 250.07 120.12C257.32 119.04 267.06 119.48 277.51 119.95C286.22 120.35 301.52 121.22 305.3 119.5L305.36 119.33C306.57 116.11 307.86 112.9 309.28 109.72C312.94 115.14 313.51 118.32 313.33 120.61Z" fill="#1E73E4"/>
<path d="M317.13 310.6C314.79 312.92 312.22 314.85 309.42 316.18C306.5 317.57 303.52 318.26 300.49 318.26C297.46 318.26 294.26 317.54 291.1 316.09C285.94 313.73 280.24 308.36 282.39 296.22C282.57 295.22 282.79 294.2 283.06 293.16C284.73 286.51 288.04 279.08 291.52 271.28C296.36 260.39 301.65 248.5 302.03 238.99C302.21 234.77 301.42 231.02 299.19 228.03C299.14 227.96 299.09 227.9 299.04 227.84C298.04 223.43 297.21 218.8 296.54 213.95C300.28 216.11 303.64 218.93 306.41 222.65C312.9 231.35 311.8 242.56 308.12 254.12C305.9 261.09 302.75 268.18 299.74 274.94C295.08 285.4 291.66 293.57 291.03 299.3C290.56 303.54 291.62 306.43 294.84 307.91C298.62 309.64 302.12 309.68 305.56 308.05C305.9 307.89 306.24 307.71 306.58 307.52C310.03 308.84 313.55 309.87 317.13 310.6Z" fill="#1E73E4"/>
<path d="M288.85 293.16C290.794 293.16 292.37 291.584 292.37 289.64C292.37 287.696 290.794 286.12 288.85 286.12C286.906 286.12 285.33 287.696 285.33 289.64C285.33 291.584 286.906 293.16 288.85 293.16Z" fill="#135689"/>
<path d="M288.85 291.66C289.966 291.66 290.87 290.756 290.87 289.64C290.87 288.524 289.966 287.62 288.85 287.62C287.734 287.62 286.83 288.524 286.83 289.64C286.83 290.756 287.734 291.66 288.85 291.66Z" fill="#64AFF2"/>
<path d="M388.07 266.77C390.014 266.77 391.59 265.194 391.59 263.25C391.59 261.306 390.014 259.73 388.07 259.73C386.126 259.73 384.55 261.306 384.55 263.25C384.55 265.194 386.126 266.77 388.07 266.77Z" fill="#135689"/>
<path d="M388.07 265.27C389.186 265.27 390.09 264.366 390.09 263.25C390.09 262.134 389.186 261.23 388.07 261.23C386.954 261.23 386.05 262.134 386.05 263.25C386.05 264.366 386.954 265.27 388.07 265.27Z" fill="#64AFF2"/>
<path d="M403.85 267.24C405.794 267.24 407.37 265.664 407.37 263.72C407.37 261.776 405.794 260.2 403.85 260.2C401.906 260.2 400.33 261.776 400.33 263.72C400.33 265.664 401.906 267.24 403.85 267.24Z" fill="#135689"/>
<path d="M403.85 265.74C404.966 265.74 405.87 264.836 405.87 263.72C405.87 262.604 404.966 261.7 403.85 261.7C402.734 261.7 401.83 262.604 401.83 263.72C401.83 264.836 402.734 265.74 403.85 265.74Z" fill="#64AFF2"/>
<path d="M417.74 266.17C419.684 266.17 421.26 264.594 421.26 262.65C421.26 260.706 419.684 259.13 417.74 259.13C415.796 259.13 414.22 260.706 414.22 262.65C414.22 264.594 415.796 266.17 417.74 266.17Z" fill="#135689"/>
<path d="M417.74 264.67C418.856 264.67 419.76 263.766 419.76 262.65C419.76 261.534 418.856 260.63 417.74 260.63C416.624 260.63 415.72 261.534 415.72 262.65C415.72 263.766 416.624 264.67 417.74 264.67Z" fill="#64AFF2"/>
<path d="M416.54 188.15C418.484 188.15 420.06 186.574 420.06 184.63C420.06 182.686 418.484 181.11 416.54 181.11C414.596 181.11 413.02 182.686 413.02 184.63C413.02 186.574 414.596 188.15 416.54 188.15Z" fill="#135689"/>
<path d="M416.54 186.65C417.656 186.65 418.56 185.746 418.56 184.63C418.56 183.514 417.656 182.61 416.54 182.61C415.424 182.61 414.52 183.514 414.52 184.63C414.52 185.746 415.424 186.65 416.54 186.65Z" fill="#64AFF2"/>
<path d="M431.42 184.62C433.364 184.62 434.94 183.044 434.94 181.1C434.94 179.156 433.364 177.58 431.42 177.58C429.476 177.58 427.9 179.156 427.9 181.1C427.9 183.044 429.476 184.62 431.42 184.62Z" fill="#135689"/>
<path d="M431.42 183.12C432.536 183.12 433.44 182.216 433.44 181.1C433.44 179.984 432.536 179.08 431.42 179.08C430.304 179.08 429.4 179.984 429.4 181.1C429.4 182.216 430.304 183.12 431.42 183.12Z" fill="#64AFF2"/>
<path d="M446.54 181.43C448.484 181.43 450.06 179.854 450.06 177.91C450.06 175.966 448.484 174.39 446.54 174.39C444.596 174.39 443.02 175.966 443.02 177.91C443.02 179.854 444.596 181.43 446.54 181.43Z" fill="#135689"/>
<path d="M446.54 179.93C447.656 179.93 448.56 179.026 448.56 177.91C448.56 176.794 447.656 175.89 446.54 175.89C445.424 175.89 444.52 176.794 444.52 177.91C444.52 179.026 445.424 179.93 446.54 179.93Z" fill="#64AFF2"/>
<path d="M417.01 116.66C418.954 116.66 420.53 115.084 420.53 113.14C420.53 111.196 418.954 109.62 417.01 109.62C415.066 109.62 413.49 111.196 413.49 113.14C413.49 115.084 415.066 116.66 417.01 116.66Z" fill="#135689"/>
<path d="M417.01 115.16C418.126 115.16 419.03 114.256 419.03 113.14C419.03 112.024 418.126 111.12 417.01 111.12C415.894 111.12 414.99 112.024 414.99 113.14C414.99 114.256 415.894 115.16 417.01 115.16Z" fill="#64AFF2"/>
<path d="M432.27 109.93C434.214 109.93 435.79 108.354 435.79 106.41C435.79 104.466 434.214 102.89 432.27 102.89C430.326 102.89 428.75 104.466 428.75 106.41C428.75 108.354 430.326 109.93 432.27 109.93Z" fill="#135689"/>
<path d="M432.27 108.43C433.386 108.43 434.29 107.526 434.29 106.41C434.29 105.294 433.386 104.39 432.27 104.39C431.154 104.39 430.25 105.294 430.25 106.41C430.25 107.526 431.154 108.43 432.27 108.43Z" fill="#64AFF2"/>
<path d="M447.54 104.4C449.484 104.4 451.06 102.824 451.06 100.88C451.06 98.936 449.484 97.36 447.54 97.36C445.596 97.36 444.02 98.936 444.02 100.88C444.02 102.824 445.596 104.4 447.54 104.4Z" fill="#135689"/>
<path d="M447.54 102.9C448.656 102.9 449.56 101.996 449.56 100.88C449.56 99.7644 448.656 98.86 447.54 98.86C446.424 98.86 445.52 99.7644 445.52 100.88C445.52 101.996 446.424 102.9 447.54 102.9Z" fill="#64AFF2"/>
<path d="M293.1 282.17C295.044 282.17 296.62 280.594 296.62 278.65C296.62 276.706 295.044 275.13 293.1 275.13C291.156 275.13 289.58 276.706 289.58 278.65C289.58 280.594 291.156 282.17 293.1 282.17Z" fill="#135689"/>
<path d="M293.1 280.67C294.216 280.67 295.12 279.766 295.12 278.65C295.12 277.534 294.216 276.63 293.1 276.63C291.984 276.63 291.08 277.534 291.08 278.65C291.08 279.766 291.984 280.67 293.1 280.67Z" fill="#64AFF2"/>
<path d="M297.99 271.19C299.934 271.19 301.51 269.614 301.51 267.67C301.51 265.726 299.934 264.15 297.99 264.15C296.046 264.15 294.47 265.726 294.47 267.67C294.47 269.614 296.046 271.19 297.99 271.19Z" fill="#135689"/>
<path d="M297.99 269.69C299.106 269.69 300.01 268.786 300.01 267.67C300.01 266.554 299.106 265.65 297.99 265.65C296.874 265.65 295.97 266.554 295.97 267.67C295.97 268.786 296.874 269.69 297.99 269.69Z" fill="#64AFF2"/>
<path d="M253.86 193.72C255.804 193.72 257.38 192.144 257.38 190.2C257.38 188.256 255.804 186.68 253.86 186.68C251.916 186.68 250.34 188.256 250.34 190.2C250.34 192.144 251.916 193.72 253.86 193.72Z" fill="#135689"/>
<path d="M253.86 192.22C254.976 192.22 255.88 191.316 255.88 190.2C255.88 189.084 254.976 188.18 253.86 188.18C252.744 188.18 251.84 189.084 251.84 190.2C251.84 191.316 252.744 192.22 253.86 192.22Z" fill="#64AFF2"/>
<path d="M268.51 189.22C270.454 189.22 272.03 187.644 272.03 185.7C272.03 183.756 270.454 182.18 268.51 182.18C266.566 182.18 264.99 183.756 264.99 185.7C264.99 187.644 266.566 189.22 268.51 189.22Z" fill="#135689"/>
<path d="M268.51 187.72C269.626 187.72 270.53 186.816 270.53 185.7C270.53 184.584 269.626 183.68 268.51 183.68C267.394 183.68 266.49 184.584 266.49 185.7C266.49 186.816 267.394 187.72 268.51 187.72Z" fill="#64AFF2"/>
<path d="M283.27 184.45C285.214 184.45 286.79 182.874 286.79 180.93C286.79 178.986 285.214 177.41 283.27 177.41C281.326 177.41 279.75 178.986 279.75 180.93C279.75 182.874 281.326 184.45 283.27 184.45Z" fill="#135689"/>
<path d="M283.27 182.95C284.386 182.95 285.29 182.046 285.29 180.93C285.29 179.814 284.386 178.91 283.27 178.91C282.154 178.91 281.25 179.814 281.25 180.93C281.25 182.046 282.154 182.95 283.27 182.95Z" fill="#64AFF2"/>
<path d="M257.39 127.45C259.334 127.45 260.91 125.874 260.91 123.93C260.91 121.986 259.334 120.41 257.39 120.41C255.446 120.41 253.87 121.986 253.87 123.93C253.87 125.874 255.446 127.45 257.39 127.45Z" fill="#135689"/>
<path d="M257.39 125.95C258.506 125.95 259.41 125.046 259.41 123.93C259.41 122.814 258.506 121.91 257.39 121.91C256.274 121.91 255.37 122.814 255.37 123.93C255.37 125.046 256.274 125.95 257.39 125.95Z" fill="#64AFF2"/>
<path d="M272.5 127.78C274.444 127.78 276.02 126.204 276.02 124.26C276.02 122.316 274.444 120.74 272.5 120.74C270.556 120.74 268.98 122.316 268.98 124.26C268.98 126.204 270.556 127.78 272.5 127.78Z" fill="#135689"/>
<path d="M272.5 126.28C273.616 126.28 274.52 125.376 274.52 124.26C274.52 123.144 273.616 122.24 272.5 122.24C271.384 122.24 270.48 123.144 270.48 124.26C270.48 125.376 271.384 126.28 272.5 126.28Z" fill="#64AFF2"/>
<path d="M287.86 128.47C289.804 128.47 291.38 126.894 291.38 124.95C291.38 123.006 289.804 121.43 287.86 121.43C285.916 121.43 284.34 123.006 284.34 124.95C284.34 126.894 285.916 128.47 287.86 128.47Z" fill="#135689"/>
<path d="M287.86 126.97C288.976 126.97 289.88 126.066 289.88 124.95C289.88 123.834 288.976 122.93 287.86 122.93C286.744 122.93 285.84 123.834 285.84 124.95C285.84 126.066 286.744 126.97 287.86 126.97Z" fill="#64AFF2"/>
</g>
<defs>
<clipPath id="clip0_1350_19">
<rect width="704.79" height="318.26" fill="white"/>
</clipPath>
</defs>
</svg>
