<svg width="115" height="75" viewBox="0 0 115 75" fill="none" xmlns="http://www.w3.org/2000/svg">
<path d="M9.7896 73.0002H0.556641L27.2612 0.272949H36.3521L63.0566 73.0002H53.8237L32.0907 11.7786H31.5226L9.7896 73.0002ZM13.1987 44.5911H50.4146V52.4036H13.1987V44.5911Z" fill="#282229"/>
<path d="M89.2995 74.2786C85.8431 74.2786 82.7063 73.6276 79.889 72.3255C77.0718 70.9998 74.8346 69.094 73.1774 66.6082C71.5202 64.0987 70.6916 61.0684 70.6916 57.5173C70.6916 54.3923 71.3071 51.8591 72.5382 49.9178C73.7692 47.9529 75.4146 46.414 77.4743 45.3014C79.5339 44.1887 81.8066 43.3601 84.2924 42.8156C86.8019 42.2474 89.3232 41.7976 91.8564 41.4661C95.1708 41.04 97.8578 40.7204 99.9174 40.5073C102.001 40.2706 103.516 39.88 104.463 39.3354C105.434 38.7909 105.919 37.844 105.919 36.4945V36.2104C105.919 32.7067 104.96 29.9841 103.042 28.0428C101.149 26.1016 98.2721 25.1309 94.4132 25.1309C90.4122 25.1309 87.2754 26.0069 85.0027 27.7587C82.7299 29.5106 81.1319 31.3809 80.2086 33.3695L72.2541 30.5286C73.6745 27.2142 75.5685 24.6337 77.9359 22.7872C80.327 20.9169 82.9312 19.6148 85.7484 18.8809C88.5893 18.1233 91.3829 17.7445 94.1291 17.7445C95.881 17.7445 97.8933 17.9576 100.166 18.3837C102.462 18.7862 104.676 19.6266 106.807 20.905C108.961 22.1835 110.748 24.1129 112.169 26.6934C113.589 29.2739 114.3 32.7303 114.3 37.0627V73.0002H105.919V65.6139H105.493C104.925 66.7976 103.978 68.0641 102.652 69.4136C101.326 70.763 99.5623 71.9112 97.3606 72.8582C95.1589 73.8052 92.4719 74.2786 89.2995 74.2786ZM90.5779 66.7502C93.8923 66.7502 96.6859 66.0992 98.9586 64.7971C101.255 63.495 102.983 61.8141 104.143 59.7545C105.327 57.6948 105.919 55.5286 105.919 53.2559V45.5855C105.564 46.0116 104.782 46.4022 103.575 46.7573C102.391 47.0888 101.018 47.3847 99.4558 47.6451C97.917 47.8819 96.4136 48.0949 94.9458 48.2843C93.5017 48.45 92.3298 48.5921 91.4302 48.7105C89.2522 48.9945 87.2162 49.4562 85.3223 50.0954C83.452 50.7109 81.9369 51.6461 80.7768 52.9008C79.6405 54.1319 79.0723 55.8127 79.0723 57.9434C79.0723 60.8553 80.1494 63.057 82.3038 64.5485C84.4818 66.0163 87.2399 66.7502 90.5779 66.7502Z" fill="#282229"/>
</svg>
