<svg width="343" height="239" viewBox="0 0 343 239" fill="none" xmlns="http://www.w3.org/2000/svg">
<path d="M0 6C0 2.68629 2.68629 0 6 0H337C340.314 0 343 2.68629 343 6V233C343 236.314 340.314 239 337 239H6C2.68629 239 0 236.314 0 233V6Z" fill="#FFFDFF"/>
<path d="M141.912 83.2695H145.184L171.111 149.334C172.153 152.003 174.285 153.338 177.508 153.338H179.754V157H150.945V153.338H153.24C156.235 153.338 158.351 153.012 159.588 152.361C160.434 151.906 160.857 151.206 160.857 150.262C160.857 149.708 160.743 149.122 160.516 148.504L154.51 133.172H125.994L122.625 141.961C121.746 144.305 121.307 146.16 121.307 147.527C121.307 149.122 122.039 150.49 123.504 151.629C125.001 152.768 127.166 153.338 129.998 153.338H132.439V157H106.268V153.338C109.067 153.338 111.281 152.736 112.908 151.531C114.536 150.294 116.033 147.967 117.4 144.549L141.912 83.2695ZM140.496 97.1855L127.557 129.363H153.094L140.496 97.1855Z" fill="#282229"/>
<path d="M230.877 151.971L232.635 154.705C230.258 157.146 227.622 158.367 224.725 158.367C222.511 158.367 220.639 157.765 219.109 156.561C217.612 155.356 216.294 153.24 215.154 150.213C212.062 153.468 209.344 155.649 207 156.756C204.656 157.83 201.84 158.367 198.553 158.367C193.865 158.367 190.301 157.358 187.859 155.34C185.418 153.322 184.197 150.734 184.197 147.576C184.197 142.824 186.98 138.885 192.547 135.76C198.146 132.602 205.584 130.503 214.861 129.461V122.527C214.861 120.053 213.868 117.938 211.883 116.18C209.897 114.422 207.374 113.543 204.314 113.543C201.482 113.543 199.041 114.129 196.99 115.301C195.525 116.18 194.793 117.042 194.793 117.889C194.793 118.377 195.184 119.142 195.965 120.184C196.909 121.486 197.381 122.641 197.381 123.65C197.381 125.115 196.909 126.32 195.965 127.264C195.021 128.175 193.784 128.631 192.254 128.631C190.626 128.631 189.259 128.077 188.152 126.971C187.078 125.864 186.541 124.448 186.541 122.723C186.541 119.5 188.348 116.554 191.961 113.885C195.607 111.215 200.376 109.881 206.268 109.881C211.704 109.881 215.854 111.053 218.719 113.396C221.583 115.773 223.016 118.654 223.016 122.039V147.039C223.016 149.253 223.374 150.88 224.09 151.922C224.806 152.996 225.734 153.533 226.873 153.533C228.143 153.533 229.477 153.012 230.877 151.971ZM214.861 132.684C206.593 133.823 200.734 135.678 197.283 138.25C194.712 140.203 193.426 142.97 193.426 146.551C193.426 149.057 194.093 151.027 195.428 152.459C196.762 153.859 198.504 154.559 200.652 154.559C204.493 154.559 207.814 153.11 210.613 150.213C213.445 147.283 214.861 143.621 214.861 139.227V132.684Z" fill="#282229"/>
</svg>
