<svg width="343" height="239" viewBox="0 0 343 239" fill="none" xmlns="http://www.w3.org/2000/svg">
<path d="M0 6C0 2.68629 2.68629 0 6 0H337C340.314 0 343 2.68629 343 6V233C343 236.314 340.314 239 337 239H6C2.68629 239 0 236.314 0 233V6Z" fill="#FFFDFF"/>
<path d="M145.4 89.5C144.4 92.3 143.2 95.6333 141.8 99.5C140.467 103.367 139.067 107.367 137.6 111.5C136.2 115.567 134.867 119.367 133.6 122.9L133.1 124.4C132.7 125.6 132.2 127.1 131.6 128.9C131 130.7 130.367 132.6 129.7 134.6C129.033 136.533 128.4 138.367 127.8 140.1C127.2 141.767 126.733 143.133 126.4 144.2C125.933 144.4 125.433 144.533 124.9 144.6C124.433 144.733 123.833 144.8 123.1 144.8C122.033 144.8 121.067 144.533 120.2 144C119.4 143.4 119 142.467 119 141.2C119 140.6 119.1 140 119.3 139.4C119.5 138.733 119.733 138.033 120 137.3C120.8 135.033 121.767 132.267 122.9 129C124.1 125.733 125.4 122.167 126.8 118.3C128.2 114.433 129.667 110.467 131.2 106.4C132.733 102.333 134.233 98.3667 135.7 94.5C137.167 90.6333 138.533 87.1 139.8 83.9C140.333 83.6333 141.133 83.3667 142.2 83.1C143.267 82.8333 144.367 82.7 145.5 82.7C146.833 82.7 148.1 82.9 149.3 83.3C150.567 83.7 151.367 84.3667 151.7 85.3C153.3 89.1667 155 93.5667 156.8 98.5C158.667 103.367 160.533 108.467 162.4 113.8C164.267 119.067 166.033 124.2 167.7 129.2C169.433 134.2 170.967 138.733 172.3 142.8C171.833 143.4 171.2 143.867 170.4 144.2C169.667 144.6 168.833 144.8 167.9 144.8C166.633 144.8 165.667 144.533 165 144C164.333 143.4 163.767 142.433 163.3 141.1L157.8 124.8L157 122C155.667 117.933 154.267 113.833 152.8 109.7C151.4 105.567 150.067 101.733 148.8 98.2C147.6 94.6667 146.6 91.7667 145.8 89.5H145.4ZM131.8 121.1H159.7L161.3 127.8H129.2L131.8 121.1Z" fill="#282229"/>
<path d="M200.352 138.8C203.152 138.8 205.452 138.533 207.252 138C209.118 137.4 210.452 136.833 211.252 136.3V121.8L198.852 123.1C195.385 123.367 192.818 124.133 191.152 125.4C189.485 126.667 188.652 128.5 188.652 130.9C188.652 133.367 189.618 135.3 191.552 136.7C193.552 138.1 196.485 138.8 200.352 138.8ZM200.252 96.5C206.052 96.5 210.652 97.8 214.052 100.4C217.452 103 219.152 107.1 219.152 112.7V136.4C219.152 137.867 218.852 139 218.252 139.8C217.718 140.533 216.885 141.233 215.752 141.9C214.152 142.767 212.018 143.567 209.352 144.3C206.685 145.033 203.685 145.4 200.352 145.4C194.085 145.4 189.218 144.167 185.752 141.7C182.352 139.233 180.652 135.667 180.652 131C180.652 126.667 182.085 123.367 184.952 121.1C187.885 118.767 191.918 117.367 197.052 116.9L211.252 115.5V112.7C211.252 109.367 210.252 106.933 208.252 105.4C206.252 103.867 203.552 103.1 200.152 103.1C197.418 103.1 194.785 103.5 192.252 104.3C189.785 105.1 187.585 106 185.652 107C185.118 106.533 184.618 106 184.152 105.4C183.752 104.733 183.552 104.067 183.552 103.4C183.552 101.667 184.518 100.333 186.452 99.4C188.252 98.4667 190.318 97.7667 192.652 97.3C195.052 96.7667 197.585 96.5 200.252 96.5Z" fill="#282229"/>
</svg>
