<svg width="179" height="58" viewBox="0 0 179 58" fill="none" xmlns="http://www.w3.org/2000/svg">
<g clip-path="url(#clip0_1424_19)">
<path d="M67.2998 46.5801C67.0598 47.4301 66.6198 48.7201 66.3498 49.3201C65.9098 49.4201 64.5098 49.7601 63.2198 49.7601C58.6498 49.7601 56.7598 46.8201 56.7598 44.1201C56.7598 40.6001 59.4498 38.2201 63.5298 38.2201C65.0098 38.2201 66.3198 38.5801 66.7398 38.6301C66.8198 39.4301 66.9398 40.6901 67.0598 41.4301L66.3798 41.5501C66.0198 40.2201 65.5098 39.5901 64.6098 39.2401C64.1998 39.0701 63.5898 39.0001 63.1298 39.0001C60.6698 39.0001 59.4198 41.0601 59.4198 43.7301C59.4198 46.8401 61.0198 48.9501 63.3498 48.9501C64.7798 48.9501 65.7298 48.2001 66.6498 46.3301L67.2998 46.5801Z" fill="#B31828"/>
<path d="M72.6195 41.7501C75.0195 41.7501 76.5295 43.5501 76.5295 45.5901C76.5295 48.3301 74.5595 49.7001 72.5495 49.7001C69.9795 49.7001 68.5195 47.7601 68.5195 45.7701C68.5195 43.1701 70.6595 41.7401 72.6195 41.7401V41.7501ZM72.4195 42.4301C71.6895 42.4301 70.9795 43.2001 70.9795 45.2901C70.9795 47.3801 71.6795 49.0101 72.7495 49.0101C73.3995 49.0101 74.0895 48.5701 74.0895 46.0901C74.0895 43.6101 73.4795 42.4401 72.4195 42.4401V42.4301Z" fill="#B31828"/>
<path d="M86.9303 49.5101V48.9301C87.6103 48.8301 87.7303 48.7601 87.7303 47.7201V44.7801C87.7303 43.3701 87.0703 43.1101 86.5403 43.1101C86.2003 43.1101 85.8103 43.2101 85.2803 43.6401C85.3003 43.8401 85.3103 44.1001 85.3103 44.3501V47.7801C85.3103 48.7301 85.3603 48.8201 86.1403 48.9201V49.5001H82.3203V48.9201C83.0703 48.8201 83.1403 48.7701 83.1403 47.7801V44.6901C83.1403 43.4801 82.6603 43.0901 82.0403 43.0901C81.6203 43.0901 81.2103 43.2401 80.7303 43.6001V47.7801C80.7303 48.7301 80.8303 48.8201 81.4603 48.9201V49.5001H77.5703V48.9201C78.5103 48.8001 78.5603 48.7301 78.5603 47.7101V44.1101C78.5603 43.1601 78.5403 43.0101 77.7403 42.8901V42.3501C78.6903 42.2501 79.6603 42.0101 80.7303 41.7001V42.9701C81.1003 42.7201 81.4103 42.4901 81.7703 42.2701C82.3003 41.9501 82.7103 41.7401 83.2103 41.7401C84.1603 41.7401 84.7903 42.2501 85.1103 43.0301C85.5203 42.7201 85.8603 42.4901 86.2803 42.2001C86.6503 41.9601 87.1303 41.7401 87.6403 41.7401C89.1203 41.7401 89.9003 42.7401 89.9003 44.4801V47.7801C89.9003 48.7201 89.9803 48.7801 90.8203 48.9201V49.5001H86.9303V49.5101Z" fill="#B31828"/>
<path d="M98.5296 47.8401C97.4896 49.3701 96.1296 49.7101 95.4196 49.7101C93.1396 49.7101 91.8496 48.0301 91.8496 46.0001C91.8496 44.8101 92.4096 43.6401 93.1196 42.9401C93.8896 42.1801 94.8396 41.7501 95.7696 41.7501C97.4396 41.7501 98.5896 43.1301 98.5696 44.5201C98.5696 44.8101 98.5496 45.1001 98.3496 45.1501C98.0296 45.2301 95.6296 45.3501 93.9796 45.4201C94.0496 47.2201 95.0496 48.1401 96.2696 48.1401C96.9296 48.1401 97.5996 47.9001 98.2096 47.3701L98.5196 47.8301L98.5296 47.8401ZM95.4396 42.4501C94.7596 42.4501 94.1796 43.2501 94.0796 44.5901C94.7796 44.5701 95.4196 44.5601 96.1396 44.5401C96.3796 44.5201 96.4796 44.4901 96.4796 44.2001C96.4996 43.3501 96.1096 42.4501 95.4396 42.4501Z" fill="#B31828"/>
<path d="M108.93 49.7101C108.47 49.7101 108.1 49.5601 107.88 49.3501C107.64 49.1501 107.52 48.9101 107.44 48.7201C106.79 49.1401 105.96 49.7101 105.64 49.7101C104.18 49.7101 103.33 48.5701 103.33 47.5201C103.33 46.6201 103.74 46.2101 104.64 45.8501C105.64 45.4801 106.99 45.0701 107.38 44.7301V43.9801C107.38 43.1001 107.06 42.6001 106.33 42.6001C106.04 42.6001 105.8 42.7401 105.65 42.9401C105.45 43.2101 105.38 43.5501 105.24 44.0601C105.12 44.5201 104.85 44.6401 104.51 44.6401C104.07 44.6401 103.51 44.2301 103.51 43.7601C103.51 43.4501 103.71 43.2301 104.1 42.9601C104.87 42.4501 105.87 41.9601 106.82 41.7501C107.5 41.7501 108.08 41.9001 108.57 42.2401C109.3 42.7501 109.51 43.4601 109.51 44.3301V47.2701C109.51 48.0901 109.78 48.2901 110.05 48.2901C110.22 48.2901 110.39 48.2401 110.58 48.1501L110.77 48.7301L108.95 49.7001L108.93 49.7101ZM107.37 45.4301C107.06 45.6001 106.76 45.7701 106.42 45.9601C105.89 46.2301 105.59 46.5401 105.59 47.1201C105.59 48.0701 106.25 48.4101 106.63 48.4101C106.87 48.4101 107.11 48.3901 107.38 48.1401V45.4401L107.37 45.4301Z" fill="#B31828"/>
<path d="M121.78 47.8601C121 48.9801 119.86 49.7101 118.82 49.7101C116.47 49.7101 115.1 47.9401 115.1 46.0601C115.1 44.8001 115.75 43.6101 116.83 42.8101C117.95 41.9801 119.02 41.7601 119.79 41.7601C120.44 41.7601 120.98 41.9501 121.29 42.1701C121.53 42.3401 121.61 42.5401 121.61 42.8001C121.59 43.2801 121.12 43.7501 120.85 43.7501C120.73 43.7501 120.61 43.7001 120.48 43.5601C119.75 42.9501 119.17 42.6801 118.71 42.6801C118.05 42.6801 117.25 43.3301 117.25 45.1601C117.25 47.4201 118.9 48.1501 119.63 48.1501C120.36 48.1501 120.84 47.9601 121.45 47.4401L121.79 47.8601H121.78Z" fill="#B31828"/>
<path d="M128.19 49.7101C127.73 49.7101 127.36 49.5601 127.14 49.3501C126.9 49.1501 126.78 48.9101 126.7 48.7201C126.05 49.1401 125.22 49.7101 124.9 49.7101C123.44 49.7101 122.59 48.5701 122.59 47.5201C122.59 46.6201 123 46.2101 123.9 45.8501C124.9 45.4801 126.25 45.0701 126.64 44.7301V43.9801C126.64 43.1001 126.32 42.6001 125.59 42.6001C125.3 42.6001 125.06 42.7401 124.91 42.9401C124.71 43.2101 124.64 43.5501 124.5 44.0601C124.38 44.5201 124.11 44.6401 123.77 44.6401C123.33 44.6401 122.77 44.2301 122.77 43.7601C122.77 43.4501 122.97 43.2301 123.36 42.9601C124.13 42.4501 125.13 41.9601 126.08 41.7501C126.76 41.7501 127.34 41.9001 127.83 42.2401C128.56 42.7501 128.77 43.4601 128.77 44.3301V47.2701C128.77 48.0901 129.04 48.2901 129.31 48.2901C129.48 48.2901 129.65 48.2401 129.84 48.1501L130.03 48.7301L128.21 49.7001L128.19 49.7101ZM126.63 45.4301C126.32 45.6001 126.02 45.7701 125.68 45.9601C125.15 46.2301 124.85 46.5401 124.85 47.1201C124.85 48.0701 125.51 48.4101 125.89 48.4101C126.13 48.4101 126.37 48.3901 126.64 48.1401V45.4401L126.63 45.4301Z" fill="#B31828"/>
<path d="M135.37 44.1701C134.93 42.9801 134.35 42.4401 133.55 42.4401C133.07 42.4401 132.65 42.7801 132.65 43.3401C132.65 43.9401 133.07 44.2601 133.96 44.6501C135.34 45.2601 136.27 45.8401 136.27 47.1801C136.27 48.8801 134.66 49.7101 133.18 49.7101C132.3 49.7101 131.38 49.3701 131.02 49.2001C130.95 48.8101 130.8 47.6401 130.75 47.0401L131.31 46.9401C131.67 48.0101 132.36 49.0101 133.47 49.0101C134.12 49.0101 134.44 48.6201 134.44 48.1301C134.44 47.6001 134.19 47.2101 133.13 46.7001C132.01 46.1601 130.92 45.5601 130.92 44.1501C130.92 42.7401 132.02 41.7501 133.83 41.7501C134.65 41.7501 135.27 41.9201 135.67 42.0001C135.72 42.4601 135.87 43.5501 135.94 44.0101L135.38 44.1601L135.37 44.1701Z" fill="#B31828"/>
<path d="M143.071 49.7101C142.611 49.7101 142.241 49.5601 142.021 49.3501C141.781 49.1501 141.661 48.9101 141.581 48.7201C140.931 49.1401 140.101 49.7101 139.781 49.7101C138.321 49.7101 137.471 48.5701 137.471 47.5201C137.471 46.6201 137.881 46.2101 138.781 45.8501C139.781 45.4801 141.131 45.0701 141.521 44.7301V43.9801C141.521 43.1001 141.201 42.6001 140.471 42.6001C140.181 42.6001 139.941 42.7401 139.791 42.9401C139.591 43.2101 139.521 43.5501 139.381 44.0601C139.261 44.5201 138.991 44.6401 138.651 44.6401C138.211 44.6401 137.651 44.2301 137.651 43.7601C137.651 43.4501 137.851 43.2301 138.241 42.9601C139.011 42.4501 140.011 41.9601 140.961 41.7501C141.641 41.7501 142.221 41.9001 142.711 42.2401C143.441 42.7501 143.651 43.4601 143.651 44.3301V47.2701C143.651 48.0901 143.921 48.2901 144.191 48.2901C144.361 48.2901 144.531 48.2401 144.721 48.1501L144.911 48.7301L143.091 49.7001L143.071 49.7101ZM141.511 45.4301C141.201 45.6001 140.901 45.7701 140.561 45.9601C140.031 46.2301 139.731 46.5401 139.731 47.1201C139.731 48.0701 140.391 48.4101 140.771 48.4101C141.011 48.4101 141.251 48.3901 141.521 48.1401V45.4401L141.511 45.4301Z" fill="#B31828"/>
<path d="M56.459 28.28V27.43C58.409 27.24 58.629 27.11 58.629 25V15.34C58.629 13.22 58.399 13.06 56.459 12.88V12.03H63.819V12.88C61.879 13.07 61.639 13.22 61.639 15.34V25C61.639 27.1 61.859 27.22 63.819 27.43V28.28H56.459Z" fill="#FFF7F5"/>
<path d="M64.959 28.2801V27.4801C66.449 27.2801 66.549 27.1601 66.549 25.5601V13.9701C66.549 12.5901 66.409 12.4401 64.999 12.1901V11.4401C66.589 11.2701 68.269 10.9401 69.329 10.5901V25.5501C69.329 27.2001 69.429 27.3101 70.929 27.4701V28.2701H64.959V28.2801Z" fill="#FFF7F5"/>
<path d="M84.0891 28.2801H77.7891V27.4801C79.1991 27.3301 79.3391 27.2101 79.3391 25.6601V20.2801C79.3391 18.8901 79.2391 18.7801 77.9691 18.5601V17.8401C79.4091 17.6601 80.7091 17.3601 82.1291 16.8601V19.5801C83.1691 18.0001 84.1191 16.9201 85.2191 16.9201C86.1391 16.9201 86.7791 17.5301 86.7791 18.3101C86.7791 19.3101 86.0691 19.9501 85.6491 20.1701C85.3391 20.3201 85.0991 20.2301 84.9191 20.0701C84.5091 19.7101 84.1991 19.3601 83.7591 19.3601C83.3191 19.3601 82.5991 19.8401 82.1191 20.9101V25.6401C82.1191 27.1901 82.2791 27.2801 84.0891 27.4701V28.2701V28.2801Z" fill="#FFF7F5"/>
<path d="M87.998 28.28V27.48C89.428 27.31 89.588 27.21 89.588 25.46V20.49C89.588 18.86 89.478 18.76 88.188 18.57V17.82C89.668 17.63 91.098 17.3 92.368 16.89V25.46C92.368 27.16 92.498 27.32 94.008 27.48V28.28H87.998ZM90.808 15.04C89.948 15.04 89.178 14.3 89.178 13.42C89.178 12.47 89.948 11.79 90.838 11.79C91.728 11.79 92.458 12.48 92.458 13.42C92.458 14.3 91.738 15.04 90.818 15.04H90.808Z" fill="#FFF7F5"/>
<path d="M102.009 20.3801C101.429 18.7401 100.649 17.8701 99.3489 17.8701C98.5889 17.8701 97.9489 18.4101 97.9489 19.3001C97.9489 20.2401 98.6089 20.7301 99.9389 21.3301C102.009 22.2701 103.279 23.0901 103.279 24.9501C103.279 27.3801 100.999 28.5901 98.8989 28.5901C97.5989 28.5901 96.3189 28.1301 95.7989 27.8601C95.6889 27.2301 95.4689 25.6301 95.3789 24.7701L96.1689 24.6301C96.6689 26.2101 97.6389 27.6301 99.3089 27.6301C100.259 27.6301 100.849 27.0301 100.849 26.1901C100.849 25.2901 100.369 24.7201 98.8989 24.0001C97.2189 23.1801 95.6789 22.3301 95.6789 20.3601C95.6789 18.3901 97.2789 16.9401 99.8189 16.9401C100.969 16.9401 101.869 17.1901 102.409 17.3001C102.489 17.9501 102.689 19.5401 102.799 20.1901L102.009 20.4001V20.3801Z" fill="#FFF7F5"/>
<path d="M109.728 28.2801C109.308 28.4901 108.908 28.5701 108.698 28.5701C106.888 28.5701 105.838 27.6401 105.838 25.4701V18.3901H104.198L104.068 18.0901L104.778 17.2201H105.848V15.1401C106.568 14.5801 107.618 13.8301 108.348 13.2601L108.688 13.4101C108.658 14.2201 108.618 15.5801 108.628 17.2201H111.248C111.478 17.4701 111.378 18.1701 111.068 18.3901H108.628V24.6101C108.628 26.5901 109.428 26.8601 109.968 26.8601C110.458 26.8601 110.868 26.7301 111.278 26.5601L111.518 27.3701L109.718 28.2801H109.728Z" fill="#FFF7F5"/>
<path d="M118.13 16.92C121.51 16.92 123.77 19.47 123.77 22.55C123.77 26.58 120.84 28.57 118.06 28.57C114.4 28.57 112.27 25.75 112.27 22.87C112.27 18.96 115.43 16.92 118.13 16.92ZM117.83 17.87C116.6 17.87 115.43 19.12 115.43 22.13C115.43 25.14 116.59 27.6 118.33 27.6C119.49 27.6 120.61 26.78 120.61 23.21C120.61 19.93 119.61 17.86 117.83 17.86V17.87Z" fill="#FFF7F5"/>
<path d="M131.64 28.2801H125.34V27.4801C126.75 27.3301 126.89 27.2101 126.89 25.6601V20.2801C126.89 18.8901 126.79 18.7801 125.52 18.5601V17.8401C126.96 17.6601 128.26 17.3601 129.68 16.8601V19.5801C130.72 18.0001 131.67 16.9201 132.77 16.9201C133.69 16.9201 134.33 17.5301 134.33 18.3101C134.33 19.3101 133.62 19.9501 133.2 20.1701C132.89 20.3201 132.65 20.2301 132.47 20.0701C132.06 19.7101 131.75 19.3601 131.31 19.3601C130.87 19.3601 130.15 19.8401 129.67 20.9101V25.6401C129.67 27.1901 129.83 27.2801 131.64 27.4701V28.2701V28.2801Z" fill="#FFF7F5"/>
<path d="M143.45 28.58C142.88 28.58 142.33 28.36 142.03 28.07C141.69 27.76 141.52 27.41 141.4 27.08C140.43 27.72 139.21 28.58 138.63 28.58C136.61 28.58 135.35 26.98 135.35 25.41C135.35 24.12 135.98 23.45 137.32 22.94C138.81 22.4 140.75 21.78 141.32 21.3V20.41C141.32 18.94 140.7 18.11 139.54 18.11C139.06 18.11 138.71 18.34 138.48 18.64C138.19 19.02 138.06 19.54 137.85 20.28C137.69 20.86 137.35 21.03 136.9 21.03C136.31 21.03 135.56 20.47 135.56 19.8C135.56 19.38 135.87 19.07 136.42 18.69C137.4 18.02 138.87 17.22 140.28 16.92C141.19 16.92 142.02 17.15 142.69 17.63C143.69 18.38 144.03 19.36 144.03 20.64V25.14C144.03 26.32 144.44 26.64 144.86 26.64C145.13 26.64 145.4 26.55 145.68 26.41L145.95 27.21L143.47 28.57L143.45 28.58ZM141.32 22.27C140.84 22.53 140.12 22.87 139.6 23.14C138.76 23.55 138.27 24.01 138.27 24.88C138.27 26.25 139.25 26.79 139.89 26.79C140.35 26.79 140.89 26.63 141.32 26.22V22.27Z" fill="#FFF7F5"/>
<path d="M154.04 28.2801V27.4801C155.23 27.3301 155.33 27.2001 155.33 25.4901V21.2701C155.33 19.5001 154.54 18.7401 153.4 18.7401C152.62 18.7401 151.92 19.1101 151.21 19.6801V25.6601C151.21 27.2501 151.33 27.3401 152.51 27.4901V28.2901H146.85V27.4901C148.27 27.2801 148.42 27.2301 148.42 25.6001V20.4201C148.42 18.8801 148.23 18.8001 147.04 18.5801V17.8301C148.41 17.6501 149.96 17.3201 151.24 16.8601C151.22 17.2901 151.21 18.1401 151.21 18.7201C151.71 18.3701 152.24 18.0001 152.84 17.6201C153.57 17.1701 154.11 16.9301 154.83 16.9301C156.85 16.9301 158.11 18.4001 158.11 20.9101V25.6401C158.11 27.2401 158.26 27.3201 159.55 27.4801V28.2801H154.03H154.04Z" fill="#FFF7F5"/>
<path d="M165.879 28.2801C165.459 28.4901 165.059 28.5701 164.849 28.5701C163.039 28.5701 161.989 27.6401 161.989 25.4701V18.3901H160.349L160.219 18.0901L160.929 17.2201H161.999V15.1401C162.719 14.5801 163.769 13.8301 164.499 13.2601L164.839 13.4101C164.809 14.2201 164.769 15.5801 164.779 17.2201H167.399C167.629 17.4701 167.529 18.1701 167.219 18.3901H164.779V24.6101C164.779 26.5901 165.579 26.8601 166.119 26.8601C166.609 26.8601 167.019 26.7301 167.429 26.5601L167.669 27.3701L165.869 28.2801H165.879Z" fill="#FFF7F5"/>
<path d="M177.98 25.94C176.43 28.1 174.52 28.58 173.55 28.58C170.31 28.58 168.42 26.1 168.42 23.16C168.42 21.43 169.17 19.76 170.21 18.7C171.31 17.56 172.7 16.92 174.05 16.92C176.4 16.92 178.09 18.89 178.07 20.92C178.07 21.37 178.02 21.73 177.68 21.81C177.2 21.93 173.79 22.12 171.17 22.22C171.21 25.11 172.88 26.47 174.68 26.47C175.67 26.47 176.64 26.09 177.55 25.29L177.98 25.93V25.94ZM173.52 17.92C172.47 17.92 171.52 19.06 171.3 21.05C172.46 21.03 173.56 21.02 174.76 20.97C175.14 20.95 175.3 20.88 175.3 20.47C175.32 19.19 174.64 17.91 173.52 17.91V17.92Z" fill="#FFF7F5"/>
<path d="M13.4091 14.14C9.92915 12.68 5.92915 13.49 3.40915 16.14C1.12915 18.53 0.429146 22.05 1.47915 25.18C1.84915 26.28 2.57915 27.23 3.47915 27.97C4.46915 28.78 5.85915 30.04 6.40915 31.14C7.40915 33.14 8.40915 40.14 6.40915 46.14" stroke="#2FB026" stroke-width="2" stroke-linecap="round" stroke-linejoin="round"/>
<path d="M11.4082 10.14C12.2682 5.48003 15.9082 1.87003 20.4082 1.14003C25.3982 0.33003 30.4682 3.22003 32.4082 8.14003" stroke="#FFF7F5" stroke-width="2" stroke-linecap="round" stroke-linejoin="round"/>
<path d="M32.4082 12.1401C38.4082 11.7201 43.4482 15.4201 44.4082 20.1401C45.0382 23.2201 43.9282 27.1001 41.4082 29.1401C39.7082 30.5101 38.5582 30.0901 37.4082 31.1401C35.8482 32.5601 34.4082 36.1401 36.4082 46.1401" stroke="#B31828" stroke-width="2" stroke-linecap="round" stroke-linejoin="round"/>
<path d="M7.4082 50.14C8.4282 51.21 13.2082 56.11 22.4082 56.14C29.8582 56.17 34.9482 52.33 36.4082 51.14" stroke="#FFF7F5" stroke-width="2" stroke-linecap="round" stroke-linejoin="round"/>
<path d="M12.8193 46.83C14.4193 41.24 15.0393 35.41 14.6293 29.61C14.5593 28.65 13.0593 28.64 13.1293 29.61C13.5293 35.29 12.9393 40.96 11.3693 46.43C11.0993 47.36 12.5493 47.76 12.8193 46.83Z" fill="#2FB026"/>
<path d="M20.59 47.6701C21.82 44.6001 22.4 41.2801 22.3 37.9701C22.27 37.0101 20.77 37.0001 20.8 37.9701C20.9 41.1601 20.33 44.3101 19.15 47.2701C19 47.6501 19.31 48.0901 19.67 48.1901C20.1 48.3101 20.44 48.0401 20.59 47.6701Z" fill="#FFF7F5"/>
<path d="M30.7701 47.13C28.9901 42.92 27.9901 38.43 27.8501 33.86C27.8201 32.9 26.3201 32.89 26.3501 33.86C26.5001 38.56 27.5001 43.2 29.3301 47.53C29.7001 48.41 31.1501 48.02 30.7801 47.13H30.7701Z" fill="#B31828"/>
</g>
<defs>
<clipPath id="clip0_1424_19">
<rect width="178.07" height="57.14" fill="white"/>
</clipPath>
</defs>
</svg>
