<svg width="122" height="71" viewBox="0 0 122 71" fill="none" xmlns="http://www.w3.org/2000/svg">
<path d="M0.199951 70L32.2 0H39.5L71.5 70H63.7L34.3 4.3H37.3L7.89995 70H0.199951ZM12.8 51.3L15 45.3H55.7L57.9 51.3H12.8Z" fill="#282229"/>
<path d="M114.48 70V58.4L114.18 56.5V37.1C114.18 32.6333 112.913 29.2 110.38 26.8C107.913 24.4 104.213 23.2 99.2796 23.2C95.8796 23.2 92.6463 23.7667 89.5796 24.9C86.513 26.0333 83.913 27.5333 81.7796 29.4L78.5796 24.1C81.2463 21.8333 84.4463 20.1 88.1796 18.9C91.913 17.6333 95.8463 17 99.9796 17C106.78 17 112.013 18.7 115.68 22.1C119.413 25.4333 121.28 30.5333 121.28 37.4V70H114.48ZM96.3796 70.5C92.4463 70.5 89.013 69.8667 86.0796 68.6C83.213 67.2667 81.013 65.4667 79.4796 63.2C77.9463 60.8667 77.1796 58.2 77.1796 55.2C77.1796 52.4667 77.813 50 79.0796 47.8C80.413 45.5333 82.5463 43.7333 85.4796 42.4C88.4796 41 92.4796 40.3 97.4796 40.3H115.58V45.6H97.6796C92.613 45.6 89.0796 46.5 87.0796 48.3C85.1463 50.1 84.1796 52.3333 84.1796 55C84.1796 58 85.3463 60.4 87.6796 62.2C90.013 64 93.2796 64.9 97.4796 64.9C101.48 64.9 104.913 64 107.78 62.2C110.713 60.3333 112.846 57.6667 114.18 54.2L115.78 59.1C114.446 62.5667 112.113 65.3333 108.78 67.4C105.513 69.4667 101.38 70.5 96.3796 70.5Z" fill="#282229"/>
</svg>
