<svg width="213" height="250" viewBox="0 0 213 250" fill="none" xmlns="http://www.w3.org/2000/svg">
<g clip-path="url(#clip0_1245_19)">
<path d="M203.128 142.624L107.499 46.9951L9.86903 144.625L105.498 240.254L203.128 142.624Z" fill="#FFFDFD"/>
<path d="M141.26 182.399H76.4399V190.349H141.26V182.399Z" fill="#754C24"/>
<path opacity="0.25" d="M119.84 175.06C122.47 174.28 124.99 173.1 127.28 171.59C130.28 169.61 133.04 166.74 133.42 163.17C133.87 158.94 130.94 155.19 129.46 151.21C128.29 148.06 128.02 144.67 127.64 141.33C127.42 139.43 127.16 137.5 126.33 135.78C124.96 132.93 122.21 131 119.44 129.48C116.67 127.96 113.69 126.7 111.31 124.62C110.87 124.24 110.44 123.82 109.9 123.6C109.36 123.38 108.75 123.39 108.17 123.4C106.46 123.45 104.71 123.56 103.18 124.32C101.82 124.99 100.75 126.11 99.73 127.23C95.45 131.91 91.49 136.91 88.24 142.35C86.73 144.89 85.36 147.57 84.79 150.47C83.98 154.66 84.91 158.97 85.84 163.14C86.34 165.39 86.85 167.67 87.91 169.72C88.97 171.77 90.66 173.59 92.85 174.31C94.47 174.84 96.22 174.73 97.93 174.84C99.76 174.96 100.9 175.8 102.54 176.33C104.18 176.86 106.39 176.54 108.09 176.53C112.04 176.5 116.03 176.2 119.83 175.07L119.84 175.06Z" fill="#006837"/>
<path d="M106.5 176.61C106.5 176.61 98.72 177.55 93.69 176.61C88.66 175.67 77.04 168.94 76.43 167.11C75.82 165.28 67.26 142.04 67.87 135.31C67.87 135.31 73.73 143.79 75.82 144.48C77.65 145.09 80.71 145.7 83.16 145.7C78.88 140.81 78.88 137.14 78.27 134.08C77.66 131.02 77.66 117.57 77.05 113.9C81.33 116.96 81.26 121.77 83.78 124.3C85 125.52 87.18 126.92 87.18 126.92L88.67 126.75C88.67 126.75 85.68 119.41 87.18 113.91C88.33 108.41 89.29 105.35 88.06 101.07C95.4 100.46 96.01 106.57 96.01 108.41C96.01 110.25 96.01 114.52 99.07 118.81C101.52 112.08 102.13 113.31 102.74 108.41C103.35 103.51 102.74 96.79 103.35 90.07C105.8 80.29 104.57 83.96 105.8 80.29C105.8 80.29 106.41 84.57 108.86 90.07C111.31 95.57 117.42 104.13 118.03 110.25C118.64 116.37 118.03 119.52 118.03 120.69C118.03 120.64 124.14 121.86 124.76 114.53C125.37 107.19 126.59 101.08 126.59 101.08C126.59 101.08 131.48 107.81 130.87 113.92C130.26 120.03 132.09 126.15 128.42 130.43C128.42 130.43 132.08 132.4 134.84 128.67C137.59 124.93 138.21 121.26 139.43 120.04C143.1 128.6 143.1 132.88 141.26 137.77C139.43 142.66 133.92 146.7 133.92 147.74C135.14 149.82 146.15 145.72 146.15 140.22C146.15 140.83 147.37 152.45 144.32 157.95C141.26 163.45 134.54 177.52 116.8 175.68C116.8 175.68 133.31 164.67 130.86 159.17C123.52 162.84 123.52 163.45 119.85 162.23C124.74 155.5 128.11 147.35 125.82 143.48C118.78 152.24 118.63 150.61 116.19 154.28C114.97 143.27 116.8 141.44 115.58 138.38C114.36 135.32 109.68 126.18 107.12 126.47C107.03 130.87 107.01 132.87 106.4 135.32C106.09 136.58 104.76 138.63 104.33 139.85C103.34 142.65 103.34 149.99 104.57 153.66C105.18 153.66 95.83 151.62 94.39 143.47C92.73 153.46 92.95 154.88 99.07 161.61C99.07 161.61 94.79 163.44 87.45 158.55C88.06 170.78 102.33 177.56 106.51 176.62L106.5 176.61Z" fill="#066334"/>
<path d="M106.91 53.3997L196.57 143.06L106.09 233.54L16.43 143.87L106.91 53.3997ZM106.91 36.9697L0 143.87L106.09 249.96L213 143.05L106.91 36.9697Z" fill="#E5011A"/>
<path d="M139.42 123.689C140.431 123.689 141.25 122.87 141.25 121.859C141.25 120.849 140.431 120.029 139.42 120.029C138.409 120.029 137.59 120.849 137.59 121.859C137.59 122.87 138.409 123.689 139.42 123.689Z" fill="#E5011A"/>
<path d="M146.15 153.66C147.503 153.66 148.6 152.563 148.6 151.21C148.6 149.857 147.503 148.76 146.15 148.76C144.797 148.76 143.7 149.857 143.7 151.21C143.7 152.563 144.797 153.66 146.15 153.66Z" fill="#0000FF"/>
<path d="M75.21 165.279C77.2369 165.279 78.88 163.636 78.88 161.609C78.88 159.583 77.2369 157.939 75.21 157.939C73.1832 157.939 71.54 159.583 71.54 161.609C71.54 163.636 73.1832 165.279 75.21 165.279Z" fill="#E5011A"/>
<path d="M75.21 147.549C76.5631 147.549 77.66 146.453 77.66 145.099C77.66 143.746 76.5631 142.649 75.21 142.649C73.8569 142.649 72.76 143.746 72.76 145.099C72.76 146.453 73.8569 147.549 75.21 147.549Z" fill="#E5011A"/>
<path d="M77.66 118.19C79.0131 118.19 80.11 117.093 80.11 115.74C80.11 114.387 79.0131 113.29 77.66 113.29C76.3069 113.29 75.21 114.387 75.21 115.74C75.21 117.093 76.3069 118.19 77.66 118.19Z" fill="#E5011A"/>
<path d="M88.36 119.409C90.2157 119.409 91.72 117.905 91.72 116.049C91.72 114.194 90.2157 112.689 88.36 112.689C86.5043 112.689 85 114.194 85 116.049C85 117.905 86.5043 119.409 88.36 119.409Z" fill="#E5011A"/>
<path d="M118.63 114.519C120.32 114.519 121.69 113.149 121.69 111.459C121.69 109.769 120.32 108.399 118.63 108.399C116.94 108.399 115.57 109.769 115.57 111.459C115.57 113.149 116.94 114.519 118.63 114.519Z" fill="#0000FF"/>
<path d="M121.69 137.759C123.043 137.759 124.14 136.662 124.14 135.309C124.14 133.956 123.043 132.859 121.69 132.859C120.337 132.859 119.24 133.956 119.24 135.309C119.24 136.662 120.337 137.759 121.69 137.759Z" fill="#E5011A"/>
<path d="M95.09 146.32C96.9457 146.32 98.45 144.815 98.45 142.96C98.45 141.104 96.9457 139.6 95.09 139.6C93.2343 139.6 91.73 141.104 91.73 142.96C91.73 144.815 93.2343 146.32 95.09 146.32Z" fill="#0000FF"/>
<path d="M109 84.7193L105.51 82.9293L102.06 84.7793L102.68 80.9093L99.8501 78.1993L103.72 77.5993L105.43 74.0693L107.19 77.5693L111.08 78.0893L108.3 80.8593L109 84.7193Z" fill="#E5E023"/>
<path d="M147.96 25.78C150.65 31.4 151.24 37.7599 151.79 43.9599C151.96 45.84 152.25 48.34 151.23 50.0499C150.15 51.8499 146.99 51.8899 145.03 52.27C140.05 53.2299 134.89 53.7299 129.87 52.77C128.01 52.42 126.2 51.8699 124.39 51.32L118.11 49.4199C115.28 48.5599 112.43 47.7 109.8 46.36C108.37 45.63 107.01 44.7599 105.75 43.7599C104.07 42.4399 102.57 40.91 101.07 39.38C99.3799 37.65 96.7199 35.7599 95.4899 33.6899C94.3699 31.8099 96.2899 29.09 97.2599 27.37C102.47 18.14 108.61 8.84995 117.88 3.70995C122.06 1.37995 126.18 0.0899513 131 -4.87487e-05C137.23 -0.100049 143.45 0.769951 149.47 2.37995C151.61 2.94995 153.74 3.62995 155.64 4.76995C159.54 7.10995 162.05 11.15 164.41 15.04C166.02 17.69 167.64 20.3699 168.56 23.33C170.32 29.0499 169.28 35.2499 170.19 41.1699C170.97 46.2099 173.21 51.02 176.58 54.86C176.91 55.24 177.27 55.66 177.27 56.16C177.27 56.8899 176.54 57.36 175.95 57.7799C174 59.1699 172.73 61.4599 172.58 63.8499C164.04 60.0499 156.7 53.59 151.86 45.59" fill="#FF0000"/>
<path d="M91.4399 30.0803C88.1699 31.3903 84.9599 33.1803 82.8499 36.0003C79.1399 40.9703 79.8699 48.5103 83.9399 53.1903C85.5899 55.0903 87.6799 56.5603 89.7399 58.0103C93.1799 60.4203 96.6299 62.8403 100.31 64.8603C111.11 70.7903 123.48 73.1103 135.65 75.0703C137.49 75.3703 139.36 75.6603 141.21 75.4903C143.4 75.2903 145.48 74.4603 147.52 73.6403C149.2 72.9703 150.9 72.2803 152.31 71.1503C155.4 68.6803 156.6 64.3903 156.2 60.4603C155.85 57.0303 154.21 50.7103 150.97 49.0003C146.21 46.4803 140.6 44.9303 135.58 42.9603C133.28 42.0603 130.99 41.1603 128.72 40.1803C125.99 39.0103 123.31 37.7203 120.58 36.5403C115.77 34.4503 110.83 32.6803 105.79 31.2303C100.75 29.7803 96.3199 28.1103 91.4299 30.1003L91.4399 30.0803Z" fill="#FCEBEB"/>
<path d="M135.66 75.07C137.5 75.37 139.37 75.66 141.22 75.49C143.41 75.29 145.49 74.46 147.53 73.64C149.21 72.97 150.91 72.28 152.32 71.15C155.41 68.68 156.61 64.39 156.21 60.46C155.86 57.03 154.22 50.71 150.98 49C154.43 66.55 149.99 67.65 135.66 75.08V75.07Z" fill="#EFE1E1"/>
<path d="M182.86 75.4402C188.587 75.4402 193.23 70.7974 193.23 65.0702C193.23 59.343 188.587 54.7002 182.86 54.7002C177.133 54.7002 172.49 59.343 172.49 65.0702C172.49 70.7974 177.133 75.4402 182.86 75.4402Z" fill="#FCEBEB"/>
<path d="M193.23 65.0699C193.23 67.7499 192.21 70.1899 190.55 72.0299C188.65 74.1299 185.91 75.4399 182.86 75.4399C181.02 75.4399 179.3 74.9599 177.8 74.1299C187.73 73.5499 193.84 67.4399 190.37 57.9199C191.07 58.6599 191.66 59.4899 192.13 60.4099C192.84 61.8099 193.23 63.3999 193.23 65.0699Z" fill="#EFE1E1"/>
<path d="M152.99 29.15C153.69 31.05 154.12 33.06 154.27 35.09C154.41 37.02 154.31 38.97 153.96 40.88C153.79 41.8 153.57 42.7 153.28 43.59C153.14 44.02 153.04 44.74 153.04 45.19C153.04 46.38 152.67 47.12 151.95 45.71C151.94 45.68 151.93 45.65 151.93 45.62C151.94 45.53 151.96 45.35 151.95 45.22C151.51 39.63 150.85 34.02 149.21 28.67C148.94 27.78 148.63 26.89 148.1 26.14C147.91 25.88 147.63 25.44 147.99 25.26C148.29 25.11 148.78 25.12 149.1 25.15C149.87 25.22 150.61 25.59 151.18 26.12C152.05 26.92 152.57 28.04 152.99 29.16V29.15Z" fill="#DD0A0A"/>
</g>
<defs>
<clipPath id="clip0_1245_19">
<rect width="213" height="249.97" fill="white"/>
</clipPath>
</defs>
</svg>
