<svg width="237" height="222" viewBox="0 0 237 222" fill="none" xmlns="http://www.w3.org/2000/svg">
<g clip-path="url(#clip0_1211_3830)">
<path d="M221.76 103.64C221.72 102.98 221.67 102.31 221.61 101.66C221.53 100.67 221.43 99.69 221.33 98.71C215.21 43.19 168.15 0 111 0C49.7 0 0 49.7 0 111C0 172.3 49.7 222 111 222C168.23 222 215.34 178.69 221.35 123.06C221.78 119.1 222 115.07 222 111C222 108.53 221.92 106.07 221.76 103.64ZM47.65 91.43C46.53 91.53 45.31 91.45 44.5 90.78C43.34 89.82 43.54 88.06 44.14 86.68C44.5 85.83 44.99 85.02 45.65 84.34C46.78 83.17 48.37 82.44 50.01 82.05C51.65 81.67 53.34 81.61 55.01 81.61C56.68 81.61 58.56 81.75 59.68 82.84C60.3 83.99 59.9 85.52 58.99 86.59C58.01 87.74 56.56 88.49 55.14 89.15C52.77 90.24 50.27 91.21 47.65 91.44V91.43ZM76.91 84.17C76.29 85.65 75.19 86.87 74.1 88.05C73.28 88.94 72.4 89.87 71.23 90.19C71.14 90.22 71.04 90.24 70.95 90.26L71.05 90.72C71.05 90.72 71.01 90.65 71 90.63C70.65 90.15 70.29 90.37 69.64 90.26C68.41 90.05 67.3 89.32 66.35 88.55C65.65 87.98 64.99 87.36 64.37 86.7C64.19 86.5 63.83 86.13 63.78 85.85C63.69 85.19 63.8 85.51 64.29 85.2C65.39 84.51 66.69 84.03 67.92 83.64C70.6 82.8 73.47 82.54 76.26 82.91C76.5 82.95 76.76 82.99 76.91 83.17C77.15 83.44 77.05 83.85 76.91 84.18V84.17ZM77.96 79.22C78.42 77.78 79.9 76.89 81.28 76.22C82.64 75.55 84.04 74.92 85.54 74.61C87.03 74.3 88.62 74.33 90.02 74.94C90.83 75.3 91.56 75.84 92.19 76.46C93.24 77.48 94.11 79 93.55 80.35C93.17 81.29 92.19 81.85 91.25 82.2C89.02 83.04 86.6 83.16 84.22 83.12C82.79 83.1 81.31 83 80.05 82.34C78.88 81.73 77.95 80.51 77.97 79.22H77.96Z" fill="#FF3B2B"/>
<path d="M56.9799 142.61C57.7999 143.6 58.7299 144.65 59.9899 144.89C61.2299 145.13 62.4999 144.52 63.7499 144.69C65.4299 144.92 66.5999 146.46 68.1699 147.11C69.3099 147.58 70.6299 147.56 71.6699 148.2C72.3999 148.65 72.9199 149.38 73.5299 149.98C74.1399 150.58 74.9899 151.09 75.8299 150.91C76.3099 151.26 76.8499 151.56 77.4399 151.44C77.6999 151.39 77.9299 151.24 78.1899 151.21C78.5099 151.17 78.8299 151.3 79.1199 151.43C83.3999 153.33 87.4999 155.95 92.1599 156.47C93.4999 156.62 94.8599 156.59 96.2099 156.67C100.71 156.94 104.86 157.63 109.41 157.39C115.47 157.07 121.56 158.11 127.58 157.45C133.58 156.8 139.28 154.49 145.23 153.46C147.49 153.07 148.74 150.9 150.86 150.03C152.04 149.55 153.28 149.22 154.4 148.61C155.33 148.1 156.16 147.4 157.16 147.05C157.87 146.8 158.64 146.75 159.37 146.55C162.92 145.62 164.96 141.8 168.27 140.22C169.98 139.4 171.99 139.21 173.53 138.1C174.64 137.3 175.39 136.09 176.44 135.21C177.29 134.51 178.31 134.04 179.16 133.35C180.01 132.66 180.74 131.64 180.61 130.54C179.67 122.23 181.42 113.69 182.68 105.42C183 103.32 183.35 101.13 182.65 99.1201C182.27 98.0301 181.6 97.0601 180.88 96.1501C179.74 94.6901 178.44 93.2701 177.92 91.5001C177.61 90.4401 177.49 89.1301 176.52 88.5901C176.04 88.3301 175.47 88.3301 174.93 88.2801C170.64 87.8901 166.73 84.0701 162.58 85.2301C161.89 85.4201 161.22 85.7501 160.51 85.7401C159.75 85.7301 159 85.3201 158.26 85.4901C157.11 85.7401 156.35 87.2701 155.19 87.0501C154.67 86.9501 154.3 86.5101 153.84 86.2501C153.21 85.8901 152.45 85.8801 151.73 85.8701C146.51 85.8401 141.24 85.8101 136.11 86.8201C133.08 87.4101 129.68 88.7901 128.85 91.7701C128.23 94.0101 129.32 96.3701 129.21 98.7001C129.11 100.88 127.94 102.9 126.41 104.46C124.88 106.02 123 107.18 121.14 108.32C115.62 111.71 108.67 111.97 102.46 113.81C100.51 114.39 98.5499 114.97 96.6999 115.82C95.0699 116.57 93.5499 117.52 92.0099 118.45C88.0899 120.82 84.0899 123.06 80.0399 125.2C78.1999 126.17 76.2199 127.55 74.2599 128.23C72.2999 128.91 70.2399 128.07 68.3399 128.91C66.2999 129.81 65.3099 132.06 64.2299 134.01C63.3499 135.59 47.8999 135.37 46.7699 136.76C46.1399 137.53 46.3099 139.79 49.1399 140.9C51.9699 142.01 57.6899 142.07 56.8399 142.68" fill="#8C6239"/>
<path d="M47.82 76.3799C48.93 75.8699 49.96 75.1799 50.86 74.3599C51.21 74.0499 51.2 73.4199 50.86 73.0999C50.49 72.7599 49.97 72.7699 49.6 73.0999C49.39 73.2899 49.17 73.4799 48.94 73.6499L49.12 73.5099C48.44 74.0399 47.7 74.4799 46.92 74.8399C46.73 74.9299 46.57 75.1799 46.51 75.3699C46.45 75.5799 46.48 75.8699 46.6 76.0499C46.72 76.2299 46.9 76.4099 47.13 76.4599C47.38 76.5199 47.59 76.4699 47.81 76.3699L47.82 76.3799Z" fill="black"/>
<path d="M101.39 85.1605C101.12 84.5005 100.81 83.7805 100.19 83.4305C99.6199 83.1205 98.8499 83.1405 98.4399 82.6305C97.9399 82.0005 98.4099 81.0505 99.0099 80.5005C99.6099 79.9505 100.38 79.4905 100.6 78.7105C99.7999 77.4605 98.1899 76.7805 96.7399 77.0905C96.5299 74.2405 93.7299 71.8505 90.8799 72.0905C89.9299 69.3605 90.4199 66.0505 88.5699 63.8305C87.3999 62.4305 85.5599 61.8105 83.8099 61.2705C82.6799 60.9105 81.3299 60.5905 80.3899 61.3105C79.6899 61.8505 79.4699 62.7805 79.0199 63.5405C78.5699 64.3005 77.5599 64.9405 76.8499 64.4105C76.5599 64.1905 76.4099 63.8405 76.1599 63.5805C75.5899 63.0205 74.6499 63.1005 73.8999 63.3705C73.1499 63.6405 72.4299 64.0705 71.6299 64.1005C69.8499 64.1605 68.3199 62.2105 66.5999 62.6605C65.8899 62.8505 65.3499 63.4105 64.7099 63.7705C64.0699 64.1305 63.1299 64.2205 62.7199 63.6105C62.4799 63.2505 62.4699 62.6905 62.0699 62.5005C61.6599 62.3005 61.2099 62.6805 60.9699 63.0605C60.7299 63.4405 60.5399 63.9205 60.1199 64.0805C59.7699 64.2105 59.3799 64.0805 59.0299 64.2005C58.5699 64.3605 58.3599 64.8605 58.0999 65.2705C57.4899 66.2705 56.4399 66.8905 55.4999 67.6005C54.5599 68.3105 53.6699 69.2505 53.6099 70.4205C52.8099 70.7605 51.9399 69.7505 51.0899 69.9705C50.2599 70.1905 50.1699 71.3305 50.2699 72.1905C49.9799 72.6105 49.3699 72.5805 48.9199 72.3505C48.4699 72.1205 48.1399 71.7105 47.7699 71.3505C45.8799 69.5505 42.7599 69.4505 40.4899 70.7405C38.2199 72.0305 36.7699 74.4705 36.1899 77.0205C35.8199 78.6705 35.8899 80.6605 37.2099 81.7205C37.7099 82.1205 38.3299 82.3305 38.8499 82.7005C39.3699 83.0705 39.8099 83.6805 39.6599 84.3005C39.4399 85.2305 38.2099 85.3905 37.2499 85.3605C37.8799 86.0405 36.8899 87.0305 36.8099 87.9505C36.7499 88.7005 37.2999 89.6005 36.7599 90.1305C36.5699 90.3205 36.2999 90.3805 36.0599 90.5105C35.1599 90.9905 34.9799 92.2905 35.4399 93.1905C35.8999 94.0905 36.8199 94.6805 37.7199 95.1405C42.7099 97.6705 48.5299 97.8105 54.1299 97.8005C59.2799 97.8005 64.3499 97.5105 69.4699 97.0705C74.8199 96.6105 80.2299 96.7505 85.5899 96.2805C88.2899 96.0405 91.0499 95.7405 93.5099 94.5805C94.1899 94.2605 94.8499 93.8705 95.5599 93.6105C97.7999 92.7705 100.3 93.2105 102.54 92.3705C102.92 92.2305 103.77 91.9605 103.89 91.5305C104 91.1405 103.25 89.9105 103.09 89.5105L101.35 85.1605H101.39Z" fill="#8C6239"/>
<path d="M63.29 139.74C64.6 140.23 66.17 138.79 65.8 137.44C66.84 137.85 67.99 137.16 68.73 136.33C69.47 135.5 70.06 134.48 71.04 133.94C71.71 133.57 72.49 133.46 73.19 133.16C73.89 132.86 74.57 132.25 74.55 131.49C76.12 132.13 77.85 131.18 79.29 130.28C82.07 128.56 84.92 126.94 87.83 125.43C88.17 125.25 88.54 125.07 88.92 125.1C89.28 125.13 89.6 125.34 89.89 125.55C91.06 126.39 92.49 127.37 93.81 126.79C94.25 126.6 94.6 126.25 95.02 126.02C95.67 125.67 96.44 125.63 97.18 125.6C108.56 125.15 120.46 124.81 130.77 129.65C131.86 130.16 133.09 130.99 133.04 132.19L139.35 133.72C138.76 134.23 139.42 135.16 140.06 135.61C140.7 136.06 141.43 136.9 140.92 137.49C143.97 139.47 147.47 140.74 151.08 141.18L151.5 145.29C151.54 145.7 151.6 146.14 151.87 146.44C152.12 146.72 152.5 146.83 152.78 147.07C153.52 147.67 153.43 148.9 152.84 149.64C152.25 150.38 151.32 150.77 150.44 151.11C145.37 153.04 140.13 154.48 134.79 155.42C133.87 155.58 132.92 155.74 132.1 156.18C131.56 156.47 131.09 156.89 130.53 157.14C129.42 157.65 128.13 157.49 126.92 157.36C122.11 156.84 117.23 156.91 112.44 157.56C110.62 157.81 108.81 158.14 106.98 158.08C102.63 157.94 98.26 155.61 94.09 156.88C93.4 157.09 92.68 157.39 92 157.18C91.35 156.98 90.92 156.37 90.35 156C89.78 155.63 88.78 155.71 88.67 156.38C85.58 153.62 81.83 151.6 77.83 150.53L77.18 152.02C73.7 149.67 70.04 147.57 66.25 145.75C64.9 145.1 64.04 145.04 63.68 143.53C63.59 143.17 63.33 139.7 63.31 139.69L63.29 139.74Z" fill="#C69C6D"/>
<path d="M74.7899 92.8801C76.3899 92.5101 77.9799 91.9901 79.3699 91.1201L80.5399 93.1501C80.7899 93.5701 81.0399 94.0101 81.1099 94.5001C81.2799 95.6001 80.4799 96.6601 79.4799 97.1501C78.4799 97.6401 77.3299 97.6701 76.2199 97.6601C72.1099 97.6401 68.0099 97.2201 63.9799 96.4001C63.8999 95.8601 63.8099 95.3001 63.9099 94.7601C64.3099 92.5901 66.9799 93.5801 68.5299 93.5801C70.6299 93.5801 72.7299 93.3501 74.7799 92.8801H74.7899Z" fill="#6B0A05"/>
<path d="M156.28 87.26C157.92 86.43 159.64 85.8 161.43 85.36L160.68 84.38L159.6 85.92C159.25 86.42 159.83 87.02 160.35 86.9C163.28 86.21 166.25 85.73 169.25 85.47L168.61 84.63C168.44 85.15 168.19 85.61 167.87 86.05C167.55 86.49 167.99 87.03 168.45 87.05C169.77 87.12 171.07 87.4 172.28 87.93C172.84 88.17 173.37 88.6 173.96 88.73C174.6 88.87 175.28 88.9 175.93 88.98C176.25 89.02 176.65 89.16 176.97 89.15C177.1 89.29 177.18 89.29 177.18 89.16C177.23 89.05 177.2 89.05 177.1 89.16C176.77 89.38 176.4 89.59 176.27 89.99C175.93 91.03 177.47 91.89 178.11 92.45L178.24 91.4C177.78 91.64 177.38 91.92 176.98 92.25C176.62 92.55 176.8 93.07 177.11 93.3L180.31 95.64C181 96.15 181.67 94.99 180.98 94.49L177.78 92.15L177.91 93.2C178.22 92.94 178.54 92.74 178.9 92.56C179.26 92.38 179.35 91.79 179.03 91.51L178.2 90.78C178.07 90.67 177.93 90.5 177.78 90.42C177.64 90.18 177.55 90.16 177.53 90.36C177.46 90.49 177.47 90.52 177.55 90.44C177.85 90.44 178.31 89.83 178.4 89.6C178.87 88.42 177.49 87.87 176.59 87.75C175.85 87.65 175.07 87.63 174.34 87.46C173.72 87.32 173.12 86.87 172.52 86.62C171.21 86.08 169.83 85.8 168.41 85.73L168.99 86.73C169.38 86.2 169.66 85.62 169.87 84.99C170 84.6 169.65 84.11 169.23 84.15C166.11 84.42 163.02 84.91 159.97 85.63L160.72 86.61L161.8 85.07C162.15 84.57 161.57 83.96 161.05 84.09C159.15 84.56 157.33 85.25 155.58 86.13C154.81 86.51 155.49 87.66 156.25 87.28L156.28 87.26Z" fill="black"/>
<path d="M129.93 94.2797L128.57 92.0197L128.17 92.9997C129.27 92.8297 129.92 91.6897 129.64 90.6397L128.82 91.4597C130.88 91.7497 132 89.7497 133.05 88.2997C133.17 88.1297 133.35 87.7397 133.53 87.6397C133.92 87.4197 133.45 87.6297 133.65 87.6097C133.74 87.6097 133.89 87.6697 133.98 87.6897C134.43 87.7997 134.88 87.9397 135.35 87.9197C135.79 87.8997 136.13 87.7197 136.46 87.4597C136.92 87.0997 137.55 87.1897 138.12 87.1697C140.57 87.0497 143.03 86.9297 145.48 86.8097C147.77 86.6997 150.17 86.4897 152.44 86.8697C153.43 87.0397 154.45 87.3297 155.24 87.9797C155.69 88.3397 156.08 88.8397 156.22 89.4097C156.38 90.0097 156.17 90.8297 155.43 90.8697C154.58 90.9197 154.57 92.2497 155.43 92.1997C156.45 92.1397 157.3 91.4497 157.55 90.4397C157.8 89.4297 157.35 88.3397 156.69 87.5497C155.34 85.9397 153.09 85.5097 151.1 85.3897C148.22 85.2197 145.32 85.4797 142.44 85.6197L138.26 85.8197C137.68 85.8497 137.04 85.8097 136.47 85.9397C135.9 86.0697 135.6 86.6297 135.01 86.5597C134.46 86.4897 133.9 86.1897 133.33 86.2697C132.73 86.3497 132.46 86.8497 132.13 87.2997C131.7 87.8897 131.3 88.4897 130.85 89.0597C130.46 89.5497 129.87 90.2697 129.17 90.1697C128.68 90.0997 128.21 90.4497 128.35 90.9897C128.46 91.3897 128.19 91.6497 127.81 91.7097C127.38 91.7797 127.21 92.3497 127.41 92.6897L128.77 94.9497C129.21 95.6797 130.36 95.0097 129.92 94.2797H129.93Z" fill="black"/>
<path d="M46.0501 137.43L45.3701 139.43C45.1901 139.95 45.8801 140.53 46.3501 140.18L46.2201 139.97C46.1201 140.49 46.5201 140.89 47.0401 140.79C47.6701 140.67 48.2101 140.35 48.6201 139.85L47.4801 139.38L47.7701 141.76C47.8301 142.23 48.3001 142.62 48.7701 142.34C50.0301 141.57 51.7501 142.53 52.9901 142.94C54.3001 143.37 55.8201 143.61 56.8301 142.43H55.8901L57.3201 143.77C57.7101 144.14 57.9901 144.46 58.5301 144.56C59.5601 144.74 60.4201 145.34 60.9601 146.22C61.2301 146.66 61.8301 146.64 62.1101 146.22C62.5801 145.5 62.9001 144.71 63.0501 143.86L62.0701 144.26C62.9301 144.88 63.7001 145.63 64.3401 146.48C64.6501 146.89 65.4301 146.94 65.5601 146.32C65.6201 146 66.5201 147.02 66.6001 147.09C66.9501 147.44 67.3701 147.75 67.8901 147.76C68.7601 147.78 69.6401 147.04 69.3301 146.13L68.2201 146.78C70.9101 149.34 74.0301 151.34 77.4601 152.76C77.8701 152.93 78.3001 152.51 78.3001 152.12V150.34L77.2901 150.92C81.5701 152.92 85.7201 155.17 89.7301 157.66C90.2701 158 91.0401 157.3 90.6401 156.75L89.5901 155.27L89.0101 156.27C90.7101 156.29 91.8401 158.01 93.5901 157.99C94.8201 157.97 96.2001 157.26 96.1101 155.86L94.9701 156.33C96.8701 157.83 99.4201 158.3 101.7 157.39L101.19 157.32C103.7 158.85 106.67 158.85 109.5 158.57C112.74 158.25 115.96 157.87 119.23 157.78C120.97 157.73 122.71 157.74 124.46 157.8C126.08 157.86 127.75 158.13 129.37 158.02C130.06 157.98 130.71 157.82 131.33 157.5C132.1 157.1 132.72 156.68 133.58 156.5C135.13 156.19 136.7 156.02 138.25 155.7C144.31 154.45 150.72 152.42 155.72 148.66C156.27 148.24 156.8 147.79 157.4 147.43C158.16 146.98 158.97 146.91 159.83 146.86C161.09 146.79 162.29 146.63 163.3 145.82C164.89 144.54 165.39 142.42 166.83 141.02C167.02 140.84 167.22 140.68 167.44 140.55C167.75 140.37 167.82 140.38 168.15 140.48C168.87 140.71 169.71 140.65 170.44 140.48C172.01 140.12 173.38 139.08 174.54 138C174.84 137.72 175.16 137.42 175.42 137.1C175.66 136.81 175.81 136.45 176.07 136.17C176.56 135.64 177.25 135.29 177.77 134.78C178.94 133.65 179.81 132.25 180.66 130.88C181.11 130.15 179.96 129.48 179.51 130.21C178.7 131.52 177.87 132.86 176.74 133.92C176.26 134.37 175.68 134.7 175.21 135.15C174.66 135.66 174.33 136.35 173.78 136.88C172.64 137.98 171.19 139.16 169.54 139.28C168.87 139.33 168.21 138.91 167.58 139.04C167.09 139.14 166.62 139.44 166.23 139.75C164.57 141.07 164.11 143.34 162.53 144.7C161.4 145.68 159.86 145.42 158.48 145.63C156.91 145.87 155.84 146.9 154.6 147.79C151.96 149.69 148.97 151.05 145.92 152.14C142.68 153.3 139.34 154.17 135.95 154.75C134.47 155 132.87 155.05 131.53 155.78C130.74 156.21 130.14 156.61 129.21 156.66C128.28 156.71 127.37 156.58 126.46 156.53C122.89 156.32 119.3 156.33 115.72 156.58C113.84 156.71 111.96 156.93 110.09 157.14C108.43 157.32 106.73 157.47 105.07 157.25C104.21 157.14 103.35 156.92 102.57 156.54C102.25 156.39 101.87 156.05 101.5 156.04C101.18 156.04 100.79 156.26 100.48 156.34C98.9101 156.72 97.1601 156.34 95.8901 155.34C95.4801 155.02 94.7101 155.17 94.7501 155.81C94.8201 156.87 93.1101 156.65 92.5201 156.35C91.3501 155.75 90.3601 154.91 88.9801 154.89C88.5101 154.89 88.1101 155.47 88.4001 155.89L89.4501 157.37L90.3601 156.46C86.3501 153.97 82.2001 151.72 77.9201 149.72C77.4801 149.51 76.9201 149.75 76.9201 150.3V152.08L77.7701 151.44C74.5601 150.12 71.6301 148.2 69.1201 145.81C68.6601 145.37 67.7901 145.81 68.0101 146.46C67.9901 146.39 67.6301 146.25 67.5101 146.13C67.3501 145.98 67.2201 145.79 67.0701 145.64C66.7601 145.32 66.4401 145.08 66.0001 144.98C65.2601 144.81 64.4001 145.15 64.2401 145.95L65.4601 145.79C64.6701 144.74 63.7701 143.86 62.7101 143.09C62.3801 142.85 61.8001 143.09 61.7301 143.49C61.6001 144.24 61.3401 144.9 60.9201 145.53H62.0701C61.2401 144.18 59.9201 143.38 58.3601 143.19L58.8301 143.39L56.7901 141.48C56.5401 141.25 56.0901 141.2 55.8501 141.48C54.9501 142.54 53.2601 141.63 52.2101 141.26C50.8701 140.8 49.3701 140.38 48.0701 141.18L49.0701 141.76L48.7801 139.38C48.7201 138.89 48.0501 138.4 47.6401 138.91C47.3601 139.26 47.0901 139.43 46.6501 139.51L47.4701 140.33C47.6701 139.33 46.5601 138.37 45.6401 139.04L46.6201 139.79L47.3001 137.79C47.5801 136.98 46.2901 136.63 46.0201 137.44L46.0501 137.43Z" fill="black"/>
<path d="M193.7 92.1301C194.36 91.7801 195.44 91.6801 195.61 92.4001C195.75 92.9801 195.09 93.6502 195.45 94.1202C198.08 94.1002 200.72 93.9301 203.33 93.6101C203.61 94.4901 203.34 95.5202 202.68 96.1602C204.63 95.5002 206.62 94.9501 208.63 94.5301C208.63 95.3701 208.51 96.2101 208.31 97.0201C213.93 97.3601 219.52 98.2301 224.98 99.6101C223.57 101.45 220.35 101.06 219.04 102.98C222.62 103.79 226.15 104.84 229.6 106.11C230.01 106.26 230.44 106.43 230.72 106.76C231.65 107.87 230.37 109.92 231.45 110.89C231.6 111.03 231.8 111.15 231.82 111.35C231.84 111.62 231.53 111.77 231.27 111.84C230 112.18 228.67 112.27 227.37 112.11L234.33 118.58C234.74 118.96 235.16 119.37 235.32 119.9C235.48 120.43 235.25 121.13 234.71 121.27C234.42 121.34 234.13 121.25 233.84 121.17C232.21 120.7 230.49 120.56 228.81 120.76C229.58 121.6 230.17 122.61 230.54 123.7C230.6 123.89 230.66 124.11 230.55 124.29C230.46 124.43 230.28 124.5 230.12 124.54C228.29 125.02 226.21 124.27 225.11 122.73C224.53 121.92 224.19 120.91 223.42 120.27C223.45 121.25 223.42 122.24 223.32 123.21C222.06 123.34 220.75 122.94 219.77 122.13C219.5 121.91 219.16 121.64 218.85 121.8C218.64 121.91 218.57 122.17 218.53 122.4L218.15 124.23C217.53 124.66 216.64 124.39 216.08 123.89C215.52 123.39 215.16 122.7 214.67 122.12C214.04 121.37 213.22 120.82 212.4 120.28L209.24 118.18C208.45 118.72 208.04 119.75 208.24 120.69C207.3 119.99 206.38 119.28 205.47 118.54C204.99 118.92 205.58 119.93 205.03 120.21C204.89 120.28 204.72 120.26 204.56 120.24C203.26 120.07 201.9 119.87 200.83 119.11C199.1 117.87 198.63 115.48 198.72 113.35C198.81 111.22 199.31 109.08 198.94 106.98C198.51 104.54 196.94 102.44 195.15 100.73C194.33 99.9502 193.46 99.2401 192.58 98.5301C191.88 97.9601 190.2 97.0502 189.83 96.2302C189.24 94.9002 192.6 92.6801 193.7 92.1001V92.1301Z" fill="#8C6239"/>
<path d="M190.41 95.3698C191.36 94.5098 192.37 93.7198 193.44 93.0098C193.66 92.8598 193.89 92.7198 194.12 92.5798C194.26 92.4898 194.41 92.3998 194.56 92.3198C194.73 92.2598 194.8 92.3198 194.79 92.4998C194.92 92.7098 194.93 93.2298 194.95 93.4498C194.99 93.8298 195 94.2098 195.01 94.5898C195.01 95.0698 195.43 95.2898 195.85 95.2298L204.62 93.9598L203.97 92.8498L201.46 96.0898C201.1 96.5498 201.41 97.4598 202.11 97.1998C204.83 96.1898 207.6 95.3398 210.41 94.6598L209.76 93.5498L207.16 96.8598C206.82 97.2998 207.01 97.9898 207.63 97.9998C211.41 98.0498 215.2 97.9998 218.98 97.8398L218.8 96.5298L215.39 97.6598C214.68 97.8898 214.8 98.9498 215.57 98.9698C218.75 99.0498 222.04 99.1398 224.99 100.48V99.3298L218.05 102.64C217.39 102.95 217.8 103.82 218.39 103.88C222.96 104.32 227.43 105.45 231.67 107.2V105.92C228.84 106.45 231.23 110.56 231.79 111.93L232.43 111.09L226.48 110.88C225.89 110.86 225.62 111.62 226.01 112.02C228.99 115.05 234.01 116.94 234.96 121.49L235.6 120.65L228.05 119.93C227.44 119.87 227.21 120.68 227.58 121.07L231.09 124.78L231.22 123.73C228.02 125.41 225.33 121.74 223.84 119.47C223.5 118.96 222.84 119.1 222.62 119.63C222.42 120.12 222.46 120.63 222.56 121.13C222.63 121.49 223.05 122.29 222.86 122.64C222.58 123.16 221.23 122.26 220.89 122.09L218.53 120.91C218.04 120.67 217.59 120.98 217.53 121.49L217.11 124.89L218.25 124.42L209.12 117.22C208.76 116.93 208.12 116.97 208.01 117.51C207.72 118.83 207.82 120.12 207.97 121.45L209.11 120.98C207.96 120.03 206.94 118.98 206.03 117.8C205.82 117.53 205.3 117.55 205.09 117.8C204.83 118.11 204.65 118.42 204.56 118.81C204.47 119.2 204.55 119.67 204.39 120.04C204.26 120.35 204.14 120.39 203.85 120.16C203.62 119.98 203.41 119.78 203.19 119.58L201.87 118.43C201.23 117.87 200.28 118.81 200.93 119.37C201.58 119.93 202.23 120.54 202.9 121.1C203.36 121.49 203.9 121.84 204.53 121.67C205.03 121.54 205.37 121.11 205.57 120.66C205.81 120.09 205.62 119.21 206.02 118.74H205.08C205.99 119.91 207.02 120.97 208.16 121.92C208.55 122.24 209.37 122.08 209.3 121.45C209.17 120.25 209.04 119.05 209.3 117.86L208.19 118.15L217.32 125.35C217.8 125.73 218.38 125.47 218.46 124.88L218.88 121.48L217.88 122.06C218.95 122.6 220.02 123.15 221.1 123.67C221.84 124.02 222.71 124.35 223.48 123.88C224.1 123.5 224.29 122.82 224.19 122.13C224.09 121.44 223.63 120.66 223.92 119.97L222.7 120.13C223.79 121.78 224.95 123.54 226.7 124.57C228.29 125.51 230.24 125.75 231.91 124.87C232.3 124.66 232.33 124.12 232.04 123.82L228.53 120.11L228.06 121.25L235.61 121.97C236.07 122.01 236.33 121.51 236.25 121.13C235.23 116.24 230.14 114.3 226.96 111.07L226.49 112.21L232.44 112.42C232.83 112.43 233.25 111.98 233.08 111.58L232.1 109.21C231.91 108.75 231.17 107.37 232.03 107.2C232.75 107.06 232.56 106.14 232.03 105.92C227.67 104.12 223.09 103 218.4 102.55L218.74 103.79L225.68 100.48C226.11 100.28 226.12 99.5298 225.68 99.3298C222.5 97.8898 219.03 97.7298 215.59 97.6398L215.77 98.9498L219.18 97.8198C219.86 97.5898 219.79 96.4798 219 96.5098C215.22 96.6698 211.43 96.7198 207.65 96.6698L208.12 97.8098L210.72 94.4998C211.11 93.9998 210.77 93.2198 210.07 93.3898C207.26 94.0798 204.49 94.9298 201.77 95.9298L202.42 97.0398L204.93 93.7998C205.35 93.2598 204.96 92.5898 204.28 92.6898L195.51 93.9598L196.35 94.5998C196.35 93.3098 196.28 90.3298 194.21 91.0598C193.35 91.3598 192.53 92.0298 191.8 92.5698C191 93.1598 190.23 93.7898 189.49 94.4498C188.85 95.0298 189.8 95.9598 190.43 95.3898L190.41 95.3698Z" fill="black"/>
<path d="M168.44 130.37C167.91 131.88 167.16 133.27 166.21 134.56L167.43 134.72L166.78 132.72C166.56 132.05 165.74 132.13 165.5 132.72C164.73 134.61 163.6 136.32 162.18 137.79L163.29 138.44L163.77 136.51C163.89 136.04 163.45 135.53 162.95 135.69L153.02 138.96L153.53 140.18L154.65 139.43C155.16 139.09 155.02 138.43 154.49 138.21C152.65 137.47 150.74 137.02 148.78 136.8L148.96 138.11L150.47 137.66C151.07 137.48 151.14 136.51 150.47 136.38C148.26 135.93 146.06 135.42 143.88 134.85L144.04 136.07L145.79 134.95C146.26 134.65 146.2 133.88 145.63 133.73L141.44 132.64L141.73 133.75C142.55 133.08 143.49 132.67 144.53 132.46C144.8 132.41 145.04 132.09 145.02 131.82C144.97 131.11 144.56 130.53 143.83 130.39C142.99 130.24 142.63 131.52 143.48 131.67L143.69 131.81L144.18 131.17C142.91 131.43 141.79 131.99 140.79 132.8C140.39 133.12 140.63 133.8 141.08 133.91L145.27 135L145.11 133.78L143.36 134.9C142.89 135.2 142.95 135.97 143.52 136.12C145.7 136.69 147.9 137.2 150.11 137.65V136.37L148.6 136.82C147.84 137.05 148.06 138.05 148.78 138.13C150.62 138.33 152.42 138.8 154.14 139.49L153.98 138.27L152.86 139.02C152.27 139.42 152.62 140.49 153.37 140.24L163.3 136.97L162.48 136.15L162 138.08C161.84 138.71 162.64 139.22 163.11 138.73C164.7 137.09 165.92 135.19 166.78 133.07H165.5L166.15 135.07C166.34 135.65 167.03 135.69 167.37 135.23C168.39 133.85 169.17 132.34 169.73 130.72C170.01 129.91 168.73 129.56 168.45 130.37H168.44Z" fill="black"/>
<path d="M191.97 94.7197H33.5701C28.7597 94.7197 24.8601 98.6193 24.8601 103.43V121.53C24.8601 126.34 28.7597 130.24 33.5701 130.24H191.97C196.781 130.24 200.68 126.34 200.68 121.53V103.43C200.68 98.6193 196.781 94.7197 191.97 94.7197Z" fill="white"/>
<path d="M80.57 63.9604L80.8 64.4304C80.85 64.2004 81.01 64.0004 81.22 63.9104C81.78 63.7204 82.29 63.3604 82.66 62.9004C82.82 63.2804 82.93 63.6804 82.97 64.1004L84.09 63.6404L84.19 64.5204C84.59 64.2704 85.08 64.1604 85.55 64.2004C85.59 64.5104 85.53 64.8304 85.38 65.1104C85.71 65.0904 85.79 65.5804 86.04 65.7804C86.14 65.8604 86.27 65.8904 86.39 65.9304L88.55 66.4804C88.2 66.6904 88.48 67.2204 88.44 67.6204C88.4 68.1104 87.88 68.4004 87.43 68.6004C88.04 69.1804 88.55 69.8804 88.91 70.6404V71.8204C88.77 71.7204 88.53 71.8204 88.52 72.0004C88.02 71.9404 87.56 71.6404 87.31 71.2004L86.55 71.6604C86.34 71.1804 86.09 70.7104 85.8 70.2604L85.53 70.5004C85.3 70.1904 85.05 69.8704 84.71 69.6904C84.37 69.5104 83.9 69.5004 83.63 69.7804C83.32 69.2404 82.66 68.9404 82.06 69.0604C81.88 68.3704 81.26 67.9004 80.77 67.3804C80.31 66.8904 80.06 66.3304 80.14 65.6604C80.18 65.3304 80.69 64.2104 80.58 63.9804L80.57 63.9604Z" fill="#C69C6D"/>
<path d="M46.6601 79.4099C48.0801 78.6399 49.7701 78.6299 51.3701 78.3899C53.8701 78.0099 56.2701 76.9899 58.2801 75.4599C58.6401 75.1799 59.0301 74.8799 59.4901 74.8799C59.7401 74.8799 59.9801 74.9799 60.2301 75.0199C60.6201 75.0798 61.0201 74.9999 61.4001 74.9099C63.6601 74.4099 65.9501 73.9099 68.0601 72.9699C68.6801 72.6899 69.4201 72.3799 70.0101 72.7299C70.3701 72.9499 70.5701 73.3798 70.9401 73.5898C71.7601 74.0698 72.6801 73.2399 73.5001 72.7699C74.6001 72.1299 75.9401 72.1099 77.2101 72.0999H79.9401C81.1401 72.0799 82.3401 72.0799 83.5401 72.1399C84.6701 72.1999 85.8101 72.3099 86.9201 72.5599C88.7201 72.9599 90.4401 73.7099 92.0501 74.6199C93.3201 75.3399 94.6001 76.2399 95.1301 77.5898C95.6101 78.8198 95.3901 80.1999 95.1701 81.4999C95.0501 82.1899 94.9201 82.9099 94.4801 83.4599C93.7201 84.4299 92.3201 84.5399 91.0801 84.5799L87.2201 84.6899L84.0001 84.7799C82.2501 84.8299 80.4701 84.8799 78.7801 84.4099C78.2701 84.2699 77.7501 84.0799 77.2301 84.1799C76.9701 84.2299 76.7301 84.3399 76.4701 84.3599C75.5201 84.4399 74.7801 83.2599 73.8401 83.4299L73.2001 84.5499C70.9201 84.0599 68.6801 85.3399 66.5701 86.3199C63.7801 87.6199 60.7801 88.4899 57.7301 88.8799C57.5301 88.9099 57.3201 88.9299 57.1401 89.0299C56.8401 89.1899 56.6801 89.5199 56.5001 89.7999C55.6401 91.1099 54.0701 91.7099 52.5901 92.2099C50.6201 92.8799 48.6001 93.5299 46.5201 93.6399C44.4401 93.7499 42.2501 93.2399 40.6801 91.8599C40.4901 91.6899 40.3101 91.5098 40.2401 91.2698C40.1001 90.7799 40.4701 90.3098 40.6701 89.8398C41.1801 88.6598 40.6401 87.2799 40.9601 86.0399C41.3101 84.6899 42.5201 83.8599 43.3201 82.7899C44.0701 81.7999 44.4601 80.6699 45.0001 79.5699C45.5401 79.9599 46.1001 79.6999 46.6401 79.4099H46.6601Z" fill="#C69C6D"/>
<path d="M157.43 127.73C157.39 126.73 156.74 125.85 155.97 125.22C154.31 123.86 152.1 123.41 149.99 122.99L143.39 121.71C141.88 121.42 140.37 121.12 138.84 120.93C138.07 120.83 137.22 120.78 136.59 121.24C135.92 121.72 135.72 122.67 135.88 123.48C136.04 124.29 136.51 125 136.97 125.69C138.14 127.46 139.44 129.33 141.42 130.09C143.22 130.78 145.23 130.42 147.16 130.39C148.34 130.38 149.53 130.5 150.69 130.75C151.72 130.98 152.97 131.77 153.99 131.81C155.56 131.87 157.48 129.23 157.43 127.72V127.73Z" fill="#8C6239"/>
<path d="M78.76 64.6704C79.86 63.6904 80.86 62.3404 82.28 61.8004C83.85 61.2004 85.68 62.1504 86.93 63.0804C89.82 65.2404 90.9 69.0504 89.77 72.4404C89.5 73.2604 90.78 73.6004 91.05 72.7904C92.38 68.8004 90.96 64.4204 87.6 61.9204C86.12 60.8204 84.03 59.8804 82.16 60.4304C80.29 60.9804 79.16 62.5204 77.82 63.7204C77.18 64.2904 78.12 65.2304 78.76 64.6604V64.6704Z" fill="black"/>
<path d="M49.8499 71.8304C48.8599 70.3404 47.0299 69.1904 45.2699 68.8704C43.3599 68.5204 41.5399 69.7004 40.0499 70.7504C37.0599 72.8604 34.4399 76.6404 35.7999 80.4504C36.4299 82.2204 37.8199 83.6604 39.6599 84.1404C40.4899 84.3604 40.8399 83.0704 40.0099 82.8604C38.3599 82.4304 37.1899 80.9904 36.8699 79.3404C36.4699 77.3404 37.3599 75.2304 38.6599 73.7404C39.9099 72.3004 41.7299 70.9504 43.5399 70.3004C45.3499 69.6504 47.7099 71.0204 48.6899 72.5004C49.1599 73.2104 50.3199 72.5404 49.8399 71.8304H49.8499Z" fill="black"/>
<path d="M50.7099 73.0705C50.7499 71.8405 50.9999 70.6305 51.4899 69.4905L50.4399 69.6205L52.6499 71.5705C52.8799 71.7705 53.1799 71.8205 53.4599 71.6705C54.0999 71.3205 54.3699 70.7205 54.5899 70.0605C54.7099 69.7005 54.7999 69.3205 55.0799 69.0405C55.4099 68.7005 55.9099 68.5205 56.2999 68.2605C57.7499 67.2605 58.7899 65.7905 59.2899 64.1005L58.3099 64.5005L59.5599 65.3505C59.8599 65.5505 60.2999 65.4105 60.4699 65.1105L62.4599 61.6905H61.3099L62.9299 65.4205C63.0999 65.8205 63.7099 65.8305 63.9799 65.5505L66.1999 63.2505L65.1499 63.1205L65.8299 64.4905C66.0099 64.8405 66.6199 64.9505 66.8799 64.6205C67.3999 63.9705 67.7899 63.2905 68.1099 62.5305L66.8899 62.6905L67.8199 63.9405C68.0499 64.2505 68.3699 64.3405 68.7299 64.1805L69.9099 63.6605L68.9999 62.7505C68.4499 63.5605 69.0399 64.4105 69.8299 64.7605C70.2499 64.9405 70.6999 64.9905 71.1499 64.8905C71.6999 64.7705 72.4199 64.2805 72.9599 64.6205C73.2499 64.8005 73.7099 64.7005 73.8699 64.3805C74.1099 63.9005 74.3599 63.6605 74.8799 63.8405C75.3499 64.0005 75.7999 64.1905 76.2399 64.4205C77.1399 64.8905 77.9599 65.4905 78.6699 66.2105C79.9299 67.4905 80.7099 69.1905 82.4899 69.8505C83.2899 70.1505 83.6399 68.8605 82.8399 68.5705C81.7999 68.1805 81.1599 67.1505 80.5099 66.3205C79.8199 65.4405 79.0299 64.6705 78.1199 64.0205C77.2099 63.3705 76.1799 62.8605 75.1099 62.5205C74.0399 62.1805 73.1799 62.7605 72.7099 63.7105L73.6199 63.4705C73.0399 63.1105 72.4199 63.1305 71.7799 63.3005C71.4599 63.3905 71.1099 63.5805 70.7799 63.6105C70.6099 63.6205 70.0999 63.4705 70.1399 63.4205C70.5599 62.8105 69.7699 62.2705 69.2299 62.5105L68.0499 63.0305L68.9599 63.2705L68.0299 62.0205C67.6699 61.5405 67.0399 61.6305 66.8099 62.1805C66.5799 62.7305 66.2899 63.2305 65.9299 63.6905L66.9799 63.8205L66.2999 62.4505C66.1099 62.0705 65.5399 62.0205 65.2499 62.3205L63.0299 64.6205L64.0799 64.7505L62.4599 61.0205C62.2499 60.5505 61.5399 60.6305 61.3099 61.0205L59.3199 64.4405L60.2299 64.2005L58.9799 63.3505C58.6099 63.1005 58.1199 63.3505 57.9999 63.7505C57.5199 65.3705 56.4899 66.6305 55.0499 67.4805C54.4399 67.8405 53.9299 68.2205 53.6199 68.8805C53.3799 69.3905 53.3299 70.2505 52.7899 70.5405L53.5999 70.6405L51.3899 68.6905C51.1099 68.4405 50.5199 68.4005 50.3399 68.8205C49.7599 70.1905 49.4299 71.5905 49.3799 73.0705C49.3499 73.9305 50.6799 73.9305 50.7099 73.0705Z" fill="black"/>
<path d="M65.7199 131.5C66.1799 130.77 66.7899 130.15 67.2499 129.43C67.9199 128.36 68.2399 127.12 68.5399 125.89C68.7399 125.09 68.9299 124.28 68.8699 123.47C68.8099 122.73 68.5299 122.02 68.2599 121.32C68.0399 120.76 67.8099 120.19 67.4599 119.7C66.8099 118.8 65.7599 118.25 64.6699 118.04C63.5799 117.83 62.4599 117.94 61.3699 118.16C60.7499 118.29 60.1299 118.46 59.5999 118.79C59.3099 118.97 59.0499 119.2 58.7399 119.36C58.0499 119.72 57.2199 119.71 56.5099 120.02C55.5299 120.45 54.9099 121.41 54.1099 122.12C53.5599 122.61 52.8999 123 52.4099 123.56C51.7799 124.28 51.4699 125.23 50.9499 126.04C50.4099 126.87 49.6299 127.54 49.1199 128.4C48.6699 129.14 48.4399 129.99 48.1699 130.81C47.3599 133.28 46.8999 134.2 47.3599 136.75C47.4199 137.1 48.3599 136.45 48.5399 136.75C48.7599 137.12 53.5199 136.5 53.8699 136.75C55.2299 137.71 56.9499 136.59 58.6099 136.75C60.0899 136.89 59.5199 136.46 60.9799 136.75C61.4499 136.84 61.0899 136.76 61.5699 136.75C63.0099 136.71 62.5799 137.98 63.3499 136.75C64.2299 135.34 63.5699 136.96 64.2799 135.46C64.8899 134.18 64.9499 132.73 65.7299 131.49L65.7199 131.5Z" fill="#8C6239"/>
<path d="M102.18 92.2898C101.81 92.5798 101.51 92.9598 101.11 93.1998C100.32 93.6898 99.3199 93.5598 98.3899 93.5398C97.4099 93.5198 96.3899 93.6498 95.5399 94.1298C94.6799 94.6098 94.0099 95.4998 93.9799 96.4798C93.9799 96.6398 93.9799 96.7998 93.9299 96.9498C93.7999 97.3298 93.3399 97.4498 92.9599 97.5798C91.0399 98.2398 90.0199 100.25 88.7399 101.83C87.9399 102.82 86.9199 103.78 86.8199 105.05C86.7299 106.26 87.5599 107.4 88.6199 108.01C89.6799 108.62 90.9199 108.79 92.1299 108.9C94.5799 109.12 97.0199 107.83 99.1999 106.8C101.61 105.66 103.91 104.3 106.07 102.73C106.83 102.18 107.58 101.6 108.45 101.23C108.99 101 109.56 100.86 110.11 100.65C111.41 100.15 112.57 99.2698 113.39 98.1398C113.89 97.4598 114.24 96.4498 113.66 95.8398C113.49 95.6598 113.26 95.5498 113.03 95.4398L107.82 92.9198C106.37 92.2198 103.64 91.1198 102.17 92.2898H102.18Z" fill="#8C6239"/>
<path d="M90.57 72.6401C91.43 72.6301 92.31 72.6001 93.14 72.8401C93.97 73.0801 94.6 73.5501 95.21 74.0901C95.92 74.7101 95.98 75.3801 95.62 76.2201C95.36 76.8201 95.38 77.5001 95.99 77.8701C96.6 78.2401 97.4 78.0801 98.05 78.0601C98.29 78.0601 100.47 77.8201 100.55 78.0001C100.59 78.0901 99.86 78.8501 99.79 78.9301L98.87 80.0401L97.02 82.2701C96.66 82.7001 96.88 83.4001 97.49 83.4101L101.37 83.4701L100.79 82.4701L99.67 84.5001C99.42 84.9501 99.74 85.4801 100.25 85.5001L102.39 85.5801L101.75 84.7401L101.19 86.2501C100.95 86.8901 101.86 87.3401 102.3 86.9001C102.01 87.2001 102.04 87.5201 102.15 87.9301C102.24 88.2501 102.43 88.5301 102.68 88.7501C103.17 89.1901 103.83 89.3101 104.45 89.1201L103.63 88.3001L103.35 89.5801C103.17 90.4201 104.45 90.7701 104.63 89.9301L104.91 88.6501C105.01 88.1701 104.6 87.6801 104.09 87.8301C103.16 88.1101 103.47 86.5601 103.04 86.0701C102.59 85.5501 101.84 85.4601 101.34 85.9501L102.45 86.6001L103.01 85.0901C103.17 84.6701 102.77 84.2601 102.37 84.2501L100.23 84.1701L100.81 85.1701L101.93 83.1401C102.17 82.7001 101.87 82.1501 101.35 82.1401L97.47 82.0801L97.94 83.2201L100.16 80.5501C100.72 79.8801 101.66 79.0801 101.83 78.1801C102.25 76.0401 98.7 76.7101 97.6 76.7401C97.46 76.7401 96.9 76.8401 96.84 76.7601C96.79 76.6901 97 76.3401 97.01 76.3001C97.15 75.9001 97.19 75.4601 97.15 75.0401C97.06 74.0801 96.56 73.5001 95.85 72.9101C95.14 72.3201 94.44 71.8501 93.58 71.5901C92.6 71.2901 91.55 71.2901 90.53 71.3101C89.67 71.3201 89.67 72.6501 90.53 72.6401H90.57Z" fill="black"/>
<path d="M110.54 94.0998C108.56 91.8098 105.47 90.6198 102.46 91.0198C101.79 91.1098 101.47 92.1798 102.28 92.3298L103.79 92.6098V91.3298L98.1299 93.1598C97.5699 93.3398 97.4899 94.0598 97.9699 94.3798L98.0299 94.4198C98.3499 94.6298 98.7399 94.4598 98.9399 94.1798C99.2899 93.6998 98.8599 93.0098 98.3599 92.8598C97.6799 92.6498 96.7199 92.8498 96.0699 93.0698C94.5299 93.5898 93.3599 94.7198 92.7499 96.2098C92.6099 96.5498 92.8999 96.9398 93.2199 97.0298L94.7799 97.4898V96.2098C92.7499 96.8898 91.0699 98.1898 89.5299 99.6598C88.1099 101.02 86.2199 102.57 85.9699 104.65C85.7399 106.61 87.0199 108.43 88.6999 109.31C90.3799 110.19 92.4599 110.39 94.3399 110.07C96.3999 109.72 98.2899 108.62 99.4199 106.84L98.1999 106.68C98.3299 107.63 99.3999 107.81 100.19 107.64C101.3 107.4 102.42 106.62 103.39 106.04C105.65 104.69 107.74 103.04 109.6 101.18L108.46 100.71C108.48 101.94 109.9 101.91 110.7 101.46C111.95 100.76 113.22 99.7198 114.07 98.5698C114.82 97.5498 115.07 96.1898 113.99 95.2898C113.41 94.8098 112.63 94.5398 111.95 94.2198L109.51 93.0698C108.74 92.7098 108.06 93.8498 108.84 94.2198L111.66 95.5598C112.34 95.8798 113.66 96.2198 113.32 97.1998C113.04 97.9898 112.25 98.6398 111.63 99.1698C111.29 99.4598 110.93 99.7298 110.55 99.9798C110.35 100.11 110.09 100.23 109.9 100.38L109.77 100.43C109.56 100.42 109.56 100.51 109.77 100.72C109.77 100.15 109.05 99.8398 108.63 100.25C107.2 101.68 105.65 102.97 103.97 104.09C103.16 104.63 102.33 105.13 101.47 105.59C101.22 105.73 99.4999 106.65 99.4599 106.33C99.3699 105.72 98.5199 105.74 98.2399 106.17C97.1999 107.82 95.3099 108.7 93.3999 108.86C91.4899 109.02 88.9699 108.59 87.7999 106.83C86.3599 104.66 88.1599 102.88 89.6499 101.39C91.2399 99.7998 92.9399 98.2298 95.1099 97.5098C95.7199 97.2998 95.7599 96.4198 95.1099 96.2298L93.5499 95.7698L94.0199 96.5898C94.3499 95.7898 94.9699 95.1298 95.7199 94.6998C96.0899 94.4898 96.4899 94.3298 96.9099 94.2498C97.0899 94.2098 97.2699 94.1898 97.4499 94.1798C97.5499 94.1798 97.6599 94.1798 97.7599 94.1798C98.1399 94.2598 98.1399 94.0498 97.7799 93.5498L98.6899 93.3098L98.6299 93.2698L98.4699 94.4898L104.13 92.6598C104.71 92.4698 104.82 91.4998 104.13 91.3798L102.62 91.0998L102.44 92.4098C105.14 92.0498 107.79 93.0398 109.58 95.0998C110.14 95.7498 111.08 94.7998 110.52 94.1598L110.54 94.0998Z" fill="black"/>
<path d="M47.62 137.08C47.59 135.01 47.77 132.96 48.17 130.94H46.89C47.06 131.54 47.6 131.79 48.19 131.61C48.94 131.37 49.25 130.69 49.56 130.03C50.41 128.25 51.14 126.42 51.76 124.55L50.48 124.2C50.24 125.04 51.09 125.72 51.87 125.36C52.25 125.19 52.48 124.82 52.73 124.49C53.12 123.97 53.5 123.44 53.89 122.92L52.67 122.76L52.94 123.77C53.12 124.46 53.99 124.34 54.22 123.77C55.01 121.82 56.56 120.32 58.49 119.51L57.51 118.76L57.12 119.99C56.89 120.72 57.96 121.15 58.34 120.5C58.94 119.47 60.07 119.09 61.19 118.9C62.43 118.69 63.87 118.6 65.11 118.81C65.75 118.92 66.37 119.16 66.82 119.66C67.38 120.28 67.21 120.8 67.15 121.54C67.1 122.08 67.26 122.53 67.58 122.96C67.9 123.39 68.38 123.7 68.52 124.21L68.69 123.56L67.29 125.02C67.05 125.27 67.02 125.72 67.29 125.96L68.11 126.69V125.75C67.25 126.71 67.08 128.01 67.68 129.15L68.08 128.17C64.77 129.2 64.52 132.95 62.89 135.47C62.42 136.19 63.58 136.86 64.04 136.14C65.39 134.05 65.7 130.3 68.43 129.45C68.85 129.32 69.03 128.86 68.83 128.47C68.52 127.88 68.6 127.18 69.05 126.68C69.28 126.42 69.33 125.99 69.05 125.74L68.23 125.01V125.95C68.63 125.53 69.04 125.13 69.43 124.7C69.74 124.36 69.9 124.15 69.76 123.68C69.54 122.97 68.82 122.64 68.54 121.99C68.37 121.59 68.61 121.11 68.61 120.69C68.61 120.3 68.51 119.9 68.34 119.54C67.97 118.76 67.28 118.15 66.49 117.81C64.88 117.13 62.84 117.31 61.14 117.55C59.56 117.77 58.02 118.37 57.19 119.81L58.41 120.32L58.8 119.09C58.99 118.47 58.31 118.13 57.82 118.34C55.56 119.3 53.85 121.13 52.94 123.4H54.22L53.95 122.39C53.79 121.79 53.06 121.79 52.73 122.23L51.98 123.24C51.87 123.39 51.76 123.54 51.65 123.69C51.59 123.77 51.54 123.84 51.48 123.92C51.33 124.05 51.38 124.13 51.64 124.17L51.71 124.68L51.75 124.53C51.99 123.7 50.73 123.37 50.47 124.18C50.1 125.3 49.69 126.42 49.23 127.51C49.01 128.05 48.77 128.57 48.52 129.1C48.4 129.35 48.29 129.6 48.17 129.84C48.12 129.98 48.05 130.1 47.95 130.21C47.69 130.33 47.76 130.45 48.16 130.58C47.99 129.98 47.01 129.91 46.88 130.58C46.45 132.72 46.25 134.89 46.28 137.08C46.29 137.94 47.63 137.94 47.61 137.08H47.62Z" fill="black"/>
<path d="M40.3501 82.2103L39.2601 83.7903C38.9701 84.2103 38.7001 84.7503 38.1701 84.8903C37.7201 85.0103 37.2201 84.9103 36.7701 84.8703C36.2501 84.8203 35.7701 84.8203 35.2601 84.9003C34.6301 85.0003 34.6201 86.0903 35.2601 86.1803C36.1701 86.3203 36.9701 86.6603 37.7001 87.2203V86.0703C36.9401 86.4503 35.3501 86.8903 35.3101 87.9303C35.3001 88.3103 35.4701 88.6203 35.7701 88.8403C35.9101 88.9403 36.0501 89.0103 36.2101 89.0803C36.2601 89.1003 36.3701 89.1703 36.4201 89.1703C36.6201 89.1703 36.4701 89.4303 36.4501 89.0203L36.6501 88.5503C36.3101 88.8503 36.4601 89.1003 36.2801 89.4403C36.2101 89.5703 36.0701 89.6203 35.8501 89.6903C35.3101 89.8703 34.7501 90.0703 34.4901 90.6203C34.3401 90.9403 34.3901 91.3503 34.7301 91.5303C34.8301 91.5903 34.6401 91.7903 34.5801 91.9503C34.4901 92.1703 34.4501 92.3803 34.4901 92.6103C34.5301 92.8303 34.6301 93.0203 34.7801 93.1903C34.8501 93.2703 34.9301 93.3503 35.0101 93.4203C35.1401 93.6003 35.2101 93.5603 35.2401 93.2803C34.8801 93.6803 35.0601 94.2103 35.5301 94.3903L37.0201 94.9703L36.7301 93.8603L36.0701 94.6203C35.5101 95.2603 36.4501 96.2103 37.0101 95.5603L37.6701 94.8003C38.0201 94.4003 37.8501 93.8703 37.3801 93.6903L35.8901 93.1103L36.1801 94.2203C36.4701 93.9003 36.5601 93.5303 36.4101 93.1103C36.3501 92.9503 36.2701 92.8203 36.1701 92.6903C36.1201 92.6403 35.7601 92.2003 35.7901 92.4803C35.7801 92.3603 36.0501 92.0303 36.0901 91.9003C36.1401 91.7403 36.1401 91.5803 36.1301 91.4203C36.0801 90.9603 35.8101 90.6003 35.4101 90.3903L35.6501 91.3003C35.8301 90.9103 36.6701 90.8703 37.0201 90.6203C37.2501 90.4603 37.4301 90.2403 37.5201 89.9703C37.5801 89.7903 37.5401 89.5803 37.6101 89.4103C37.5201 89.6503 37.7501 89.2203 37.7601 89.2003C37.9401 88.5503 37.3701 88.1403 36.8601 87.9203C36.8401 87.9203 36.5901 87.7903 36.5801 87.8003C36.4701 87.7503 36.4901 87.8503 36.6501 88.1003C36.7601 88.0403 36.8801 87.9803 36.9901 87.9203C37.4501 87.6903 37.9101 87.4603 38.3701 87.2303C38.8701 86.9803 38.7301 86.3603 38.3701 86.0803C37.5601 85.4603 36.6201 85.0603 35.6101 84.9003V86.1803C36.7601 86.0003 37.9201 86.5503 39.0201 85.9803C39.5501 85.7103 39.8801 85.2303 40.2101 84.7603C40.6401 84.1303 41.0701 83.5103 41.5101 82.8803C42.0001 82.1703 40.8401 81.5103 40.3601 82.2103H40.3501Z" fill="black"/>
<path d="M76.9101 84.1694C76.2901 85.6494 75.19 86.8694 74.1 88.0494C73.28 88.9394 72.4001 89.8694 71.2301 90.1894C71.1401 90.2194 71.04 90.2394 70.95 90.2594L71.0501 90.7194C71.0501 90.7194 71.0101 90.6494 71.0001 90.6294C70.6501 90.1494 70.2901 90.3694 69.64 90.2594C68.41 90.0494 67.3 89.3194 66.35 88.5494C65.65 87.9794 64.9901 87.3594 64.3701 86.6994C64.1901 86.4994 63.83 86.1294 63.78 85.8494C63.69 85.1894 63.8001 85.5094 64.2901 85.1994C65.3901 84.5094 66.69 84.0294 67.92 83.6394C70.6 82.7994 73.4701 82.5394 76.2601 82.9094C76.5001 82.9494 76.7601 82.9894 76.9101 83.1694C77.1501 83.4394 77.0501 83.8494 76.9101 84.1794V84.1694Z" fill="black"/>
<path d="M76.1401 83.7199C75.5601 85.0399 74.6601 86.1198 73.6901 87.1798C72.8601 88.0998 71.9901 89.1499 70.7101 89.3999C70.2201 89.4999 69.9901 90.0498 70.0901 90.4898L70.1901 90.9498L71.8101 90.2698C71.3701 89.5398 70.7601 89.4599 69.9901 89.3999C69.0701 89.3299 68.2201 88.8298 67.4801 88.3098C66.6901 87.7498 65.9701 87.0798 65.3001 86.3898C65.1301 86.2098 64.9001 86.0198 64.7601 85.8198C64.7601 85.8198 64.5901 85.5298 64.6301 85.5598C63.9901 86.0898 63.8301 86.3099 64.1401 86.2199C64.1801 86.2098 64.2301 86.1998 64.2701 86.1798C64.4701 86.1298 64.6601 86.0099 64.8301 85.9099C66.5901 84.8799 68.6001 84.2499 70.6101 83.8999C71.6401 83.7199 72.6901 83.6398 73.7301 83.6398C74.2501 83.6398 74.7701 83.6598 75.2901 83.6998C75.4701 83.7098 75.8301 83.8298 76.0101 83.7698C76.2101 83.8598 76.2601 83.7998 76.1501 83.5998C76.1201 83.7198 76.0801 83.8298 76.0301 83.9498C75.6101 85.0098 77.3301 85.4798 77.7401 84.4198C78.0701 83.5898 77.9101 82.6399 77.0401 82.2299C76.1701 81.8199 74.9901 81.8899 74.0801 81.8699C72.0001 81.8299 69.8901 82.1199 67.9001 82.7199C66.9701 82.9999 66.0501 83.3398 65.1601 83.7398C64.7001 83.9498 64.2801 84.2299 63.8301 84.4399C63.6001 84.5499 63.3401 84.5998 63.1501 84.7898C61.8401 86.0799 64.4401 88.0998 65.2601 88.8198C66.0801 89.5398 66.9301 90.1898 67.9101 90.6398C68.3801 90.8498 68.8701 91.0299 69.3801 91.1199C69.6201 91.1599 69.8801 91.1999 70.1301 91.1899C70.3201 91.1899 70.2701 91.1798 70.2601 91.1698C70.7901 92.0498 72.1001 91.4598 71.8801 90.4898L71.7801 90.0298L71.1601 91.1199C72.6701 90.8299 73.7801 89.6898 74.7801 88.5998C75.8901 87.3898 76.9901 86.1299 77.6501 84.6199C78.1001 83.5799 76.5701 82.6799 76.1201 83.7199H76.1401Z" fill="black"/>
<path d="M70.95 89.3701C70.87 89.3701 70.79 89.3901 70.71 89.4001H70.69L70.93 89.3701C70.81 89.3701 70.69 89.3901 70.59 89.4501C70.48 89.4901 70.38 89.5501 70.3 89.6301C70.21 89.7101 70.15 89.8101 70.12 89.9201C70.06 90.0301 70.04 90.1401 70.04 90.2601L70.07 90.5001C70.11 90.6501 70.19 90.7801 70.3 90.8901L70.48 91.0301C70.62 91.1101 70.77 91.1501 70.93 91.1501C71.01 91.1501 71.09 91.1301 71.17 91.1201H71.19L70.95 91.1501C71.07 91.1501 71.19 91.1301 71.29 91.0701C71.4 91.0301 71.5 90.9701 71.58 90.8901C71.67 90.8101 71.73 90.7101 71.76 90.6001C71.82 90.4901 71.84 90.3801 71.84 90.2601L71.81 90.0201C71.77 89.8701 71.69 89.7401 71.58 89.6301L71.4 89.4901C71.26 89.4101 71.11 89.3701 70.95 89.3701Z" fill="black"/>
<path d="M72.1901 92.7701C72.1201 91.9301 72.2201 91.0401 71.8201 90.2701C71.7201 90.0801 71.4901 89.9201 71.2901 89.8601C71.0901 89.8001 70.7901 89.8301 70.6101 89.9501C70.1901 90.2201 70.0601 90.7201 70.2901 91.1601C70.3001 91.1801 70.3101 91.2101 70.3301 91.2301L70.2401 91.0201C70.3101 91.1901 70.3401 91.3701 70.3701 91.5501L70.3401 91.3101C70.4001 91.7901 70.3901 92.2801 70.4301 92.7601C70.4501 93.0001 70.5201 93.2101 70.6901 93.3901C70.8401 93.5401 71.1001 93.6601 71.3201 93.6501C71.5401 93.6401 71.7901 93.5601 71.9501 93.3901C72.1101 93.2201 72.2301 92.9901 72.2101 92.7601L72.1901 92.7701Z" fill="black"/>
<path d="M85.61 85.3498L85.54 85.4198C85.45 85.4998 85.39 85.5998 85.36 85.7098C85.3 85.8198 85.28 85.9299 85.28 86.0499C85.28 86.1699 85.3 86.2898 85.36 86.3898C85.4 86.4998 85.46 86.5998 85.54 86.6798L85.72 86.8198C85.86 86.8998 86.01 86.9398 86.17 86.9398L86.41 86.9099C86.56 86.8699 86.69 86.7898 86.8 86.6798L86.87 86.6098C86.96 86.5298 87.02 86.4298 87.05 86.3198C87.11 86.2098 87.13 86.0999 87.13 85.9799C87.13 85.8599 87.11 85.7398 87.05 85.6398C87.01 85.5298 86.95 85.4298 86.87 85.3498L86.69 85.2098C86.55 85.1298 86.4 85.0898 86.24 85.0898L86 85.1199C85.85 85.1599 85.72 85.2398 85.61 85.3498Z" fill="black"/>
<path d="M57.42 91.8496C56.88 91.7596 56.33 91.6596 55.79 91.5596C55.55 91.5196 55.32 91.5196 55.11 91.6496C54.93 91.7596 54.75 91.9696 54.7 92.1796C54.65 92.4096 54.66 92.6596 54.79 92.8596C54.91 93.0496 55.1 93.2296 55.32 93.2696C55.86 93.3696 56.41 93.4696 56.95 93.5596C57.07 93.5996 57.19 93.5996 57.3 93.5796C57.42 93.5796 57.53 93.5396 57.63 93.4696C57.81 93.3596 57.99 93.1496 58.04 92.9396C58.09 92.7096 58.08 92.4596 57.95 92.2596C57.83 92.0796 57.64 91.8896 57.42 91.8496Z" fill="black"/>
<path d="M84.5299 86.3796C78.0399 92.1296 69.0199 93.1696 60.7099 92.2796C59.5699 92.1596 59.5799 93.9396 60.7099 94.0596C69.5199 94.9996 78.9399 93.6996 85.7799 87.6396C86.6399 86.8796 85.3799 85.6296 84.5199 86.3796H84.5299Z" fill="black"/>
<path d="M86.5 85.9292C86.5 86.0792 86.32 86.3692 86.26 86.5292C86.16 86.7892 86.06 87.0492 85.97 87.3092C85.79 87.8292 85.6 88.3492 85.43 88.8792C85.09 89.9292 84.77 90.9892 84.49 92.0592C83.94 94.1592 83.5 96.2992 83.2 98.4492C83.2 98.3592 83.11 98.1992 83.07 98.1192C83.02 97.9892 82.97 97.8492 82.92 97.7192C82.82 97.4692 82.71 97.2192 82.61 96.9592C82.4 96.4592 82.18 95.9592 81.95 95.4592C81.49 94.4692 80.99 93.4992 80.46 92.5392C80.29 92.2392 80.12 91.9292 79.94 91.6292C79.87 91.5092 79.75 91.3792 79.77 91.2392C79.78 91.0992 79.92 90.9892 80.02 90.8992C81.68 89.5292 83.67 88.5392 85.17 86.9992C85.52 86.6992 85.86 86.3792 86.18 86.0392C86.29 85.9592 86.41 85.9092 86.51 85.9192L86.5 85.9292Z" fill="white"/>
<path d="M85.64 85.6997C85.59 86.0297 85.37 86.3697 85.25 86.6897C85.06 87.1897 84.89 87.6897 84.72 88.1897C84.35 89.2697 84.02 90.3697 83.72 91.4797C83.12 93.6897 82.66 95.9397 82.34 98.2097H84.05C83.92 97.6697 83.62 97.1297 83.41 96.6197C83.12 95.9397 82.82 95.2597 82.5 94.5897C82.2 93.9597 81.88 93.3297 81.55 92.7097C81.37 92.3797 81.19 92.0497 81.01 91.7297C80.89 91.5097 80.65 91.2397 80.61 90.9997V91.4697C80.51 91.7497 80.58 91.5497 80.72 91.4497C80.86 91.3497 80.98 91.2397 81.12 91.1397C81.4 90.9297 81.69 90.7297 81.97 90.5297C82.52 90.1497 83.07 89.7897 83.61 89.4097C84.15 89.0297 84.69 88.6297 85.19 88.1897C85.46 87.9597 85.71 87.7097 85.97 87.4697C86.16 87.2897 86.5 86.8097 86.75 86.7697C87.23 86.6897 87.48 86.0997 87.37 85.6797C87.24 85.1697 86.75 84.9797 86.28 85.0597C85.53 85.1797 84.92 86.0097 84.4 86.5097C83.88 87.0097 83.32 87.4597 82.73 87.8797C82.14 88.2997 81.52 88.6997 80.92 89.1197C80.35 89.5197 79.64 89.9297 79.2 90.4697C78.67 91.1197 78.98 91.7097 79.34 92.3397C79.74 93.0197 80.11 93.7197 80.47 94.4297C80.86 95.1897 81.23 95.9697 81.57 96.7497C81.84 97.3497 82.21 98.0297 82.36 98.6597C82.55 99.4597 83.95 99.5497 84.07 98.6597C84.39 96.3897 84.85 94.1397 85.45 91.9297C85.74 90.8597 86.06 89.7997 86.41 88.7597C86.58 88.2497 86.76 87.7397 86.94 87.2397C87.07 86.8897 87.31 86.5197 87.37 86.1497C87.45 85.6697 87.25 85.1997 86.75 85.0597C86.33 84.9397 85.73 85.2097 85.66 85.6797L85.64 85.6997Z" fill="black"/>
<path d="M85.54 85.4303C85.22 85.7603 84.88 86.0803 84.53 86.3903L85.79 87.6503C86.09 87.3503 86.37 87.0303 86.7 86.7703L86.52 86.9103C86.52 86.9103 86.59 86.8603 86.62 86.8303C86.72 86.7703 86.81 86.7003 86.87 86.6003C86.95 86.5103 87 86.4103 87.03 86.3003C87.07 86.1803 87.07 86.0603 87.05 85.9503C87.05 85.8303 87.01 85.7203 86.94 85.6203C86.82 85.4303 86.64 85.2603 86.41 85.2103L86.17 85.1803C86.01 85.1803 85.86 85.2203 85.72 85.3003C85.48 85.4703 85.25 85.6603 85.04 85.8703C84.87 86.0403 84.7 86.2203 84.53 86.4003C84.44 86.4803 84.38 86.5803 84.35 86.6903C84.29 86.8003 84.27 86.9103 84.27 87.0303C84.27 87.1503 84.29 87.2703 84.35 87.3703C84.39 87.4803 84.45 87.5803 84.53 87.6603C84.7 87.8203 84.92 87.9303 85.16 87.9203L85.4 87.8903C85.55 87.8503 85.68 87.7703 85.79 87.6603C86.14 87.3603 86.48 87.0403 86.8 86.7003C86.96 86.5303 87.06 86.3003 87.06 86.0703C87.06 85.9503 87.04 85.8303 86.98 85.7303C86.94 85.6203 86.88 85.5203 86.8 85.4403C86.63 85.2803 86.41 85.1703 86.17 85.1803C85.93 85.1903 85.71 85.2703 85.54 85.4403V85.4303Z" fill="black"/>
<path d="M63.78 94.8002C63.72 95.2402 63.67 95.6802 63.63 96.1102C63.45 97.9302 63.42 99.7702 63.55 101.6C61.44 100.09 59.61 98.2002 58.17 96.0502C57.34 94.8102 56.61 93.4602 55.49 92.4902C56.02 92.6902 56.59 92.7102 57.17 92.7002H57.18C58.34 92.8902 59.51 93.0502 60.68 93.1702C60.68 93.1702 60.69 93.1702 60.7 93.1702C60.87 93.2202 61.05 93.2802 61.23 93.3202C61.64 93.4202 62.06 93.4902 62.49 93.5302C62.82 93.5602 63.49 93.4202 63.77 93.5402C64.2 93.7302 63.84 94.3702 63.77 94.8002H63.78Z" fill="white"/>
<path d="M62.8901 94.7999C62.5901 97.0599 62.5101 99.3299 62.6601 101.6L64.0001 100.83C62.3901 99.6599 60.9201 98.2499 59.7101 96.6799C58.4901 95.0999 57.6301 93.1999 56.1201 91.8599L56.2601 92.9399L55.2601 93.3399C56.0801 93.6299 56.9301 93.5699 57.6501 93.6799C58.6001 93.8199 59.5701 93.8899 60.5101 94.0599C60.7201 94.0699 60.7401 94.0799 60.6001 94.0899C60.6901 94.1199 60.7801 94.1399 60.8601 94.1699C61.0601 94.2199 61.2601 94.2699 61.4601 94.2999C61.8601 94.3699 62.2701 94.4499 62.6801 94.4399C62.8401 94.4399 62.9901 94.4199 63.1501 94.4099C63.2301 94.4099 63.3101 94.4099 63.3901 94.3999C63.5101 94.3999 63.5401 94.3999 63.4601 94.3999C63.2001 94.2899 63.0801 94.1299 63.0901 93.9299C63.0701 94.0099 63.0501 94.0799 63.0301 94.1599C62.9901 94.3099 62.9501 94.4499 62.9201 94.5999C62.8301 95.0699 63.0501 95.5599 63.5401 95.6899C63.9701 95.8099 64.5501 95.5399 64.6301 95.0699C64.7001 94.6799 64.8701 94.3099 64.8601 93.9099C64.8501 93.3699 64.5301 92.8899 64.0101 92.7199C63.6301 92.5999 63.2401 92.6499 62.8501 92.6699C62.4301 92.6899 62.0301 92.6299 61.6201 92.5399C61.1801 92.4399 60.7801 92.3399 60.3301 92.2899C59.7901 92.2299 59.2601 92.1599 58.7301 92.0899C58.2001 92.0199 57.6901 91.8899 57.1701 91.8599C56.6501 91.8299 56.2201 91.8399 55.7201 91.6699C55.3701 91.5499 54.8801 91.7499 54.7201 92.0799C54.5501 92.4299 54.5501 92.8999 54.8601 93.1699C55.6201 93.8499 56.1801 94.6699 56.7301 95.5099C57.3001 96.3999 57.8901 97.2799 58.5501 98.1099C59.8601 99.7599 61.4001 101.19 63.1101 102.42C63.6501 102.81 64.4901 102.29 64.4501 101.65C64.2901 99.3799 64.3801 97.0999 64.6801 94.8499C64.7401 94.3699 64.2301 93.9599 63.7901 93.9599C63.2601 93.9599 62.9601 94.3699 62.9001 94.8499L62.8901 94.7999Z" fill="black"/>
<path d="M55.74 91.6204H55.71L55.92 91.7004L55.88 91.6804C55.81 91.6404 55.73 91.6104 55.66 91.5804H55.64C55.52 91.5404 55.4 91.5304 55.29 91.5604C55.17 91.5604 55.06 91.6004 54.96 91.6704C54.86 91.7304 54.77 91.8004 54.71 91.9004C54.63 91.9904 54.58 92.0904 54.55 92.2004L54.52 92.4404C54.52 92.6004 54.56 92.7504 54.64 92.8904L54.78 93.0704C54.89 93.1804 55.02 93.2604 55.17 93.3004H55.2L54.99 93.2204L55.03 93.2404C55.1 93.2804 55.18 93.3104 55.25 93.3404H55.27C55.39 93.3804 55.51 93.3904 55.62 93.3604C55.74 93.3604 55.85 93.3204 55.95 93.2504C56.05 93.1904 56.14 93.1204 56.2 93.0204C56.28 92.9304 56.33 92.8304 56.36 92.7204L56.39 92.4804C56.39 92.3204 56.35 92.1704 56.27 92.0304L56.13 91.8504C56.02 91.7404 55.89 91.6604 55.74 91.6204Z" fill="black"/>
<path d="M57.19 93.5895C57.49 93.5895 57.78 93.5695 58.08 93.5695C58.23 93.5695 58.37 93.5695 58.52 93.5695C58.6 93.5695 58.68 93.5695 58.75 93.5895H58.82C58.92 93.6095 58.91 93.6095 58.78 93.5895C58.8 93.6095 58.95 93.6195 58.98 93.6195C59.05 93.6295 59.11 93.6495 59.18 93.6595C59.33 93.6895 59.48 93.7295 59.63 93.7695C59.91 93.8495 60.18 93.9295 60.46 94.0195C60.9 94.1495 61.45 93.8595 61.55 93.3995C61.65 92.9395 61.41 92.4495 60.93 92.3095C60.36 92.1395 59.79 91.9495 59.19 91.8595C58.52 91.7595 57.87 91.7795 57.19 91.7995C56.73 91.8095 56.28 92.1995 56.3 92.6895C56.32 93.1795 56.69 93.5895 57.19 93.5795V93.5895Z" fill="black"/>
<path d="M137.08 93.46C137.22 93.29 137.3 93.08 137.43 92.89C137.5 92.78 137.59 92.68 137.67 92.57C137.75 92.44 137.81 92.29 137.87 92.15C137.96 91.93 138.05 91.71 138.08 91.48C138.12 91.19 138.06 90.9 138 90.62C137.96 90.43 137.92 90.23 137.79 90.08C137.7 89.97 137.57 89.9 137.45 89.83C137.17 89.67 136.89 89.51 136.58 89.42C136.27 89.33 135.93 89.3 135.63 89.42C135.15 89.6 134.86 90.08 134.57 90.51C134.29 90.9 133.98 91.27 133.63 91.6C133.39 91.83 133.14 92.04 132.99 92.33C132.89 92.52 132.84 92.73 132.78 92.94C132.71 93.21 132.64 93.48 132.64 93.76C132.64 93.88 132.65 94.01 132.72 94.11C132.83 94.28 133.07 94.33 133.27 94.36C133.78 94.44 134.3 94.51 134.82 94.48C135.29 94.45 135.73 94.32 136.14 94.1C136.46 93.92 136.85 93.77 137.09 93.48L137.08 93.46Z" fill="#F9B7D5"/>
<path d="M141 123.04C141.66 123.16 142.38 123.31 142.79 123.83C143.03 124.13 143.13 124.53 143.18 124.91C143.22 125.16 143.24 125.43 143.13 125.66C143.06 125.81 142.94 125.94 142.81 126.05C142.25 126.53 141.5 126.79 140.76 126.76C140.65 126.76 140.53 126.74 140.43 126.7C140.29 126.64 140.18 126.53 140.07 126.42C139.74 126.09 139.41 125.76 139.23 125.33C139.03 124.87 138.77 123.77 139 123.28C139.3 122.64 140.49 122.97 141.01 123.03L141 123.04Z" fill="#F9B7D5"/>
<path d="M93.54 80.3504C93.16 81.2904 92.18 81.8504 91.24 82.2004C89.01 83.0404 86.59 83.1604 84.21 83.1204C82.78 83.1004 81.3 83.0004 80.04 82.3404C78.87 81.7304 77.94 80.5104 77.96 79.2204C78.42 77.7804 79.9 76.8904 81.28 76.2204C82.64 75.5504 84.04 74.9204 85.54 74.6104C87.03 74.3004 88.62 74.3304 90.02 74.9404C90.83 75.3004 91.56 75.8404 92.19 76.4604C93.24 77.4804 94.11 79.0004 93.55 80.3504H93.54Z" fill="white"/>
<path d="M92.9701 80.0201C92.5001 81.0301 91.4501 81.4601 90.4401 81.7801C89.2801 82.1501 88.0701 82.3301 86.8601 82.4101C85.6501 82.4901 84.5001 82.4901 83.3201 82.4301C82.1401 82.3701 80.9601 82.2001 79.9901 81.5401C79.2001 81.0101 78.2601 79.8401 78.8401 78.8801C79.3701 78.0001 80.3201 77.4501 81.2101 76.9901C83.3001 75.9001 85.6401 74.8801 88.0501 75.1101C89.4201 75.2501 90.6301 75.9001 91.6101 76.8401C92.5001 77.6901 93.3401 78.8901 92.8901 80.1701C92.6001 80.9801 93.8901 81.3301 94.1701 80.5201C95.1101 77.8701 92.4001 75.2201 90.1701 74.2901C87.2501 73.0701 84.1001 74.1101 81.4101 75.4001C80.2201 75.9701 78.9601 76.6001 78.1001 77.6301C77.7401 78.0601 77.3401 78.6301 77.2901 79.2101C77.2401 79.7901 77.4701 80.4801 77.7501 80.9901C79.1901 83.7001 82.5801 83.8101 85.2701 83.7901C87.0001 83.7801 88.7501 83.6401 90.4201 83.1701C91.8601 82.7701 93.4501 82.1201 94.1201 80.6801C94.4801 79.9101 93.3301 79.2301 92.9701 80.0101V80.0201Z" fill="black"/>
<path d="M58.9801 86.5804C58.0001 87.7304 56.5501 88.4804 55.1301 89.1404C52.7601 90.2304 50.2601 91.2004 47.6401 91.4304C46.5201 91.5304 45.3001 91.4503 44.4901 90.7803C43.3301 89.8203 43.5301 88.0604 44.1301 86.6804C44.4901 85.8304 44.9801 85.0203 45.6401 84.3403C46.7701 83.1703 48.3601 82.4404 50.0001 82.0504C51.6401 81.6704 53.3301 81.6104 55.0001 81.6104C56.6701 81.6104 58.5501 81.7503 59.6701 82.8403C60.2901 83.9903 59.8901 85.5203 58.9801 86.5903V86.5804Z" fill="white"/>
<path d="M58.5099 86.11C56.8599 87.98 54.1099 88.98 51.8199 89.79C50.5599 90.23 49.2499 90.59 47.9199 90.74C46.8699 90.85 45.3999 90.95 44.6699 90.01C44.0599 89.21 44.3399 88 44.6699 87.14C45.1199 85.97 45.8599 84.89 46.8699 84.15C48.9999 82.58 51.7499 82.32 54.3099 82.28C55.5999 82.26 57.0099 82.21 58.2299 82.7C58.8999 82.97 59.2999 83.33 59.2999 84.08C59.2999 84.83 58.9599 85.54 58.5099 86.11C57.9799 86.77 58.9199 87.72 59.4499 87.05C60.3399 85.94 60.9299 84.47 60.4799 83.05C60.0699 81.76 58.4799 81.27 57.2699 81.09C55.6999 80.85 54.0599 80.9 52.4799 81.02C50.7999 81.15 49.1499 81.46 47.6099 82.17C45.0999 83.33 42.8299 86.08 42.9799 88.99C43.1599 92.39 46.9099 92.34 49.4199 91.85C51.3399 91.47 53.1799 90.75 54.9699 89.95C56.5999 89.22 58.2499 88.42 59.4499 87.06C60.0199 86.42 59.0799 85.47 58.5099 86.12V86.11Z" fill="black"/>
<path d="M72.6 85.4304C73.01 84.9404 73.69 84.8104 74.28 84.5804C74.52 84.4904 74.77 84.3604 74.88 84.1304C75 83.8704 74.91 83.5504 74.7 83.3604C74.49 83.1704 74.19 83.1004 73.91 83.1304C73.78 83.1404 73.65 83.1804 73.54 83.2504C73.45 83.3104 73.33 83.5304 73.25 83.5504C73.07 83.6004 72.61 83.1604 72.36 83.1104C72.02 83.0504 71.66 83.1304 71.38 83.3204C71.33 83.3604 71.28 83.4004 71.25 83.4504C71.23 83.5004 71.22 83.5504 71.21 83.6004C71.19 83.7704 71.19 83.9604 71.28 84.1104C71.39 84.3204 71.63 84.4304 71.82 84.5604C72.14 84.7804 72.4 85.0904 72.55 85.4404L72.62 85.4204L72.6 85.4304Z" fill="white"/>
<path d="M52.39 88.1999C53.8591 88.1999 55.05 87.009 55.05 85.5399C55.05 84.0708 53.8591 82.8799 52.39 82.8799C50.9209 82.8799 49.73 84.0708 49.73 85.5399C49.73 87.009 50.9209 88.1999 52.39 88.1999Z" fill="black"/>
<path d="M84.36 81.6901C85.829 81.6901 87.02 80.4992 87.02 79.0301C87.02 77.561 85.829 76.3701 84.36 76.3701C82.8909 76.3701 81.7 77.561 81.7 79.0301C81.7 80.4992 82.8909 81.6901 84.36 81.6901Z" fill="black"/>
<path d="M148.51 129.95L143.45 129.6C142.97 129.57 142.59 130.2 142.87 130.6L143.36 131.3L144.11 130.32C142.55 130.07 141.01 129.71 139.5 129.23L139.9 130.21C139.71 130.46 140.11 130.27 140.23 130.21C140.43 130.12 140.61 130.01 140.72 129.82C140.95 129.45 140.86 128.99 140.62 128.65C140.01 127.75 138.77 127.05 137.86 126.5L138.17 127.25C138.41 126.11 137.75 125.33 136.98 124.58C136.49 124.11 136.1 123.62 136.29 122.9C136.44 122.32 136.94 121.9 137.5 121.74C138.22 121.53 139.01 121.74 139.72 121.87C140.39 121.98 141.06 122.09 141.72 122.2C143.2 122.44 144.68 122.69 146.15 122.93C147.62 123.17 149.01 123.41 150.43 123.66C151.71 123.89 153.14 124 154.34 124.55C155.47 125.07 156.27 126.16 156.61 127.34C156.78 127.95 156.83 128.71 156.39 129.22C155.91 129.78 155.13 129.66 154.47 129.6C153.62 129.52 153.62 130.85 154.47 130.93C155.6 131.04 156.72 130.95 157.46 129.99C158.15 129.1 158.18 127.91 157.86 126.86C157.54 125.81 156.87 124.73 155.98 124.01C155.09 123.29 153.92 122.95 152.77 122.73C149.93 122.19 147.07 121.73 144.22 121.26C142.79 121.02 141.36 120.79 139.93 120.55C138.72 120.35 137.49 120.12 136.37 120.78C135.36 121.38 134.76 122.52 134.94 123.69C135.03 124.28 135.32 124.78 135.72 125.22C136.12 125.66 137.02 126.2 136.88 126.9C136.82 127.19 136.92 127.49 137.19 127.65C137.54 127.86 137.89 128.08 138.23 128.32C138.57 128.56 138.9 128.95 139.26 129.14L139.44 129.31L139.75 128.98C139.75 128.98 139.44 129.04 139.4 129.05C139.1 129.14 138.94 129.28 138.75 129.53C138.48 129.89 138.78 130.39 139.15 130.51C140.66 130.99 142.2 131.35 143.76 131.6C144.27 131.68 144.88 131.15 144.51 130.62L144.02 129.92L143.44 130.92L148.5 131.27C149.36 131.33 149.35 130 148.5 129.94L148.51 129.95Z" fill="black"/>
<path d="M135.1 89.5296C134.64 90.0596 134.18 90.5796 133.72 91.1096C133.36 91.5296 132.99 91.9696 132.73 92.4596C132.48 92.9196 132.27 93.4996 132.36 94.0296C132.47 94.6096 133.07 94.5897 133.54 94.6197C134.7 94.7097 135.89 94.6297 136.8 93.8297C137.59 93.1297 138.39 92.0197 138.3 90.9097C138.25 90.3397 137.98 89.7996 137.49 89.4896C137 89.1796 136.32 89.1496 135.73 89.1396C135.44 89.1396 135.44 89.5797 135.73 89.5797C136.64 89.5897 137.67 89.7197 137.85 90.7997C138 91.7397 137.35 92.6396 136.73 93.2796C136 94.0396 135.07 94.2296 134.05 94.1996C133.82 94.1996 133.59 94.1797 133.36 94.1597C133.25 94.1597 133.14 94.1496 133.03 94.1296C132.85 94.0996 132.79 93.9996 132.79 93.8196C132.79 93.3596 132.97 92.9196 133.2 92.5296C133.47 92.0796 133.82 91.6796 134.16 91.2796C134.58 90.7996 134.99 90.3196 135.41 89.8396C135.6 89.6296 135.28 89.3096 135.1 89.5296Z" fill="black"/>
<path d="M138.77 123C138.59 123.9 138.71 124.84 139.12 125.66C139.33 126.07 139.61 126.48 139.99 126.75C140.37 127.02 140.84 127.07 141.28 127.01C142.14 126.91 142.92 126.38 143.21 125.55C143.5 124.72 143.21 123.82 142.5 123.31C141.58 122.64 140.39 122.78 139.33 122.92C139.05 122.96 139.17 123.39 139.45 123.35C140.25 123.24 141.14 123.12 141.9 123.47C142.55 123.77 142.97 124.38 142.86 125.11C142.75 125.84 142.16 126.37 141.46 126.53C141.11 126.61 140.69 126.61 140.36 126.44C140.03 126.27 139.78 125.92 139.6 125.6C139.17 124.85 139.03 123.96 139.2 123.11C139.26 122.83 138.83 122.71 138.77 122.99V123Z" fill="black"/>
<path d="M46.96 72.5705C46.88 72.5005 46.79 72.4305 46.68 72.4405C46.57 72.4505 46.48 72.5805 46.56 72.6605C46.17 72.3005 45.73 71.9805 45.25 71.7305L45.29 72.2305C45.07 72.0205 44.67 72.0505 44.49 72.2905C44.31 72.5305 44.38 72.9305 44.64 73.0805L43.45 72.8505L43.49 73.4005C43.22 73.3405 42.95 73.2905 42.68 73.3405C42.41 73.3905 42.16 73.6005 42.13 73.8705C41.75 73.8205 41.36 73.8505 40.99 73.9705C40.99 74.1605 41.05 74.3505 41.15 74.5005C40.71 74.4305 40.09 74.4905 40.04 74.9305C40.03 75.0605 40.07 75.1905 40.08 75.3205C40.12 75.8205 39.65 76.3505 39.92 76.7605L39.61 77.2605L40.12 77.6505C39.75 77.8805 39.43 78.2005 39.21 78.5705C39.45 78.5505 39.66 78.7905 39.67 79.0305C39.68 79.2705 39.55 79.5005 39.39 79.6805C39.32 79.7705 39.23 79.8505 39.2 79.9605C39.12 80.3005 39.57 80.4905 39.92 80.5205L39.95 80.9005C40.28 80.9505 40.61 81.0305 40.93 81.1405L41.03 80.0005C41.16 80.0305 41.29 80.1105 41.38 80.2105C41.63 79.9505 41.84 79.6505 41.99 79.3205C42.17 79.5305 42.52 79.3905 42.69 79.1805C42.86 78.9705 42.95 78.6805 43.17 78.5205C43.36 78.3805 43.6 78.3505 43.82 78.2805C44.77 77.9905 45.34 77.0505 45.95 76.2505C46.49 75.5505 47.15 74.9005 47.98 74.6105C48.22 74.5305 48.19 73.7405 48.1 73.5605C47.92 73.1905 47.26 72.8205 46.94 72.5505L46.96 72.5705Z" fill="#C69C6D"/>
</g>
<defs>
<clipPath id="clip0_1211_3830">
<rect width="236.25" height="222" fill="white"/>
</clipPath>
</defs>
</svg>
