<svg width="204" height="204" viewBox="0 0 204 204" fill="none" xmlns="http://www.w3.org/2000/svg">
<path d="M102.27 175.71C142.83 175.71 175.71 142.83 175.71 102.27C175.71 61.7103 142.83 28.8301 102.27 28.8301C61.7103 28.8301 28.8301 61.7103 28.8301 102.27C28.8301 142.83 61.7103 175.71 102.27 175.71Z" fill="#064DA1"/>
<path d="M25.3901 104.56C31.8001 103.16 37.9801 100.74 43.6401 97.4203C47.8001 94.9803 51.7001 92.0503 56.1401 90.1703C61.4701 87.9203 67.3201 87.3003 73.0701 86.7103C75.8001 86.4303 78.6101 86.1503 81.2301 86.9403C83.4701 87.6103 85.4201 89.0003 87.5401 89.9803C92.4901 92.2703 98.2101 92.2803 103.31 94.1903C112.16 97.5003 117.9 105.91 125.28 111.81C130.81 116.23 137.3 119.25 143.37 122.89C149.44 126.53 155.31 131.06 158.52 137.37C159.97 140.23 160.82 143.36 161.54 146.49C162.44 150.45 163.13 154.69 161.69 158.49C160.01 162.94 155.8 165.86 151.72 168.3C145.29 172.15 138.59 175.56 131.9 178.95C127.88 180.99 123.8 183.06 119.38 183.96C114.14 185.03 108.73 184.4 103.42 183.77C93.4301 182.58 83.4401 181.4 73.5401 179.58C60.0301 177.09 46.3201 173.21 35.6401 164.56C24.7801 155.76 18.1901 142.91 13.7001 129.92C13.0101 127.91 11.8801 125.58 11.6701 123.47C11.4101 120.88 11.8101 118.24 11.4401 115.61C11.2401 114.23 10.9101 112.83 10.0801 111.71C9.05012 110.32 8.05012 109.64 9.94012 108.63C11.5101 107.79 13.2401 107.21 14.9501 106.74C18.3801 105.79 21.9101 105.32 25.3801 104.56H25.3901Z" fill="#009245"/>
<path opacity="0.54" d="M118.05 105.54C114.63 107.38 110.59 108.6 107.17 110.44C105.99 111.07 104.86 112.77 103.91 113.7C102.45 115.12 100.94 119.46 100.1 121.32C97.0499 128.12 97.7899 130.78 92.4799 136.01C89.6199 138.83 82.9399 142.6 80.5099 145.8C78.6699 148.23 77.7499 151.36 76.1599 153.96C71.1699 162.13 66.9499 168.06 58.7499 173C58.0499 173.42 54.8999 174.6 55.4899 175.18C55.6499 175.34 56.3599 175.66 56.5799 175.72C62.5499 177.36 66.1399 177.96 72.1099 179.61C76.9199 180.93 81.7499 182.26 86.6799 183.01C91.1099 183.68 95.5999 183.88 100.07 184.09L113.42 184.69C115.42 184.78 117.45 184.87 119.42 184.53C121.68 184.14 123.81 183.19 125.88 182.17C128.88 180.7 131.91 178.97 133.78 176.2C135.27 174 135.89 171.34 136.37 168.72C137.62 161.95 138.15 155.07 138.67 148.21C139.26 140.5 139.82 132.57 137.46 125.21C136.98 123.72 136.41 122.22 135.89 120.75C135.51 119.67 135.09 118.54 134.19 117.83C134.07 117.73 133.87 117.64 133.74 117.55C132.66 116.81 131.49 116.21 130.41 115.47C127.83 113.72 124.1 110.83 121.31 108.28C120.62 107.65 120.46 107.25 119.68 106.65C118.94 106.08 118.97 105.68 118.05 105.56V105.54Z" fill="#00753E"/>
<path d="M49.0901 93.9799L51.4901 92.5399C52.1101 92.1699 52.7301 91.7998 53.3701 91.4598C54.7301 90.7398 56.1701 90.1798 57.6101 89.6298C58.2101 89.3998 58.8001 89.1699 59.4101 88.9799C60.8001 88.5399 62.2401 88.0998 63.6801 87.8598C68.2001 87.1198 72.7701 86.6298 77.3501 86.3798C77.8801 86.3498 78.4101 86.3298 78.9501 86.3498C80.4701 86.3998 81.9801 86.8198 83.3201 87.5598C85.4801 88.7598 87.6001 89.9298 89.8601 90.9298C90.7201 92.6798 89.2201 93.5698 89.7601 96.2899C90.1401 98.1999 89.4001 99.7099 88.1301 101.19C86.7701 102.77 87.7101 104.74 86.5001 107.17C85.4101 109.35 83.7801 110.98 82.6901 112.61C81.6001 114.24 76.7101 118.59 75.6201 118.59C71.8101 118.59 66.2801 113.09 63.1101 110.97C60.6701 109.35 60.5701 104 58.2101 102.27C56.5801 101.07 53.8601 100.64 51.1401 99.5499C48.4201 98.4599 51.3801 95.6699 49.1001 93.9799H49.0901Z" fill="#009C4A"/>
<path d="M134.51 133.63C134.6 125.67 134.68 117.68 133.76 109.78C133.02 103.4 131.62 97.1204 130.5 90.8004C126.35 67.5504 125.82 43.6604 128.92 20.2504C128.99 19.7004 129.08 19.1204 129.41 18.6704C130.12 17.6904 131.58 17.7504 132.77 17.9704C148.3 20.7804 160.67 32.2904 171.33 43.9304C180.42 53.8404 189.22 64.6404 192.92 77.5804C195.11 85.2204 195.41 93.2604 195.47 101.2C195.53 108.41 195.39 115.67 193.82 122.71C192.25 129.74 189.15 136.59 184 141.63C181.13 144.44 177.7 146.61 174.55 149.09C167.9 154.33 160.38 160.42 154.82 166.7C150.49 171.6 146.08 176.44 141.39 181C140.03 182.32 138.52 183.45 137.08 184.67C135.93 185.64 134.87 186.71 133.87 187.83C133.64 188.09 133.32 188.36 133.14 188.66C132.96 188.96 132.91 189.39 132.82 189.72L132.15 192.13C132.12 192.25 132.08 192.37 132 192.47C131.9 192.59 131.75 192.64 131.6 192.68C131.39 192.73 131.17 192.74 130.96 192.72C130.64 192.69 130.61 192.65 130.65 192.35C130.73 191.83 130.83 191.32 130.92 190.8C131.09 189.77 131.26 188.73 131.42 187.7C131.73 185.63 132.01 183.55 132.26 181.47C132.76 177.31 133.14 173.14 133.43 168.96C133.72 164.77 133.93 160.58 134.08 156.39C134.23 152.2 134.32 147.99 134.39 143.79C134.44 140.41 134.48 137.03 134.52 133.65L134.51 133.63Z" fill="#7A5838"/>
<path d="M173.2 137.03C173.44 132.22 174.99 127.58 176.03 122.88C177.39 116.73 177.87 110.42 178.35 104.14L180.07 81.6899C180.33 78.3199 180.58 74.9299 180.22 71.5699C179.87 68.3299 178.94 65.1899 178.02 62.0599L172.22 42.4199C189.33 57.3099 197.15 77.8999 201.83 100.09C204.07 110.7 202.37 115.87 196.93 130.01C194.64 135.98 194.23 140.94 189 144.62C186.13 146.64 180.25 151.65 176.52 149.54C173.1 147.59 173.03 140.31 173.19 137.02L173.2 137.03Z" fill="#69482D"/>
<path d="M158 145.84C158.41 148.8 163.54 154.07 161.48 156.9C158.58 153.94 158.52 149.66 158 145.84Z" fill="#69482D"/>
<path d="M165.96 151.56C165.67 150.98 165.38 150.39 165.23 149.76C165.08 149.11 165.07 148.43 165.05 147.76C164.95 144.38 164.36 141.03 163.77 137.7L166.88 145.66C167.74 147.88 168.62 150.12 168.87 152.49C169.38 157.3 166.94 153.56 165.95 151.56H165.96Z" fill="#69482D"/>
<path d="M165.68 111.03C164.64 107.85 163.92 104.57 163.56 101.24C164.95 105.79 168.59 109.5 169.44 114.18C169.98 117.18 169.34 120.31 168.47 123.18C168.91 118.98 166.96 114.91 165.68 111.02V111.03Z" fill="#69482D"/>
<path d="M172.24 96.18C170.62 91.2 169.8 85.95 169.84 80.71C170.22 84.47 172.19 87.85 173.36 91.44C174.4 94.62 174.83 97.99 174.61 101.33C174.56 102.06 174.48 102.78 174.11 103.39C173.44 101.02 173.02 98.56 172.24 96.17V96.18Z" fill="#69482D"/>
<path d="M175.23 69.9396C175.53 68.4296 175.08 66.8896 174.63 65.4196L172.71 59.0696C172 56.7196 170.28 54.8196 169.28 52.5996C168.48 55.0996 169.21 57.9296 169.87 60.3696C170.83 63.9396 172.67 67.2696 175.23 69.9396Z" fill="#69482D"/>
<path d="M145.73 138.73C143.91 133.62 143.1 128.16 143.35 122.74C143.85 125.38 144.35 128.05 145.37 130.54C146.37 133 147.87 135.27 148.63 137.82C149.78 141.63 149.21 145.67 148.89 149.55C149.19 145.92 146.9 142.05 145.72 138.73H145.73Z" fill="#91693A"/>
<path d="M157.44 136.17C154.71 131.14 153.2 125.46 153.06 119.74C152.95 121.16 153.58 122.52 154.2 123.8L158.73 133.2C159.56 134.92 160.4 136.67 160.69 138.56C160.91 139.95 160.83 141.59 160.09 142.81C159.48 142.12 159.57 140.72 159.24 139.8C158.79 138.52 158.07 137.34 157.43 136.16L157.44 136.17Z" fill="#7A4F32"/>
<path d="M140.5 94.5602C139.5 89.7302 137.69 85.1001 136.67 80.2701C135.79 76.1301 135.5 71.8902 135.34 67.6602C136.8 73.9202 138.98 80.0202 141.83 85.7902C143.08 88.3202 144.46 90.8202 145.16 93.5502C145.83 96.1602 145.85 98.9002 145.79 101.6C145.69 105.83 145.36 110.19 143.44 113.96C141.87 117.06 139.89 119.87 138.38 123.02C141.06 113.75 142.47 104.14 140.49 94.5702L140.5 94.5602Z" fill="#91693A"/>
<path d="M134.74 53.4904C132.99 45.3404 136.71 36.5504 134.05 28.6504C135.12 31.8204 135.01 35.8604 135.7 39.1904C136.46 42.8004 137.36 46.3804 138.23 49.9704C139.89 56.7504 142.25 64.3804 141.89 71.4304C140.84 71.0204 140.76 68.6704 140.42 67.6304C139.89 66.0404 139.2 64.5204 138.5 63.0104C137.07 59.9204 135.47 56.8504 134.75 53.4904H134.74Z" fill="#7A4F32"/>
<path d="M148.74 61.3999C148.23 55.8199 146.89 50.3599 145.55 44.9199C148.4 51.0799 152.52 57.0999 152.32 63.8799C152.19 68.4099 150.02 74.1999 147.15 77.6699C148.26 72.1099 149.27 67.1599 148.74 61.3999Z" fill="#91693A"/>
<path d="M160.35 79.3204C160.37 74.8404 161.37 70.3704 160.98 65.9004C161.38 70.4604 162.05 74.8904 162.85 79.3904C163.61 83.6704 164.72 88.6104 163.97 92.9604C162.47 92.6304 161.64 88.3004 161.29 86.9304C160.66 84.4504 160.33 81.8804 160.34 79.3204H160.35Z" fill="#7A4F32"/>
<path d="M163.1 59.1996C159.55 55.0096 155.96 50.7596 153.57 45.8096C151.64 41.8096 150.54 37.4596 149.92 33.0596C150.37 38.1596 153.36 42.6296 156.32 46.8096C157.82 48.9196 159.33 51.0296 160.51 53.3396C162.21 56.6696 163.17 60.3196 164.12 63.9496" fill="#7A4F32"/>
<path d="M154.97 108.04C154.71 105.33 154.94 102.59 154.67 99.88C154.28 96.04 152.89 92.36 152.36 88.54C154.2 91.17 156.07 93.88 156.91 96.97C158.15 101.52 157.04 106.33 157.01 111.05C157 113.39 157.53 115.69 157.68 117.97C156.36 114.82 155.29 111.45 154.96 108.04H154.97Z" fill="#7A4F32"/>
<path d="M138.77 147.78C138.56 154.28 137.48 160.82 134.8 166.74C139.62 162.11 141.95 155.28 142.05 148.59C142.1 145.34 141.66 142.1 140.89 138.95C140.34 136.68 139.69 132.51 137.97 130.89C138.18 136.54 138.96 142.1 138.78 147.78H138.77Z" fill="#7A4F32"/>
<path d="M183.88 111.52V93.5703L20.6799 93.5703V111.52L183.88 111.52Z" fill="#EC1C24"/>
<path d="M111.52 20.6699H93.5701V183.87H111.52V20.6699Z" fill="#EC1C24"/>
<path d="M102 0C45.67 0 0 45.67 0 102C0 158.33 45.67 204 102 204C158.33 204 204 158.33 204 102C204 45.67 158.33 0 102 0ZM102.27 175.71C61.71 175.71 28.83 142.83 28.83 102.27C28.83 61.71 61.71 28.83 102.27 28.83C142.83 28.83 175.71 61.71 175.71 102.27C175.71 142.83 142.83 175.71 102.27 175.71Z" fill="#EC1C24"/>
</svg>
