<svg width="146" height="58" viewBox="0 0 146 58" fill="none" xmlns="http://www.w3.org/2000/svg">
    <path
        d="M7.29082 58C10.8785 58 13.7868 55.0957 13.7868 51.5131C13.7868 47.9306 10.8785 45.0263 7.29082 45.0263C3.70317 45.0263 0.7948 47.9306 0.7948 51.5131C0.7948 55.0957 3.70317 58 7.29082 58Z"
        fill="#AB2BC0" />
    <path
        d="M0.0305603 5.34213C0.282759 2.98397 0.794798 1.52634 2.32327 0.763181C3.248 0.297655 6.22089 -1.03024 12.2584 1.52634C25.8312 7.27292 49.706 30.3584 46.6491 48.8421C46.3128 50.9027 45.5562 55.4969 42.0636 57.2369C39.2054 58.664 34.9639 57.9542 33.657 55.7105C32.0216 52.9098 35.4071 49.7121 36.714 45.7895C45.1206 20.6053 -1.37564 18.6058 0.0305603 5.34213Z"
        fill="#AB2BC0" />
    <path
        d="M31.3643 5.34213C31.6165 2.98397 32.1286 1.52634 33.657 0.763181C34.5818 0.297655 37.5547 -1.03024 43.5921 1.52634C57.165 7.27292 81.0398 30.3584 77.9828 48.8421C77.6466 50.9027 76.89 55.4969 73.3974 57.2369C70.5392 58.664 66.2976 57.9542 64.9908 55.7105C63.3553 52.9098 66.7409 49.7121 68.0477 45.7895C76.4544 20.6053 29.9581 18.6058 31.3643 5.34213Z"
        fill="#AB2BC0" />
    <path
        d="M131.029 21.5745C129.783 18.5219 137.433 14.2711 136.141 10.7224C134.85 7.17369 126.053 7.50186 125.282 7.53238C108.98 8.17344 93.5351 23.4824 95.8736 28.5955C98.4797 34.2582 121.139 23.345 129.752 33.701C133.757 38.5166 133.375 46.3084 130.394 50.9332C122.561 63.0521 94.8649 56.2753 93.9631 50.9332C93.7032 49.4068 95.4304 47.415 97.1576 47.1174C99.7865 46.6366 101.246 50.3684 104.8 52.2229C110.845 55.3519 121.376 52.3297 122.698 47.1174C123.761 42.9429 118.977 37.1505 113.749 35.6319C109.722 34.4566 107.979 36.5705 101.605 36.9063C100.291 36.975 88.7051 37.5855 86.2672 33.0905C83.2102 27.4126 94.4751 13.2484 108.002 6.28079C112.779 3.81579 125.916 -2.9763 136.118 3.0908C143.264 7.34159 148.071 17.3542 145.068 21.605C142.263 25.5811 132.297 24.6882 131.029 21.5745Z"
        fill="#1E73E4" />
</svg>