<svg width="472" height="604" viewBox="0 0 472 604" fill="none" xmlns="http://www.w3.org/2000/svg">
<g clip-path="url(#clip0_754_111)">
<path d="M458.428 219.227C451.886 193.753 445.341 168.279 438.793 142.804C437.751 138.814 436.637 134.626 433.752 131.689C430.502 128.376 425.669 127.292 421.106 126.48C378.91 118.958 333.61 122.719 296.279 143.794C258.947 164.869 231.198 204.955 231.334 247.813C231.417 275.43 242.51 301.985 244.135 329.549C246.322 366.563 231.375 402.649 230.594 439.726C229.896 472.749 240.781 505.075 257.978 532.984C270.998 554.11 301.424 598.541 327.767 603.521C354.505 608.584 364.567 572.57 360.224 552.6C353.526 521.858 315.371 480.719 330.017 448.081C333.662 439.976 340.85 434.058 348.162 429.016C359.991 420.853 372.768 414.157 386.212 409.077C400.639 403.629 415.93 399.983 429.116 391.992C456.001 375.71 469.896 343.446 472.031 312.1" fill="#F9C7A5"/>
<path d="M329.6 73.0897C331.85 62.943 333.1 52.2545 330.173 42.2537C322.58 16.3348 291.55 6.22972 264.759 2.92735C229.602 -1.39468 194.021 -0.918059 158.993 4.34414C136.317 7.75068 113.589 13.3032 93.7355 24.773C53.4247 48.0667 29.155 96.4354 34.5401 142.679C40.2482 191.569 74.7259 231.707 92.8709 277.461C97.8186 289.963 101.6 303.38 99.7144 316.673C94.9854 349.905 59.2995 367.521 35.5609 391.253C16.2086 410.72 3.92827 436.105 0.677055 463.363C-0.906208 476.906 0.0416707 491.49 7.46843 502.95C12.5515 510.805 20.2804 516.607 28.4571 521.16C60.6119 539.088 102.11 538.869 134.098 520.691C173.794 498.085 195.168 452.424 203.158 407.452C211.147 362.479 208.241 316.309 212.386 270.805C213.918 254.084 216.49 237.125 223.938 222.071C237.135 195.371 264.27 177.182 283.54 155.138C305.101 130.459 322.309 105.77 329.6 73.0897Z" fill="#703514"/>
<path d="M392.608 259.814C392.608 259.574 395.67 259.533 401.118 258.772C404.4 258.338 407.65 257.687 410.846 256.824C412.713 256.341 414.42 255.375 415.794 254.022C416.417 253.336 416.785 252.457 416.836 251.532C416.8 250.5 416.514 249.492 416.002 248.594C415.482 247.553 414.763 246.511 414.086 245.469C413.409 244.427 412.68 243.271 411.94 242.156C410.461 239.906 408.878 237.604 407.242 235.208C403.961 230.405 400.399 225.301 396.962 219.665C395.222 216.862 393.597 213.883 392.003 210.799C391.274 209.216 390.462 207.674 389.806 206.007L388.764 203.528L387.858 200.965C387.536 200.112 387.258 199.242 387.025 198.361C386.775 197.475 386.483 196.59 386.275 195.694C385.879 193.881 385.431 192.058 385.16 190.193C384.626 186.441 384.327 182.659 384.264 178.87C384.098 171.244 384.348 163.952 383.681 156.993C383.014 150.034 382.056 143.189 380.889 136.835C380.306 133.735 379.562 130.668 378.66 127.646C377.808 124.831 376.764 122.078 375.535 119.406C373.245 114.589 370.613 109.941 367.661 105.499C364.963 101.394 362.505 97.6229 360.234 94.4872C358.342 91.7772 356.104 89.3258 353.578 87.1949C351.959 85.8975 350.145 84.8639 348.203 84.1322C347.537 83.8613 347.005 83.7363 346.651 83.6113C346.297 83.4863 346.12 83.4029 346.131 83.3508C346.141 83.2988 346.328 83.2779 346.714 83.2988C347.276 83.32 347.834 83.3968 348.38 83.5279C350.508 84.038 352.517 84.9541 354.297 86.2261C357.056 88.2561 359.511 90.6695 361.588 93.3934C362.828 94.9456 364.078 96.6541 365.38 98.4667C366.682 100.279 368.057 102.196 369.473 104.238C372.601 108.699 375.386 113.39 377.806 118.271C379.146 121.03 380.287 123.881 381.223 126.803C382.19 129.882 382.99 133.012 383.618 136.178C384.889 142.658 385.952 149.45 386.629 156.618C387.306 163.785 387.129 171.265 387.295 178.724C387.351 182.384 387.633 186.037 388.139 189.662C388.389 191.433 388.806 193.162 389.181 194.871C389.379 195.736 389.649 196.569 389.879 197.413C390.108 198.257 390.358 199.1 390.66 199.913C390.962 200.726 391.233 201.549 391.514 202.361L392.483 204.757C393.108 206.351 393.889 207.882 394.566 209.403C396.087 212.414 397.639 215.331 399.316 218.102C402.618 223.686 406.086 228.822 409.273 233.728C410.878 236.166 412.398 238.521 413.846 240.823C414.575 241.969 415.273 243.104 415.929 244.219C416.586 245.334 417.284 246.396 417.867 247.605C418.512 248.838 418.838 250.213 418.815 251.605C418.775 252.324 418.605 253.03 418.315 253.688C418.036 254.301 417.663 254.867 417.211 255.366C415.548 256.932 413.487 258.013 411.253 258.491C407.938 259.27 404.566 259.782 401.17 260.022C395.67 260.377 392.597 260.002 392.608 259.814Z" fill="black"/>
<path d="M265.874 329.018C265.874 328.935 266.686 329.018 268.082 329.529C270.055 330.383 271.939 331.43 273.707 332.654C274.967 333.48 276.282 334.218 277.644 334.862C279.092 335.477 280.883 336.04 282.717 336.717L295.32 341.269C304.632 344.665 315.59 349.041 328.131 352.478C331.256 353.322 334.527 354.104 337.85 354.916C341.172 355.729 344.558 356.5 348.026 357.166C354.932 358.448 362.224 359.406 369.473 358.542C370.379 358.448 371.254 358.239 372.14 358.104C373.025 357.969 373.879 357.677 374.744 357.468C376.447 356.963 378.112 356.333 379.723 355.583C382.869 354.199 385.703 352.193 388.056 349.687C389.145 348.513 390.022 347.159 390.649 345.686C391.241 344.203 391.633 342.647 391.816 341.061C392.083 337.773 392.166 334.472 392.066 331.175C391.989 327.797 392.566 324.437 393.764 321.278C394.393 319.7 395.307 318.252 396.462 317.007C397.031 316.397 397.663 315.849 398.347 315.371C398.919 315.033 399.466 314.654 399.982 314.236C400.126 314.123 400.24 313.976 400.314 313.809C400.389 313.642 400.421 313.46 400.409 313.277C400.361 312.738 400.216 312.213 399.982 311.725C399.407 310.583 398.709 309.507 397.899 308.516C396.222 306.433 394.483 303.433 395.535 300.307C395.814 299.548 396.292 298.879 396.92 298.37C397.443 297.978 397.997 297.63 398.576 297.328C399.381 296.882 400.029 296.198 400.43 295.369C401.138 293.623 401.183 291.677 400.555 289.9C400.06 288.239 399.254 286.687 398.18 285.327C397.139 284.014 396.16 282.858 395.285 281.774C393.83 280.146 392.68 278.268 391.889 276.232C391.41 274.805 391.451 274.003 391.535 273.993C391.618 273.982 391.837 274.722 392.472 275.993C393.465 277.826 394.722 279.504 396.201 280.972C397.139 282.014 398.222 283.056 399.326 284.389C400.606 285.847 401.586 287.543 402.211 289.379C402.574 290.42 402.788 291.508 402.847 292.609C402.927 293.847 402.709 295.087 402.211 296.224C401.642 297.458 400.703 298.485 399.524 299.161C399.054 299.421 398.605 299.717 398.18 300.047C397.861 300.326 397.624 300.686 397.493 301.089C397.242 302.071 397.326 303.108 397.732 304.037C397.94 304.565 398.205 305.068 398.524 305.537C398.868 306.037 399.264 306.579 399.68 307.058C400.647 308.17 401.483 309.39 402.17 310.694C402.567 311.477 402.811 312.329 402.888 313.204C402.917 313.756 402.825 314.307 402.618 314.819C402.407 315.31 402.099 315.753 401.711 316.121C401.107 316.657 400.459 317.141 399.774 317.569C399.248 317.949 398.763 318.381 398.326 318.861C397.424 319.887 396.718 321.07 396.243 322.351C395.224 325.198 394.76 328.215 394.878 331.237C395.014 334.644 394.955 338.056 394.701 341.457C394.51 343.321 394.064 345.151 393.378 346.895C393.201 347.332 392.972 347.77 392.764 348.207C392.556 348.645 392.274 349.062 392.024 349.478C391.495 350.278 390.91 351.041 390.274 351.76C387.665 354.589 384.512 356.864 381.004 358.448C379.258 359.281 377.451 359.977 375.598 360.531C374.65 360.771 373.702 361.052 372.734 361.24C371.765 361.427 370.807 361.615 369.827 361.708C362.005 362.636 354.464 361.594 347.412 360.24C343.87 359.542 340.443 358.729 337.1 357.885C333.756 357.041 330.517 356.229 327.329 355.322C314.611 351.666 303.684 347.061 294.497 343.405L282.092 338.436C280.269 337.675 278.581 337.071 276.967 336.269C275.58 335.529 274.253 334.683 272.998 333.737C271.337 332.437 269.598 331.241 267.79 330.154C266.561 329.404 265.842 329.143 265.874 329.018Z" fill="black"/>
<path d="M152.347 515.93C152.34 515.461 152.403 514.994 152.535 514.544C152.712 513.638 152.993 512.294 153.389 510.534C153.785 508.773 154.222 506.585 154.941 504.043C155.66 501.502 156.472 498.574 157.389 495.272C158.306 491.969 159.555 488.365 160.878 484.417C162.201 480.468 163.691 476.176 165.441 471.645C168.795 462.509 172.972 452.247 177.575 440.913C182.179 429.579 187.263 417.255 192.106 403.712C197.359 389.41 201.469 374.713 204.397 359.76C207.439 343.978 208.407 327.059 209.064 309.495C209.397 300.713 209.668 291.786 210.168 282.66C210.668 273.534 211.407 264.314 212.782 255.012C214.096 245.806 216.119 236.716 218.834 227.822C221.493 219.159 225.054 210.8 229.459 202.882L230.271 201.413L231.156 200.007C231.74 199.059 232.334 198.121 232.917 197.184C234.115 195.319 235.458 193.569 236.708 191.766C237.958 189.964 239.437 188.339 240.875 186.693L243.083 184.308C243.796 183.495 244.551 182.72 245.343 181.984C248.416 179.039 251.665 176.284 255.072 173.734L260.28 170.223C262.009 169.077 263.832 168.139 265.582 167.098C272.531 163.257 279.727 159.881 287.123 156.993C294.268 154.138 301.268 151.586 307.955 149.065C321.382 144.044 333.704 138.835 343.922 132.313C348.731 129.192 353.262 125.661 357.463 121.76C361.164 118.243 364.357 114.229 366.953 109.832C369.188 106.011 370.706 101.813 371.432 97.4458C371.995 93.7729 371.811 90.024 370.89 86.4241C370.174 83.5362 368.984 80.7869 367.369 78.2879C366.168 76.4652 364.712 74.8235 363.047 73.4125C361.6 72.317 360.094 71.3015 358.536 70.3706C359.002 70.4537 359.451 70.6083 359.87 70.829C360.407 71.0431 360.926 71.3009 361.422 71.5999C362.127 71.9858 362.803 72.4246 363.442 72.9125C365.243 74.2861 366.826 75.9226 368.14 77.7671C369.916 80.2998 371.245 83.1188 372.067 86.1011C373.13 89.8512 373.418 93.7789 372.911 97.6438C372.248 102.223 370.748 106.641 368.484 110.676C365.875 115.275 362.631 119.483 358.849 123.177C354.585 127.24 349.974 130.921 345.068 134.178C334.714 140.939 322.257 146.346 308.82 151.482C295.383 156.618 280.842 161.691 266.926 169.608C265.217 170.65 263.447 171.588 261.77 172.734L256.749 176.161C253.465 178.639 250.334 181.314 247.375 184.172C246.593 184.87 245.906 185.651 245.198 186.422L243.114 188.735C241.739 190.329 240.448 192.006 239.114 193.652C237.781 195.298 236.615 197.1 235.458 198.861L233.771 201.611L232.917 202.986L232.136 204.403C227.848 212.118 224.378 220.26 221.782 228.697C219.123 237.438 217.142 246.372 215.855 255.418C214.491 264.575 213.772 273.732 213.251 282.774C212.73 291.817 212.449 300.765 212.095 309.568C211.397 327.153 210.366 344.238 207.21 360.239C204.179 375.325 199.936 390.142 194.523 404.545C189.565 418.088 184.346 430.443 179.617 441.715C174.888 452.987 170.576 463.175 167.118 472.218C165.295 476.718 163.795 480.979 162.326 484.865C160.857 488.75 159.722 492.376 158.597 495.595C157.472 498.814 156.67 501.752 155.879 504.252C155.087 506.752 154.556 508.919 154.045 510.648C153.535 512.377 153.16 513.69 152.889 514.576C152.782 515.053 152.599 515.51 152.347 515.93Z" fill="black"/>
<path d="M68.0699 532.192C68.3861 531.685 68.7639 531.22 69.1949 530.806C69.9657 529.921 71.226 528.723 72.726 526.962C77.1291 521.941 81.0947 516.553 84.5796 510.857C90.0677 501.836 94.4365 492.181 97.5894 482.104C101.799 468.771 104.305 454.959 105.047 440.996C105.985 425.485 105.11 408.41 102.766 390.263C100.423 372.115 96.6937 352.864 92.9126 332.56C91.0377 322.403 89.1627 311.964 87.6211 301.234C86.0795 290.504 84.84 279.482 84.2671 268.2C83.6718 256.714 83.9225 245.199 85.0171 233.749C86.1895 221.976 88.0678 210.284 90.6418 198.736C93.2042 187.058 96.277 175.64 99.5894 164.493C101.235 158.92 102.933 153.399 104.797 147.961C106.662 142.523 108.547 137.158 110.672 131.918C111.714 129.282 112.839 126.709 113.943 124.136C115.047 121.563 116.255 119.031 117.547 116.573C119.993 111.629 122.719 106.829 125.713 102.196L127.963 98.7794L130.348 95.4874C131.119 94.3832 131.973 93.331 132.817 92.2788C133.661 91.2266 134.473 90.1953 135.359 89.1535C137.15 87.1534 138.879 85.1324 140.796 83.2884C142.712 81.4445 144.556 79.5798 146.546 77.8817C154.3 71.3246 162.762 65.6535 171.774 60.974C176.128 58.6717 180.461 56.4945 184.856 54.6193L191.346 51.7441L197.835 49.1918C213.817 43.0267 230.4 38.5472 247.312 35.826C261.237 33.5649 275.328 32.4742 289.435 32.5653C292.56 32.5653 295.549 32.5653 298.435 32.7841C301.32 33.0029 304.101 33.0341 306.768 33.2529C312.07 33.7633 316.924 34.1488 321.246 34.8468C323.413 35.1593 325.465 35.4301 327.381 35.7323L332.725 36.774L337.298 37.6491C338.693 37.9512 339.943 38.2637 341.058 38.5346C343.294 39.0763 344.988 39.4999 346.141 39.8055C346.727 39.916 347.297 40.0979 347.839 40.3472C347.242 40.3369 346.648 40.26 346.068 40.1181C344.901 39.9201 343.183 39.5972 340.923 39.1492L337.152 38.4096L332.569 37.6908L327.215 36.8365L321.1 36.0969C316.778 35.4927 311.945 35.201 306.664 34.7738C304.028 34.6072 301.258 34.5655 298.393 34.4405C295.529 34.3155 292.539 34.3467 289.446 34.3571C275.441 34.442 261.468 35.6789 247.666 38.0554C230.946 40.876 214.561 45.4143 198.772 51.5982L192.367 54.1609L185.961 57.0362C181.627 58.9218 177.357 61.0886 173.076 63.3805C164.268 68.0308 156 73.6381 148.421 80.1007C146.49 81.7675 144.633 83.528 142.848 85.3824C140.994 87.1846 139.317 89.1535 137.64 91.112C136.775 92.0809 135.994 93.1435 135.171 94.154C134.348 95.1645 133.525 96.2375 132.775 97.2792L130.453 100.498C129.723 101.613 128.994 102.728 128.255 103.842C125.323 108.389 122.645 113.094 120.234 117.937C118.974 120.354 117.88 122.886 116.714 125.386C115.547 127.886 114.505 130.459 113.495 133.064C111.412 138.272 109.516 143.554 107.724 148.95C105.933 154.347 104.225 159.837 102.589 165.389C99.2977 176.484 96.2562 187.829 93.7146 199.413C91.1688 210.838 89.3044 222.405 88.1315 234.051C87.0369 245.355 86.7758 256.723 87.3503 268.065C87.892 279.222 89.069 290.16 90.6002 300.818C92.1314 311.475 93.9334 321.892 95.8083 332.07C99.506 352.364 103.214 371.657 105.402 389.971C107.589 408.285 108.412 425.495 107.308 441.163C106.436 455.287 103.751 469.239 99.3185 482.677C95.9968 492.83 91.4125 502.525 85.6733 511.534C82.0515 517.217 77.89 522.537 73.2468 527.421C71.6635 529.087 70.3302 530.244 69.4761 531.067C69.0549 531.497 68.5827 531.875 68.0699 532.192Z" fill="black"/>
<path d="M316.121 484.573C315.934 484.688 314.871 483.24 313.09 480.51L311.622 478.229C311.111 477.385 310.58 476.437 310.028 475.427C308.913 473.406 307.57 471.134 306.341 468.488C305.695 467.176 305.028 465.801 304.341 464.373C303.653 462.946 303.039 461.394 302.351 459.821C300.945 456.696 299.726 453.227 298.383 449.612C292.85 433.766 289.657 417.198 288.904 400.43C288.8 396.576 288.654 392.909 288.789 389.482C288.841 387.763 288.841 386.106 288.946 384.523C289.05 382.939 289.164 381.398 289.268 379.949C289.425 377.043 289.831 374.428 290.112 372.136C290.268 370.99 290.393 369.917 290.56 368.949L291.07 366.282C291.706 363.083 292.112 361.344 292.372 361.375C292.633 361.406 292.539 363.219 292.268 366.438C292.206 367.25 292.122 368.136 292.039 369.115C291.956 370.094 291.914 371.199 291.852 372.313C291.737 374.595 291.487 377.199 291.477 380.074C291.477 381.512 291.393 383.023 291.352 384.596C291.31 386.169 291.352 387.794 291.352 389.492C291.352 392.878 291.57 396.482 291.747 400.274C292.832 416.74 295.981 433.004 301.122 448.685C302.372 452.279 303.487 455.716 304.768 458.852C305.393 460.415 305.934 461.977 306.559 463.405L308.351 467.572C309.393 470.239 310.632 472.562 311.59 474.645L312.944 477.531L314.163 479.937C315.59 482.802 316.309 484.469 316.121 484.573Z" fill="black"/>
</g>
<defs>
<clipPath id="clip0_754_111">
<rect width="472" height="604" fill="white"/>
</clipPath>
</defs>
</svg>
