<svg xmlns="http://www.w3.org/2000/svg">
    <symbol id="logo" viewBox="0 0 146 58">
        <g>
            <path
                d="M7.29082 58C10.8785 58 13.7868 55.0957 13.7868 51.5131C13.7868 47.9306 10.8785 45.0263 7.29082 45.0263C3.70317 45.0263 0.7948 47.9306 0.7948 51.5131C0.7948 55.0957 3.70317 58 7.29082 58Z"
                fill="#AB2BC0" />
            <path
                d="M0.0305603 5.34213C0.282759 2.98397 0.794798 1.52634 2.32327 0.763181C3.248 0.297655 6.22089 -1.03024 12.2584 1.52634C25.8312 7.27292 49.706 30.3584 46.6491 48.8421C46.3128 50.9027 45.5562 55.4969 42.0636 57.2369C39.2054 58.664 34.9639 57.9542 33.657 55.7105C32.0216 52.9098 35.4071 49.7121 36.714 45.7895C45.1206 20.6053 -1.37564 18.6058 0.0305603 5.34213Z"
                fill="#AB2BC0" />
            <path
                d="M31.3643 5.34213C31.6165 2.98397 32.1285 1.52634 33.657 0.763181C34.5817 0.297655 37.5546 -1.03024 43.5921 1.52634C57.165 7.27292 81.0398 30.3584 77.9828 48.8421C77.6465 50.9027 76.8899 55.4969 73.3974 57.2369C70.5391 58.664 66.2976 57.9542 64.9908 55.7105C63.3553 52.9098 66.7409 49.7121 68.0477 45.7895C76.4543 20.6053 29.9581 18.6058 31.3643 5.34213Z"
                fill="#AB2BC0" />
            <path
                d="M131.029 21.5745C129.783 18.5219 137.433 14.2711 136.141 10.7224C134.85 7.17369 126.053 7.50186 125.282 7.53238C108.98 8.17344 93.5351 23.4824 95.8737 28.5955C98.4797 34.2582 121.139 23.345 129.752 33.701C133.757 38.5166 133.375 46.3084 130.394 50.9332C122.561 63.0521 94.8649 56.2753 93.9631 50.9332C93.7032 49.4068 95.4304 47.415 97.1576 47.1174C99.7866 46.6366 101.246 50.3684 104.8 52.2229C110.845 55.3519 121.376 52.3297 122.698 47.1174C123.761 42.9429 118.977 37.1505 113.749 35.6319C109.722 34.4566 107.979 36.5705 101.605 36.9063C100.291 36.975 88.7051 37.5855 86.2672 33.0905C83.2103 27.4126 94.4751 13.2484 108.002 6.28079C112.779 3.81579 125.916 -2.9763 136.118 3.0908C143.264 7.34159 148.071 17.3542 145.068 21.605C142.263 25.5811 132.297 24.6882 131.029 21.5745Z"
                fill="#1E73E4" />
        </g>
    </symbol>

    <symbol id="logo-footer" viewBox="0 0 88 35">
        <g clip-path="url(#clip0_754_14)">
            <path
                d="M4.39448 34.9998C6.5569 34.9998 8.30989 33.2473 8.30989 31.0854C8.30989 28.9235 6.5569 27.1709 4.39448 27.1709C2.23205 27.1709 0.479065 28.9235 0.479065 31.0854C0.479065 33.2473 2.23205 34.9998 4.39448 34.9998Z"
                fill="#282229" />
            <path
                d="M0.0184036 3.22395C0.170414 1.80092 0.47904 0.921316 1.40031 0.46079C1.95768 0.179869 3.74956 -0.621447 7.38859 0.921316C15.5695 4.38908 29.9598 18.32 28.1172 29.4739C27.9146 30.7174 27.4585 33.4897 25.3534 34.5397C23.6306 35.4009 21.0741 34.9726 20.2864 33.6187C19.3007 31.9286 21.3413 29.9989 22.129 27.6318C27.196 12.4345 -0.829168 11.2279 0.0184036 3.22395Z"
                fill="#282229" />
            <path
                d="M18.9045 3.22346C19.0566 1.80043 19.3652 0.920828 20.2865 0.460301C20.8438 0.17938 22.6357 -0.621935 26.2747 0.920828C34.4556 4.38859 48.8459 18.3195 47.0034 29.4735C46.8007 30.7169 46.3447 33.4892 44.2395 34.5392C42.5168 35.4004 39.9602 34.9721 39.1725 33.6182C38.1868 31.9281 40.2274 29.9985 41.0151 27.6314C46.0821 12.434 18.057 11.2274 18.9045 3.22346Z"
                fill="#282229" />
            <path
                d="M78.9761 13.0193C78.2253 11.1771 82.8363 8.612 82.0578 6.47055C81.2793 4.32911 75.9774 4.52714 75.5122 4.54556C65.6868 4.9324 56.3773 14.1705 57.7869 17.2561C59.3576 20.6732 73.0155 14.0877 78.2069 20.337C80.6206 23.2429 80.3903 27.9449 78.5938 30.7357C73.8723 38.0488 57.1788 33.9594 56.6353 30.7357C56.4787 29.8146 57.5197 28.6127 58.5607 28.4331C60.1453 28.1429 61.0251 30.3949 63.1671 31.514C66.8107 33.4021 73.1583 31.5784 73.9552 28.4331C74.5955 25.914 71.7119 22.4186 68.5612 21.5021C66.1336 20.7929 65.0833 22.0686 61.2416 22.2712C60.4493 22.3127 53.4661 22.6811 51.9967 19.9686C50.1541 16.5423 56.9439 7.99489 65.0972 3.79029C67.9761 2.30279 75.8945 -1.79589 82.044 1.86529C86.3509 4.43042 89.2483 10.4725 87.438 13.0377C85.7475 15.437 79.7408 14.8982 78.9761 13.0193Z"
                fill="#282229" />
        </g>
    </symbol>

    <symbol id="github" viewBox="0 0 61 62" fill="none">
        <g clip-path="url(#clip0_1139_19)">
            <path
                d="M34.4 36.64C34.2 35.92 33.82 35.27 33.29 34.74C41.11 33.87 41.25 28.02 40.39 24.58C40.18 23.68 39.77 22.84 39.19 22.12C40.23 20.65 38.84 17.63 38.84 17.63C37.25 17.85 35.74 18.48 34.47 19.45C31.56 18.19 26.35 19.38 26.35 19.38C25.58 17.63 21.83 17.63 21.83 17.63C21.23 19.03 21.15 20.6 21.62 22.05C21.24 22.9 20.6 23.49 20.37 24.67C18.41 35.03 28.31 34.57 27.55 34.73C26.79 34.89 26.3 37.04 26.3 37.04C23.87 38.15 22.27 36.76 21.93 35.99C21.6 35.41 21.15 34.91 20.61 34.52L19.78 33.89C18.95 33.29 17.7 34.52 18.81 34.73C19.92 34.94 20.68 37.04 20.82 37.39C21.23 38.21 21.92 38.86 22.77 39.21C23.88 39.63 26.31 39.21 26.31 39.21V45.78V45.94C27.36 46.14 28.43 46.25 29.53 46.25C31.25 46.25 32.91 45.98 34.49 45.51C34.49 43.49 34.49 37.29 34.42 36.63L34.4 36.64Z"
                fill="currentColor" />
            <g opacity="0.9">
                <g opacity="0.9">
                    <path opacity="0.6"
                        d="M7.09 51.83C3.8 48.16 1.39 43.78 0 39.04C0.6 40.01 1.21 40.93 1.87 41.8C2.88 43.31 3.52 44.98 4.28 46.71C5.03 48.44 5.85 50.26 7.1 51.83H7.09Z"
                        fill="currentColor" />
                    <path opacity="0.5"
                        d="M18.08 59.62C18.08 59.62 18.06 59.62 18.05 59.62C16.31 58.88 14.64 57.98 13.03 56.94C11.44 55.87 9.93 54.67 8.56 53.34C8.76 53.51 8.97 53.67 9.18 53.82C10.67 54.84 12.22 55.73 13.7 56.65C15.19 57.58 16.65 58.48 18.08 59.6V59.62Z"
                        fill="currentColor" />
                    <path opacity="0.3"
                        d="M50.02 31.44C53.85 33.88 56.32 38.41 57.46 43.58C57.19 44.62 57.11 45.88 56.63 46.67C56.66 46.67 56.51 47.05 56.2 47.63C55.87 48.2 55.44 49.01 54.84 49.84C53.7 51.54 52.05 53.42 50.76 54.5C51.19 52.04 50.86 49.59 49.96 47.41C48.98 48.05 47.21 49.34 46.71 48.79C45.21 46.41 45.31 43.92 44.94 41.6C45.11 41.42 46.68 40.22 48 38.21C49.35 36.23 50.26 33.45 50.03 31.44H50.02Z"
                        fill="currentColor" />
                    <path opacity="0.2"
                        d="M48.45 22.02C47.98 20.77 47.52 19.25 46.98 17.84C46.44 16.45 45.83 15.19 45.4 14.51C47.19 13.99 49.1 13.72 51.02 14.03C50.96 13.35 50.93 12.73 50.83 12.16C50.73 11.58 50.62 11 50.3 10.45C50.72 10.49 51.13 10.54 51.53 10.62C55.98 15.15 59.06 20.96 60.22 27.33C59.73 27.17 57.69 25.37 55.26 24.06C52.82 22.7 50.01 21.94 48.45 22.03V22.02Z"
                        fill="currentColor" />
                    <path opacity="0.2"
                        d="M50.69 29.63C50.56 29.13 50.38 28.67 50.23 28.22C50.06 27.78 49.87 27.37 49.7 26.97C49.41 25.32 48.97 23.68 48.45 22.02C51.6 21.87 54.84 22.86 57.35 25.16C57.26 24.78 58.18 24.2 58.08 23.79C58.36 24.23 58.58 24.66 58.76 25.05L59.19 26.12C59.47 26.74 59.7 27.17 60.21 27.33C60.74 30.28 60.86 33.36 60.47 36.44C60.05 39.52 59.14 42.51 57.79 45.29C57.76 43.8 58.61 42.77 59.06 41.52C58.05 41.83 57.65 42.61 57.45 43.59C56.3 38.42 53.83 33.89 50.01 31.45C50.01 31.17 50.04 30.9 50.03 30.62C50.47 30.37 50.9 30.12 50.68 29.65L50.69 29.63Z"
                        fill="currentColor" />
                    <path opacity="0.5"
                        d="M16.27 54.31C20.09 54.6 22.92 52.87 24.92 50.68C25.55 51.1 26.91 52 28.05 51.46C29 51.62 30.49 51.84 31.84 51.8C33.19 51.78 34.34 51.45 34.55 50.93C34.75 50.41 34.05 51.6 32.73 53.14C31.44 54.68 29.39 56.41 28.08 57.42C27.7 58.8 26.24 59.83 24.32 60.5C23.8 60.3 24.43 59.53 23.94 59.28C23.92 59.41 22.74 60.14 22.74 60.14C22.74 60.14 22.49 60.09 22.1 59.96L20.57 59.46C19.98 59.24 19.33 58.98 18.71 58.73L17.07 57.97C16.94 57.11 16.25 56.64 15.53 56.41C14.84 56.14 14.11 56.1 13.99 56.2C13.48 55.9 13.02 55.52 12.54 55.18L12.5 55.13C13.4 55.23 14.27 55.3 15.15 55.32C15.7 55.24 16.26 54.31 16.26 54.31H16.27Z"
                        fill="currentColor" />
                    <path opacity="0.4"
                        d="M46.7 48.79C45.2 46.41 45.3 43.92 44.93 41.6C44.67 41.82 44.22 42.21 43.8 42.54C43.37 42.85 43.01 43.14 42.93 43.18C43.52 43.47 44.24 43.63 44.17 44.13C43.68 45.18 42.88 46.45 42.18 46.95C41.7 47.23 41.06 47.31 40.46 47.4L38.63 47.51C38.3 47.82 37.96 48.13 37.61 48.4C37.26 48.7 36.9 48.98 36.54 49.24C36.5 49.27 36.35 50.38 36.47 50.8C35.82 50.97 35.2 51.02 34.57 50.92C34.57 51.03 33.46 52.22 31.97 53.5C30.51 54.82 28.61 56.18 28.1 57.4C27.72 58.78 26.26 59.81 24.34 60.48L25.17 60.66C25.66 60.78 26.34 60.9 27.09 61C28.59 61.24 30.4 61.32 31.58 61.33C31.48 61.07 30.61 60.49 30.36 60.4C30.52 60.4 31.16 60.61 31.9 60.82C32.63 61 33.47 61.21 33.94 61.25C34.69 61.19 35.99 61.03 37.14 60.78C38.28 60.54 39.26 60.21 39.41 60.14C39.83 60.01 38.77 59.58 38.57 58.87C40.55 59.29 42.66 59.19 44.61 58.53C45.12 58.31 45.59 58.03 46.07 57.77C46.36 57.92 46.57 58.02 46.37 58.14C46.11 58.39 45.84 58.63 45.55 58.85C46 58.6 47.24 58 48.4 57.24C49.57 56.5 50.7 55.67 51.15 55.29C50.65 55.62 50.09 55.87 49.54 56.11C49 56.35 48.43 56.55 47.85 56.7C48.35 56.38 48.83 56.04 49.3 55.68C49.77 55.32 50.24 54.97 50.68 54.57L50.78 54.46C51.21 52.01 50.87 49.58 49.98 47.4C49 48.04 47.23 49.33 46.73 48.78L46.7 48.79Z"
                        fill="currentColor" />
                    <path opacity="0.9"
                        d="M24.99 -2.13645e-06C26.41 0.469998 28.13 0.689998 29.76 1.16C31.39 1.64 32.92 2.42 33.69 3.58C34.77 5.66 34.28 7.45 33.65 9.18C32.98 10.89 32.16 12.62 31.44 14.37C30.93 13.69 30.12 13.08 28.98 12.74C27.83 12.42 26.41 12.34 24.94 12.59C23.47 12.84 21.95 13.37 20.56 14.12C19.19 14.88 17.79 15.94 16.59 17.12C16.54 15.93 17.29 14.97 17.97 13.98C18.68 12.99 19.31 12.03 19.32 10.5C19.14 10.19 18.37 10.23 17.88 10.13C18.44 9.11 19.5 8.06 20.41 7.16C21.31 6.25 22.04 5.43 21.76 4.58C21.41 3.53 20.27 2.64 19.37 1.46C19.68 1.32 20 1.2 20.33 1.09C21.51 1.22 23.01 0.369998 25 -0.0100021L24.99 -2.13645e-06Z"
                        fill="currentColor" />
                    <path
                        d="M7.01999 8.76C8.61999 6.82 10.4 5.07 12.48 3.47C12.7 3.73 12.95 3.96 13.21 4.17C10.8 5.91 8.77999 7.95 7.10999 10.28C7.08999 9.76 7.07999 9.27 7.01999 8.76Z"
                        fill="currentColor" />
                    <path opacity="0.8"
                        d="M17.87 10.13C18.36 10.24 19.13 10.19 19.31 10.5C19.31 12.03 18.67 12.99 17.96 13.98C17.28 14.97 16.53 15.93 16.58 17.12C14.71 18.95 13.22 21.22 12.18 23.65C12.08 23.12 12.01 22.58 11.93 22.02C11.34 23.39 8.81999 22.77 8.30999 24.42C7.73999 21.66 8.33999 18.45 9.27999 15.38C10.22 12.28 11.49 9.31 12.04 6.18C13.04 5.21 14.25 4.3 15.46 3.5C16.7 2.73 17.99 2.01 19.37 1.47C20.27 2.64 21.41 3.54 21.76 4.59C22.05 5.44 21.31 6.27 20.41 7.17C19.5 8.07 18.44 9.11 17.88 10.14L17.87 10.13Z"
                        fill="currentColor" />
                    <path opacity="0.7"
                        d="M8.29999 24.43C8.81999 22.78 11.33 23.4 11.92 22.03C12 22.59 12.08 23.13 12.17 23.66C10.97 26.48 10.46 29.55 10.67 32.52C10.63 32.72 10.61 32.93 10.61 33.13C10.55 35.48 11.22 37.39 11.82 39.53C9.90999 38.74 8.00999 37.61 6.29999 36.09C7.60999 32.34 9.36999 29.15 11.18 26.22C10.54 27.27 8.85999 26.62 8.36999 27.19C7.14999 28.18 5.52999 29.24 3.96999 29.98C2.42999 30.71 0.959989 31.06 0.0799888 30.21C0.0699888 23.3 2.34999 16.51 6.41999 10.88C7.08999 10.8 8.05999 10.76 8.29999 10.5C9.36999 8.93999 10.64 7.50999 12.04 6.18999C11.49 9.31999 10.22 12.29 9.27999 15.39C8.32999 18.46 7.73999 21.67 8.30999 24.43H8.29999Z"
                        fill="currentColor" />
                    <path opacity="0.6"
                        d="M6.31 36.09C8.02 37.62 9.92 38.74 11.83 39.53C11.96 40.09 12.16 40.64 12.29 41.26C12.58 41.11 12.85 40.96 13.05 40.64L13.65 41.69C13.74 42.18 13.05 43.24 14.57 43.04C14.9 43.5 15.26 43.94 15.63 44.36C15.69 45.08 15.63 45.81 15.28 46.61L16.06 45.85C17 45.73 16.88 46.67 17.34 47.04C17.47 46.89 17.66 46.66 17.85 46.51C18.55 47.69 19.92 48.61 21.21 49.1C22.5 49.6 23.63 49.75 23.95 49.85C24.26 50.14 24.59 50.42 24.93 50.67C22.93 52.86 20.1 54.59 16.28 54.3C16.28 54.3 15.72 55.23 15.17 55.31C14.3 55.29 13.42 55.22 12.52 55.12C11.16 53 9.36 51.23 7.87 49.75C6.35 48.3 5.18 47.18 5.1 47.1C4.74 46.53 4.41 45.95 4.07 45.37C3.25 43.64 2.79 41.23 2.34 38.84C1.87 36.43 1.41 34.05 0.129996 31.8L0.0899963 30.18C0.969996 31.03 2.44 30.68 3.98 29.95C5.53 29.21 7.16 28.15 8.38 27.16C8.61 26.87 9.34 26.31 10.02 26.03C10.69 25.74 11.26 25.68 11.19 26.19C10.56 27.89 9.07 30.05 8.04 32.19C6.98 34.29 6.29 36.19 6.32 36.06L6.31 36.09Z"
                        fill="currentColor" />
                    <path opacity="0.1"
                        d="M35.19 6.59C34.04 6.19 32.81 5.89 31.53 5.72C32.93 5.66 34.22 6.18 35.07 5.45C35.64 5.81 36.32 5.95 37 6.11C36.4 6.33 35.8 6.46 35.19 6.58V6.59Z"
                        fill="currentColor" />
                    <path opacity="0.1"
                        d="M38.9 2.12999C39.33 2.23999 39.74 2.38999 40.16 2.52999C39.91 3.21999 38.91 3.61999 38.19 3.06999C38 3.76999 39.01 3.28999 38.9 3.64999C38.62 4.56999 38.17 4.47999 37.67 4.22999C38.06 2.65999 39.13 1.24999 39.8 1.46999L40.66 1.74999C40.06 1.89999 39.25 1.80999 38.89 2.14999L38.9 2.12999Z"
                        fill="currentColor" />
                    <path opacity="0.1"
                        d="M50.29 10.45C50.61 11 50.72 11.59 50.82 12.16C50.92 12.74 50.95 13.35 51.01 14.03C49.09 13.72 47.18 13.99 45.39 14.51C43.84 11.98 41.64 9.79 38.92 8.14C39.52 8.14 40.12 8.12 40.75 8.01C40.13 7.73 39.51 7.47 39.04 7C39.23 6.9 39.41 6.75 39.59 6.54V6.52C40.03 6.81 40.43 6.94 40.81 6.06C40.95 5.72 39.96 6.1 40.22 5.43C40.81 6.04 41.81 5.72 42.13 5.06L41 4.57C41.36 4.29 42.12 4.41 42.7 4.33C46.01 5.9 48.99 8.02 51.53 10.62C51.13 10.55 50.72 10.49 50.3 10.45H50.29Z"
                        fill="currentColor" />
                </g>
            </g>
        </g>
    </symbol>

    <symbol id="linkedin" viewBox="0 0 61 62" fill="none">
        <g clip-path="url(#clip0_1142_39)">
            <path d="M24.27 26.51H19.13V41.7H24.27V26.51Z" fill="currentColor" />
            <path
                d="M21.7 23.94C23.1194 23.94 24.27 22.7894 24.27 21.37C24.27 19.9506 23.1194 18.8 21.7 18.8C20.2806 18.8 19.13 19.9506 19.13 21.37C19.13 22.7894 20.2806 23.94 21.7 23.94Z"
                fill="currentColor" />
            <path
                d="M27.42 26.51V41.7H31.98V32.59C31.98 32.59 32.33 30.18 34.78 30.27C37.23 30.37 37.12 32.47 37.12 32.47V41.7H41.91L41.8 31.38C41.8 31.38 41.75 30.52 41.32 29.51C40.7 28.07 39.4 26.51 37.12 26.51C33.73 26.51 32.68 26.98 31.63 28.38L31.51 26.51H27.42Z"
                fill="currentColor" />
            <g opacity="0.9">
                <g opacity="0.9">
                    <path opacity="0.6"
                        d="M7.09 51.83C3.8 48.16 1.39 43.78 0 39.04C0.6 40.01 1.21 40.93 1.87 41.8C2.88 43.31 3.52 44.98 4.28 46.71C5.03 48.44 5.85 50.26 7.1 51.83H7.09Z"
                        fill="currentColor" />
                    <path opacity="0.5"
                        d="M18.08 59.62C18.08 59.62 18.06 59.62 18.05 59.62C16.31 58.88 14.64 57.98 13.03 56.94C11.44 55.87 9.93 54.67 8.56 53.34C8.76 53.51 8.97 53.67 9.18 53.82C10.67 54.84 12.22 55.73 13.7 56.65C15.19 57.58 16.65 58.48 18.08 59.6V59.62Z"
                        fill="currentColor" />
                    <path opacity="0.4"
                        d="M50.02 31.44C53.85 33.88 56.32 38.41 57.46 43.58C57.19 44.62 57.11 45.88 56.63 46.67C56.66 46.67 56.51 47.05 56.2 47.63C55.87 48.2 55.44 49.01 54.84 49.84C53.7 51.54 52.05 53.42 50.76 54.5C51.19 52.04 50.86 49.59 49.96 47.41C48.98 48.05 47.21 49.34 46.71 48.79C45.21 46.41 45.31 43.92 44.94 41.6C45.11 41.42 46.68 40.22 48 38.21C49.35 36.23 50.26 33.45 50.03 31.44H50.02Z"
                        fill="currentColor" />
                    <path opacity="0.2"
                        d="M48.45 22.02C47.98 20.77 47.52 19.25 46.98 17.84C46.44 16.45 45.83 15.19 45.4 14.51C47.19 13.99 49.1 13.72 51.02 14.03C50.96 13.35 50.93 12.73 50.83 12.16C50.73 11.58 50.62 11 50.3 10.45C50.72 10.49 51.13 10.54 51.53 10.62C55.98 15.15 59.06 20.96 60.22 27.33C59.73 27.17 57.69 25.37 55.26 24.06C52.82 22.7 50.01 21.94 48.45 22.03V22.02Z"
                        fill="currentColor" />
                    <path opacity="0.3"
                        d="M50.69 29.63C50.56 29.13 50.38 28.67 50.23 28.22C50.06 27.78 49.87 27.37 49.7 26.97C49.41 25.32 48.97 23.68 48.45 22.02C51.6 21.87 54.84 22.86 57.35 25.16C57.26 24.78 58.18 24.2 58.08 23.79C58.36 24.23 58.58 24.66 58.76 25.05L59.19 26.12C59.47 26.74 59.7 27.17 60.21 27.33C60.74 30.28 60.86 33.36 60.47 36.44C60.05 39.52 59.14 42.51 57.79 45.29C57.76 43.8 58.61 42.77 59.06 41.52C58.05 41.83 57.65 42.61 57.45 43.59C56.3 38.42 53.83 33.89 50.01 31.45C50.01 31.17 50.04 30.9 50.03 30.62C50.47 30.37 50.9 30.12 50.68 29.65L50.69 29.63Z"
                        fill="currentColor" />
                    <path opacity="0.6"
                        d="M16.27 54.31C20.09 54.6 22.92 52.87 24.92 50.68C25.55 51.1 26.91 52 28.05 51.46C29 51.62 30.49 51.84 31.84 51.8C33.19 51.78 34.34 51.45 34.55 50.93C34.75 50.41 34.05 51.6 32.73 53.14C31.44 54.68 29.39 56.41 28.08 57.42C27.7 58.8 26.24 59.83 24.32 60.5C23.8 60.3 24.43 59.53 23.94 59.28C23.92 59.41 22.74 60.14 22.74 60.14C22.74 60.14 22.49 60.09 22.1 59.96L20.57 59.46C19.98 59.24 19.33 58.98 18.71 58.73L17.07 57.97C16.94 57.11 16.25 56.64 15.53 56.41C14.84 56.14 14.11 56.1 13.99 56.2C13.48 55.9 13.02 55.52 12.54 55.18L12.5 55.13C13.4 55.23 14.27 55.3 15.15 55.32C15.7 55.24 16.26 54.31 16.26 54.31H16.27Z"
                        fill="currentColor" />
                    <path opacity="0.5"
                        d="M46.7 48.79C45.2 46.41 45.3 43.92 44.93 41.6C44.67 41.82 44.22 42.21 43.8 42.54C43.37 42.85 43.01 43.14 42.93 43.18C43.52 43.47 44.24 43.63 44.17 44.13C43.68 45.18 42.88 46.45 42.18 46.95C41.7 47.23 41.06 47.31 40.46 47.4L38.63 47.51C38.3 47.82 37.96 48.13 37.61 48.4C37.26 48.7 36.9 48.98 36.54 49.24C36.5 49.27 36.35 50.38 36.47 50.8C35.82 50.97 35.2 51.02 34.57 50.92C34.57 51.03 33.46 52.22 31.97 53.5C30.51 54.82 28.61 56.18 28.1 57.4C27.72 58.78 26.26 59.81 24.34 60.48L25.17 60.66C25.66 60.78 26.34 60.9 27.09 61C28.59 61.24 30.4 61.32 31.58 61.33C31.48 61.07 30.61 60.49 30.36 60.4C30.52 60.4 31.16 60.61 31.9 60.82C32.63 61 33.47 61.21 33.94 61.25C34.69 61.19 35.99 61.03 37.14 60.78C38.28 60.54 39.26 60.21 39.41 60.14C39.83 60.01 38.77 59.58 38.57 58.87C40.55 59.29 42.66 59.19 44.61 58.53C45.12 58.31 45.59 58.03 46.07 57.77C46.36 57.92 46.57 58.02 46.37 58.14C46.11 58.39 45.84 58.63 45.55 58.85C46 58.6 47.24 58 48.4 57.24C49.57 56.5 50.7 55.67 51.15 55.29C50.65 55.62 50.09 55.87 49.54 56.11C49 56.35 48.43 56.55 47.85 56.7C48.35 56.38 48.83 56.04 49.3 55.68C49.77 55.32 50.24 54.97 50.68 54.57L50.78 54.46C51.21 52.01 50.87 49.58 49.98 47.4C49 48.04 47.23 49.33 46.73 48.78L46.7 48.79Z"
                        fill="currentColor" />
                    <path
                        d="M24.99 -2.13645e-06C26.41 0.469998 28.13 0.689998 29.76 1.16C31.39 1.64 32.92 2.42 33.69 3.58C34.77 5.66 34.28 7.45 33.65 9.18C32.98 10.89 32.16 12.62 31.44 14.37C30.93 13.69 30.12 13.08 28.98 12.74C27.83 12.42 26.41 12.34 24.94 12.59C23.47 12.84 21.95 13.37 20.56 14.12C19.19 14.88 17.79 15.94 16.59 17.12C16.54 15.93 17.29 14.97 17.97 13.98C18.68 12.99 19.31 12.03 19.32 10.5C19.14 10.19 18.37 10.23 17.88 10.13C18.44 9.11 19.5 8.06 20.41 7.16C21.31 6.25 22.04 5.43 21.76 4.58C21.41 3.53 20.27 2.64 19.37 1.46C19.68 1.32 20 1.2 20.33 1.09C21.51 1.22 23.01 0.369998 25 -0.0100021L24.99 -2.13645e-06Z"
                        fill="currentColor" />
                    <path
                        d="M7.01999 8.76C8.61999 6.82 10.4 5.07 12.48 3.47C12.7 3.73 12.95 3.96 13.21 4.17C10.8 5.91 8.77999 7.95 7.10999 10.28C7.08999 9.76 7.07999 9.27 7.01999 8.76Z"
                        fill="currentColor" />
                    <path opacity="0.9"
                        d="M17.87 10.13C18.36 10.24 19.13 10.19 19.31 10.5C19.31 12.03 18.67 12.99 17.96 13.98C17.28 14.97 16.53 15.93 16.58 17.12C14.71 18.95 13.22 21.22 12.18 23.65C12.08 23.12 12.01 22.58 11.93 22.02C11.34 23.39 8.81999 22.77 8.30999 24.42C7.73999 21.66 8.33999 18.45 9.27999 15.38C10.22 12.28 11.49 9.31 12.04 6.18C13.04 5.21 14.25 4.3 15.46 3.5C16.7 2.73 17.99 2.01 19.37 1.47C20.27 2.64 21.41 3.54 21.76 4.59C22.05 5.44 21.31 6.27 20.41 7.17C19.5 8.07 18.44 9.11 17.88 10.14L17.87 10.13Z"
                        fill="currentColor" />
                    <path opacity="0.8"
                        d="M8.29999 24.43C8.81999 22.78 11.33 23.4 11.92 22.03C12 22.59 12.08 23.13 12.17 23.66C10.97 26.48 10.46 29.55 10.67 32.52C10.63 32.72 10.61 32.93 10.61 33.13C10.55 35.48 11.22 37.39 11.82 39.53C9.90999 38.74 8.00999 37.61 6.29999 36.09C7.60999 32.34 9.36999 29.15 11.18 26.22C10.54 27.27 8.85999 26.62 8.36999 27.19C7.14999 28.18 5.52999 29.24 3.96999 29.98C2.42999 30.71 0.959989 31.06 0.0799888 30.21C0.0699888 23.3 2.34999 16.51 6.41999 10.88C7.08999 10.8 8.05999 10.76 8.29999 10.5C9.36999 8.93999 10.64 7.50999 12.04 6.18999C11.49 9.31999 10.22 12.29 9.27999 15.39C8.32999 18.46 7.73999 21.67 8.30999 24.43H8.29999Z"
                        fill="currentColor" />
                    <path opacity="0.7"
                        d="M6.31 36.09C8.02 37.62 9.92 38.74 11.83 39.53C11.96 40.09 12.16 40.64 12.29 41.26C12.58 41.11 12.85 40.96 13.05 40.64L13.65 41.69C13.74 42.18 13.05 43.24 14.57 43.04C14.9 43.5 15.26 43.94 15.63 44.36C15.69 45.08 15.63 45.81 15.28 46.61L16.06 45.85C17 45.73 16.88 46.67 17.34 47.04C17.47 46.89 17.66 46.66 17.85 46.51C18.55 47.69 19.92 48.61 21.21 49.1C22.5 49.6 23.63 49.75 23.95 49.85C24.26 50.14 24.59 50.42 24.93 50.67C22.93 52.86 20.1 54.59 16.28 54.3C16.28 54.3 15.72 55.23 15.17 55.31C14.3 55.29 13.42 55.22 12.52 55.12C11.16 53 9.36 51.23 7.87 49.75C6.35 48.3 5.18 47.18 5.1 47.1C4.74 46.53 4.41 45.95 4.07 45.37C3.25 43.64 2.79 41.23 2.34 38.84C1.87 36.43 1.41 34.05 0.129996 31.8L0.0899963 30.18C0.969996 31.03 2.44 30.68 3.98 29.95C5.53 29.21 7.16 28.15 8.38 27.16C8.61 26.87 9.34 26.31 10.02 26.03C10.69 25.74 11.26 25.68 11.19 26.19C10.56 27.89 9.07 30.05 8.04 32.19C6.98 34.29 6.29 36.19 6.32 36.06L6.31 36.09Z"
                        fill="currentColor" />
                    <path opacity="0.1"
                        d="M35.19 6.59C34.04 6.19 32.81 5.89 31.53 5.72C32.93 5.66 34.22 6.18 35.07 5.45C35.64 5.81 36.32 5.95 37 6.11C36.4 6.33 35.8 6.46 35.19 6.58V6.59Z"
                        fill="currentColor" />
                    <path opacity="0.1"
                        d="M38.9 2.12999C39.33 2.23999 39.74 2.38999 40.16 2.52999C39.91 3.21999 38.91 3.61999 38.19 3.06999C38 3.76999 39.01 3.28999 38.9 3.64999C38.62 4.56999 38.17 4.47999 37.67 4.22999C38.06 2.65999 39.13 1.24999 39.8 1.46999L40.66 1.74999C40.06 1.89999 39.25 1.80999 38.89 2.14999L38.9 2.12999Z"
                        fill="currentColor" />
                </g>
            </g>
        </g>

    </symbol>

    <symbol id="design-icon" viewBox="0 0 219 224">

        <g clip-path="url(#clip0_754_174)">
            <path
                d="M208.332 1.65283H10.7115C5.70582 1.65283 1.64792 5.72278 1.64792 10.7433V213.3C1.64792 218.321 5.70582 222.391 10.7115 222.391H208.332C213.338 222.391 217.395 218.321 217.395 213.3V10.7433C217.395 5.72278 213.338 1.65283 208.332 1.65283Z"
                fill="#F7F5F7" />
            <path d="M217 89H2.99994V195H217V89Z" fill="#B3B3B3" />
            <path
                d="M208.158 3.26209C210.122 3.2735 212.001 4.06078 213.389 5.45314C214.778 6.84551 215.563 8.73068 215.574 10.6998V213.126C215.591 214.116 215.412 215.099 215.048 216.019C214.684 216.939 214.141 217.777 213.451 218.485C212.761 219.193 211.938 219.757 211.03 220.144C210.121 220.53 209.145 220.732 208.158 220.738H10.6681C9.6812 220.732 8.70521 220.53 7.79668 220.144C6.88816 219.757 6.06517 219.193 5.37542 218.485C4.68566 217.777 4.14285 216.939 3.77844 216.019C3.41402 215.099 3.23525 214.116 3.25248 213.126V10.6998C3.26386 8.73068 4.04881 6.84551 5.43705 5.45314C6.82529 4.06078 8.70488 3.2735 10.6681 3.26209H208.158ZM208.158 -5.01668e-05H10.6681C7.83876 -5.01668e-05 5.12529 1.12725 3.12463 3.13385C1.12397 5.14045 6.67872e-06 7.86199 6.67872e-06 10.6998V213.126C-0.0230124 214.546 0.235927 215.956 0.761735 217.274C1.28754 218.593 2.0697 219.793 3.06263 220.805C4.05556 221.817 5.23939 222.621 6.54514 223.169C7.8509 223.718 9.25245 224 10.6681 224H208.158C209.589 224.023 211.009 223.758 212.335 223.22C213.661 222.682 214.865 221.882 215.877 220.867C216.888 219.853 217.686 218.645 218.222 217.315C218.759 215.985 219.023 214.561 219 213.126V10.6998C219 9.27988 218.719 7.87416 218.172 6.56453C217.625 5.2549 216.823 4.06755 215.814 3.07167C214.805 2.07579 213.609 1.29131 212.294 0.76394C210.98 0.236571 209.574 -0.0231376 208.158 -5.01668e-05V-5.01668e-05Z"
                fill="black" />
            <path
                d="M53.7437 23.0928H24.7317C20.5164 23.0928 17.0992 26.5201 17.0992 30.7479V56.8885C17.0992 61.1163 20.5164 64.5437 24.7317 64.5437H53.7437C57.959 64.5437 61.3762 61.1163 61.3762 56.8885V30.7479C61.3762 26.5201 57.959 23.0928 53.7437 23.0928Z"
                fill="#B3B3B3" />
            <path d="M193.207 26.0505H89.9088V29.0082H193.207V26.0505Z" fill="#B3B3B3" />
            <path d="M193.207 43.8398H89.9088V46.7975H193.207V43.8398Z" fill="#B3B3B3" />
            <path d="M193.207 64.5437H89.9088V67.5014H193.207V64.5437Z" fill="#B3B3B3" />
            <path
                d="M64.055 116H25.0687C21.1647 116 17.9999 119.174 17.9999 123.09V156.276C17.9999 160.192 21.1647 163.366 25.0687 163.366H64.055C67.9589 163.366 71.1237 160.192 71.1237 156.276V123.09C71.1237 119.174 67.9589 116 64.055 116Z"
                fill="#F7F5F7" />
            <path
                d="M129.018 116H90.0314C86.1275 116 82.9627 119.174 82.9627 123.09V156.276C82.9627 160.192 86.1275 163.366 90.0314 163.366H129.018C132.922 163.366 136.086 160.192 136.086 156.276V123.09C136.086 119.174 132.922 116 129.018 116Z"
                fill="#F7F5F7" />
            <path
                d="M193.937 116H154.951C151.047 116 147.882 119.174 147.882 123.09V156.276C147.882 160.192 151.047 163.366 154.951 163.366H193.937C197.841 163.366 201.006 160.192 201.006 156.276V123.09C201.006 119.174 197.841 116 193.937 116Z"
                fill="#F7F5F7" />
        </g>

    </symbol>

    <symbol id="dvlpmt-icon" viewBox="0 0 253 222">
        <path
            d="M249.239 0H3.76081C1.68377 0 0 1.68203 0 3.75692V184.089C0 186.164 1.68377 187.846 3.76081 187.846H249.239C251.316 187.846 253 186.164 253 184.089V3.75692C253 1.68203 251.316 0 249.239 0Z"
            fill="#1E1B1E" />
        <path d="M147.014 215.169H109.405L116.243 187.846H140.176L147.014 215.169Z" fill="#1E1B1E" />
        <path
            d="M188.793 211.754H67.6262C66.1534 211.754 64.9595 212.947 64.9595 214.418V219.336C64.9595 220.807 66.1534 222 67.6262 222H188.793C190.266 222 191.459 220.807 191.459 219.336V214.418C191.459 212.947 190.266 211.754 188.793 211.754Z"
            fill="#1E1B1E" />
        <path
            d="M245.957 3.41528H7.04297C5.04146 3.41528 3.41891 5.03615 3.41891 7.03559V167.149C3.41891 169.148 5.04146 170.769 7.04297 170.769H245.957C247.959 170.769 249.581 169.148 249.581 167.149V7.03559C249.581 5.03615 247.959 3.41528 245.957 3.41528Z"
            fill="#F5F5F7" />
        <path opacity="0.21"
            d="M64.9595 218.926H191.459V219.37C191.459 220.068 191.182 220.736 190.688 221.23C190.195 221.723 189.525 222 188.827 222H67.6262C67.276 222 66.9292 221.931 66.6057 221.797C66.2822 221.663 65.9882 221.467 65.7405 221.22C65.4929 220.972 65.2965 220.679 65.1625 220.355C65.0284 220.032 64.9595 219.686 64.9595 219.336V218.926Z"
            fill="#F2F2F4" />
        <path
            d="M128.209 182.723C129.154 182.723 129.919 181.958 129.919 181.015C129.919 180.072 129.154 179.308 128.209 179.308C127.265 179.308 126.5 180.072 126.5 181.015C126.5 181.958 127.265 182.723 128.209 182.723Z"
            fill="#FCF7FC" />
    </symbol>

    <symbol id="illu-icon" viewBox="0 0 138 217">
        <g clip-path="url(#clip0_754_128)">
            <path
                d="M15.7714 216.607C14.8997 216.556 14.0833 216.164 13.4999 215.516C12.9166 214.868 12.6135 214.017 12.6566 213.147V177.767C12.6245 177.33 12.6799 176.891 12.8197 176.476C12.9594 176.06 13.1807 175.677 13.4706 175.347C13.7605 175.018 14.1132 174.75 14.5083 174.558C14.9033 174.366 15.3327 174.254 15.7714 174.229H120.573C121.444 174.28 122.261 174.672 122.844 175.32C123.427 175.967 123.73 176.819 123.687 177.688V213.069C123.73 213.938 123.427 214.79 122.844 215.438C122.261 216.086 121.444 216.478 120.573 216.528L15.7714 216.607Z"
                fill="#3A353A" />
            <path
                d="M120.573 174.622C121.34 174.673 122.056 175.023 122.565 175.597C123.075 176.172 123.336 176.923 123.293 177.688V213.069C123.336 213.834 123.075 214.586 122.565 215.16C122.056 215.734 121.34 216.085 120.573 216.135H15.7714C15.0042 216.085 14.288 215.734 13.7786 215.16C13.2691 214.586 13.0076 213.834 13.0508 213.069V177.688C13.0076 176.923 13.2691 176.172 13.7786 175.597C14.288 175.023 15.0042 174.673 15.7714 174.622H120.573ZM120.573 173.836H15.7714C15.2809 173.861 14.8003 173.983 14.3576 174.195C13.9148 174.406 13.5186 174.704 13.1921 175.07C12.8656 175.435 12.6153 175.862 12.4556 176.325C12.296 176.788 12.2303 177.278 12.2623 177.767V213.148C12.2303 213.636 12.296 214.126 12.4556 214.589C12.6153 215.052 12.8656 215.479 13.1921 215.845C13.5186 216.211 13.9148 216.508 14.3576 216.72C14.8003 216.932 15.2809 217.054 15.7714 217.079H120.573C121.063 217.054 121.544 216.932 121.986 216.72C122.429 216.508 122.825 216.211 123.152 215.845C123.478 215.479 123.729 215.052 123.888 214.589C124.048 214.126 124.114 213.636 124.082 213.148V177.767C124.114 177.278 124.048 176.788 123.888 176.325C123.729 175.862 123.478 175.435 123.152 175.07C122.825 174.704 122.429 174.406 121.986 174.195C121.544 173.983 121.063 173.861 120.573 173.836Z"
                fill="#3A353A" />
            <path
                d="M8.08281 177.295C6.38738 177.295 4.6131 176.706 4.6131 175.566V160.234C4.6131 159.094 6.38738 158.504 8.08281 158.504H125.817C127.512 158.504 129.286 159.094 129.286 160.234V175.566C129.286 176.706 127.512 177.295 125.817 177.295H8.08281Z"
                fill="#443F44" />
            <path
                d="M125.856 158.898C127.512 158.898 128.892 159.487 128.892 160.234V175.566C128.892 176.313 127.512 176.902 125.856 176.902H8.08281C6.38738 176.902 5.00738 176.313 5.00738 175.566V160.234C5.00738 159.487 6.38738 158.898 8.08281 158.898H125.856ZM125.856 158.111H8.08281C5.79595 158.111 4.13995 158.976 4.13995 160.234V175.566C4.13995 176.824 5.7171 177.688 8.08281 177.688H125.856C128.103 177.688 129.799 176.824 129.799 175.566V160.234C129.799 158.976 128.222 158.111 125.856 158.111Z"
                fill="#443F44" />
            <path
                d="M14.7463 159.448L2.91771 117.62C0.150754 107.814 1.19258 97.3288 5.83543 88.2546L50.3897 1.4939H63.5589V95.8417H72.6274V1.4939H84.456L135.122 97.8466C136.622 100.748 136.934 104.117 135.989 107.242L120.218 159.448H14.7463Z"
                fill="#D8D6D8" />
            <path
                d="M83.5491 2.94837L133.781 98.5148C135.12 101.071 135.403 104.048 134.57 106.81L119.035 157.915H15.7714L4.41597 117.227C1.7423 107.774 2.75654 97.6614 7.25483 88.9228L51.2571 2.94837H62.0605V97.2962H73.8891V2.94837H83.352H83.5491ZM85.3628 0H70.9714V94.3478H65.0571V0H49.4828L4.61311 87.5862C-0.186242 96.9631 -1.27009 107.797 1.57711 117.935L13.6028 160.942H121.243L137.409 107.674C138.473 104.182 138.119 100.413 136.423 97.1783L85.3628 0Z"
                fill="black" />
        </g>
    </symbol>

    <symbol id="slider-arrow-icon" viewBox="0 0 31 44">
        <path
            d="M28.6279 22.1697L9.25669 2.04495L2.2151 8.49987L15.1282 22.0831L2.04174 35.4993L8.99986 42.0441L28.6279 22.1697Z"
            stroke="currentColor" stroke-width="3" stroke-linejoin="round" />
    </symbol>

</svg>