<svg width="343" height="239" viewBox="0 0 343 239" fill="none" xmlns="http://www.w3.org/2000/svg">
<path d="M337 0H6C2.68629 0 0 2.68629 0 6V233C0 236.314 2.68629 239 6 239H337C340.314 239 343 236.314 343 233V6C343 2.68629 340.314 0 337 0Z" fill="white"/>
<path d="M151.2 139.7H131.8L128.8 156H107L124.3 81H158.8L176 156H154.2L151.2 139.7ZM134.7 123.9H148.3L143.9 99.8H139.1L134.7 123.9Z" fill="black"/>
<path d="M218.4 146.8C214.9 153.6 208.7 157.4 201.8 157.4C189.1 157.4 179.4 146 179.4 130.1C179.4 114.2 189.1 102.9 201.8 102.9C208.7 102.9 214.8 106.7 218.4 113.4V104.3H236.8V156H218.4V146.8ZM207.8 140.6C212.7 140.6 216.8 137.3 218.4 134V126.5C216.7 123.1 212.8 119.8 207.8 119.8C202.2 119.8 197.8 124 197.8 130.1C197.8 136.2 202.2 140.6 207.8 140.6Z" fill="black"/>
</svg>
