<svg width="343" height="239" viewBox="0 0 343 239" fill="none" xmlns="http://www.w3.org/2000/svg">
<path d="M337 0H6C2.68629 0 0 2.68629 0 6V233C0 236.314 2.68629 239 6 239H337C340.314 239 343 236.314 343 233V6C343 2.68629 340.314 0 337 0Z" fill="white"/>
<path d="M132.3 141.3L128.6 151C128.07 152.4 127.25 153.4 126.15 154C125.05 154.6 123.87 154.9 122.6 154.9C119.93 154.9 118 154.35 116.8 153.25C115.6 152.15 115 150.77 115 149.1C115 148.03 115.23 146.97 115.7 145.9L137.6 89C138.33 87.07 139.45 85.75 140.95 85.05C142.45 84.35 144.03 84 145.7 84C147.37 84 148.91 84.32 150.35 84.95C151.78 85.58 152.9 86.9 153.7 88.9L175.5 145.7C175.9 146.7 176.1 147.7 176.1 148.7C176.1 150.37 175.55 151.8 174.45 153C173.35 154.2 171.63 154.8 169.3 154.8C165.97 154.8 163.73 153.47 162.6 150.8L158.6 141.3H132.3ZM145.3 103L136.4 129.4H154.1L145.3 103Z" fill="black"/>
<path d="M228.49 149.3C228.49 151.23 228.01 152.63 227.04 153.5C226.07 154.37 224.42 154.8 222.09 154.8C220.09 154.8 218.51 154.38 217.34 153.55C216.17 152.72 215.59 151.3 215.59 149.3V147.5C214.86 148.43 214.04 149.37 213.14 150.3C212.24 151.23 211.14 152.07 209.84 152.8C208.54 153.53 207.02 154.13 205.29 154.6C203.56 155.07 201.56 155.3 199.29 155.3C194.02 155.3 189.87 153.92 186.84 151.15C183.81 148.38 182.29 144.7 182.29 140.1C182.29 137.43 182.74 135.17 183.64 133.3C184.54 131.43 185.77 129.87 187.34 128.6C188.91 127.33 190.74 126.33 192.84 125.6C194.94 124.87 197.16 124.3 199.49 123.9C202.02 123.43 204.57 123.07 207.14 122.8C209.71 122.53 212.49 122.3 215.49 122.1V120.2C215.49 119.2 215.36 118.22 215.09 117.25C214.82 116.28 214.37 115.4 213.74 114.6C213.11 113.8 212.22 113.17 211.09 112.7C209.96 112.24 208.56 112 206.89 112C205.82 112 204.84 112.07 203.94 112.2C203.04 112.33 202.17 112.55 201.34 112.85C200.51 113.15 199.64 113.57 198.74 114.1C197.84 114.63 196.82 115.27 195.69 116C194.82 116.6 194.01 117.1 193.24 117.5C192.47 117.9 191.52 118.1 190.39 118.1C188.86 118.1 187.49 117.52 186.29 116.35C185.09 115.18 184.49 113.77 184.49 112.1C184.49 110.97 184.96 109.75 185.89 108.45C186.82 107.15 188.24 105.95 190.14 104.85C192.04 103.75 194.37 102.83 197.14 102.1C199.91 101.37 203.16 101 206.89 101C214.56 101 220.07 102.5 223.44 105.5C226.81 108.5 228.49 113.17 228.49 119.5V149.3ZM215.49 130.5C212.96 130.77 210.54 131.07 208.24 131.4C205.94 131.73 204.22 132.03 203.09 132.3C199.89 132.97 197.81 133.92 196.84 135.15C195.87 136.38 195.39 137.63 195.39 138.9C195.39 140.63 195.92 141.98 196.99 142.95C198.06 143.92 199.89 144.4 202.49 144.4C206.62 144.4 209.82 143.45 212.09 141.55C214.36 139.65 215.49 137.2 215.49 134.2V130.5Z" fill="black"/>
</svg>
