<svg width="343" height="239" viewBox="0 0 343 239" fill="none" xmlns="http://www.w3.org/2000/svg">
<path d="M337 0H6C2.68629 0 0 2.68629 0 6V233C0 236.314 2.68629 239 6 239H337C340.314 239 343 236.314 343 233V6C343 2.68629 340.314 0 337 0Z" fill="white"/>
<path d="M157 133.8H127.8L122 157H114L133 82H151.9L170.8 157H162.8L157 133.8ZM129.6 126.8H155.3L145.9 89H139L129.6 126.8Z" fill="black"/>
<path d="M221 149C216.6 154.9 210.3 158.5 202.9 158.5C188.9 158.5 177.2 146.7 177.2 131.4C177.2 116.1 188.9 104.6 202.9 104.6C210.3 104.6 216.6 108.1 221 113.9V106H228.8V157H221V149ZM202.9 151.1C210.8 151.1 217.4 146.3 221 139.8V123C217.6 116.7 210.8 112 202.9 112C193.1 112 185.2 120.1 185.2 131.4C185.2 142.7 193.1 151.1 202.9 151.1Z" fill="black"/>
</svg>
