<svg width="816" height="905" viewBox="0 0 816 905" fill="none" xmlns="http://www.w3.org/2000/svg">
<rect x="10" width="806" height="905" rx="6" fill="#FFFCFC"/>
<path d="M780.239 431.766C780.239 537.486 728.95 631.254 649.91 689.452C649.184 690.001 648.459 690.532 647.733 691.064C647.786 690.904 647.875 690.709 647.928 690.55V690.515C647.981 690.373 648.052 690.249 648.087 690.107C648.512 689.027 648.901 687.947 649.308 686.85C649.945 685.15 650.547 683.45 651.131 681.733C651.644 680.263 652.14 678.776 652.636 677.306C653.91 673.464 655.096 669.587 656.193 665.691C656.405 664.966 656.6 664.24 656.795 663.514C656.972 662.894 657.149 662.257 657.308 661.602C657.467 661.07 657.591 660.522 657.733 659.99C658.016 658.946 658.281 657.901 658.529 656.856C658.794 655.812 659.042 654.767 659.29 653.705C659.555 652.66 659.786 651.598 660.016 650.553C660.263 649.491 660.476 648.429 660.706 647.384C661.361 644.303 661.962 641.205 662.529 638.089C662.918 635.893 663.29 633.68 663.608 631.484C663.768 630.387 663.945 629.254 664.086 628.156C664.263 626.916 664.44 625.659 664.582 624.42C664.741 623.287 664.865 622.136 664.989 621.003C666.228 610.273 666.865 599.349 666.865 588.283C666.865 580.776 666.564 573.304 665.98 565.956C665.714 559.122 664.953 552.429 663.715 545.914C654.016 481.005 622.389 423.303 576.622 380.526C557.278 362.449 535.403 347.027 511.599 334.881C500.963 314.378 482.751 298.461 460.664 290.83C455.673 297.08 451.709 304.145 448.948 311.811C434.241 308.288 419.074 305.915 403.57 304.8C396.685 304.304 389.712 304.021 382.704 304.021C380.651 304.021 378.616 304.056 376.545 304.091C342.635 304.817 310.177 311.492 280.179 323.107C264.392 329.233 249.26 336.723 234.978 345.434C242.181 338.068 246.659 327.976 246.659 316.875C246.659 294.353 228.359 276.046 205.847 276.046C191.6 276.046 179.069 283.376 171.76 294.46C223.12 186.562 333.114 111.969 460.54 111.969C473.743 111.969 486.787 112.765 499.582 114.341C538.89 119.122 576.003 131.038 609.576 148.779C644.229 167.086 675.13 191.591 700.774 220.805C709.234 230.436 717.127 240.582 724.384 251.187C759.621 302.569 780.221 364.786 780.221 431.801L780.239 431.766Z" fill="#3D76E8"/>
<path d="M647.751 691.807H646.671L647.379 689.86C647.698 689.045 647.981 688.249 648.282 687.47L648.618 686.584C649.255 684.902 649.857 683.203 650.441 681.485C650.954 680.016 651.45 678.546 651.928 677.059C653.273 673.004 654.423 669.215 655.467 665.479C655.68 664.771 655.857 664.063 656.051 663.372C656.246 662.682 656.405 662.062 656.582 661.425C656.742 660.876 656.865 660.345 657.007 659.814C657.29 658.751 657.556 657.724 657.803 656.68C658.051 655.635 658.317 654.608 658.564 653.546C658.83 652.501 659.06 651.439 659.29 650.394C659.538 649.332 659.768 648.27 659.98 647.225C660.617 644.197 661.237 641.063 661.785 637.947C662.175 635.752 662.547 633.556 662.865 631.361C663.024 630.263 663.201 629.148 663.343 628.05C663.52 626.811 663.697 625.553 663.838 624.332C663.998 623.199 664.122 622.048 664.246 620.932C665.484 610.185 666.122 599.208 666.122 588.283C666.122 580.936 665.821 573.446 665.254 566.01C665.007 559.317 664.245 552.607 662.989 546.038C653.591 483.219 622.743 424.649 576.127 381.075C556.712 362.927 534.89 347.612 511.281 335.537L511.068 335.431L510.962 335.218C500.343 314.768 482.61 299.347 460.947 291.716C456.116 297.859 452.328 304.694 449.691 312.059L449.461 312.697L448.806 312.537C434.011 308.996 418.79 306.641 403.552 305.544C396.509 305.03 389.5 304.782 382.739 304.782C380.686 304.782 378.651 304.818 376.598 304.853C343.485 305.561 311.15 311.935 280.48 323.816C264.905 329.853 249.738 337.343 235.403 346.089L230.235 349.241L234.465 344.921C241.862 337.361 245.933 327.41 245.933 316.893C245.933 294.796 227.969 276.825 205.882 276.825C192.396 276.825 179.884 283.589 172.433 294.903L171.123 294.159C196.803 240.228 236.96 194.565 287.258 162.147C338.919 128.842 398.845 111.243 460.576 111.243C473.69 111.243 486.857 112.04 499.706 113.616C538.43 118.325 575.525 129.94 609.965 148.124C644.654 166.449 675.413 190.741 701.376 220.309C709.854 229.941 717.8 240.193 725.039 250.763C761.656 304.163 781 366.769 781 431.802C781 483.626 769.018 533.095 745.391 578.811C722.844 622.437 689.996 660.911 650.37 690.09C649.662 690.621 648.954 691.135 648.246 691.648L648.052 691.79L647.751 691.825V691.807ZM512.183 334.28C535.846 346.39 557.703 361.741 577.171 379.942C624.053 423.746 655.06 482.652 664.493 545.772C665.75 552.376 666.511 559.158 666.776 565.903C667.36 573.358 667.661 580.882 667.661 588.266C667.661 599.243 667.024 610.274 665.785 621.074C665.661 622.207 665.52 623.358 665.378 624.509C665.219 625.748 665.06 627.005 664.883 628.262C664.723 629.36 664.564 630.493 664.405 631.591C664.069 633.804 663.715 636.017 663.308 638.213C662.741 641.347 662.139 644.481 661.485 647.544C661.255 648.606 661.024 649.668 660.794 650.731C660.564 651.793 660.317 652.855 660.069 653.9C659.821 654.945 659.573 656.007 659.308 657.052C659.042 658.096 658.795 659.159 658.494 660.203C658.352 660.734 658.228 661.283 658.069 661.832C657.91 662.469 657.733 663.107 657.556 663.744C657.361 664.488 657.166 665.214 656.954 665.922C655.91 669.676 654.742 673.482 653.397 677.555C652.919 679.042 652.405 680.529 651.892 681.999C651.308 683.716 650.689 685.416 650.052 687.116L649.715 688.001C649.591 688.32 649.485 688.62 649.361 688.939L649.485 688.851C730.897 628.9 779.496 532.794 779.496 431.766C779.496 367.035 760.24 304.729 723.8 251.577C716.597 241.06 708.668 230.862 700.243 221.265C674.404 191.839 643.787 167.653 609.257 149.416C574.994 131.304 538.076 119.76 499.529 115.068C486.733 113.492 473.637 112.695 460.576 112.695C340.582 112.695 229.509 181.428 175.601 288.387C183.388 280.065 194.29 275.249 205.882 275.249C228.801 275.249 247.455 293.911 247.455 316.84C247.455 326.153 244.393 335.023 238.73 342.3C251.915 334.563 265.755 327.853 279.931 322.364C310.761 310.43 343.273 304.021 376.563 303.313C378.616 303.26 380.669 303.242 382.722 303.242C389.535 303.242 396.562 303.508 403.659 304.021C418.755 305.119 433.834 307.42 448.506 310.891C451.249 303.454 455.16 296.549 460.116 290.335L460.452 289.91L460.947 290.087C483.123 297.753 501.317 313.44 512.201 334.28H512.183Z" fill="black"/>
<path d="M427.498 656.308H231.898L230.943 655.317C174.203 597.03 141.974 520.135 140.204 438.849C140.151 436.459 140.134 434.104 140.134 431.749C140.134 388.052 148.77 345.7 165.796 305.845L167.212 306.341C166.291 309.776 165.814 313.299 165.814 316.84C165.814 338.937 183.777 356.908 205.864 356.908C210.714 356.908 215.457 356.04 219.952 354.34C225.35 352.304 230.376 349.029 234.447 344.868L234.588 344.744C248.995 335.962 264.25 328.419 279.896 322.346C310.726 310.413 343.237 304.004 376.527 303.295L378.864 303.242L376.987 304.659C358.281 318.788 345.963 339.167 342.281 362.113C373.908 360.803 399.853 336.263 402.809 304.676L402.88 303.933L403.623 303.986C418.95 305.084 434.259 307.456 449.125 311.015L449.939 311.21L449.656 312.006C446.842 319.85 445.426 328.083 445.426 336.475C445.426 375.64 475.92 407.386 514.962 408.98C518.979 398.586 520.997 387.68 520.997 376.543C520.997 361.989 517.617 348.073 510.927 335.165L509.847 333.076L511.953 334.156C535.686 346.284 557.632 361.67 577.153 379.925C624.035 423.728 655.043 482.635 664.476 545.755L662.989 546.003C650.972 482.865 595.559 437.025 531.227 437.025C518.82 437.025 506.555 438.707 494.786 442.054C477.46 446.923 461.531 455.138 447.426 466.452C415.428 492.089 397.093 530.28 397.093 571.233C397.093 601.687 407.057 630.405 425.923 654.307C426.117 654.573 426.312 654.821 426.507 655.051L427.498 656.29V656.308ZM232.553 654.803H424.365C405.535 630.741 395.57 601.864 395.57 571.251C395.57 529.838 414.118 491.222 446.47 465.301C460.735 453.863 476.84 445.559 494.361 440.619C506.272 437.255 518.679 435.538 531.227 435.538C589.63 435.538 640.76 472.897 659.414 526.721C647.078 471.285 617.947 420.134 576.127 381.04C557.278 363.423 536.164 348.462 513.334 336.564C519.44 349.1 522.537 362.538 522.537 376.543C522.537 388.034 520.395 399.312 516.201 410.024L516.006 410.52H515.475C475.371 409.139 443.939 376.632 443.939 336.475C443.939 328.189 445.302 320.062 447.975 312.29C433.675 308.908 418.985 306.642 404.278 305.544C400.88 337.839 373.996 362.75 341.45 363.653H340.547L340.689 362.786C344.14 339.822 356.051 319.337 374.297 304.853C341.998 305.809 310.443 312.148 280.48 323.745C264.941 329.765 249.791 337.255 235.491 345.966C231.279 350.25 226.093 353.614 220.518 355.721C215.846 357.492 210.926 358.395 205.9 358.395C182.981 358.395 164.327 339.733 164.327 316.805C164.327 315.494 164.398 314.202 164.504 312.892C149.337 350.658 141.656 390.601 141.656 431.731C141.656 434.068 141.691 436.405 141.726 438.725C143.496 519.692 175.565 596.216 232.058 654.237L232.571 654.768L232.553 654.803Z" fill="black"/>
<path d="M666.883 588.265C666.883 599.331 666.245 610.256 665.007 620.985C664.883 622.118 664.741 623.269 664.599 624.402C664.44 625.642 664.281 626.899 664.104 628.138C663.945 629.236 663.785 630.369 663.626 631.467C663.29 633.68 662.936 635.875 662.546 638.071C661.98 641.187 661.378 644.286 660.724 647.366C660.493 648.429 660.263 649.491 660.033 650.536C659.803 651.598 659.573 652.66 659.308 653.687C659.06 654.75 658.812 655.794 658.547 656.839C658.281 657.883 658.033 658.928 657.75 659.973C657.609 660.522 657.485 661.053 657.326 661.584C657.166 662.239 656.989 662.876 656.812 663.496C656.618 664.222 656.423 664.948 656.211 665.674C655.113 669.569 653.927 673.447 652.653 677.289C652.175 678.776 651.662 680.245 651.149 681.715C650.565 683.432 649.963 685.132 649.326 686.832C648.919 687.912 648.53 688.992 648.105 690.09C648.052 690.231 647.999 690.355 647.946 690.497V690.532H647.892V690.479C647.822 690.674 647.733 690.887 647.645 691.081C616.478 713.62 581.117 730.653 542.943 740.816V739.276L542.182 739.47V705.741C542.447 705.706 542.677 705.688 542.943 705.671C611.965 699.722 666.122 641.824 666.122 571.25C666.122 569.462 666.068 567.691 665.998 565.921C666.564 573.286 666.883 580.74 666.883 588.248V588.265Z" fill="#3D76E8"/>
<path d="M542.182 741.826V740.285L541.421 740.48V705.087L542.093 705.016C542.429 704.98 542.659 704.945 542.89 704.945C611.558 699.031 665.361 640.32 665.361 571.268C665.361 569.604 665.325 567.886 665.237 565.974L666.741 565.886C667.325 573.375 667.626 580.9 667.626 588.283C667.626 599.261 666.989 610.291 665.75 621.092C665.626 622.225 665.484 623.376 665.343 624.526C665.184 625.766 665.024 627.023 664.847 628.28C664.688 629.378 664.529 630.511 664.369 631.609C664.033 633.822 663.679 636.035 663.272 638.231C662.706 641.364 662.104 644.498 661.449 647.561C661.219 648.624 660.989 649.686 660.759 650.748C660.529 651.811 660.281 652.873 660.033 653.918C659.786 654.962 659.538 656.025 659.272 657.069C659.007 658.114 658.759 659.176 658.458 660.221C658.317 660.752 658.193 661.301 658.033 661.85C657.874 662.487 657.697 663.125 657.52 663.762C657.326 664.506 657.131 665.231 656.918 665.94C655.874 669.693 654.706 673.5 653.361 677.572C652.883 679.06 652.37 680.547 651.857 682.016C651.273 683.734 650.653 685.433 650.016 687.133L649.68 688.019C649.379 688.815 649.096 689.594 648.777 690.391L648.246 691.613L648.069 691.737C616.231 714.754 580.905 731.521 543.12 741.595L542.164 741.843L542.182 741.826ZM543.686 738.32V739.86C580.87 729.839 615.629 713.284 647.008 690.621L647.415 689.736C647.715 688.957 647.999 688.196 648.282 687.452L648.618 686.567C649.255 684.885 649.857 683.185 650.441 681.467C650.954 679.998 651.45 678.528 651.928 677.041C653.273 672.986 654.423 669.198 655.467 665.462C655.68 664.753 655.857 664.045 656.051 663.355C656.246 662.664 656.405 662.044 656.582 661.407C656.742 660.858 656.865 660.327 657.007 659.796C657.29 658.734 657.556 657.707 657.803 656.662C658.051 655.617 658.317 654.59 658.564 653.528C658.83 652.483 659.06 651.421 659.29 650.377C659.538 649.314 659.768 648.252 659.98 647.207C660.617 644.18 661.237 641.046 661.785 637.93C662.175 635.752 662.547 633.539 662.865 631.343C663.024 630.245 663.201 629.13 663.343 628.032C663.52 626.793 663.697 625.536 663.838 624.314C663.998 623.181 664.122 622.03 664.246 620.915C665.484 610.167 666.122 599.19 666.122 588.266C666.122 587.416 666.122 586.584 666.122 585.734C663.06 614.594 650.848 641.683 630.973 663.213C607.948 688.178 576.711 703.529 543.013 706.432H542.943V738.515L543.704 738.32H543.686Z" fill="black"/>
<path d="M647.928 690.533C647.875 690.693 647.786 690.888 647.733 691.047C647.698 691.047 647.68 691.1 647.645 691.1C647.716 690.905 647.804 690.693 647.892 690.498C647.892 690.498 647.904 690.498 647.928 690.498V690.551V690.533Z" fill="#3D76E8"/>
<path d="M646.335 692.587L647.362 689.754H647.592L649.291 688.055L649.025 689.152L649.273 689.029L648.335 691.596L646.335 692.587Z" fill="black"/>
<path d="M650.264 74.5227C626.92 91.3607 611.275 118.185 609.594 148.762C576.02 131.021 538.908 119.105 499.6 114.325C512.378 63.4391 558.411 25.7617 613.222 25.7617C622.513 25.7617 631.557 26.8418 640.194 28.9133C639.415 28.8425 638.583 28.7894 637.769 28.7894C624.212 28.7894 613.204 39.8022 613.204 53.3646C613.204 66.9271 624.212 77.9399 637.769 77.9399C642.335 77.9399 646.601 76.7005 650.246 74.5404L650.264 74.5227Z" fill="#E54141"/>
<path d="M610.284 149.966L609.24 149.417C574.976 131.304 538.058 119.76 499.511 115.068L498.662 114.962L498.874 114.13C512.042 61.6504 559.066 25 613.222 25C622.407 25 631.539 26.0623 640.371 28.1693L640.123 29.6566C639.327 29.5857 638.53 29.5326 637.769 29.5326C624.637 29.5326 613.965 40.2091 613.965 53.3466C613.965 66.4841 624.637 77.1605 637.769 77.1605C642.034 77.1605 646.211 76.0273 649.875 73.8673L650.706 75.1244C626.69 92.4404 611.983 119.3 610.355 148.779L610.284 149.966ZM500.538 113.669C538.571 118.397 575.012 129.781 608.903 147.54C610.744 120.096 623.752 94.99 644.955 77.6385C642.636 78.3291 640.211 78.6655 637.769 78.6655C623.805 78.6655 612.443 67.2985 612.443 53.3288C612.443 40.7225 621.699 30.2231 633.769 28.3109C627.009 27.107 620.124 26.4873 613.186 26.4873C560.004 26.4873 513.794 62.2878 500.52 113.652L500.538 113.669Z" fill="black"/>
<path d="M515.493 409.776C510.785 421.745 503.6 432.492 494.574 441.345C476.964 446.303 460.841 454.748 446.948 465.885C441.798 466.788 436.506 467.284 431.091 467.284C381.005 467.284 340.405 426.667 340.405 376.561C340.405 371.922 340.759 367.372 341.432 362.91C374.05 362.024 400.597 336.812 403.605 304.747C419.109 305.863 434.276 308.235 448.983 311.758C446.222 319.478 444.7 327.8 444.7 336.475C444.7 376.136 476.168 408.431 515.493 409.759V409.776Z" fill="#FFFF00"/>
<path d="M512.431 418.381L511.086 417.691C512.29 415.353 513.405 412.928 514.396 410.484C511.688 410.361 508.998 410.077 506.343 409.652L506.573 408.165C509.511 408.625 512.502 408.909 515.511 409.015L516.572 409.05L516.183 410.042C515.068 412.875 513.794 415.672 512.413 418.381H512.431Z" fill="black"/>
<path d="M431.091 468.063C426.171 468.063 421.25 467.673 416.437 466.894L416.684 465.407C422.808 466.399 429.126 466.753 435.374 466.452L435.444 467.957C433.993 468.027 432.524 468.063 431.091 468.063V468.063ZM453.213 462.096L452.328 460.874C457.478 457.192 462.912 453.828 468.522 450.906L469.23 452.252C463.691 455.138 458.31 458.466 453.213 462.114V462.096ZM398.066 461.919C392.155 459.635 386.456 456.696 381.129 453.208L381.961 451.933C387.199 455.35 392.81 458.236 398.615 460.503L398.066 461.919V461.919ZM486.468 444.727L485.955 443.293C488.663 442.337 491.423 441.451 494.184 440.672C496.521 438.371 498.751 435.91 500.821 433.378L501.989 434.334C499.848 436.972 497.529 439.504 495.105 441.894L494.963 442.036L494.768 442.089C491.972 442.868 489.176 443.753 486.45 444.727H486.468ZM366.351 441.186C361.856 436.689 357.838 431.696 354.369 426.384L355.644 425.552C359.042 430.793 363.006 435.679 367.43 440.106L366.369 441.168L366.351 441.186ZM345.715 409.422C343.432 403.491 341.768 397.312 340.777 391.026L342.264 390.796C343.237 396.975 344.883 403.066 347.113 408.891L345.697 409.44L345.715 409.422Z" fill="black"/>
<path d="M341.273 371.975L339.768 371.904C339.928 368.859 340.228 365.796 340.689 362.804L340.777 362.184H341.414C344.405 362.078 347.414 361.795 350.334 361.299L350.582 362.786C347.786 363.264 344.936 363.547 342.087 363.654C341.68 366.398 341.414 369.195 341.273 371.975V371.975Z" fill="black"/>
<path d="M365.094 358.519L364.493 357.12C369.023 355.19 373.342 352.729 377.306 349.79L378.209 351.012C374.138 354.022 369.731 356.536 365.094 358.519V358.519ZM389.252 340.689L388.102 339.715C391.288 335.944 394.048 331.801 396.278 327.41L397.623 328.101C395.34 332.598 392.526 336.829 389.252 340.689Z" fill="black"/>
<path d="M402.844 313.883L401.375 313.529C402.066 310.643 402.561 307.668 402.844 304.694L402.915 303.95L403.659 304.003C406.685 304.216 409.729 304.499 412.72 304.8L412.561 306.305C409.835 306.022 407.039 305.774 404.278 305.561C403.977 308.359 403.499 311.156 402.844 313.883V313.883Z" fill="black"/>
<path d="M430.878 308.836C427.87 308.323 424.79 307.845 421.746 307.42L421.958 305.915C425.02 306.34 428.117 306.818 431.144 307.331L430.878 308.819V308.836Z" fill="black"/>
<path d="M447.196 320.647L445.727 320.311C446.329 317.619 447.09 314.928 447.992 312.308C445.302 311.67 442.612 311.086 439.975 310.537L440.276 309.05C443.196 309.652 446.187 310.307 449.143 311.033L449.957 311.228L449.674 312.024C448.665 314.84 447.833 317.743 447.178 320.647H447.196Z" fill="black"/>
<path d="M489.707 404.978C484.397 402.782 479.336 399.949 474.663 396.585L475.548 395.364C480.114 398.675 485.088 401.437 490.291 403.597L489.707 404.996V404.978ZM461.956 384.935C458.186 380.58 454.93 375.781 452.275 370.682L453.62 369.974C456.222 374.967 459.408 379.677 463.107 383.944L461.956 384.935V384.935ZM446.152 354.57C444.754 349.011 444.01 343.256 443.939 337.484H445.444C445.515 343.132 446.24 348.763 447.603 354.216L446.134 354.588L446.152 354.57Z" fill="black"/>
<path d="M666.122 571.25C666.122 641.842 611.948 699.74 542.943 705.671V654.785H425.321C407.18 631.803 396.332 602.802 396.332 571.233C396.332 528.598 416.1 490.584 446.948 465.867C460.841 454.73 476.964 446.285 494.574 441.327C506.219 438.034 518.519 436.281 531.227 436.281C597.046 436.281 651.857 483.466 663.732 545.861C664.971 552.394 665.75 559.069 665.998 565.903C666.068 567.674 666.122 569.445 666.122 571.233V571.25Z" fill="#0C0C0C"/>
<path d="M542.182 706.504V655.547H424.949L424.719 655.264C405.641 631.096 395.57 602.041 395.57 571.251C395.57 529.838 414.118 491.222 446.47 465.301C460.735 453.863 476.84 445.559 494.361 440.62C506.272 437.256 518.679 435.538 531.227 435.538C596.285 435.538 652.335 481.891 664.476 545.737C665.732 552.377 666.511 559.158 666.759 565.904C666.847 567.834 666.883 569.569 666.883 571.251C666.883 605.44 654.122 638.107 630.973 663.213C607.948 688.178 576.711 703.529 543.013 706.433L542.199 706.504H542.182ZM425.675 654.042H543.686V704.857C611.983 698.554 665.361 640.019 665.361 571.251C665.361 569.587 665.325 567.869 665.237 565.957C664.989 559.282 664.228 552.572 662.989 546.021C650.972 482.883 595.559 437.043 531.227 437.043C518.82 437.043 506.555 438.725 494.786 442.071C477.46 446.94 461.531 455.156 447.426 466.47C415.428 492.107 397.093 530.298 397.093 571.251C397.093 601.581 406.986 630.193 425.693 654.042H425.675Z" fill="black"/>
<path d="M521.776 376.579C521.776 388.3 519.528 399.508 515.493 409.777C476.168 408.449 444.7 376.154 444.7 336.494C444.7 327.818 446.205 319.497 448.983 311.777C451.727 304.11 455.709 297.046 460.7 290.796C482.787 298.427 500.998 314.344 511.635 334.847C518.112 347.33 521.793 361.529 521.793 376.561L521.776 376.579Z" fill="#E54141"/>
<path d="M516.006 410.556H515.475C475.371 409.175 443.939 376.667 443.939 336.511C443.939 327.942 445.391 319.549 448.258 311.529C451.019 303.844 455.001 296.727 460.098 290.335L460.434 289.91L460.93 290.087C483.176 297.789 501.423 313.547 512.29 334.51C519.086 347.63 522.537 361.795 522.537 376.579C522.537 388.07 520.395 399.348 516.201 410.06L516.006 410.556V410.556ZM460.947 291.698C456.116 297.842 452.328 304.677 449.691 312.042C446.877 319.886 445.461 328.119 445.461 336.511C445.461 375.676 475.955 407.422 514.997 409.015C519.015 398.622 521.032 387.716 521.032 376.579C521.032 362.025 517.652 348.108 510.962 335.201C500.361 314.751 482.61 299.33 460.947 291.698V291.698Z" fill="black"/>
<path d="M403.588 304.765C400.579 336.83 374.032 362.025 341.414 362.928C345.025 338.937 358.033 318.044 376.563 304.075C378.616 304.022 380.651 304.004 382.722 304.004C389.73 304.004 396.703 304.269 403.588 304.783V304.765Z" fill="#E54141"/>
<path d="M340.547 363.689L340.689 362.804C344.264 339.078 356.847 318.009 376.12 303.455L376.315 303.313H376.563C378.616 303.26 380.669 303.225 382.722 303.225C389.535 303.225 396.562 303.49 403.659 304.004L404.437 304.057L404.366 304.818C401.305 337.467 374.262 362.768 341.467 363.654H340.565L340.547 363.689ZM376.828 304.836C358.227 318.947 345.998 339.273 342.317 362.149C373.678 360.838 399.464 336.688 402.774 305.473C395.995 304.995 389.252 304.765 382.722 304.765C380.757 304.765 378.793 304.8 376.828 304.836V304.836Z" fill="black"/>
<path d="M644.583 30.01C645.733 30.3287 646.866 30.6651 647.999 31.0015C645.574 29.886 642.972 29.1778 640.211 28.8945C640.654 28.9831 641.096 29.0893 641.521 29.1955C642.548 29.4611 643.556 29.709 644.583 29.9923V30.01Z" fill="#E54141"/>
<path d="M647.769 31.7279C646.636 31.3738 645.521 31.0551 644.371 30.7364C643.362 30.4531 642.353 30.1875 641.344 29.9396C640.866 29.8157 640.459 29.7272 640.052 29.6386L640.282 28.1514C643.096 28.4347 645.804 29.1606 648.3 30.3114L647.769 31.7279V31.7279Z" fill="black"/>
<path d="M613.222 53.3464C613.222 66.9088 624.23 77.9216 637.787 77.9216C642.353 77.9216 646.618 76.6823 650.264 74.5222C651.184 73.8494 652.122 73.212 653.078 72.5746C658.724 68.0597 662.352 61.1368 662.352 53.3641C662.352 43.4667 656.494 34.9149 648.034 31.0374C648.034 31.0374 647.999 31.0374 647.981 31.0374C646.848 30.6833 645.716 30.3646 644.565 30.0459C643.556 29.7626 642.548 29.497 641.503 29.2492C641.061 29.1429 640.636 29.0367 640.194 28.9482C639.415 28.8773 638.583 28.8242 637.769 28.8242C624.212 28.8242 613.204 39.8371 613.204 53.3995L613.222 53.3464Z" fill="#E54141"/>
<path d="M637.787 78.683C623.823 78.683 612.461 67.316 612.461 53.3464C612.461 39.3767 623.823 28.0098 637.787 28.0098C638.583 28.0098 639.433 28.0452 640.282 28.1337C640.778 28.2399 641.203 28.3285 641.61 28.4347C642.742 28.718 643.769 28.9836 644.778 29.2669C645.893 29.5679 646.99 29.9043 648.105 30.2407H648.3L648.441 30.3646C657.343 34.5077 663.095 43.5198 663.095 53.3464C663.095 61.0837 659.609 68.3075 653.538 73.1589C652.547 73.8317 651.609 74.4691 650.689 75.1242C646.742 77.4613 642.3 78.6653 637.769 78.6653L637.787 78.683ZM637.787 29.5324C624.655 29.5324 613.983 40.2089 613.983 53.3464C613.983 66.4839 624.655 77.1603 637.787 77.1603C642.052 77.1603 646.229 76.0272 649.892 73.8671C650.76 73.2297 651.715 72.5746 652.671 71.9372C658.334 67.4223 661.609 60.6234 661.609 53.3464C661.609 44.0864 656.175 35.6054 647.769 31.7102C646.636 31.3561 645.521 31.0374 644.388 30.7187C643.379 30.4354 642.371 30.1698 641.344 29.922C640.866 29.798 640.459 29.7095 640.052 29.621C639.327 29.5501 638.548 29.5147 637.787 29.5147V29.5324Z" fill="black"/>
<path d="M205.493 355.403C226.996 355.403 244.411 337.963 244.411 316.469C244.411 294.974 227.084 277.64 205.687 277.534C184.131 277.64 166.681 295.098 166.575 316.663C166.681 338.087 184.06 355.403 205.493 355.403V355.403Z" fill="#3D76E8"/>
<path d="M245.172 316.841C245.172 295.134 227.58 277.517 205.864 277.517C205.794 277.517 205.741 277.517 205.67 277.517C227.084 277.623 244.393 295.01 244.393 316.451C244.393 337.892 226.961 355.386 205.475 355.386C183.99 355.386 166.663 338.052 166.557 316.646C166.557 316.717 166.557 316.77 166.557 316.841C166.557 338.548 184.149 356.165 205.864 356.165C227.58 356.165 245.172 338.565 245.172 316.841V316.841Z" fill="#3D76E8"/>
<path d="M166.486 306.146C168.167 302.198 169.937 298.285 171.778 294.425C169.424 297.984 167.619 301.932 166.486 306.146Z" fill="black"/>
<path d="M246.694 316.841C246.694 327.96 242.216 338.034 235.013 345.4C233.881 346.073 232.783 346.781 231.651 347.489C240.376 340.123 245.933 329.111 245.933 316.841C245.933 294.744 227.969 276.773 205.882 276.773C183.795 276.773 165.831 294.744 165.831 316.841C165.831 338.937 183.795 356.908 205.882 356.908C212.165 356.908 218.112 355.456 223.403 352.854C222.341 353.58 221.279 354.306 220.253 355.049C215.775 356.749 210.944 357.67 205.9 357.67C183.388 357.67 165.088 339.362 165.088 316.841C165.088 313.14 165.584 309.564 166.504 306.147C168.203 302.198 169.973 298.303 171.813 294.425C179.123 283.342 191.653 276.012 205.9 276.012C228.412 276.012 246.712 294.319 246.712 316.841H246.694Z" fill="black"/>
<path d="M234.996 345.399C230.872 349.596 225.828 352.924 220.235 355.049C221.279 354.305 222.341 353.579 223.386 352.853C226.359 351.402 229.137 349.596 231.633 347.489C232.748 346.78 233.863 346.09 234.996 345.399V345.399Z" fill="black"/>
<path d="M205.687 277.534C205.687 277.534 205.564 277.534 205.493 277.534C183.99 277.534 166.575 294.974 166.575 316.469C166.575 316.539 166.575 316.593 166.575 316.663C166.681 295.098 184.131 277.64 205.687 277.534V277.534Z" fill="black"/>
<path d="M205.882 276.772C183.795 276.772 165.831 294.744 165.831 316.84C165.831 338.937 183.795 356.908 205.882 356.908C212.165 356.908 218.112 355.456 223.403 352.853C226.129 351.029 228.872 349.223 231.651 347.488C240.376 340.123 245.933 329.11 245.933 316.84C245.933 294.744 227.969 276.772 205.882 276.772V276.772ZM205.882 356.164C184.184 356.164 166.575 338.565 166.575 316.84V316.468C166.575 294.974 184.007 277.534 205.493 277.534H205.864C227.562 277.534 245.172 295.133 245.172 316.858C245.172 338.582 227.58 356.182 205.864 356.182L205.882 356.164Z" fill="black"/>
<path d="M223.403 352.871C226.377 351.419 229.137 349.595 231.651 347.488C228.872 349.241 226.111 351.029 223.403 352.871V352.871Z" fill="black"/>
<path d="M653.078 72.5752C652.122 73.2126 651.184 73.8677 650.264 74.5228C651.255 73.9385 652.193 73.2834 653.078 72.5752Z" fill="#E54141"/>
<path d="M650.653 75.1775L649.822 73.9204C650.76 73.2476 651.698 72.5925 652.653 71.9551L653.538 73.1768C652.636 73.9027 651.645 74.5755 650.653 75.1775Z" fill="black"/>
<path d="M231.881 657.37L230.836 656.308H165.07V751.563H429.215C396.526 748.412 364.776 740.32 334.477 727.378C295.948 710.911 261.419 687.345 231.863 657.37H231.881Z" fill="#0C0C0C"/>
<path d="M429.215 752.343H164.309V655.564H231.137L232.412 656.857C261.897 686.779 296.355 710.275 334.795 726.705C364.9 739.577 396.703 747.686 429.303 750.838L429.232 752.343H429.215ZM165.814 750.838H416.242C387.996 746.96 360.457 739.329 334.193 728.104C295.576 711.602 260.959 687.983 231.332 657.919L230.5 657.087H165.814V750.838V750.838Z" fill="black"/>
<path d="M438.595 752.343H164.309V655.564H230.075L230.836 656.326H165.07V751.582H429.215C432.329 751.882 435.462 752.13 438.595 752.343V752.343Z" fill="black"/>
<path d="M542.182 706.54V741.048C541.916 741.119 541.686 741.207 541.421 741.26C515.581 748.006 488.486 751.582 460.558 751.582C371.466 751.582 290.904 715.127 232.943 656.327C232.695 656.079 232.465 655.831 232.217 655.565H424.896L425.516 656.327L425.887 656.805C451.797 688.675 490.185 706.982 531.209 706.982C534.589 706.982 538.023 706.841 541.403 706.61H541.456L542.146 706.557L542.182 706.54Z" fill="#3D76E8"/>
<path d="M460.558 752.343C374.12 752.343 293.098 718.437 232.394 656.858C232.146 656.61 231.898 656.344 231.651 656.079L230.465 654.804H425.25L426.489 656.326C452.258 688.019 490.432 706.203 531.209 706.203C534.43 706.203 537.846 706.079 541.35 705.831L542.907 705.707V741.596L542.199 741.809C541.987 741.88 541.792 741.933 541.562 741.986C515.263 748.856 487.99 752.326 460.523 752.326L460.558 752.343ZM234.004 656.326C294.355 717.269 374.793 750.839 460.558 750.839C487.902 750.839 515.05 747.368 541.226 740.534C541.297 740.534 541.35 740.499 541.421 740.481V707.371C537.846 707.619 534.448 707.743 531.227 707.743C489.972 707.743 451.373 689.347 425.321 657.282L424.56 656.326H234.022H234.004Z" fill="black"/>
<path d="M542.943 739.294V740.834C542.677 740.887 542.447 740.976 542.182 741.029V739.489L542.943 739.294Z" fill="black"/>
<path d="M231.881 656.309H230.819L231.863 657.371C261.419 687.364 295.948 710.912 334.477 727.379C364.776 740.321 396.526 748.413 429.215 751.564H438.559C360.44 746.306 287.913 713.161 232.394 656.84L231.863 656.309H231.881Z" fill="black"/>
<path d="M460.558 752.343H438.577C435.444 752.131 432.312 751.883 429.197 751.582H438.612C445.886 752.06 453.178 752.343 460.54 752.343H460.558Z" fill="black"/>
<path d="M231.881 656.308H230.836L230.075 655.564H231.137L231.881 656.308Z" fill="black"/>
<path d="M541.438 741.26V742.039C539.332 742.588 537.226 743.119 535.102 743.615C534.731 743.703 534.377 743.792 534.005 743.88C533.209 744.075 532.395 744.252 531.58 744.447C530.66 744.659 529.758 744.854 528.837 745.049C528.66 745.102 528.483 745.12 528.289 745.173C527.828 745.279 527.368 745.367 526.908 745.456C525.864 745.686 524.82 745.899 523.776 746.111C522.377 746.394 520.962 746.678 519.563 746.926C518.59 747.103 517.652 747.297 516.679 747.439C516.413 747.492 516.148 747.545 515.882 747.598C511.812 748.307 507.741 748.926 503.617 749.493C502.29 749.652 500.963 749.829 499.618 749.989C498.627 750.13 497.618 750.236 496.627 750.343C496.467 750.378 496.308 750.396 496.149 750.396C495.936 750.431 495.724 750.449 495.512 750.467C494.45 750.591 493.388 750.697 492.344 750.803C491.547 750.874 490.733 750.962 489.919 751.033C487.441 751.263 484.964 751.458 482.468 751.618H460.558C488.486 751.618 515.599 748.041 541.421 741.295L541.438 741.26Z" fill="black"/>
<path d="M542.182 741.047V741.844L541.615 741.985C541.615 741.985 541.474 742.021 541.421 742.038V741.259C541.686 741.206 541.916 741.118 542.182 741.047V741.047Z" fill="black"/>
<path d="M482.433 751.582C475.159 752.06 467.885 752.343 460.558 752.343V751.582H482.433Z" fill="black"/>
<path d="M460.558 751.582H438.559C360.44 746.341 287.913 713.179 232.394 656.84L231.881 656.309H232.943C290.904 715.109 371.466 751.564 460.558 751.564V751.582Z" fill="black"/>
<path d="M438.577 751.582C445.869 752.078 453.196 752.343 460.576 752.343V751.582H438.577Z" fill="black"/>
<path d="M232.943 656.308H231.863L231.12 655.547H232.217C232.465 655.812 232.695 656.06 232.943 656.308Z" fill="black"/>
<path d="M541.438 656.309V705.831C538.076 706.079 534.66 706.203 531.244 706.203C488.963 706.203 451.249 686.744 426.507 656.309H541.438V656.309Z" fill="#E54141"/>
<path d="M542.943 654.804V704.202L542.182 704.255V655.547H427.834C427.834 655.547 427.71 655.406 427.675 655.353L427.215 654.786H542.943V654.804Z" fill="black"/>
<path d="M542.943 704.202V705.689C542.677 705.689 542.447 705.743 542.182 705.76V704.255L542.943 704.202Z" fill="black"/>
<path d="M427.834 655.565H425.905C425.71 655.317 425.516 655.069 425.321 654.804H427.232L427.693 655.37C427.693 655.37 427.799 655.512 427.852 655.565H427.834Z" fill="black"/>
<path d="M542.182 655.564V704.272L541.421 704.325V656.326H428.454C428.241 656.06 428.029 655.83 427.834 655.564H542.182V655.564Z" fill="black"/>
<path d="M541.438 705.831V706.592C538.058 706.84 534.625 706.964 531.244 706.964C490.22 706.964 451.833 688.674 425.923 656.787L425.551 656.309H426.524C451.249 686.744 488.981 706.203 531.262 706.203C534.695 706.203 538.093 706.061 541.456 705.831H541.438Z" fill="black"/>
<path d="M428.454 656.308H427.463C427.339 656.149 427.197 655.989 427.073 655.83L426.843 655.564H427.834C428.029 655.83 428.241 656.06 428.454 656.326V656.308Z" fill="black"/>
<path d="M542.182 704.272V705.016L541.438 705.087V704.308L542.182 704.272Z" fill="black"/>
<path d="M426.489 656.308H425.516L424.896 655.547H425.887C426.082 655.795 426.277 656.06 426.471 656.308H426.489Z" fill="black"/>
<path d="M542.182 705.76V706.539L541.491 706.592H541.438V705.831C541.704 705.795 541.934 705.777 542.199 705.76H542.182Z" fill="black"/>
<path d="M427.48 656.308H426.489C426.294 656.06 426.1 655.795 425.905 655.547H426.861L427.091 655.812C427.232 655.972 427.356 656.131 427.48 656.29V656.308Z" fill="black"/>
<path d="M542.182 705.017V705.76C541.916 705.76 541.686 705.813 541.421 705.831V705.07L542.182 705.017V705.017Z" fill="black"/>
<path d="M579.826 791.082L580.87 792.18C585.241 788.002 589.56 783.628 593.701 779.167L592.586 778.14C588.48 782.584 584.179 786.939 579.826 791.082Z" fill="black"/>
<path d="M488.521 849.476L489.07 850.875C494.715 848.644 500.361 846.2 505.83 843.615L505.193 842.252C499.742 844.819 494.131 847.245 488.521 849.476Z" fill="black"/>
<path d="M551.986 814.401L552.889 815.623C557.774 812.029 562.623 808.24 567.26 804.344L566.287 803.176C561.667 807.053 556.853 810.825 551.986 814.383V814.401Z" fill="black"/>
<path d="M453.939 860.612L454.311 862.082C460.204 860.594 466.115 858.912 471.885 857.053L471.425 855.619C465.69 857.461 459.797 859.16 453.957 860.63L453.939 860.612Z" fill="black"/>
<path d="M418.242 867.199L418.419 868.704C424.454 867.996 430.524 867.075 436.471 865.977L436.188 864.49C430.277 865.588 424.224 866.491 418.224 867.199H418.242Z" fill="black"/>
<path d="M521.386 833.983L522.112 835.311C527.421 832.372 532.696 829.238 537.81 825.962L536.996 824.688C531.917 827.945 526.66 831.061 521.386 833.983V833.983Z" fill="black"/>
<path d="M384.545 869.182L382.014 869.076L381.943 870.581L384.509 870.687C389.73 870.687 395.022 870.545 400.225 870.262L400.137 868.757C394.969 869.04 389.695 869.182 384.545 869.182V869.182Z" fill="black"/>
<path d="M345.626 867.163C351.538 868.031 357.626 868.757 363.749 869.323L363.891 867.818C357.803 867.252 351.732 866.526 345.857 865.658L345.644 867.163H345.626Z" fill="black"/>
<path d="M604.497 764.419L605.665 765.375C609.488 760.683 613.204 755.778 616.726 750.838L615.487 749.953C611.983 754.875 608.284 759.744 604.479 764.419H604.497Z" fill="black"/>
<path d="M625.557 734.832L626.849 735.629C630.053 730.476 633.115 725.147 635.964 719.8L634.637 719.092C631.805 724.403 628.743 729.697 625.575 734.832H625.557Z" fill="black"/>
<path d="M650.14 688.922C650.069 689.099 649.999 689.276 649.928 689.453C648.105 694.145 646.14 698.837 644.034 703.44L642.654 702.803C644.406 698.961 646.087 695.048 647.645 691.117C647.716 690.923 647.804 690.71 647.892 690.515C647.892 690.515 647.904 690.515 647.928 690.515V690.568V690.515L649.963 689.046L650.122 688.922H650.14Z" fill="black"/>
<path d="M309.859 859.975C315.664 861.48 321.645 862.861 327.645 864.048L327.946 862.56C321.982 861.356 316.017 859.993 310.248 858.506L309.859 859.975Z" fill="black"/>
<path d="M275.153 848.732C280.763 850.927 286.532 852.999 292.337 854.876L292.798 853.441C287.028 851.582 281.276 849.511 275.701 847.333L275.153 848.749V848.732Z" fill="black"/>
<path d="M242.11 833.24C247.402 836.161 252.871 838.941 258.375 841.526L259.012 840.163C253.525 837.595 248.092 834.833 242.836 831.93L242.11 833.258V833.24Z" fill="black"/>
<path d="M211.404 813.515C216.253 817.127 221.315 820.615 226.412 823.909L227.226 822.634C222.147 819.376 217.12 815.888 212.289 812.312L211.386 813.533L211.404 813.515Z" fill="black"/>
<path d="M183.706 789.755C188.025 794.022 192.555 798.183 197.157 802.113L198.148 800.962C193.582 797.05 189.087 792.906 184.786 788.675L183.724 789.755H183.706Z" fill="black"/>
<path d="M159.531 762.399C163.23 767.215 167.141 771.96 171.141 776.493L172.273 775.484C168.291 770.969 164.398 766.259 160.717 761.461L159.513 762.382L159.531 762.399Z" fill="black"/>
<path d="M139.32 732.035C142.346 737.311 145.567 742.534 148.912 747.562L150.168 746.73C146.841 741.737 143.638 736.55 140.629 731.291L139.32 732.052V732.035Z" fill="black"/>
<path d="M104.189 628.9C105.056 634.902 106.1 640.957 107.321 646.889L108.808 646.588C107.587 640.674 106.543 634.654 105.693 628.688L104.189 628.9V628.9Z" fill="black"/>
<path d="M101.18 592.497C101.322 598.552 101.64 604.696 102.136 610.752L103.64 610.628C103.145 604.608 102.826 598.499 102.684 592.479L101.18 592.515V592.497Z" fill="black"/>
<path d="M123.285 699.262C125.604 704.892 128.117 710.487 130.771 715.923L132.134 715.25C129.497 709.85 126.984 704.273 124.683 698.678L123.285 699.262Z" fill="black"/>
<path d="M111.551 664.682C113.144 670.543 114.932 676.421 116.878 682.158L118.312 681.68C116.383 675.979 114.595 670.118 113.02 664.293L111.569 664.682H111.551Z" fill="black"/>
<path d="M104.879 537.875L106.366 538.106C107.321 532.121 108.454 526.119 109.764 520.241L108.295 519.904C106.985 525.8 105.835 531.838 104.879 537.858V537.875Z" fill="black"/>
<path d="M125.09 467.833L126.471 468.435C128.86 462.875 131.462 457.333 134.187 451.986L132.842 451.296C130.099 456.678 127.479 462.238 125.073 467.833H125.09Z" fill="black"/>
<path d="M101.322 574.243L102.826 574.296C103.056 568.259 103.463 562.151 104.047 556.166L102.543 556.024C101.959 562.044 101.534 568.188 101.304 574.261L101.322 574.243Z" fill="black"/>
<path d="M112.808 502.234L114.259 502.659C115.923 496.852 117.799 491.027 119.834 485.361L118.418 484.848C116.383 490.549 114.489 496.409 112.825 502.234H112.808Z" fill="black"/>
<path d="M119.073 872.493C107.994 872.493 100.773 865.517 100.773 854.257V827.681H113.268V854.894C113.268 858.701 115.445 861.41 119.073 861.41C122.701 861.41 124.878 858.718 124.878 854.894V827.681H137.373V854.257C137.373 865.517 130.276 872.493 119.073 872.493Z" fill="#FFFF00"/>
<path d="M119.073 873.254C107.498 873.254 100.03 865.8 100.03 854.256V826.937H114.029V854.911C114.029 858.47 115.958 860.666 119.073 860.666C122.188 860.666 124.117 858.452 124.117 854.911V826.937H138.116V854.256C138.116 865.977 130.824 873.254 119.073 873.254V873.254ZM101.534 828.442V854.256C101.534 865.039 108.259 871.732 119.073 871.732C129.886 871.732 136.612 865.039 136.612 854.256V828.442H125.639V854.894C125.639 859.302 123.055 862.153 119.073 862.153C115.091 862.153 112.507 859.231 112.507 854.894V828.442H101.534V828.442Z" fill="black"/>
<path d="M142.753 871.679V827.698H157.177L169.017 852.628H171.194V827.698H182.68V871.679H167.849L156.416 846.749H154.239V871.679H142.753V871.679Z" fill="#FFFF00"/>
<path d="M183.441 872.44H167.371L155.938 847.51H155V872.44H141.992V826.937H157.655L169.495 851.866H170.433V826.937H183.441V872.44ZM168.344 870.935H181.937V828.459H171.955V853.389H168.557L156.717 828.459H143.532V870.935H153.513V846.005H156.929L168.362 870.935H168.344Z" fill="black"/>
<path d="M188.609 871.679V827.698H201.104V871.679H188.609Z" fill="#FFFF00"/>
<path d="M201.865 872.44H187.865V826.937H201.865V872.44ZM189.37 870.935H200.343V828.459H189.37V870.935Z" fill="black"/>
<path d="M215.121 871.678L204.98 811.055H218.165L224.094 860.648H226.607L232.589 811.055H245.721L235.633 871.678H215.121V871.678Z" fill="#FFFF00"/>
<path d="M236.27 872.44H214.466L204.077 810.312H218.837L224.766 859.905H225.952L231.934 810.312H246.623L236.287 872.44H236.27ZM215.74 870.935H234.978L244.818 811.817H233.243L227.261 861.41H223.403L217.474 811.817H205.847L215.74 870.935V870.935Z" fill="black"/>
<path d="M278.197 879.239H249.473V827.681H277.79V837.702H261.967V844.572H277.099V853.247H261.967V861.64H278.214V879.221L278.197 879.239Z" fill="#FFFF00"/>
<path d="M278.958 880H248.712V826.937H278.533V838.481H262.711V843.828H277.843V854.026H262.711V860.896H278.958V880V880ZM250.234 878.495H277.453V862.418H261.206V852.521H276.338V845.35H261.206V836.976H277.029V828.459H250.216V878.495H250.234Z" fill="black"/>
<path d="M301.54 857.479H295.505V871.679H283.011V827.698H304.054C314.318 827.698 320.053 833.913 320.053 842.943C320.053 848.449 317.716 852.858 313.363 855.319L320.053 871.679H306.974L301.523 857.479H301.54ZM295.505 837.596V848.98H301.31C305.593 848.98 307.168 846.289 307.168 843.226C307.168 840.163 305.593 837.596 301.363 837.596H295.505Z" fill="#FFFF00"/>
<path d="M321.185 872.44H306.461L301.009 858.24H296.249V872.44H282.249V826.937H304.054C314.389 826.937 320.814 833.063 320.814 842.942C320.814 848.52 318.513 852.999 314.318 855.637L321.185 872.44V872.44ZM307.505 870.935H318.938L312.425 855L313.009 854.663C317.079 852.362 319.309 848.201 319.309 842.942C319.309 834.001 313.469 828.442 304.054 828.442H283.754V870.917H294.727V856.717H302.036L307.487 870.917L307.505 870.935ZM301.293 849.741H294.727V836.852H301.346C305.452 836.852 307.912 839.242 307.912 843.243C307.912 847.245 305.434 849.741 301.293 849.741V849.741ZM296.249 848.236H301.293C305.735 848.236 306.407 845.102 306.407 843.243C306.407 841.384 305.753 838.374 301.363 838.374H296.249V848.236Z" fill="black"/>
<path d="M323.185 871.678V861.586H339.945C343.644 861.586 345.042 859.532 345.042 857.478C345.042 855.424 343.874 853.424 339.945 853.424H336.547C328.229 853.424 322.654 848.2 322.654 840.587C322.654 832.974 328.229 827.68 336.671 827.68H356.015V837.772H339.662C337.202 837.772 335.91 839.064 335.91 840.888C335.91 842.535 337.202 843.827 339.662 843.827H342.777C352.635 843.827 358.015 849.918 358.015 857.673C358.015 865.428 352.564 871.696 342.706 871.696H323.185V871.678Z" fill="#FFFF00"/>
<path d="M342.706 872.44H322.424V860.842H339.945C342.671 860.842 344.281 859.585 344.281 857.496C344.281 855.407 342.812 854.203 339.945 854.203H336.547C327.787 854.203 321.893 848.732 321.893 840.605C321.893 832.478 327.822 826.954 336.653 826.954H356.759V838.551H339.644C337.733 838.551 336.653 839.401 336.653 840.906C336.653 842.252 337.804 843.084 339.644 843.084H342.759C352.334 843.084 358.758 848.944 358.758 857.673C358.758 866.402 352.299 872.44 342.706 872.44ZM323.946 870.935H342.706C351.538 870.935 357.254 865.729 357.254 857.673C357.254 849.617 351.573 844.589 342.759 844.589H339.644C336.53 844.589 335.131 842.73 335.131 840.906C335.131 838.551 336.901 837.046 339.644 837.046H355.254V828.477H336.671C328.742 828.477 323.415 833.364 323.415 840.623C323.415 847.882 328.689 852.716 336.547 852.716H339.945C345.237 852.716 345.803 856.08 345.803 857.514C345.803 859.762 344.264 862.383 339.945 862.383H323.929V870.952L323.946 870.935Z" fill="black"/>
<path d="M361.997 871.679V827.698H374.492V871.679H361.997Z" fill="#FFFF00"/>
<path d="M375.235 872.44H361.236V826.937H375.235V872.44ZM362.74 870.935H373.713V828.459H362.74V870.935Z" fill="black"/>
<path d="M386.686 871.679V819.571H378.881V808.027H406.897V819.571H399.163V871.679H386.668H386.686Z" fill="#FFFF00"/>
<path d="M399.924 872.44H385.925V820.332H378.12V807.283H407.658V820.332H399.924V872.44ZM387.429 870.935H398.402V818.827H406.136V808.806H379.624V818.827H387.429V870.935Z" fill="black"/>
<path d="M439.922 871.679H411.198V827.698H439.515V837.719H423.693V844.589H438.825V853.265H423.693V861.657H439.94V871.679H439.922ZM416.702 820.527L434.825 818.066V820.828L416.702 823.29V820.527Z" fill="#FFFF00"/>
<path d="M440.683 872.44H410.437V826.937H440.258V838.481H424.436V843.828H439.568V854.027H424.436V860.896H440.683V872.44V872.44ZM411.959 870.935H439.179V862.419H422.932V852.522H438.064V845.351H422.932V836.976H438.754V828.46H411.941V870.935H411.959ZM415.959 824.175V819.89L435.586 817.217V821.502L415.959 824.175ZM417.463 821.218V822.458L434.064 820.191V818.952L417.463 821.218Z" fill="black"/>
<path d="M456.806 871.679V827.698H472.522C487.406 827.698 496.149 836.728 496.149 849.511C496.149 862.295 487.353 871.679 472.575 871.679H456.806ZM468.876 838.711V860.418H472.274C480.079 860.418 483.53 855.85 483.53 849.618C483.53 843.385 480.008 838.711 472.221 838.711H468.876V838.711Z" fill="black"/>
<path d="M529.457 871.679H500.733V827.698H529.05V837.72H513.228V844.589H528.359V853.265H513.228V861.657H529.474V871.679H529.457Z" fill="black"/>
<path d="M567.632 871.679H546.341V771.749H558.836V861.658H567.632V871.679V871.679Z" fill="#3D76E8"/>
<path d="M568.375 872.44H545.58V770.987H559.579V860.896H568.375V872.44V872.44ZM547.084 870.935H566.853V862.419H558.057V772.51H547.084V870.935Z" fill="black"/>
<path d="M572.375 871.679V827.698H584.87V871.679H572.375Z" fill="#3D76E8"/>
<path d="M585.613 872.44H571.614V826.937H585.613V872.44ZM573.118 870.935H584.091V828.459H573.118V870.935Z" fill="black"/>
<path d="M619.522 871.679H590.798V827.698H619.115V837.719H603.293V844.589H618.425V853.265H603.293V861.657H619.54V871.679H619.522ZM595.187 818.066L613.31 820.527V823.29L595.187 820.828V818.066Z" fill="#3D76E8"/>
<path d="M620.266 872.44H590.02V826.937H619.841V838.481H604.019V843.828H619.151V854.027H604.019V860.896H620.266V872.44V872.44ZM591.542 870.935H618.761V862.419H602.515V852.522H617.646V845.351H602.515V836.976H618.337V828.46H591.524V870.935H591.542ZM614.054 824.175L594.426 821.502V817.217L614.054 819.89V824.175ZM595.931 820.191L612.532 822.458V821.218L595.931 818.952V820.191Z" fill="black"/>
<path d="M646.778 872.493C632.938 872.493 623.151 862.702 623.151 849.618C623.151 836.533 632.831 826.866 646.477 826.866C657.272 826.866 666.299 832.975 669.113 843.297H655.75C654.458 840.358 651.06 838.021 646.778 838.021C640.265 838.021 635.698 842.943 635.698 849.689C635.698 856.434 640.265 861.658 647.078 861.658C652.122 861.658 655.927 859.143 657.803 855.266H647.185V847.706H669.697C669.697 848.113 669.82 849.104 669.82 849.706C669.82 862.791 659.626 872.529 646.778 872.529V872.493Z" fill="#3D76E8"/>
<path d="M646.778 873.254C632.654 873.254 622.39 863.322 622.39 849.617C622.39 835.913 632.513 826.104 646.477 826.104C657.857 826.104 667.024 832.762 669.838 843.084L670.104 844.04H655.255L655.06 843.58C653.998 841.172 651.043 838.746 646.778 838.746C640.689 838.746 636.459 843.243 636.459 849.671C636.459 856.098 640.831 860.878 647.078 860.878C651.167 860.878 654.547 859.125 656.529 855.991H646.441V846.908H670.458V847.67C670.458 847.847 670.475 848.13 670.511 848.449C670.546 848.874 670.581 849.334 670.581 849.671C670.581 862.897 660.122 873.237 646.778 873.237V873.254ZM646.477 827.627C633.398 827.627 623.894 836.887 623.894 849.635C623.894 862.383 633.522 871.749 646.76 871.749C659.998 871.749 669.042 862.259 669.042 849.688C669.042 849.387 669.006 848.962 668.971 848.591C668.971 848.537 668.971 848.502 668.971 848.449H647.928V854.504H658.989L658.458 855.584C656.352 859.922 652.193 862.401 647.043 862.401C640.017 862.401 634.92 857.054 634.92 849.671C634.92 842.287 639.893 837.241 646.76 837.241C650.848 837.241 654.565 839.348 656.211 842.518H668.086C665.148 833.293 656.954 827.609 646.459 827.609L646.477 827.627Z" fill="black"/>
<path d="M703.075 879.239H674.351V827.681H702.668V837.702H686.846V844.572H701.978V853.247H686.846V861.64H703.093V879.221L703.075 879.239Z" fill="#3D76E8"/>
<path d="M703.819 880H673.572V826.937H703.394V838.481H687.572V843.828H702.704V854.026H687.572V860.896H703.819V880V880ZM675.095 878.495H702.314V862.418H686.067V852.521H701.199V845.35H686.067V836.976H701.889V828.459H675.077V878.495H675.095Z" fill="black"/>
<path d="M77.8009 408.52C77.0576 416.151 76.7921 420.011 76.4381 427.748C81.3936 429.518 83.8714 430.386 88.8268 432.068C88.756 434.122 88.7206 435.167 88.6675 437.22C72.5446 431.944 64.5273 429.04 48.599 422.737C48.8999 417.372 49.0946 414.699 49.5547 409.387C66.2086 405.51 74.5445 403.828 91.2515 401.03C91.0037 403.049 90.8975 404.04 90.6851 406.076C85.535 406.997 82.9511 407.493 77.8186 408.52H77.8009ZM72.7038 426.367C73.0401 419.479 73.2879 416.062 73.925 409.263C65.5361 410.981 61.3594 411.901 52.9881 413.902C52.8466 415.832 52.7758 416.806 52.6519 418.736C60.6514 421.923 64.6689 423.445 72.7215 426.367H72.7038Z" fill="black"/>
<path d="M96.614 371.887C99.0917 372.383 100.348 372.648 102.826 373.144C102.472 374.95 102.295 375.853 101.941 377.659C99.4457 377.181 98.2068 376.951 95.7114 376.473C92.4372 388.884 82.5971 397.1 71.4827 395.683C59.6603 394.16 51.8909 381.377 54.8464 366.115C57.8197 350.782 69.7483 342.212 81.2697 345.258C92.0479 348.108 98.1714 359.157 96.5963 371.869L96.614 371.887ZM91.8886 375.747C86.3314 374.702 83.5528 374.171 77.9956 373.109C78.3672 371.179 78.5442 370.223 78.9336 368.293C84.4731 369.408 87.2517 369.975 92.7912 371.09C93.9062 360.909 88.8976 352.411 80.0132 350.18C70.4031 347.772 61.0762 354.571 58.6869 366.841C56.2977 379.128 62.3681 389.114 72.1729 390.513C81.2343 391.806 89.0923 385.591 91.8886 375.729V375.747Z" fill="black"/>
<path d="M108.454 327.853C105.215 337.556 97.7113 342.283 88.2428 339.592C78.4026 336.795 73.4826 335.396 63.6601 332.598C64.2265 330.615 64.5096 329.641 65.0937 327.676C75.04 330.633 80.0132 332.12 89.9595 335.077C96.5963 337.06 102.295 334.068 104.773 326.614C107.286 319.107 104.49 313.406 97.9767 310.998C88.2428 307.386 83.3758 305.597 73.6418 301.985C74.3498 300.073 74.7037 299.135 75.4294 297.223C84.9686 300.888 89.7471 302.729 99.2864 306.394C108.489 309.935 111.71 318.08 108.454 327.853V327.853Z" fill="black"/>
<path d="M113.834 278.933C110.666 285.537 109.162 288.884 106.295 295.647C110.365 298.941 112.401 300.587 116.507 303.792C115.763 305.598 115.392 306.501 114.684 308.324C101.286 298.038 94.7026 292.655 81.8184 281.501C83.836 276.826 84.8978 274.489 87.057 269.886C103.923 272.187 112.295 273.586 128.86 276.844C127.975 278.579 127.55 279.447 126.701 281.182C121.568 280.226 119.002 279.783 113.834 278.916V278.933ZM103.251 293.115C105.817 287.113 107.144 284.139 109.958 278.26C101.534 276.897 97.3042 276.26 88.8268 275.144C88.0658 276.826 87.6764 277.658 86.9331 279.34C93.3929 284.953 96.6671 287.715 103.268 293.115H103.251Z" fill="black"/>
<path d="M120.011 258.855C125.71 261.971 128.559 263.53 134.276 266.646C133.408 268.239 132.984 269.036 132.116 270.629C117.763 263.016 110.596 259.192 96.2423 251.578C99.5696 245.328 101.286 242.248 104.879 236.157C110.436 226.702 118.276 224.223 124.152 228.012C128.559 230.863 130.294 235.909 128.718 241.893C136.47 242.425 140.328 242.761 147.992 243.593C146.93 245.257 146.399 246.09 145.337 247.754C138.045 247.063 134.382 246.78 127.019 246.373C126.683 247.046 126.347 247.719 125.922 248.427C123.497 252.552 122.312 254.624 120.011 258.838V258.855ZM101.959 248.976C107.852 252.198 110.79 253.809 116.684 257.032C119.002 252.782 120.206 250.693 122.648 246.532C126.842 239.415 125.232 234.67 121.427 232.279C117.799 230.013 112.578 230.544 108.312 237.803C105.711 242.23 104.437 244.478 101.959 248.993V248.976Z" fill="black"/>
<path d="M152.257 237.131C138.789 228.048 132.046 223.515 118.577 214.432C119.692 212.768 120.259 211.953 121.391 210.307C134.753 219.549 141.443 224.17 154.805 233.412C153.779 234.9 153.266 235.643 152.257 237.131Z" fill="black"/>
<path d="M170.804 213.263C164.575 221.071 155.991 222.753 148.027 216.946C139.762 210.926 135.638 207.916 127.373 201.879C128.559 200.267 129.143 199.471 130.347 197.859C138.665 204.074 142.806 207.173 151.124 213.387C156.681 217.53 162.982 216.804 167.778 210.802C172.61 204.765 171.884 198.515 166.61 194.017C158.717 187.289 154.77 183.925 146.859 177.197C148.151 175.674 148.806 174.931 150.115 173.426C157.814 180.154 161.672 183.518 169.371 190.246C176.786 196.726 177.087 205.402 170.822 213.246L170.804 213.263Z" fill="black"/>
<path d="M186.485 193.698C174.503 182.721 168.504 177.25 156.522 166.273C159.672 162.82 161.283 161.12 164.522 157.774C174.503 161.563 179.441 163.581 189.14 167.795C189.671 167.264 189.936 167.016 190.485 166.485C186.485 156.676 184.591 151.701 181.034 141.627C184.467 138.457 186.202 136.899 189.724 133.818C200.413 146.053 205.741 152.179 216.43 164.431C215.085 165.617 214.413 166.202 213.068 167.406C203.245 156.428 198.343 150.94 188.52 139.944C187.635 140.741 187.193 141.131 186.326 141.927C189.777 152.037 191.635 157.03 195.529 166.892C193.069 169.247 191.848 170.451 189.423 172.859C179.671 168.734 174.733 166.768 164.699 163.068C163.885 163.918 163.477 164.36 162.663 165.228C173.406 175.302 178.786 180.348 189.529 190.423C188.308 191.733 187.688 192.388 186.485 193.716V193.698Z" fill="black"/>
<path d="M234.004 149.983C224.093 137.112 219.12 130.684 209.209 117.812C212.908 114.962 214.784 113.545 218.572 110.801C227.757 116.254 232.27 119.07 241.101 124.895C241.721 124.47 242.022 124.257 242.641 123.832C240.393 113.475 239.402 108.252 237.633 97.699C241.562 95.1494 243.561 93.91 247.561 91.4844C255.968 105.383 260.18 112.341 268.604 126.24C267.065 127.179 266.286 127.657 264.764 128.595C256.977 116.077 253.101 109.827 245.314 97.3095C244.305 97.9292 243.809 98.2479 242.8 98.8853C244.446 109.455 245.402 114.696 247.543 125.089C244.694 127.002 243.296 127.958 240.5 129.923C231.597 124.186 227.067 121.407 217.811 116.042C216.855 116.75 216.377 117.104 215.439 117.812C224.288 129.587 228.713 135.483 237.562 147.257C236.128 148.337 235.42 148.886 233.987 149.983H234.004Z" fill="#E54141"/>
<path d="M269.719 126.436C267.613 127.71 266.551 128.365 264.463 129.676C256.658 117.176 252.747 110.926 244.942 98.4431C244.464 98.7441 244.234 98.8858 243.756 99.1867C245.402 109.757 246.34 114.998 248.481 125.373C245.243 127.533 243.632 128.649 240.447 130.897C231.544 125.161 227.014 122.399 217.758 117.034C217.315 117.37 217.085 117.53 216.643 117.866C225.474 129.658 229.881 135.554 238.712 147.363C236.748 148.833 235.757 149.594 233.827 151.099C223.509 137.767 218.359 131.11 208.041 117.778C212.236 114.52 214.377 112.926 218.678 109.792C227.863 115.246 232.376 118.079 241.208 123.921C241.42 123.78 241.526 123.709 241.738 123.55C239.491 113.192 238.482 107.969 236.712 97.4162C241.19 94.5125 243.438 93.096 248.021 90.334C256.711 104.782 261.065 111.988 269.755 126.436H269.719ZM265.082 127.498C266.038 126.896 266.534 126.595 267.507 126.011C259.384 112.643 255.313 105.968 247.172 92.5826C243.721 94.6895 242.004 95.7696 238.606 97.9474C240.358 108.5 241.349 113.723 243.579 124.081C242.553 124.789 242.039 125.125 241.013 125.834C232.164 120.026 227.669 117.193 218.465 111.758C215.209 114.148 213.599 115.352 210.395 117.813C219.917 130.225 224.678 136.439 234.199 148.851C235.102 148.16 235.544 147.824 236.447 147.133C227.562 135.377 223.12 129.499 214.253 117.742C215.705 116.644 216.43 116.096 217.881 115.015C227.12 120.38 231.668 123.178 240.553 128.914C242.96 127.232 244.163 126.4 246.605 124.754C244.446 114.378 243.508 109.12 241.827 98.5493C243.367 97.5755 244.128 97.0975 245.685 96.1237C253.437 108.659 257.313 114.927 265.065 127.445L265.082 127.498Z" fill="black"/>
<path d="M290.975 114.591C282.055 119.212 273.524 117.264 268.622 108.713C263.525 99.8421 260.994 95.398 255.897 86.5275C257.631 85.536 258.499 85.0403 260.251 84.0488C265.312 93.114 267.826 97.6466 272.887 106.712C276.268 112.767 282.32 114.662 289.169 111.103C296.089 107.526 298.019 101.506 295.028 95.2387C290.568 85.8724 288.338 81.1805 283.86 71.8142C285.683 70.9467 286.586 70.5217 288.408 69.6719C292.691 78.9673 294.833 83.6061 299.116 92.8838C303.239 101.843 299.912 109.917 290.939 114.555L290.975 114.591Z" fill="#E54141"/>
<path d="M291.329 115.263C281.86 120.168 272.993 118.043 267.879 109.155C262.622 100.037 259.985 95.4687 254.729 86.3503C257.118 84.9693 258.304 84.2965 260.711 82.9509C265.896 92.2994 268.48 96.9559 273.666 106.304C276.958 112.236 282.586 113.705 288.851 110.448C295.116 107.207 297.204 101.754 294.267 95.628C289.647 85.9962 287.347 81.1803 282.727 71.5485C285.223 70.3445 286.462 69.7602 288.975 68.6094C293.364 78.1881 295.558 82.9686 299.948 92.5473C304.231 101.878 300.797 110.359 291.329 115.263V115.263ZM257.083 86.7398C262.003 95.3624 264.463 99.6649 269.383 108.287C274.002 116.379 282.037 118.362 290.621 113.918C299.204 109.474 302.266 101.736 298.355 93.2732C294.178 84.2611 292.09 79.7639 287.913 70.7695C286.762 71.3006 286.196 71.5662 285.064 72.1151C289.382 81.2157 291.541 85.7837 295.842 94.8844C299.098 101.772 296.62 108.128 289.541 111.793C282.462 115.458 275.86 113.794 272.144 107.154C267.224 98.3724 264.746 93.9637 259.826 85.1818C258.729 85.8014 258.18 86.1024 257.1 86.7221L257.083 86.7398Z" fill="black"/>
<path d="M310.708 104.214C310.053 102.745 309.735 102.019 309.08 100.549C315.681 97.6103 319.026 96.2293 325.787 93.6089C333.468 90.6344 335.362 85.6237 333.875 81.3744C332.459 77.3375 328.601 74.3807 319.699 77.8333C317.54 78.6654 316.478 79.0903 314.336 79.9579C307.505 82.72 300.956 81.339 298.62 76.0804C296.213 70.6271 299.771 64.5718 307.328 61.5088C314.92 58.4457 318.761 57.0116 326.53 54.3203C327.061 55.843 327.309 56.5866 327.84 58.1093C320.053 60.8182 316.194 62.2524 308.584 65.3332C303.399 67.4401 302.018 70.9989 303.328 74.0443C304.549 76.8772 307.929 78.2405 312.973 76.1866C315.079 75.3368 316.141 74.9118 318.283 74.0797C329.716 69.6533 336.459 73.5308 338.547 79.6923C340.689 86.0663 337.875 93.2017 326.99 97.4333C320.424 99.9829 317.168 101.346 310.743 104.197L310.708 104.214Z" fill="#E54141"/>
<path d="M327.22 98.1595C320.354 100.833 316.956 102.249 310.248 105.242C309.345 103.223 308.903 102.214 308 100.196C314.92 97.0972 318.424 95.6453 325.521 92.901C332.972 90.015 334.335 85.2699 333.043 81.6757C331.379 77.0014 326.937 75.8505 319.964 78.5595C317.805 79.3916 316.743 79.8166 314.602 80.6841C307.257 83.6587 300.231 82.0121 297.771 76.4879C295.187 70.6805 298.921 64.1118 307.027 60.854C314.973 57.6493 319.008 56.1443 327.15 53.3291C327.875 55.4184 328.229 56.463 328.937 58.5522C320.796 61.3497 316.779 62.8547 308.832 66.0771C304.585 67.7945 302.832 70.6982 304.124 73.7259C305.31 76.5233 308.567 77.1785 312.637 75.5318C314.761 74.682 315.823 74.257 317.947 73.4249C330.53 68.5382 337.326 73.5311 339.326 79.4625C341.397 85.6417 339.167 93.5384 327.203 98.1772L327.22 98.1595ZM311.168 103.17C317.292 100.461 320.407 99.1687 326.672 96.7431C335.875 93.1665 340.087 87.0935 337.662 79.9936C335.362 73.2124 328.105 71.0877 318.513 74.8059C316.389 75.6381 315.327 76.0453 313.221 76.8952C307.115 79.3562 303.629 77.143 302.461 74.3987C300.833 70.6274 303.098 66.7322 308.283 64.6252C315.557 61.6861 319.256 60.2874 326.689 57.6847C326.353 56.7463 326.194 56.2682 325.875 55.3298C318.478 57.9148 314.832 59.2959 307.593 62.1996C300.443 65.0856 297.222 70.6097 299.452 75.6912C301.576 80.5071 307.522 81.8704 314.035 79.2323C316.177 78.3647 317.256 77.9398 319.416 77.1076C329.521 73.1947 333.344 77.1785 334.707 81.056C336.14 85.1636 334.671 90.9534 326.07 94.282C319.646 96.7785 316.46 98.0887 310.177 100.868C310.584 101.789 310.779 102.232 311.186 103.152L311.168 103.17Z" fill="black"/>
<path d="M376.297 82.1362C365.077 84.7744 359.555 86.3147 348.671 89.785C343.733 74.2927 341.273 66.5554 336.335 51.063C347.98 47.3449 353.909 45.6982 365.908 42.8477C366.262 44.3172 366.439 45.0608 366.793 46.5304C356.882 48.8852 351.98 50.2132 342.299 53.17C343.821 58.1452 344.582 60.6417 346.087 65.617C355.06 62.8726 359.59 61.6332 368.776 59.42C369.13 60.8896 369.307 61.6332 369.66 63.1028C360.564 65.2983 356.068 66.5199 347.184 69.2289C349.078 75.4435 350.033 78.5597 351.927 84.7743C361.201 81.9415 365.908 80.6667 375.412 78.4358C375.766 79.9053 375.943 80.649 376.28 82.1185L376.297 82.1362Z" fill="#E54141"/>
<path d="M377.306 82.6853C365.431 85.4473 359.573 87.0762 348.086 90.759C342.936 74.7001 340.352 66.6795 335.202 50.6206C347.591 46.6368 353.874 44.884 366.652 41.874C367.147 43.9456 367.377 44.9725 367.873 47.044C357.98 49.3812 353.077 50.6914 343.414 53.6128C344.742 58.0215 345.414 60.217 346.741 64.6079C355.732 61.8813 360.298 60.6596 369.501 58.4641C369.997 60.5357 370.245 61.5626 370.74 63.6164C361.661 65.7765 357.166 66.9982 348.281 69.6894C349.98 75.3375 350.847 78.1527 352.546 83.8007C361.856 80.9855 366.563 79.7284 376.103 77.4975C376.58 79.5691 376.828 80.596 377.306 82.6676V82.6853ZM349.255 88.8114C359.519 85.5713 364.723 84.1194 375.288 81.6052C375.076 80.72 374.97 80.2773 374.758 79.392C365.271 81.6406 360.581 82.9331 351.343 85.766C349.255 78.9671 348.21 75.5854 346.122 68.7864C355.006 66.0598 359.519 64.8027 368.616 62.5895C368.404 61.7042 368.298 61.2616 368.068 60.3763C358.918 62.6072 354.387 63.8466 345.449 66.6086C343.75 61.0668 342.883 58.2871 341.184 52.7275C350.865 49.753 355.767 48.4074 365.696 46.0171C365.484 45.1318 365.378 44.6892 365.165 43.8039C353.945 46.5129 348.405 48.0533 337.485 51.5058C342.193 66.4316 344.565 73.8856 349.272 88.8114H349.255Z" fill="black"/>
<path d="M399.446 78.2941C389.217 80.0293 381.518 75.6383 379.412 65.9888C377.235 55.9852 376.156 50.9922 373.979 41.0063C375.996 40.5637 377.005 40.3512 379.023 39.944C381.093 50.1069 382.138 55.2061 384.226 65.3691C385.624 72.168 390.934 75.78 398.792 74.452C406.703 73.1064 410.543 67.9541 409.605 61.0844C408.207 50.7975 407.499 45.6628 406.101 35.3759C408.172 35.0926 409.198 34.9687 411.269 34.7031C412.525 44.8484 413.145 49.9299 414.401 60.0751C415.605 69.8663 409.729 76.5413 399.446 78.2941V78.2941Z" fill="#E54141"/>
<path d="M399.57 79.038C388.721 80.8794 380.74 76.2051 378.545 66.1838C376.28 55.8969 375.147 50.7623 372.882 40.4754C375.642 39.8734 377.023 39.5724 379.802 39.0235C381.925 49.5052 382.969 54.7283 385.093 65.21C386.438 71.8673 391.465 74.9303 398.65 73.7264C405.835 72.5047 409.623 67.9367 408.685 61.2263C407.216 50.6384 406.49 45.3621 405.021 34.7742C407.853 34.3847 409.269 34.2076 412.118 33.8535C413.375 44.3175 414.012 49.5406 415.286 59.9869C416.525 70.1676 410.402 77.2144 399.553 79.0557L399.57 79.038ZM375.076 41.5377C377.164 51.2403 378.209 56.0917 380.297 65.7943C382.262 74.9126 389.482 79.1974 399.323 77.5331C409.163 75.8687 414.667 69.4239 413.499 60.1816C412.26 50.3374 411.64 45.4152 410.402 35.5532C409.11 35.7126 408.455 35.8011 407.163 35.9782C408.508 45.9641 409.163 50.9571 410.508 60.943C411.517 68.4855 407.039 73.8149 398.915 75.1782C390.81 76.5593 384.881 73.0004 383.341 65.5464C381.306 55.6844 380.279 50.7446 378.244 40.8649C376.988 41.1305 376.35 41.2544 375.094 41.5377H375.076Z" fill="black"/>
<path d="M425.303 74.0272C423.71 57.8621 422.896 49.7707 421.304 33.5878C426.188 33.1098 428.648 32.915 433.586 32.5786C438.718 42.0688 441.161 46.8493 445.78 56.4988C446.576 56.4634 446.983 56.4457 447.78 56.4279C451.638 46.4597 453.709 41.5022 458.151 31.6579C463.16 31.6048 465.673 31.6225 470.699 31.7287C470.363 47.9824 470.186 56.1092 469.849 72.3452C467.92 72.3098 466.947 72.2921 465.018 72.2744C465.124 57.5434 465.195 50.1779 465.301 35.4469C464.027 35.4469 463.39 35.4469 462.115 35.4469C457.567 45.2558 455.443 50.1956 451.461 60.1284C447.815 60.2169 446.01 60.2878 442.382 60.4825C437.657 50.8861 435.179 46.1233 429.94 36.6863C428.701 36.7748 428.064 36.8279 426.825 36.9342C428.082 51.612 428.719 58.9598 429.993 73.6377C428.1 73.7971 427.162 73.8856 425.286 74.0627L425.303 74.0272Z" fill="#E54141"/>
<path d="M470.734 73.1063C468.08 73.0531 466.752 73.0177 464.115 73.0177C464.186 58.2867 464.239 50.9212 464.31 36.1902C463.708 36.1902 463.407 36.1902 462.823 36.1902C458.275 45.9991 456.133 50.9389 452.151 60.854C447.992 60.9603 445.939 61.0311 441.798 61.2435C437.073 51.6649 434.577 46.9021 429.338 37.465C428.754 37.5181 428.454 37.5358 427.87 37.589C429.091 52.2668 429.71 59.6146 430.949 74.2925C428.365 74.505 427.073 74.6289 424.507 74.8768C422.808 58.1097 421.958 49.7172 420.259 32.9501C425.817 32.4012 428.613 32.1534 434.223 31.7815C439.338 41.2894 441.78 46.0699 446.399 55.7194C446.665 55.7194 446.807 55.7194 447.072 55.7017C450.93 45.7335 453.001 40.776 457.408 30.914C463.089 30.8609 465.956 30.8786 471.69 31.0025C471.301 47.8582 471.106 56.286 470.717 73.124L470.734 73.1063ZM465.92 71.5128C467.142 71.5128 467.743 71.5305 468.965 71.5659C469.248 55.9319 469.389 48.106 469.69 32.4544C465.354 32.3658 463.177 32.3658 458.859 32.4012C454.417 42.2455 452.346 47.2031 448.47 57.1536C447.143 57.2067 446.488 57.2244 445.178 57.2775C440.541 47.6457 438.099 42.8652 432.967 33.3927C428.719 33.6937 426.595 33.8708 422.365 34.2603C423.87 49.8412 424.613 57.6316 426.117 73.1948C427.303 73.0885 427.887 73.0354 429.073 72.9292C427.781 58.2513 427.126 50.9212 425.834 36.2256C427.746 36.0663 428.684 35.9778 430.595 35.8361C435.816 45.2909 438.294 50.0537 443.019 59.65C446.134 59.5084 447.691 59.4376 450.806 59.3491C454.771 49.4163 456.894 44.4764 461.425 34.6498C463.372 34.6498 464.345 34.6498 466.292 34.6675C466.133 49.3985 466.062 56.764 465.92 71.495V71.5128Z" fill="black"/>
</svg>
