<svg width="685" height="823" viewBox="0 0 685 823" fill="none" xmlns="http://www.w3.org/2000/svg">
<rect width="685" height="823" rx="6" fill="#FFFCFC"/>
<g clip-path="url(#clip0_1275_351)">
<path d="M632.455 444.361C631.862 447.546 630.885 450.731 629.459 453.788C620.661 472.5 598.547 480.695 580.071 472.052C576.401 470.323 573.132 468.082 570.36 465.425C569.639 464.753 569.078 463.92 568.565 463.072C568.261 462.512 567.925 461.904 567.588 461.343C566.05 458.766 564.511 456.221 562.909 453.708C562.268 452.7 561.643 451.692 560.954 450.683C552.637 437.99 543.151 425.938 532.591 414.781C530.123 412.156 527.527 409.579 524.915 407.034V283.578C524.915 278.264 522.928 274.295 518.922 271.75C514.948 269.173 509.435 267.86 502.464 267.86C494.789 267.86 488.747 269.173 484.357 271.75C479.934 274.295 476.713 278.6 474.726 284.587L450.257 357.015C446.363 355.334 442.469 353.718 438.527 352.229C429.825 348.9 420.996 346.131 412.15 343.81L391.094 283.578C389.444 278.6 386.639 274.743 382.746 271.974C378.852 269.237 373.227 267.86 365.92 267.86C358.613 267.86 353.068 269.205 348.902 271.862C344.735 274.519 342.684 278.936 342.684 285.067V335.454C339.992 335.566 337.396 335.711 334.96 335.935C319.032 336.799 303.264 339.152 287.816 342.897L263.267 279.08C261.28 274.103 258.508 270.805 254.918 269.237C251.361 267.668 247.467 266.884 243.3 266.884C239.134 266.884 235.208 267.748 231.458 269.509C227.709 271.237 224.936 274.519 223.11 279.353L176.158 401.192C159.3 416.094 144.157 433.38 131.257 452.812C127.7 457.758 124.479 463.024 121.594 468.61C120.841 470.035 120.136 471.491 119.415 472.996C107.941 497.437 105.105 523.64 109.56 548.193L76.4694 556.356C43.9397 481.751 42.5936 393.461 80.1711 313.27C106.291 257.616 147.394 213.807 196.349 184.612C206.428 178.577 216.844 173.199 227.532 168.445C259.95 153.992 294.835 145.493 330.393 143.588C340.922 117.53 338.518 89.2306 325.939 66.2937C325.458 65.3974 324.929 64.501 324.4 63.6047C321.548 57.6824 321.244 50.5436 324.288 44.0611C328.15 35.8339 336.274 31 344.751 31H344.784C347.187 31 349.623 31.4162 351.978 32.2325C359.879 33.8491 367.715 36.4261 375.326 39.9795C420.291 61.0117 443.334 109.975 434.008 157.145C445.097 160.778 456.122 165.084 466.954 170.174C571.29 218.945 632.359 322.858 632.663 432.004C632.663 432.372 632.696 432.788 632.744 433.172C633.192 436.838 633.112 440.615 632.487 444.361H632.455Z" fill="#61B2CB"/>
<path d="M471.057 753.041C470.015 752.881 468.957 752.801 467.9 752.833C459.15 753.121 411.381 761.396 340.537 704.51C330.81 697.579 301.886 716.851 301.646 716.995C280.814 729.48 260.014 727.383 223.959 714.498C221.026 713.458 218.174 712.305 215.386 711.057C215.177 710.945 214.985 710.849 214.761 710.769C214.552 710.657 214.36 710.56 214.136 710.48C180.885 695.211 157.441 666.207 148.003 632.578L115.842 643.83C119.623 650.649 123.646 657.34 127.956 663.838C127.956 663.662 127.956 663.502 127.94 663.31L128.036 663.47L129.302 665.359V665.391C129.302 665.551 129.302 665.727 129.302 665.903C129.318 665.919 129.334 665.967 129.366 665.983C148.964 694.954 173.818 720.452 203.223 740.876C203.415 741.004 203.608 741.148 203.8 741.276L204.377 741.693C224.311 755.394 246.313 766.758 270.125 775.274C337.124 799.235 407.263 796.674 469.294 772.985C483.524 767.559 486.152 755.522 471.024 753.073L471.057 753.041Z" fill="#61B2CB"/>
<path d="M255.255 353.061L264.276 380.096H220.081L224.375 367.355C207.197 376.718 190.996 388.035 176.126 401.176L168.402 421.232C167.232 423.889 166.655 426.562 166.655 429.203C166.655 433.364 168.146 436.806 171.142 439.559C174.139 442.296 178.962 443.672 185.628 443.672C188.785 443.672 191.75 442.92 194.49 441.431C197.23 439.943 199.265 437.446 200.611 433.957L209.841 409.771H275.494L285.477 433.46C288.313 440.103 293.874 443.432 302.206 443.432C308.039 443.432 312.318 441.944 315.074 438.95C317.814 435.957 319.192 432.388 319.192 428.226C319.192 425.729 318.696 423.232 317.702 420.751L287.784 342.913C280.814 344.61 273.907 346.547 267.097 348.803C263.107 350.132 259.165 351.556 255.239 353.077L255.255 353.061Z" fill="#2D899E"/>
<path d="M491.456 428.466C491.456 433.284 492.706 436.981 495.205 439.558C497.705 442.135 501.952 443.416 507.945 443.416C514.435 443.416 518.89 442.039 521.293 439.302C523.713 436.565 524.915 433.284 524.915 429.459V407.034C514.675 397.126 503.506 388.018 491.456 379.823V428.466V428.466Z" fill="#2D899E"/>
<path d="M455.945 359.608C454.054 358.728 452.148 357.879 450.241 357.047L433.767 405.786L412.118 343.842C410.484 343.41 408.833 342.977 407.199 342.577C399.78 340.224 389.796 338.352 379.156 337.119L413.288 427.73C414.955 432.052 417.278 435.413 420.275 437.83C423.271 440.247 427.758 441.448 433.751 441.448C437.918 441.448 441.619 440.567 444.856 438.823C448.093 437.078 450.465 434.053 451.971 429.715L473.957 368.956C469.694 366.539 465.368 364.218 460.913 362.025C459.246 361.192 457.58 360.392 455.897 359.608H455.945Z" fill="#2D899E"/>
<path d="M342.652 335.487V428.723C342.652 433.877 343.854 437.622 346.274 439.943C348.693 442.264 352.972 443.433 359.125 443.433C365.615 443.433 370.07 442.056 372.474 439.319C374.894 436.582 376.095 433.301 376.095 429.475V336.783C364.718 335.599 352.812 335.118 342.636 335.487H342.652Z" fill="#2D899E"/>
<path d="M96.2596 600.997C96.2596 603.27 95.8911 605.271 95.154 607C94.4168 608.728 93.3592 610.185 92.0132 611.354C90.6671 612.522 89.0166 613.418 87.1097 614.027C85.2027 614.635 83.0875 614.955 80.764 614.955C75.8124 614.955 72.0787 613.77 69.5468 611.386C67.0149 609.001 65.749 605.543 65.749 600.997V579.133C65.749 578.045 66.1016 577.276 66.8066 576.812C67.5117 576.348 68.4411 576.108 69.5949 576.108C70.7487 576.108 71.614 576.348 72.303 576.812C72.9921 577.276 73.3286 578.061 73.3286 579.133V599.589C73.3286 602.694 73.9856 604.919 75.2996 606.264C76.6136 607.624 78.5205 608.296 81.0204 608.296C83.5202 608.296 85.4111 607.624 86.709 606.264C88.007 604.919 88.664 602.678 88.664 599.589V579.181C88.664 578.061 89.0166 577.276 89.7217 576.796C90.4267 576.332 91.3562 576.092 92.5099 576.092C93.6637 576.092 94.529 576.332 95.2181 576.796C95.9071 577.26 96.2436 578.061 96.2436 579.181V600.982L96.2596 600.997Z" fill="#2D899E"/>
<path d="M108.294 576.092C109.047 576.092 109.768 576.252 110.457 576.572C111.146 576.892 111.851 577.548 112.573 578.525L126.274 599.685C126.53 600.085 126.818 600.581 127.171 601.174C127.523 601.766 127.796 602.262 128.004 602.662C127.924 602.006 127.876 601.206 127.812 600.261C127.764 599.301 127.732 598.405 127.732 597.588V579.245C127.732 578.093 128.068 577.276 128.725 576.812C129.398 576.348 130.312 576.108 131.465 576.108C132.619 576.108 133.533 576.348 134.206 576.812C134.879 577.276 135.199 578.093 135.199 579.245V610.953C135.199 611.354 135.167 611.754 135.087 612.17C135.007 612.586 134.863 612.954 134.622 613.274C134.382 613.594 134.029 613.867 133.533 614.091C133.052 614.299 132.379 614.411 131.562 614.411C130.664 614.411 129.895 614.235 129.254 613.866C128.613 613.514 128.036 612.922 127.491 612.138L113.887 592.434C113.598 592.002 113.246 591.458 112.829 590.786C112.412 590.113 112.044 589.473 111.723 588.865C111.787 589.473 111.835 590.241 111.851 591.17C111.867 592.082 111.884 592.802 111.884 593.298V611.209C111.884 612.042 111.627 612.778 111.13 613.434C110.618 614.091 109.624 614.411 108.15 614.411C105.586 614.411 104.304 613.354 104.304 611.225V579.629C104.304 578.397 104.689 577.516 105.442 576.956C106.195 576.396 107.14 576.124 108.262 576.124L108.294 576.092Z" fill="#2D899E"/>
<path d="M151.144 611.226C151.144 612.058 150.887 612.794 150.39 613.451C149.878 614.107 148.884 614.427 147.41 614.427C144.846 614.427 143.564 613.371 143.564 611.242V579.149C143.564 578.061 143.916 577.292 144.622 576.828C145.327 576.364 146.256 576.124 147.41 576.124C148.564 576.124 149.429 576.364 150.118 576.828C150.807 577.292 151.144 578.077 151.144 579.149V611.242V611.226Z" fill="#2D899E"/>
<path d="M156.608 581.406C156.384 580.862 156.271 580.43 156.223 580.11C156.191 579.79 156.175 579.502 156.175 579.246C156.175 578.301 156.528 577.549 157.265 576.973C157.986 576.397 159.012 576.108 160.358 576.108C161.367 576.108 162.168 576.3 162.761 576.701C163.354 577.101 163.787 577.645 164.027 578.317L173.081 604.567L182.183 578.493C182.471 577.661 182.872 577.053 183.401 576.685C183.93 576.3 184.651 576.108 185.596 576.108C186.862 576.108 187.872 576.413 188.657 577.005C189.426 577.597 189.827 578.333 189.827 579.198C189.827 579.486 189.795 579.822 189.747 580.19C189.698 580.574 189.57 580.958 189.394 581.358L177.744 611.722C177.344 612.699 176.751 613.387 175.933 613.803C175.116 614.219 174.155 614.427 173.033 614.427C171.623 614.427 170.517 614.155 169.732 613.611C168.931 613.067 168.354 612.363 168.001 611.498L156.624 581.406H156.608Z" fill="#2D899E"/>
<path d="M197.839 614.027C195.852 614.027 194.858 613.067 194.858 611.162V579.182C194.858 578.381 195.115 577.741 195.644 577.229C196.172 576.717 196.893 576.477 197.839 576.477H217.934C218.943 576.477 219.696 576.765 220.209 577.341C220.722 577.917 220.962 578.717 220.962 579.726C220.962 580.67 220.738 581.438 220.305 582.047C219.873 582.655 219.135 582.975 218.078 582.975H202.262V591.794H216.62C217.565 591.794 218.27 592.099 218.767 592.707C219.248 593.315 219.504 594.099 219.504 595.028C219.504 595.956 219.296 596.74 218.847 597.349C218.414 597.957 217.677 598.277 216.62 598.277H202.262V607.529H218.414C219.248 607.529 219.873 607.833 220.305 608.425C220.738 609.017 220.962 609.802 220.962 610.778C220.962 611.754 220.738 612.491 220.305 613.099C219.873 613.707 219.119 614.027 218.03 614.027H197.823H197.839Z" fill="#2D899E"/>
<path d="M241.506 600.021H234.519V611.338C234.519 612.17 234.279 612.89 233.782 613.499C233.301 614.107 232.324 614.411 230.881 614.411C228.317 614.411 227.036 613.355 227.036 611.226V579.197C227.036 578.365 227.308 577.709 227.853 577.229C228.398 576.748 229.087 576.492 229.904 576.492H241.009C245.784 576.492 249.245 577.469 251.409 579.437C253.572 581.406 254.662 584.303 254.662 588.129C254.662 589.025 254.566 589.953 254.389 590.914C254.213 591.874 253.909 592.803 253.476 593.731C253.043 594.643 252.466 595.524 251.745 596.324C251.024 597.14 250.127 597.828 249.037 598.405L255.271 609.657C255.415 609.945 255.527 610.217 255.623 610.489C255.719 610.762 255.751 611.034 255.751 611.322C255.751 612.218 255.431 612.97 254.806 613.547C254.181 614.123 253.204 614.411 251.906 614.411C251.008 614.411 250.271 614.219 249.71 613.851C249.149 613.467 248.669 612.922 248.268 612.202L241.49 600.021H241.506ZM246.922 588.177C246.922 587.424 246.81 586.704 246.601 586.048C246.377 585.376 246.025 584.799 245.512 584.319C244.999 583.839 244.342 583.439 243.509 583.151C242.675 582.863 241.634 582.719 240.368 582.719H234.519V593.811H240.368C241.634 593.811 242.675 593.667 243.509 593.379C244.342 593.091 244.999 592.69 245.512 592.194C246.025 591.698 246.377 591.09 246.601 590.402C246.81 589.713 246.922 588.977 246.922 588.177V588.177Z" fill="#2D899E"/>
<path d="M276.711 591.794C278.122 592.082 279.532 592.466 280.942 592.962C282.352 593.458 283.618 594.115 284.756 594.963C285.893 595.811 286.823 596.9 287.544 598.212C288.265 599.525 288.634 601.157 288.634 603.11C288.634 605.239 288.249 607.048 287.464 608.552C286.679 610.057 285.637 611.273 284.291 612.234C282.961 613.194 281.391 613.882 279.58 614.314C277.769 614.747 275.846 614.971 273.779 614.971C270.959 614.971 268.587 614.667 266.648 614.074C264.709 613.482 263.155 612.826 261.969 612.106C261.023 611.529 260.431 610.953 260.158 610.377C259.886 609.801 259.758 609.256 259.758 608.76C259.758 607.928 259.982 607.16 260.415 606.439C260.735 605.895 261.168 605.447 261.68 605.079C262.209 604.727 262.77 604.519 263.395 604.487C264.004 604.487 264.549 604.615 265.014 604.871C265.478 605.127 266.023 605.447 266.632 605.847C267.097 606.167 267.594 606.487 268.09 606.791C268.587 607.096 269.164 607.368 269.805 607.608C270.446 607.848 271.151 608.04 271.936 608.2C272.721 608.36 273.651 608.44 274.692 608.44C276.743 608.44 278.314 608.088 279.371 607.384C280.429 606.679 280.974 605.575 280.974 604.054C280.974 602.534 280.445 601.397 279.404 600.645C278.362 599.893 276.743 599.317 274.58 598.916L271.712 598.372C270.189 598.084 268.731 597.684 267.321 597.156C265.911 596.627 264.661 595.939 263.587 595.075C262.498 594.211 261.632 593.138 260.991 591.858C260.334 590.577 260.014 589.025 260.014 587.184C260.014 585.519 260.334 583.983 260.959 582.558C261.584 581.133 262.53 579.901 263.78 578.877C265.03 577.852 266.568 577.052 268.379 576.476C270.205 575.899 272.305 575.611 274.692 575.611C276.279 575.611 277.865 575.771 279.436 576.091C281.006 576.412 282.416 576.86 283.666 577.436C284.916 578.012 285.926 578.701 286.727 579.501C287.528 580.301 287.913 581.181 287.913 582.158C287.913 582.734 287.768 583.31 287.48 583.887C287.223 584.399 286.855 584.831 286.374 585.215C285.893 585.599 285.317 585.807 284.676 585.839C284.099 585.839 283.602 585.759 283.185 585.599C282.769 585.439 282.32 585.151 281.855 584.767C280.99 584.079 279.98 583.47 278.843 582.926C277.705 582.382 276.167 582.11 274.212 582.11C273.026 582.11 272.016 582.238 271.199 582.494C270.382 582.75 269.741 583.086 269.244 583.486C268.763 583.903 268.411 584.383 268.218 584.943C268.026 585.503 267.914 586.063 267.914 586.64C267.914 587.296 268.074 587.872 268.379 588.368C268.683 588.88 269.1 589.313 269.629 589.665C270.157 590.033 270.75 590.337 271.439 590.593C272.128 590.849 272.866 591.041 273.667 591.185L276.695 591.842L276.711 591.794Z" fill="#2D899E"/>
<path d="M302.559 611.226C302.559 612.058 302.303 612.794 301.806 613.451C301.293 614.107 300.299 614.427 298.825 614.427C296.261 614.427 294.979 613.371 294.979 611.242V579.149C294.979 578.061 295.332 577.292 296.037 576.828C296.742 576.364 297.671 576.124 298.825 576.124C299.979 576.124 300.844 576.364 301.533 576.828C302.222 577.292 302.559 578.077 302.559 579.149V611.242V611.226Z" fill="#2D899E"/>
<path d="M326.884 582.975V611.386C326.884 612.218 326.612 612.923 326.067 613.515C325.522 614.107 324.545 614.411 323.134 614.411C320.57 614.411 319.289 613.403 319.289 611.386V582.975H310.139C309.097 582.975 308.344 582.655 307.911 581.999C307.478 581.342 307.254 580.59 307.254 579.726C307.254 578.861 307.478 578.109 307.927 577.453C308.376 576.797 309.065 576.477 310.01 576.477H336.563C337.46 576.477 338.149 576.797 338.614 577.453C339.079 578.109 339.319 578.861 339.319 579.726C339.319 580.59 339.111 581.342 338.662 581.999C338.229 582.655 337.492 582.975 336.435 582.975H326.852H326.884Z" fill="#2D899E"/>
<path d="M347.043 614.027C345.056 614.027 344.062 613.066 344.062 611.162V579.181C344.062 578.381 344.319 577.741 344.848 577.228C345.376 576.716 346.097 576.476 347.043 576.476H367.138C368.147 576.476 368.9 576.764 369.413 577.34C369.926 577.917 370.166 578.717 370.166 579.725C370.166 580.67 369.942 581.438 369.509 582.046C369.077 582.654 368.339 582.975 367.282 582.975H351.466V591.794H365.824C366.769 591.794 367.474 592.098 367.971 592.706C368.452 593.315 368.708 594.099 368.708 595.027C368.708 595.956 368.5 596.74 368.051 597.348C367.618 597.956 366.881 598.277 365.824 598.277H351.466V607.528H367.618C368.452 607.528 369.077 607.832 369.509 608.425C369.942 609.017 370.166 609.801 370.166 610.777C370.166 611.754 369.942 612.49 369.509 613.098C369.077 613.707 368.323 614.027 367.234 614.027H347.027H347.043ZM356.529 565.704C357.138 565.24 357.731 564.84 358.292 564.535C358.853 564.231 359.382 564.071 359.895 564.071C360.407 564.071 360.872 564.183 361.305 564.391C361.737 564.599 362.122 564.888 362.442 565.224C362.763 565.56 363.019 565.944 363.196 566.36C363.372 566.776 363.468 567.193 363.468 567.625C363.468 568.137 363.308 568.585 362.987 569.001C362.667 569.417 362.234 569.769 361.689 570.058L356.113 573.083C355.744 573.259 355.376 573.419 354.975 573.547C354.574 573.675 354.174 573.739 353.789 573.739C353.068 573.739 352.459 573.483 351.946 572.987C351.434 572.475 351.193 571.866 351.193 571.146C351.193 570.314 351.642 569.561 352.539 568.873L356.545 565.688L356.529 565.704Z" fill="#2D899E"/>
<path d="M420.82 594.931C420.82 598.037 420.387 600.774 419.522 603.159C418.656 605.543 417.406 607.528 415.788 609.145C414.17 610.746 412.183 611.962 409.859 612.794C407.535 613.627 404.907 614.043 401.975 614.043H392.488C390.501 614.043 389.508 613.082 389.508 611.178V579.197C389.508 578.397 389.764 577.757 390.293 577.244C390.822 576.732 391.543 576.492 392.488 576.492H401.975C404.907 576.492 407.519 576.876 409.859 577.629C412.183 578.381 414.17 579.517 415.788 581.038C417.406 582.559 418.656 584.463 419.522 586.768C420.387 589.073 420.82 591.794 420.82 594.947V594.931ZM413.016 594.931C413.016 590.594 412.07 587.488 410.195 585.568C408.321 583.647 405.741 582.703 402.456 582.703H396.927V607.816H402.456C405.741 607.816 408.321 606.792 410.195 604.727C412.07 602.662 413.016 599.413 413.016 594.931V594.931Z" fill="#2D899E"/>
<path d="M430.675 614.027C428.688 614.027 427.694 613.067 427.694 611.162V579.182C427.694 578.381 427.951 577.741 428.479 577.229C429.008 576.717 429.729 576.477 430.675 576.477H450.769C451.779 576.477 452.532 576.765 453.045 577.341C453.558 577.917 453.798 578.717 453.798 579.726C453.798 580.67 453.574 581.438 453.141 582.047C452.708 582.655 451.971 582.975 450.914 582.975H435.098V591.794H449.455C450.401 591.794 451.106 592.099 451.603 592.707C452.083 593.315 452.34 594.099 452.34 595.028C452.34 595.956 452.132 596.74 451.683 597.349C451.25 597.957 450.513 598.277 449.455 598.277H435.098V607.529H451.25C452.083 607.529 452.708 607.833 453.141 608.425C453.574 609.017 453.798 609.802 453.798 610.778C453.798 611.754 453.574 612.491 453.141 613.099C452.708 613.707 451.955 614.027 450.866 614.027H430.659H430.675Z" fill="#2D899E"/>
<path d="M473.156 579.134C473.156 578.045 473.508 577.277 474.213 576.813C474.918 576.348 475.848 576.108 477.002 576.108C478.155 576.108 479.021 576.348 479.71 576.813C480.399 577.277 480.735 578.061 480.735 579.134V607.545H496.439C497.273 607.545 497.897 607.849 498.33 608.441C498.763 609.033 498.987 609.818 498.987 610.794C498.987 611.77 498.763 612.507 498.33 613.115C497.897 613.723 497.144 614.043 496.055 614.043H475.623C474.87 614.043 474.261 613.835 473.813 613.419C473.364 613.003 473.14 612.266 473.14 611.226V579.134H473.156Z" fill="#2D899E"/>
<path d="M511.566 611.226C511.566 612.058 511.31 612.794 510.813 613.451C510.301 614.107 509.307 614.427 507.833 614.427C505.269 614.427 503.987 613.371 503.987 611.242V579.149C503.987 578.061 504.339 577.292 505.044 576.828C505.75 576.364 506.679 576.124 507.833 576.124C508.986 576.124 509.852 576.364 510.541 576.828C511.23 577.292 511.566 578.077 511.566 579.149V611.242V611.226Z" fill="#2D899E"/>
<path d="M522.88 614.026C520.893 614.026 519.899 613.066 519.899 611.161V579.181C519.899 578.381 520.156 577.74 520.684 577.228C521.213 576.716 521.934 576.476 522.88 576.476H542.974C543.984 576.476 544.737 576.764 545.25 577.34C545.763 577.916 546.003 578.717 546.003 579.725C546.003 580.669 545.779 581.438 545.346 582.046C544.913 582.654 544.176 582.974 543.119 582.974H527.302V591.794H541.66C542.606 591.794 543.311 592.098 543.808 592.706C544.288 593.314 544.545 594.099 544.545 595.027C544.545 595.955 544.336 596.74 543.888 597.348C543.455 597.956 542.718 598.276 541.66 598.276H527.302V607.528H543.455C544.288 607.528 544.913 607.832 545.346 608.424C545.779 609.016 546.003 609.801 546.003 610.777C546.003 611.753 545.779 612.49 545.346 613.098C544.913 613.706 544.16 614.026 543.071 614.026H522.864H522.88ZM536.645 568.889C537.542 569.577 537.991 570.329 537.991 571.162C537.991 571.882 537.734 572.49 537.238 573.002C536.741 573.515 536.116 573.755 535.395 573.755C534.994 573.755 534.594 573.691 534.209 573.563C533.824 573.435 533.424 573.291 533.071 573.098L527.495 570.073C526.95 569.785 526.517 569.433 526.197 569.017C525.876 568.601 525.716 568.136 525.716 567.64C525.716 567.208 525.812 566.776 525.988 566.376C526.165 565.96 526.421 565.575 526.742 565.239C527.062 564.903 527.447 564.615 527.879 564.407C528.312 564.183 528.777 564.087 529.29 564.087C529.802 564.087 530.331 564.247 530.892 564.551C531.453 564.855 532.03 565.239 532.655 565.72L536.661 568.905L536.645 568.889Z" fill="#2D899E"/>
<path d="M568.71 581.998C566.787 581.998 565.168 582.367 563.806 583.103C562.444 583.839 561.355 584.831 560.521 586.08C559.688 587.328 559.079 588.753 558.71 590.386C558.326 592.002 558.134 593.683 558.134 595.412C558.134 599.605 558.967 602.838 560.649 605.159C562.332 607.48 564.864 608.617 568.261 608.617C569.703 608.617 570.953 608.425 572.027 608.024C573.084 607.624 574.094 607.016 575.039 606.184C575.873 605.383 576.546 604.535 577.075 603.607C577.603 602.678 577.988 601.542 578.244 600.165H571.578C570.248 600.165 569.351 599.845 568.902 599.189C568.453 598.533 568.229 597.861 568.229 597.14C568.229 594.947 569.351 593.843 571.594 593.843H581.882C582.859 593.843 583.661 594.115 584.286 594.675C584.911 595.236 585.231 596.084 585.231 597.252V611.914C585.231 612.234 585.199 612.57 585.151 612.89C585.103 613.211 584.959 613.515 584.75 613.787C584.526 614.059 584.205 614.267 583.741 614.443C583.292 614.603 582.667 614.683 581.866 614.683C581.065 614.683 580.52 614.603 580.071 614.443C579.638 614.283 579.302 614.059 579.062 613.787C578.821 613.515 578.677 613.227 578.597 612.922C578.517 612.618 578.485 612.298 578.485 611.978V610.249C578.196 610.618 577.892 610.954 577.555 611.274C577.235 611.594 576.93 611.866 576.642 612.09C575.488 613.034 574.19 613.739 572.764 614.219C571.338 614.699 569.527 614.955 567.316 614.955C564.527 614.955 562.076 614.507 559.944 613.627C557.813 612.746 556.018 611.466 554.56 609.785C553.102 608.105 551.996 606.072 551.259 603.671C550.522 601.27 550.153 598.549 550.153 595.524C550.153 593.075 550.49 590.642 551.163 588.241C551.836 585.84 552.91 583.711 554.416 581.822C555.906 579.95 557.829 578.429 560.185 577.277C562.524 576.124 565.393 575.548 568.742 575.548C571.45 575.548 573.822 575.916 575.841 576.636C577.86 577.357 579.767 578.541 581.529 580.206C582.106 580.814 582.587 581.454 582.972 582.126C583.356 582.799 583.532 583.487 583.532 584.207C583.532 585.184 583.196 586 582.507 586.672C581.818 587.344 580.952 587.681 579.911 587.681C579.078 587.681 578.437 587.457 577.956 587.024C577.491 586.592 576.882 586.048 576.161 585.408C575.584 584.863 575.055 584.383 574.559 583.967C574.078 583.551 573.549 583.199 573.02 582.911C572.476 582.623 571.867 582.399 571.178 582.238C570.488 582.078 569.655 581.998 568.694 581.998H568.71Z" fill="#2D899E"/>
<path d="M595.375 614.027C593.387 614.027 592.394 613.067 592.394 611.162V579.182C592.394 578.381 592.65 577.741 593.179 577.229C593.708 576.717 594.429 576.477 595.375 576.477H615.469C616.479 576.477 617.232 576.765 617.745 577.341C618.257 577.917 618.498 578.717 618.498 579.726C618.498 580.67 618.273 581.438 617.841 582.047C617.408 582.655 616.671 582.975 615.613 582.975H599.797V591.794H614.155C615.101 591.794 615.806 592.099 616.302 592.707C616.783 593.315 617.04 594.099 617.04 595.028C617.04 595.956 616.831 596.74 616.383 597.349C615.95 597.957 615.213 598.277 614.155 598.277H599.797V607.529H615.95C616.783 607.529 617.408 607.833 617.841 608.425C618.273 609.017 618.498 609.802 618.498 610.778C618.498 611.754 618.273 612.491 617.841 613.099C617.408 613.707 616.655 614.027 615.565 614.027H595.358H595.375Z" fill="#2D899E"/>
</g>
<defs>
<clipPath id="clip0_1275_351">
<rect width="581" height="761" fill="white" transform="translate(52 31)"/>
</clipPath>
</defs>
</svg>
