<svg width="817" height="795" viewBox="0 0 817 795" fill="none" xmlns="http://www.w3.org/2000/svg">
<rect width="817" height="795" rx="6" fill="#FFFCFC"/>
<path d="M791.246 440.565C791.246 546.244 739.96 639.959 660.93 698.123C661.01 697.946 661.058 697.77 661.138 697.593L660.978 697.722L658.957 699.181C659.005 699.053 659.07 698.908 659.102 698.78C659.519 697.689 659.92 696.615 660.321 695.525C660.962 693.825 661.555 692.125 662.149 690.409C662.662 688.95 663.159 687.458 663.64 685.983C664.907 682.15 666.11 678.27 667.184 674.373C667.393 673.651 667.585 672.93 667.794 672.192C667.97 671.567 668.147 670.941 668.307 670.284C668.451 669.754 668.596 669.209 668.724 668.664C669.013 667.622 669.269 666.579 669.526 665.537C669.782 664.495 670.039 663.452 670.279 662.394C670.536 661.352 670.777 660.293 671.001 659.235C671.242 658.176 671.466 657.118 671.691 656.06C672.348 652.981 672.942 649.886 673.503 646.759C673.888 644.562 674.257 642.365 674.593 640.152C674.754 639.045 674.93 637.923 675.074 636.832C675.251 635.597 675.427 634.331 675.572 633.096C675.716 631.957 675.86 630.819 675.973 629.68C677.207 618.952 677.849 608.031 677.849 596.966C677.849 589.461 677.544 582.005 676.967 574.644C676.71 567.813 675.94 561.125 674.706 554.599C665.003 489.732 633.378 432.05 587.609 389.298C568.268 371.225 546.394 355.814 522.579 343.675C511.93 323.181 493.729 307.273 471.646 299.64C466.658 305.878 462.681 312.934 459.939 320.599C445.233 317.071 430.078 314.698 414.57 313.591C407.674 313.094 400.714 312.821 393.69 312.821C391.637 312.821 389.601 312.853 387.532 312.901C353.614 313.623 321.155 320.294 291.166 331.904C275.369 338.03 260.262 345.519 245.974 354.227C244.835 354.9 243.744 355.606 242.622 356.311C239.847 358.043 237.089 359.855 234.363 361.684C233.304 362.405 232.246 363.127 231.204 363.881C225.687 365.965 219.609 366.879 213.274 366.35C193.212 364.634 177.207 348.085 176.101 327.976C175.86 323.453 176.341 319.124 177.464 315.002C179.164 311.057 180.928 307.161 182.772 303.296C234.138 195.437 344.12 120.9 471.549 120.9C484.764 120.9 497.786 121.702 510.599 123.274C549.906 128.053 587.016 139.967 620.597 157.687C655.253 175.985 686.156 200.472 711.799 229.674C720.267 239.295 728.157 249.446 735.406 260.03C770.639 311.394 791.246 373.566 791.246 440.549V440.565Z" fill="#3D76E8"/>
<path d="M657.482 701.185L658.38 698.539C658.701 697.705 659.006 696.903 659.31 696.102L659.615 695.268C660.24 693.584 660.85 691.884 661.443 690.184C661.956 688.725 662.453 687.25 662.935 685.774C664.282 681.717 665.436 677.933 666.479 674.196C666.687 673.474 666.88 672.753 667.088 672.031C667.264 671.406 667.441 670.78 667.601 670.139C667.762 669.594 667.89 669.065 668.018 668.519C668.307 667.477 668.564 666.451 668.804 665.424C669.061 664.35 669.317 663.308 669.558 662.249C669.814 661.207 670.055 660.148 670.279 659.106C670.52 658.048 670.745 656.989 670.969 655.931C671.611 652.9 672.22 649.773 672.781 646.662C673.166 644.481 673.535 642.284 673.872 640.087C674.032 638.981 674.209 637.874 674.353 636.768C674.529 635.533 674.706 634.282 674.85 633.047C674.994 631.909 675.139 630.77 675.251 629.648C676.486 618.903 677.127 607.935 677.127 597.014C677.127 589.685 676.839 582.181 676.261 574.756C676.005 568.053 675.251 561.35 674 554.791C664.602 492.009 633.763 433.461 587.128 389.891C567.707 371.754 545.897 356.439 522.274 344.38L522.066 344.268L521.954 344.059C511.337 323.629 493.6 308.202 471.95 300.569C467.123 306.711 463.322 313.543 460.692 320.903L460.468 321.545L459.81 321.384C445.008 317.84 429.789 315.483 414.554 314.392C407.514 313.879 400.506 313.623 393.738 313.623C391.685 313.623 389.649 313.655 387.596 313.703C354.48 314.408 322.149 320.791 291.486 332.658C275.915 338.687 260.76 346.176 246.407 354.916C245.268 355.589 244.177 356.295 243.055 357.001C240.489 358.604 237.795 360.352 234.812 362.357C233.769 363.078 232.711 363.8 231.669 364.538L231.492 364.634C225.671 366.831 219.529 367.681 213.226 367.135C192.763 365.387 176.485 348.582 175.363 328.055C175.122 323.597 175.587 319.155 176.742 314.857C178.442 310.864 180.238 306.92 182.098 303.023C207.774 249.109 247.93 203.486 298.238 171.061C349.893 137.786 409.823 120.194 471.549 120.194C484.668 120.194 497.834 120.996 510.68 122.568C549.393 127.266 586.486 138.876 620.934 157.061C655.638 175.391 686.397 199.67 712.36 229.224C720.828 238.862 728.798 249.093 736.031 259.661C772.643 313.029 792 375.602 792 440.613C792 492.41 780.02 541.85 756.398 587.553C733.85 631.155 700.99 669.626 661.379 698.78L659.198 700.383L659.438 699.806L657.498 701.217L657.482 701.185ZM523.172 343.145C546.827 355.253 568.685 370.599 588.154 388.784C635.03 432.579 666.046 491.432 675.475 554.534C676.726 561.141 677.496 567.924 677.753 574.66C678.33 582.1 678.635 589.637 678.635 597.014C678.635 607.983 678.009 619.016 676.758 629.808C676.646 630.947 676.502 632.101 676.358 633.24C676.213 634.474 676.037 635.741 675.86 636.992C675.716 638.099 675.54 639.221 675.379 640.328C675.042 642.541 674.69 644.754 674.289 646.951C673.727 650.094 673.118 653.221 672.477 656.268C672.252 657.326 672.027 658.4 671.771 659.459C671.546 660.517 671.306 661.576 671.049 662.634C670.809 663.676 670.552 664.735 670.295 665.777C670.039 666.852 669.782 667.894 669.494 668.92C669.365 669.449 669.221 670.011 669.061 670.54C668.9 671.181 668.724 671.823 668.547 672.448C668.355 673.17 668.163 673.891 667.938 674.629C666.896 678.365 665.725 682.182 664.378 686.255C663.897 687.747 663.4 689.222 662.87 690.697C662.277 692.413 661.668 694.129 661.042 695.813L660.737 696.647C660.673 696.807 660.625 696.967 660.561 697.128L662.886 695.428L662.678 695.941C742.767 635.918 790.509 540.679 790.509 440.613C790.509 375.907 771.248 313.639 734.812 260.511C727.612 250.007 719.689 239.808 711.254 230.219C685.418 200.808 654.804 176.642 620.26 158.393C585.989 140.288 549.072 128.742 510.535 124.059C497.738 122.488 484.636 121.686 471.582 121.686C349.22 121.686 236.127 193.111 183.494 303.648C181.633 307.529 179.853 311.474 178.201 315.339C177.111 319.396 176.662 323.677 176.902 327.959C177.993 347.748 193.677 363.944 213.386 365.628C219.416 366.141 225.318 365.339 230.899 363.239C231.925 362.517 232.952 361.811 233.994 361.106C236.993 359.085 239.703 357.337 242.269 355.718C243.392 355.012 244.498 354.306 245.637 353.617C260.054 344.829 275.289 337.308 290.941 331.23C321.764 319.3 354.287 312.885 387.58 312.179C389.633 312.131 391.685 312.099 393.754 312.099C400.554 312.099 407.594 312.356 414.682 312.869C429.773 313.959 444.848 316.269 459.522 319.749C462.264 312.324 466.161 305.412 471.133 299.206L471.469 298.789L471.966 298.966C494.146 306.631 512.331 322.314 523.221 343.145H523.172Z" fill="black"/>
<path d="M677.881 596.998C677.881 608.063 677.24 618.968 676.005 629.712C675.876 630.851 675.748 631.989 675.604 633.128C675.459 634.362 675.283 635.629 675.107 636.864C674.962 637.971 674.786 639.093 674.625 640.184C674.289 642.397 673.936 644.594 673.535 646.79C672.974 649.901 672.364 652.996 671.723 656.091C671.498 657.15 671.274 658.208 671.033 659.267C670.809 660.325 670.568 661.383 670.312 662.426C670.071 663.484 669.814 664.526 669.558 665.569C669.301 666.611 669.045 667.654 668.756 668.696C668.612 669.241 668.483 669.786 668.339 670.315C668.179 670.973 668.002 671.598 667.826 672.224C667.633 672.945 667.425 673.667 667.216 674.405C666.126 678.302 664.939 682.166 663.672 686.015C663.191 687.49 662.694 688.982 662.181 690.441C661.587 692.157 660.994 693.857 660.353 695.556C659.952 696.647 659.551 697.721 659.134 698.812C659.086 698.94 659.022 699.084 658.989 699.213V699.245H658.941V699.197C658.861 699.389 658.781 699.598 658.701 699.806C627.333 722.481 591.714 739.576 553.242 749.711V714.447C622.618 708.85 677.175 650.816 677.175 580C677.175 578.22 677.127 576.456 677.047 574.676C677.624 582.036 677.929 589.493 677.929 596.998H677.881Z" fill="#FFFF00"/>
<path d="M552.424 750.689V714.19L552.777 713.789L553.129 713.677C622.233 708.112 676.358 649.388 676.358 580C676.358 578.348 676.325 576.616 676.229 574.708L677.737 574.611C678.314 582.084 678.619 589.621 678.619 596.998C678.619 607.967 677.993 618.999 676.742 629.792C676.63 630.93 676.486 632.085 676.341 633.224C676.197 634.458 676.021 635.725 675.844 636.976C675.7 638.083 675.524 639.205 675.363 640.312C675.026 642.525 674.674 644.738 674.273 646.934C673.711 650.078 673.102 653.205 672.46 656.251C672.236 657.31 672.011 658.384 671.755 659.443C671.53 660.501 671.29 661.559 671.033 662.618C670.793 663.66 670.536 664.719 670.279 665.761C670.023 666.835 669.766 667.878 669.478 668.904C669.349 669.433 669.205 669.994 669.045 670.524C668.884 671.165 668.708 671.807 668.531 672.432C668.339 673.154 668.147 673.875 667.922 674.613C666.88 678.349 665.709 682.166 664.362 686.239C663.881 687.731 663.384 689.206 662.854 690.681C662.261 692.397 661.652 694.113 661.026 695.797L660.721 696.631C660.417 697.448 660.128 698.25 659.807 699.068L659.278 700.287L659.102 700.415C627.044 723.587 591.474 740.409 553.402 750.448L552.456 750.705L552.424 750.689ZM553.931 715.12V748.716C591.41 738.726 626.418 722.112 658.011 699.309L658.412 698.427C658.717 697.625 659.005 696.855 659.294 696.085L659.599 695.251C660.224 693.568 660.834 691.868 661.427 690.168C661.94 688.709 662.437 687.233 662.919 685.758C664.266 681.701 665.42 677.916 666.463 674.18C666.671 673.458 666.864 672.737 667.072 672.015C667.249 671.39 667.425 670.764 667.585 670.123C667.746 669.578 667.874 669.048 668.002 668.503C668.291 667.461 668.548 666.434 668.788 665.408C669.045 664.334 669.301 663.291 669.542 662.233C669.798 661.191 670.039 660.132 670.263 659.09C670.504 658.031 670.728 656.973 670.953 655.915C671.594 652.884 672.204 649.757 672.765 646.646C673.15 644.465 673.519 642.268 673.856 640.071C674.016 638.965 674.193 637.858 674.337 636.752C674.513 635.517 674.69 634.266 674.834 633.031C674.978 631.893 675.123 630.754 675.235 629.631C676.47 618.887 677.111 607.918 677.111 596.998C677.111 596.164 677.111 595.314 677.111 594.48C674.032 623.442 661.732 650.607 641.718 672.191C618.689 697.015 587.529 712.25 553.931 715.136V715.12Z" fill="black"/>
<path d="M658.925 699.228C658.861 699.389 658.797 699.581 658.733 699.742C658.701 699.742 658.669 699.79 658.637 699.806C658.717 699.613 658.797 699.405 658.877 699.196C658.877 699.196 658.888 699.196 658.909 699.196V699.26L658.925 699.228Z" fill="#3D76E8"/>
<path d="M657.322 701.281L658.364 698.443H658.572L660.353 696.486L660.016 697.833L660.256 697.705L659.342 700.271L657.322 701.281Z" fill="black"/>
<path d="M673.343 62.3361C673.343 70.1137 669.718 77.0413 664.073 81.5475C663.127 82.1889 662.181 82.8304 661.267 83.5039C637.933 100.326 622.281 127.154 620.597 157.703C587.032 139.967 549.922 128.068 510.599 123.29C523.381 72.4229 569.407 34.7539 624.221 34.7539C633.523 34.7539 642.552 35.8444 651.196 37.897C651.629 37.9932 652.078 38.0894 652.511 38.2017C653.537 38.4583 654.547 38.7148 655.558 39.0035C656.712 39.3242 657.835 39.661 658.973 39.9977L659.054 40.0298C667.489 43.9266 673.343 52.4578 673.343 62.3361Z" fill="#E54141"/>
<path d="M621.287 158.906L620.244 158.361C585.973 140.256 549.056 128.71 510.519 124.027L509.669 123.931L509.878 123.097C523.044 70.6427 570.064 34 624.221 34C633.41 34 642.552 35.0584 651.372 37.1591C651.805 37.2393 652.238 37.3516 652.687 37.4638C653.729 37.7204 654.74 37.977 655.766 38.2656C656.921 38.5863 658.059 38.9231 659.198 39.2599L659.342 39.324C668.307 43.4613 674.08 52.4897 674.08 62.3359C674.08 70.0654 670.6 77.2816 664.538 82.1406C663.544 82.8141 662.614 83.4556 661.7 84.113C637.676 101.432 622.97 128.261 621.335 157.735L621.271 158.906H621.287ZM511.546 122.632C549.569 127.347 586.021 138.732 619.907 156.484C621.88 127.01 636.746 100.245 660.818 82.8943C661.748 82.2208 662.694 81.5633 663.656 80.9218C669.317 76.3996 672.589 69.6163 672.589 62.3359C672.589 53.083 667.152 44.5999 658.749 40.7192C657.642 40.3824 656.52 40.0456 655.381 39.741C654.371 39.4523 653.36 39.1957 652.35 38.9391C651.933 38.8429 651.5 38.7307 651.067 38.6505C642.327 36.5658 633.314 35.5234 624.237 35.5234C571.059 35.5234 524.856 71.3001 511.562 122.648L511.546 122.632Z" fill="black"/>
<path d="M532.779 385.401C532.779 397.107 530.533 408.317 526.492 418.596C487.169 417.265 455.689 385 455.689 345.359C455.689 336.683 457.196 328.376 459.971 320.647C462.729 312.981 466.69 305.926 471.678 299.688C493.761 307.321 511.979 323.213 522.611 343.723C529.074 356.215 532.763 370.391 532.763 385.417L532.779 385.401Z" fill="#E54141"/>
<path d="M527.005 419.365H526.476C486.368 417.986 454.951 385.481 454.951 345.342C454.951 336.779 456.411 328.376 459.265 320.374C462.023 312.693 466.001 305.573 471.1 299.19L471.437 298.773L471.934 298.95C494.194 306.647 512.428 322.411 523.301 343.338C530.1 356.456 533.548 370.599 533.548 385.385C533.548 396.883 531.415 408.14 527.214 418.852L527.021 419.349L527.005 419.365ZM471.95 300.569C467.123 306.711 463.322 313.543 460.692 320.903C457.886 328.745 456.459 336.972 456.459 345.359C456.459 384.503 486.961 416.222 525.995 417.826C530.004 407.435 532.041 396.53 532.041 385.417C532.041 370.872 528.657 356.969 521.97 344.06C511.353 323.63 493.616 308.203 471.966 300.569H471.95Z" fill="black"/>
<path d="M414.602 313.622C411.651 345.053 386.056 369.893 354.303 371.673C353.341 371.721 352.571 370.855 352.732 369.909C356.725 346.721 369.538 326.547 387.58 312.933C389.633 312.885 391.669 312.853 393.738 312.853C400.746 312.853 407.722 313.125 414.618 313.622H414.602Z" fill="#FFFF00"/>
<path d="M354.207 372.443C353.566 372.443 352.956 372.171 352.523 371.69C352.058 371.16 351.85 370.471 351.978 369.797C355.923 346.866 368.4 326.468 387.115 312.34L387.307 312.195H387.548C389.601 312.147 391.653 312.115 393.722 312.115C400.522 312.115 407.562 312.372 414.65 312.885L415.42 312.933L415.34 313.703C412.357 345.406 386.137 370.647 354.335 372.443C354.287 372.443 354.255 372.443 354.207 372.443V372.443ZM387.82 313.687C369.522 327.558 357.318 347.571 353.453 370.038C353.421 370.262 353.485 370.487 353.646 370.663C353.806 370.84 354.015 370.92 354.239 370.92C385.046 369.188 410.497 344.925 413.752 314.328C406.969 313.863 400.233 313.623 393.706 313.623C391.734 313.623 389.777 313.655 387.82 313.687V313.687Z" fill="black"/>
<path d="M658.989 39.9982C657.851 39.6454 656.728 39.3247 655.574 39.004C654.563 38.7153 653.553 38.4587 652.527 38.2021C652.094 38.0899 651.645 37.9937 651.212 37.8975C653.97 38.1701 656.584 38.8757 658.989 39.9982V39.9982Z" fill="#E54141"/>
<path d="M658.765 40.7196C657.642 40.3668 656.504 40.0461 655.365 39.7254C654.355 39.4367 653.344 39.1801 652.334 38.9236C651.917 38.8274 651.484 38.7151 651.051 38.6349L651.276 37.1436C654.098 37.4162 656.792 38.1538 659.31 39.3084L658.765 40.7196Z" fill="black"/>
<path d="M182.788 303.312C180.944 307.176 179.18 311.073 177.48 315.018C178.634 310.8 180.447 306.856 182.788 303.312Z" fill="black"/>
<path d="M246.006 354.258C241.884 358.46 236.849 361.779 231.236 363.896C232.278 363.158 233.336 362.437 234.395 361.699C237.378 360.256 240.136 358.428 242.654 356.327C243.776 355.621 244.883 354.916 246.006 354.242V354.258Z" fill="black"/>
<path d="M242.654 356.343C240.152 358.444 237.378 360.256 234.395 361.715C237.121 359.887 239.863 358.091 242.654 356.343Z" fill="black"/>
<path d="M664.089 81.5479C663.191 82.2534 662.261 82.9109 661.283 83.5043C662.213 82.8468 663.143 82.1893 664.089 81.5479Z" fill="#E54141"/>
<path d="M661.652 84.1456L660.818 82.8787C661.748 82.2052 662.694 81.5477 663.656 80.9062L664.554 82.125C663.64 82.8627 662.662 83.5362 661.668 84.1295L661.652 84.1456Z" fill="black"/>
<path d="M553.178 714.447V749.711C527.117 756.59 499.774 760.247 471.565 760.247C382.095 760.247 301.237 723.492 243.215 664.286H436.91C437.102 664.511 437.311 664.783 437.503 665.024C462.232 695.444 499.951 714.896 542.24 714.896C545.672 714.896 549.072 714.768 552.44 714.511C552.696 714.479 552.937 714.447 553.194 714.431L553.178 714.447Z" fill="#3D76E8"/>
<path d="M471.565 761C384.741 761 303.45 726.843 242.686 664.815L242.317 664.43L242.766 663.532H437.278L438.096 664.559C463.707 696.086 501.667 714.158 542.24 714.158C545.496 714.158 548.912 714.03 552.392 713.79C552.632 713.758 552.889 713.725 553.162 713.709L553.963 713.661V749.967L553.675 750.32L553.386 750.464C526.845 757.456 499.325 761 471.582 761H471.565ZM245.011 665.024C305.358 725.961 385.752 759.493 471.565 759.493C498.973 759.493 526.187 756.013 552.424 749.149V715.281C548.896 715.538 545.48 715.666 542.224 715.666C501.202 715.666 462.809 697.385 436.91 665.505L436.541 665.024H245.011V665.024Z" fill="black"/>
<path d="M552.424 749.919V750.689C550.323 751.234 548.206 751.763 546.089 752.26C545.72 752.356 545.368 752.437 544.999 752.517C544.197 752.709 543.379 752.902 542.577 753.078C541.647 753.287 540.749 753.479 539.819 753.687C539.642 753.736 539.45 753.768 539.274 753.816C538.825 753.928 538.359 754.008 537.894 754.104C536.852 754.329 535.81 754.537 534.767 754.762C533.356 755.051 531.961 755.323 530.549 755.58C529.587 755.756 528.625 755.949 527.663 756.093C527.39 756.141 527.134 756.205 526.861 756.237C522.788 756.943 518.714 757.568 514.609 758.129C513.278 758.29 511.947 758.466 510.599 758.627C509.605 758.755 508.611 758.867 507.601 758.979C507.456 759.011 507.28 759.027 507.119 759.044C506.911 759.076 506.702 759.108 506.478 759.124C505.42 759.252 504.361 759.348 503.303 759.46C501.138 759.669 498.876 759.861 497.08 760.07C495.942 760.198 494.803 760.278 493.648 760.278H471.517C499.454 760.278 526.556 756.702 552.376 749.951L552.424 749.919Z" fill="black"/>
<path d="M553.178 749.711V750.513L552.616 750.641C552.616 750.641 552.488 750.673 552.424 750.689V749.919C552.68 749.855 552.921 749.791 553.178 749.711V749.711Z" fill="black"/>
<path d="M493.44 760.23C486.175 760.712 478.878 760.984 471.565 760.984V760.23H493.44Z" fill="black"/>
<path d="M471.565 760.231H449.579C371.463 754.987 298.928 721.84 243.408 665.537L242.894 665.008H243.953C301.91 723.78 382.48 760.231 471.565 760.231V760.231Z" fill="black"/>
<path d="M471.566 760.23V760.984C464.205 760.984 456.908 760.712 449.627 760.23H471.566Z" fill="black"/>
<path d="M243.953 665.023H242.878L242.141 664.27H243.231C243.472 664.526 243.712 664.783 243.953 665.023Z" fill="black"/>
<path d="M88.7953 420.36C88.0576 427.993 87.785 431.842 87.4322 439.587C92.3876 441.367 94.8573 442.217 99.8287 443.901C99.7485 445.954 99.7165 446.996 99.6684 449.049C83.5352 443.773 75.5167 440.87 59.608 434.568C59.9127 429.212 60.0891 426.534 60.5542 421.226C77.2006 417.345 85.5398 415.677 102.25 412.871C102.01 414.876 101.897 415.886 101.689 417.906C96.5412 418.837 93.9592 419.318 88.8113 420.36H88.7953ZM83.6956 438.208C84.0323 431.329 84.2889 427.913 84.9144 421.114C76.527 422.83 72.3414 423.76 63.9701 425.748C63.8258 427.672 63.7456 428.635 63.6173 430.575C71.6197 433.75 75.629 435.274 83.6795 438.208H83.6956Z" fill="black"/>
<path d="M107.623 383.749C110.108 384.246 111.343 384.503 113.829 385C113.46 386.796 113.284 387.71 112.947 389.506C110.461 389.041 109.21 388.801 106.725 388.32C103.453 400.716 93.6064 408.942 82.4928 407.515C70.6735 405.992 62.8956 393.227 65.8624 377.96C68.8453 362.646 80.7608 354.066 92.2914 357.113C103.084 359.968 109.178 371.017 107.623 383.717V383.749ZM102.892 387.614C97.343 386.556 94.5526 386.043 89.0038 384.984C89.3726 383.06 89.549 382.098 89.9339 380.173C95.4827 381.296 98.2411 381.857 103.79 382.98C104.896 372.797 99.8929 364.297 91.0084 362.084C81.3862 359.679 72.0688 366.462 69.6792 378.746C67.2897 391.03 73.3677 401.004 83.1663 402.399C92.2272 403.682 100.085 397.492 102.876 387.614H102.892Z" fill="black"/>
<path d="M119.442 339.73C116.202 349.432 108.697 354.162 99.2193 351.468C89.3887 348.678 84.4653 347.267 74.6347 344.477C75.196 342.504 75.4846 341.51 76.062 339.553C86.0049 342.52 90.9763 343.995 100.919 346.962C107.559 348.935 113.252 345.968 115.737 338.511C118.239 331.006 115.449 325.297 108.938 322.892C99.2033 319.284 94.3441 317.488 84.6097 313.88C85.3153 311.971 85.6681 311.025 86.4058 309.133C95.9478 312.805 100.727 314.633 110.269 318.305C119.474 321.849 122.681 329.996 119.426 339.746L119.442 339.73Z" fill="black"/>
<path d="M124.83 290.836C121.671 297.427 120.148 300.778 117.293 307.546C121.35 310.849 123.403 312.469 127.509 315.692C126.771 317.488 126.402 318.402 125.68 320.214C112.273 309.919 105.698 304.563 92.8206 293.402C94.8412 288.719 95.8997 286.41 98.0486 281.808C114.92 284.101 123.291 285.496 139.857 288.767C138.975 290.499 138.542 291.365 137.692 293.097C132.56 292.151 129.994 291.686 124.83 290.836V290.836ZM114.246 305.012C116.812 298.998 118.143 296.032 120.949 290.162C112.53 288.799 108.296 288.174 99.8127 287.035C99.0429 288.703 98.6741 289.553 97.9203 291.237C104.383 296.85 107.655 299.608 114.246 305.012V305.012Z" fill="black"/>
<path d="M131.005 270.774C136.714 273.885 139.552 275.457 145.261 278.568C144.395 280.155 143.962 280.957 143.112 282.561C128.759 274.943 121.591 271.127 107.238 263.51C110.557 257.256 112.289 254.177 115.866 248.099C121.414 238.654 129.257 236.168 135.142 239.953C139.552 242.791 141.284 247.858 139.713 253.84C147.475 254.369 151.323 254.706 158.989 255.54C157.915 257.191 157.385 258.025 156.343 259.709C149.062 259.02 145.39 258.747 138.013 258.33C137.676 259.004 137.339 259.677 136.922 260.383C134.501 264.504 133.314 266.589 131.021 270.79L131.005 270.774ZM112.947 260.912C118.833 264.135 121.783 265.739 127.685 268.962C130.01 264.712 131.197 262.612 133.651 258.458C137.836 251.338 136.233 246.592 132.432 244.218C128.808 241.941 123.579 242.486 119.314 249.735C116.7 254.161 115.433 256.406 112.963 260.912H112.947Z" fill="black"/>
<path d="M163.255 249.045C149.784 239.968 143.048 235.43 129.577 226.354C130.7 224.702 131.261 223.868 132.4 222.232C145.759 231.469 152.446 236.088 165.805 245.325C164.778 246.8 164.265 247.554 163.255 249.045Z" fill="black"/>
<path d="M181.794 225.2C175.555 232.993 166.975 234.693 159.021 228.888C150.762 222.874 146.625 219.86 138.366 213.83C139.536 212.21 140.13 211.409 141.332 209.821C149.64 216.027 153.793 219.138 162.116 225.344C167.665 229.497 173.968 228.76 178.763 222.762C183.59 216.717 182.868 210.478 177.592 205.972C169.702 199.237 165.741 195.886 157.85 189.15C159.149 187.627 159.791 186.873 161.106 185.382C168.804 192.101 172.653 195.469 180.366 202.188C187.791 208.666 188.08 217.342 181.81 225.184L181.794 225.2Z" fill="black"/>
<path d="M197.478 205.635C185.498 194.666 179.5 189.182 167.521 178.229C170.68 174.781 172.284 173.082 175.523 169.73C185.514 173.515 190.438 175.535 200.14 179.753C200.669 179.224 200.942 178.967 201.487 178.438C197.494 168.64 195.601 163.668 192.041 153.598C195.473 150.423 197.205 148.867 200.733 145.788C211.414 158.024 216.754 164.15 227.435 176.385C226.088 177.572 225.414 178.165 224.067 179.352C214.252 168.383 209.345 162.883 199.514 151.914C198.632 152.7 198.199 153.101 197.317 153.886C200.781 163.989 202.626 168.992 206.523 178.839C204.053 181.196 202.834 182.383 200.429 184.804C190.678 180.683 185.723 178.71 175.7 175.022C174.882 175.872 174.481 176.305 173.663 177.171C184.408 187.242 189.78 192.277 200.525 202.348C199.29 203.663 198.681 204.32 197.478 205.635V205.635Z" fill="black"/>
<path d="M245.011 161.937C235.1 149.076 230.129 142.645 220.218 129.784C223.923 126.93 225.783 125.518 229.568 122.776C238.757 128.229 243.263 131.051 252.1 136.872C252.725 136.439 253.03 136.231 253.655 135.814C251.41 125.47 250.416 120.243 248.652 109.691C252.581 107.141 254.569 105.906 258.579 103.469C266.998 117.372 271.2 124.316 279.619 138.203C278.08 139.133 277.31 139.614 275.786 140.56C268.008 128.052 264.111 121.798 256.333 109.29C255.323 109.915 254.826 110.236 253.816 110.877C255.467 121.445 256.414 126.689 258.563 137.065C255.724 138.973 254.313 139.935 251.506 141.907C242.606 136.167 238.067 133.392 228.83 128.036C227.884 128.742 227.403 129.095 226.457 129.816C235.309 141.587 239.735 147.472 248.588 159.243C247.144 160.317 246.439 160.862 245.011 161.969V161.937Z" fill="#E54141"/>
<path d="M280.726 138.412C278.609 139.695 277.566 140.336 275.466 141.651C267.656 129.159 263.759 122.921 255.949 110.429C255.467 110.733 255.243 110.878 254.762 111.166C256.398 121.734 257.344 126.978 259.477 137.353C256.237 139.518 254.617 140.625 251.442 142.87C242.542 137.145 238.003 134.371 228.75 129.015C228.301 129.351 228.076 129.512 227.627 129.849C236.448 141.635 240.874 147.536 249.694 159.323C247.722 160.798 246.743 161.552 244.803 163.059C234.491 149.733 229.327 143.078 219.015 129.752C223.217 126.497 225.35 124.893 229.648 121.766C238.837 127.219 243.343 130.057 252.18 135.878C252.388 135.734 252.501 135.654 252.709 135.509C250.464 125.15 249.454 119.922 247.673 109.386C252.148 106.484 254.409 105.073 258.98 102.314C267.672 116.747 272.018 123.963 280.71 138.396L280.726 138.412ZM276.091 139.47C277.053 138.877 277.534 138.572 278.513 137.979C270.382 124.621 266.324 117.934 258.194 104.576C254.746 106.676 253.03 107.751 249.63 109.948C251.378 120.483 252.372 125.711 254.601 136.071C253.575 136.776 253.062 137.129 252.036 137.835C243.199 132.029 238.677 129.207 229.488 123.771C226.232 126.144 224.612 127.363 221.421 129.816C230.947 142.228 235.71 148.418 245.22 160.83C246.118 160.141 246.567 159.804 247.465 159.115C238.581 147.36 234.154 141.491 225.27 129.736C226.713 128.646 227.451 128.101 228.91 127.026C238.148 132.398 242.686 135.173 251.587 140.93C253.992 139.246 255.211 138.412 257.648 136.776C255.5 126.401 254.537 121.157 252.885 110.589C254.425 109.611 255.195 109.13 256.734 108.168C264.48 120.692 268.361 126.946 276.107 139.47H276.091Z" fill="black"/>
<path d="M301.975 126.577C293.058 131.196 284.526 129.255 279.619 120.708C274.535 111.84 271.986 107.414 266.902 98.546C268.634 97.5517 269.5 97.0546 271.248 96.0764C276.299 105.137 278.833 109.675 283.885 118.72C287.269 124.765 293.315 126.657 300.178 123.113C307.09 119.537 309.015 113.508 306.032 107.254C301.574 97.8885 299.329 93.2059 294.87 83.8408C296.682 82.9749 297.597 82.5419 299.425 81.708C303.707 90.993 305.856 95.6274 310.137 104.912C314.275 113.861 310.939 121.927 301.959 126.577H301.975Z" fill="#E54141"/>
<path d="M302.327 127.251C292.85 132.158 283.997 130.025 278.881 121.141C273.621 112.017 270.991 107.462 265.731 98.3538C268.121 96.9747 269.307 96.3011 271.713 94.9541C276.893 104.287 279.491 108.954 284.671 118.303C287.958 124.236 293.587 125.695 299.858 122.44C306.128 119.201 308.213 113.748 305.278 107.639C300.66 98.017 298.35 93.1901 293.732 83.5684C296.217 82.3657 297.468 81.7884 299.986 80.6338C304.38 90.2074 306.577 94.9862 310.971 104.56C315.253 113.877 311.821 122.36 302.343 127.267L302.327 127.251ZM268.089 98.7386C273.012 107.35 275.466 111.664 280.389 120.275C285.008 128.373 293.042 130.346 301.638 125.904C310.234 121.462 313.297 113.732 309.368 105.281C305.182 96.2851 303.097 91.7789 298.912 82.7826C297.773 83.3118 297.196 83.5844 296.057 84.1297C300.371 93.2382 302.52 97.7925 306.834 106.885C310.089 113.765 307.604 120.131 300.531 123.787C293.459 127.459 286.852 125.792 283.131 119.153C278.208 110.365 275.738 105.971 270.815 97.1831C269.724 97.7925 269.179 98.1132 268.089 98.7386V98.7386Z" fill="black"/>
<path d="M321.7 116.201L320.08 112.545C326.688 109.61 330.023 108.231 336.775 105.601C344.457 102.634 346.349 97.6149 344.857 93.3813C343.43 89.3402 339.581 86.3895 330.681 89.8533C328.532 90.6872 327.457 91.1202 325.308 91.9862C318.477 94.7444 311.918 93.3653 309.592 88.1214C307.187 82.6691 310.747 76.6075 318.3 73.5606C325.886 70.4977 329.735 69.0544 337.496 66.3604C338.026 67.8678 338.282 68.6375 338.812 70.1449C331.018 72.839 327.169 74.2983 319.551 77.3612C314.355 79.4619 312.992 83.0219 314.291 86.0688C315.51 88.9072 318.894 90.2543 323.929 88.2177C326.046 87.3677 327.105 86.9508 329.237 86.1169C340.656 81.6909 347.423 85.5717 349.508 91.7296C351.657 98.0959 348.835 105.232 337.946 109.45C331.37 111.999 328.131 113.346 321.7 116.201V116.201Z" fill="#E54141"/>
<path d="M338.218 110.156C331.338 112.818 327.955 114.245 321.235 117.243C320.337 115.223 319.888 114.213 318.99 112.208C325.902 109.113 329.414 107.654 336.502 104.912C343.959 102.025 345.307 97.2945 344.024 93.6864C342.372 89.0038 337.913 87.8652 330.937 90.5593C328.788 91.3932 327.714 91.8101 325.581 92.6761C318.22 95.6428 311.212 94.0071 308.758 88.4746C306.176 82.6855 309.913 76.1107 318.012 72.8393C325.966 69.6321 329.991 68.1247 338.138 65.3184C338.86 67.4031 339.212 68.4454 339.934 70.5301C331.787 73.3364 327.778 74.8278 319.824 78.0511C315.574 79.767 313.826 82.6695 315.125 85.6843C316.312 88.4906 319.551 89.1481 323.641 87.4964C325.757 86.6465 326.816 86.2135 328.949 85.3956C341.538 80.5207 348.337 85.5079 350.326 91.4413C352.395 97.6152 350.166 105.505 338.202 110.156H338.218ZM322.165 115.175C328.291 112.465 331.402 111.182 337.657 108.744C346.862 105.168 351.064 99.1066 348.658 92.0025C346.349 85.2353 339.1 83.0864 329.494 86.8068C327.377 87.6247 326.319 88.0416 324.202 88.9076C318.092 91.3771 314.612 89.1481 313.441 86.422C311.821 82.6374 314.083 78.7567 319.262 76.6559C326.543 73.7213 330.232 72.3262 337.673 69.7283C337.352 68.7822 337.176 68.3171 336.855 67.371C329.462 69.9528 325.806 71.3319 318.573 74.2345C311.42 77.121 308.197 82.6535 310.426 87.7209C312.543 92.5317 318.493 93.8948 325.02 91.2649C327.169 90.3989 328.243 89.966 330.392 89.1321C340.495 85.2193 344.328 89.2123 345.675 93.077C347.103 97.1822 345.643 102.971 337.031 106.291C330.601 108.776 327.425 110.091 321.139 112.866C321.54 113.78 321.748 114.229 322.149 115.143L322.165 115.175Z" fill="black"/>
<path d="M387.291 94.1359C376.081 96.7818 370.549 98.3053 359.66 101.769C354.72 86.2942 352.267 78.5487 347.327 63.0738C358.97 59.3694 364.904 57.7177 376.899 54.8633C377.252 56.3386 377.429 57.0763 377.781 58.5516C367.871 60.9089 362.963 62.2399 353.293 65.1906C354.816 70.1618 355.57 72.6474 357.078 77.6186C366.042 74.8764 370.581 73.6416 379.77 71.4286C380.123 72.904 380.299 73.6416 380.652 75.117C371.559 77.3139 367.069 78.5327 358.184 81.2428C360.077 87.4648 361.023 90.5598 362.931 96.7818C372.2 93.9595 376.899 92.6766 386.425 90.4476C386.778 91.9229 386.954 92.6605 387.291 94.1359V94.1359Z" fill="#E54141"/>
<path d="M388.302 94.6814C376.434 97.4396 370.581 99.0592 359.082 102.764C353.934 86.7114 351.352 78.6933 346.205 62.6411C358.585 58.6641 364.888 56.9162 377.653 53.9014C378.134 55.97 378.391 56.9963 378.872 59.065C368.977 61.3903 364.07 62.7213 354.415 65.6398C355.747 70.0338 356.404 72.2307 357.735 76.6407C366.732 73.9145 371.286 72.6958 380.492 70.4988C380.989 72.5675 381.229 73.5938 381.726 75.6625C372.649 77.8273 368.143 79.0461 359.275 81.7241C360.975 87.3689 361.841 90.1912 363.541 95.836C372.842 93.0296 377.557 91.7628 387.099 89.5338L388.302 94.6974V94.6814ZM360.253 100.791C370.517 97.5518 375.729 96.1086 386.281 93.5909C386.072 92.7089 385.96 92.2599 385.752 91.3779C376.274 93.639 371.575 94.9059 362.338 97.7603C360.253 90.977 359.211 87.5773 357.11 80.794C365.994 78.0679 370.501 76.8171 379.61 74.6041C379.401 73.7221 379.289 73.2731 379.064 72.3911C369.907 74.6201 365.385 75.8709 356.436 78.6131C354.736 73.0646 353.87 70.2903 352.17 64.7418C361.857 61.7591 366.764 60.4281 376.675 58.0387C376.466 57.1567 376.354 56.7077 376.146 55.8257C364.92 58.5198 359.371 60.0753 348.45 63.5231C353.165 78.4367 355.522 85.8935 360.237 100.807L360.253 100.791Z" fill="black"/>
<path d="M410.449 90.2871C400.217 92.019 392.519 87.6251 390.418 77.9873C388.237 67.9968 387.163 63.0096 384.982 53.003C386.987 52.57 387.997 52.3615 390.018 51.9446C392.102 62.1115 393.145 67.195 395.214 77.3619C396.609 84.1452 401.917 87.7694 409.775 86.4384C417.697 85.0914 421.53 79.9438 420.584 73.0803C419.189 62.8011 418.483 57.6535 417.072 47.3743C419.141 47.1017 420.167 46.9573 422.236 46.7168C423.487 56.8677 424.112 61.9351 425.363 72.086C426.566 81.8681 420.696 88.5552 410.417 90.2871H410.449Z" fill="#E54141"/>
<path d="M410.577 91.0405C399.72 92.8847 391.75 88.2021 389.552 78.1956C387.291 67.9164 386.153 62.7688 383.891 52.4896C386.65 51.8802 388.045 51.5915 390.819 51.0303C392.936 61.5019 393.995 66.7297 396.112 77.2013C397.459 83.8563 402.494 86.9192 409.679 85.7005C416.863 84.4817 420.648 79.9275 419.718 73.2083C418.243 62.6244 417.521 57.3485 416.046 46.7646C418.884 46.3798 420.295 46.1873 423.15 45.8506C424.417 56.3062 425.042 61.534 426.309 71.9735C427.544 82.1565 421.434 89.1964 410.577 91.0405V91.0405ZM386.088 53.564C388.173 63.2659 389.216 68.1088 391.3 77.8107C393.257 86.9192 400.474 91.2169 410.32 89.5492C420.167 87.8814 425.668 81.4509 424.497 72.198C423.262 62.3518 422.637 57.4287 421.402 47.5825C420.103 47.7429 419.461 47.823 418.162 47.9994C419.493 57.99 420.167 62.9772 421.514 72.9517C422.524 80.5048 418.034 85.8127 409.935 87.1758C401.821 88.5549 395.903 84.9949 394.364 77.5381C392.327 67.6758 391.3 62.7367 389.264 52.8744C387.997 53.131 387.371 53.2753 386.105 53.5319L386.088 53.564Z" fill="black"/>
<path d="M436.3 86.0211C434.697 69.8566 433.895 61.7744 432.307 45.6099C437.198 45.1288 439.652 44.9364 444.591 44.5996C449.723 54.0931 452.161 58.8718 456.795 68.4935C457.597 68.4615 457.982 68.4454 458.784 68.4134C462.649 58.4549 464.718 53.4997 469.144 43.6535C474.147 43.6054 476.649 43.6214 481.685 43.7337C481.348 59.9783 481.172 68.0926 480.835 84.3373C478.894 84.2892 477.932 84.2892 476.008 84.2731C476.12 69.5519 476.184 62.1913 476.296 47.4541C475.03 47.4541 474.388 47.4541 473.121 47.4541C468.583 57.2682 466.45 62.2074 462.473 72.1177C458.832 72.2139 457.02 72.2781 453.396 72.4705C448.681 62.8809 446.179 58.1181 440.967 48.6889C439.716 48.7851 439.091 48.8332 437.856 48.9454C439.123 63.6185 439.748 70.9631 441.015 85.6362C439.123 85.7966 438.193 85.8767 436.3 86.0692V86.0211Z" fill="#E54141"/>
<path d="M481.733 85.1075C479.087 85.0433 477.756 85.0273 475.11 85.0113C475.19 70.2901 475.222 62.9295 475.318 48.1922C474.725 48.1922 474.42 48.1922 473.827 48.1922C469.272 57.9903 467.139 62.9295 463.146 72.8398C458.993 72.936 456.924 73.0162 452.802 73.2407C448.071 63.6671 445.586 58.9044 440.358 49.4751C439.764 49.5232 439.476 49.5392 438.898 49.5874C440.133 64.2605 440.742 71.605 441.977 86.2781C439.395 86.4866 438.096 86.6149 435.53 86.8715C433.831 70.1137 432.981 61.7267 431.281 44.9689C436.845 44.4077 439.636 44.1832 445.249 43.8143C450.365 53.3077 452.802 58.1026 457.437 67.7403C457.71 67.7403 457.838 67.7403 458.11 67.7082C461.959 57.7498 464.028 52.7786 468.454 42.9323C474.147 42.8682 477.002 42.8842 482.727 43.0286C482.326 59.8826 482.134 68.3016 481.749 85.1396L481.733 85.1075ZM476.922 83.5199C478.141 83.5199 478.75 83.5359 479.969 83.568C480.258 67.9327 480.402 60.1231 480.691 44.4718C476.345 44.3916 474.18 44.3756 469.866 44.4077C465.423 54.2539 463.355 59.2091 459.474 69.1515C458.159 69.1996 457.485 69.2156 456.17 69.2798C451.535 59.6581 449.082 54.8793 443.95 45.4019C439.7 45.6906 437.583 45.867 433.349 46.2679C434.857 61.839 435.611 69.6165 437.102 85.1877C438.289 85.0754 438.882 85.0273 440.069 84.915C438.77 70.2419 438.112 62.9134 436.829 48.2403C438.738 48.08 439.684 47.9998 441.592 47.8554C446.804 57.3008 449.29 62.0635 454.021 71.6531C457.132 71.5088 458.688 71.4447 461.815 71.3484C465.776 61.4221 467.909 56.4829 472.448 46.6688C474.388 46.6688 475.366 46.6688 477.323 46.6848C477.162 61.406 477.098 68.7666 476.938 83.5039L476.922 83.5199Z" fill="black"/>
<path d="M52.9848 640.776C41.9032 640.776 34.6866 633.801 34.6866 622.543V595.987H47.1794V623.185C47.1794 627.001 49.3444 629.695 52.9848 629.695C56.6252 629.695 58.7902 627.001 58.7902 623.185V595.987H71.2829V622.543C71.2829 633.801 64.1946 640.776 52.9848 640.776V640.776Z" fill="#FFFF00"/>
<path d="M52.9848 641.53C41.4061 641.53 33.9329 634.073 33.9329 622.543V595.233H47.9331V623.184C47.9331 626.728 49.8736 628.941 52.9848 628.941C56.0959 628.941 58.0364 626.744 58.0364 623.184V595.233H72.0367V622.543C72.0367 634.249 64.7399 641.53 52.9848 641.53V641.53ZM35.4564 596.741V622.543C35.4564 633.319 42.1759 640.022 52.9848 640.022C63.7937 640.022 70.5292 633.319 70.5292 622.543V596.741H59.5599V623.184C59.5599 627.594 56.978 630.449 53.0008 630.449C49.0236 630.449 46.4417 627.53 46.4417 623.184V596.741H35.4724H35.4564Z" fill="black"/>
<path d="M76.6714 639.958V595.987H91.0886L102.924 620.907H105.089V595.987H116.587V639.958H101.753L90.3188 615.038H88.1538V639.958H76.6553H76.6714Z" fill="#FFFF00"/>
<path d="M117.357 640.712H101.288L89.8537 615.792H88.9236V640.712H75.9176V595.233H91.5697L103.405 620.154H104.335V595.233H117.341V640.712H117.357ZM102.25 639.205H115.85V596.741H105.875V621.661H102.475L90.6396 596.741H77.4572V639.205H87.4322V614.284H90.848L102.282 639.205H102.25Z" fill="black"/>
<path d="M122.521 639.958V595.987H135.014V639.958H122.521Z" fill="#FFFF00"/>
<path d="M135.768 640.712H121.767V595.233H135.768V640.712ZM123.275 639.205H134.244V596.741H123.275V639.205Z" fill="black"/>
<path d="M149.03 639.959L138.895 579.358H152.093L158.011 628.926H160.529L166.51 579.358H179.645L169.557 639.959H149.03Z" fill="#FFFF00"/>
<path d="M170.183 640.713H148.389L137.997 578.604H152.751L158.668 628.172H159.855L165.837 578.604H180.527L170.199 640.713H170.183ZM149.656 639.205H168.9L178.731 580.128H167.152L161.17 629.696H157.305L151.388 580.128H139.761L149.656 639.205Z" fill="black"/>
<path d="M212.12 647.511H183.397V595.987H211.719V606.01H195.89V612.873H211.013V621.549H195.89V629.936H212.136V647.511H212.12Z" fill="#FFFF00"/>
<path d="M212.873 648.282H182.628V595.25H212.456V606.78H196.628V612.12H211.751V622.303H196.628V629.183H212.873V648.282V648.282ZM184.151 646.774H211.366V630.706H195.12V620.812H210.243V613.643H195.12V605.273H210.949V596.757H184.151V646.774V646.774Z" fill="black"/>
<path d="M235.453 625.766H229.407V639.958H216.915V595.987H237.955C248.219 595.987 253.96 602.193 253.96 611.238C253.96 616.754 251.619 621.148 247.273 623.602L253.96 639.958H240.89L235.437 625.766H235.453ZM229.407 605.898V617.267H235.213C239.495 617.267 241.082 614.573 241.082 611.526C241.082 608.479 239.495 605.898 235.277 605.898H229.407Z" fill="#FFFF00"/>
<path d="M255.099 640.712H240.377L234.924 626.52H230.161V640.712H216.161V595.233H237.971C248.315 595.233 254.73 601.359 254.73 611.237C254.73 616.802 252.436 621.276 248.235 623.922L255.099 640.728V640.712ZM241.419 639.205H252.853L246.342 623.281L246.92 622.96C250.977 620.651 253.222 616.497 253.222 611.254C253.222 602.321 247.385 596.773 237.971 596.773H217.684V639.237H228.654V625.045H235.966L241.419 639.237V639.205ZM235.213 618.021H228.654V605.128H235.277C239.382 605.128 241.836 607.517 241.836 611.51C241.836 615.503 239.366 618.005 235.213 618.005V618.021ZM230.161 616.513H235.213C239.655 616.513 240.313 613.386 240.313 611.526C240.313 609.666 239.655 606.651 235.261 606.651H230.161V616.513V616.513Z" fill="black"/>
<path d="M257.087 639.958V629.872H273.862C277.55 629.872 278.962 627.819 278.962 625.766C278.962 623.714 277.791 621.725 273.862 621.725H270.462C262.139 621.725 256.574 616.514 256.574 608.88C256.574 601.247 262.139 595.987 270.59 595.987H289.931V606.074H273.573C271.103 606.074 269.821 607.357 269.821 609.185C269.821 610.821 271.103 612.12 273.573 612.12H276.684C286.531 612.12 291.935 618.213 291.935 625.959C291.935 633.704 286.483 639.975 276.636 639.975H257.119L257.087 639.958Z" fill="#FFFF00"/>
<path d="M276.62 640.712H256.333V629.118H273.862C276.588 629.118 278.208 627.867 278.208 625.766C278.208 623.666 276.748 622.479 273.862 622.479H270.462C261.706 622.479 255.804 617.01 255.804 608.88C255.804 600.75 261.738 595.233 270.574 595.233H290.685V606.828H273.573C271.665 606.828 270.574 607.677 270.574 609.185C270.574 610.532 271.729 611.366 273.573 611.366H276.684C286.258 611.366 292.689 617.235 292.689 625.959C292.689 634.682 286.242 640.728 276.636 640.728L276.62 640.712ZM257.857 639.205H276.62C285.457 639.205 291.166 634.009 291.166 625.943C291.166 617.876 285.473 612.857 276.684 612.857H273.573C270.462 612.857 269.067 610.997 269.067 609.169C269.067 606.828 270.831 605.304 273.573 605.304H289.177V596.725H270.59C262.668 596.725 257.328 601.6 257.328 608.864C257.328 616.129 262.604 620.939 270.462 620.939H273.862C279.154 620.939 279.715 624.291 279.715 625.734C279.715 627.979 278.176 630.593 273.862 630.593H257.857V639.173V639.205Z" fill="black"/>
<path d="M295.913 639.958V595.987H308.405V639.958H295.913Z" fill="#FFFF00"/>
<path d="M309.159 640.712H295.159V595.233H309.159V640.712ZM296.666 639.205H307.636V596.741H296.666V639.205Z" fill="black"/>
<path d="M320.594 639.958V587.873H312.8V576.343H340.816V587.873H333.07V639.958H320.577H320.594Z" fill="#FFFF00"/>
<path d="M333.84 640.712H319.84V588.627H312.046V575.573H341.586V588.627H333.84V640.712V640.712ZM321.347 639.205H332.317V587.119H340.062V577.097H313.553V587.119H321.347V639.205V639.205Z" fill="black"/>
<path d="M373.836 639.958H345.114V595.987H373.435V606.01H357.607V612.873H372.73V621.549H357.607V629.935H373.852V639.958H373.836ZM350.615 588.835L368.737 586.365V589.123L350.615 591.593V588.835Z" fill="#FFFF00"/>
<path d="M374.59 640.712H344.344V595.234H374.173V606.764H358.345V612.104H373.467V622.287H358.345V629.166H374.59V640.696V640.712ZM345.868 639.205H373.083V630.69H356.837V620.795H371.96V613.627H356.837V605.256H372.666V596.741H345.868V639.205V639.205ZM349.861 592.459V588.178L369.49 585.516V589.797L349.861 592.459ZM351.368 589.493V590.727L367.967 588.466V587.231L351.368 589.493Z" fill="black"/>
<path d="M390.723 639.958V595.987H406.439C421.338 595.987 430.062 605.016 430.062 617.796C430.062 630.577 421.274 639.958 406.488 639.958H390.723ZM402.799 607.004V628.701H406.199C413.993 628.701 417.457 624.131 417.457 617.909C417.457 611.687 413.945 607.004 406.135 607.004H402.799V607.004Z" fill="black"/>
<path d="M463.371 639.958H434.648V595.987H462.97V606.01H447.141V612.873H462.264V621.549H447.141V629.936H463.387V639.958H463.371Z" fill="black"/>
<path d="M501.539 639.959H480.258V540.069H492.75V629.936H501.539V639.959V639.959Z" fill="#3D76E8"/>
<path d="M502.292 640.712H479.504V539.315H493.504V629.182H502.292V640.712V640.712ZM481.011 639.205H500.785V630.69H491.997V540.823H481.027V639.205H481.011Z" fill="black"/>
<path d="M506.286 639.958V595.987H518.778V639.958H506.286Z" fill="#3D76E8"/>
<path d="M519.532 640.712H505.532V595.233H519.532V640.712ZM507.039 639.205H518.009V596.741H507.039V639.205Z" fill="black"/>
<path d="M553.434 639.959H524.712V595.988H553.033V606.01H537.205V612.874H552.328V621.549H537.205V629.936H553.45V639.959H553.434ZM529.106 586.382L547.228 588.851V591.61L529.106 589.14V586.382Z" fill="#3D76E8"/>
<path d="M554.188 640.712H523.942V595.234H553.771V606.764H537.942V612.104H553.065V622.287H537.942V629.166H554.188V640.696V640.712ZM525.466 639.205H552.68V630.69H536.435V620.795H551.558V613.627H536.435V605.256H552.264V596.741H525.466V639.205V639.205ZM547.982 592.459L528.352 589.797V585.516L547.982 588.178V592.459ZM529.86 588.466L546.458 590.727V589.493L529.86 587.231V588.466Z" fill="black"/>
<path d="M580.697 640.776C566.857 640.776 557.075 630.978 557.075 617.908C557.075 604.839 566.745 595.169 580.408 595.169C591.201 595.169 600.23 601.263 603.037 611.59H589.662C588.379 608.655 584.979 606.314 580.697 606.314C574.186 606.314 569.615 611.237 569.615 617.972C569.615 624.708 574.186 629.935 580.986 629.935C586.021 629.935 589.838 627.418 591.714 623.553H581.098V615.984H603.614C603.614 616.401 603.726 617.395 603.726 617.972C603.726 631.042 593.527 640.776 580.681 640.776H580.697Z" fill="#3D76E8"/>
<path d="M580.697 641.53C566.568 641.53 556.321 631.603 556.321 617.908C556.321 604.214 566.456 594.399 580.408 594.399C591.795 594.399 600.952 601.054 603.774 611.366L604.031 612.328H589.181L588.988 611.879C587.93 609.473 584.963 607.052 580.713 607.052C574.635 607.052 570.385 611.542 570.385 617.957C570.385 624.371 574.747 629.166 581.002 629.166C585.091 629.166 588.475 627.402 590.448 624.291H580.36V615.214H604.384V615.968C604.384 616.144 604.4 616.433 604.432 616.738C604.464 617.155 604.496 617.62 604.496 617.957C604.496 631.17 594.04 641.514 580.697 641.514V641.53ZM580.408 595.923C567.322 595.923 557.828 605.176 557.828 617.908C557.828 630.641 567.45 640.022 580.697 640.022C593.944 640.022 602.988 630.545 602.988 617.973C602.988 617.668 602.956 617.251 602.924 616.866C602.924 616.818 602.924 616.77 602.924 616.738H581.884V622.783H592.949L592.42 623.874C590.319 628.204 586.166 630.689 581.018 630.689C573.994 630.689 568.894 625.349 568.894 617.973C568.894 610.596 573.865 605.545 580.729 605.545C584.803 605.545 588.539 607.645 590.175 610.82H602.058C599.123 601.6 590.929 595.923 580.44 595.923H580.408Z" fill="black"/>
<path d="M636.987 647.511H608.265V595.987H636.586V606.01H620.757V612.873H635.88V621.549H620.757V629.936H637.003V647.511H636.987Z" fill="#3D76E8"/>
<path d="M637.74 648.282H607.495V595.25H637.324V606.78H621.495V612.12H636.618V622.303H621.495V629.183H637.74V648.282V648.282ZM609.018 646.774H636.233V630.706H619.988V620.812H635.11V613.643H619.988V605.273H635.816V596.757H609.018V646.774V646.774Z" fill="black"/>
</svg>
