<svg width="88" height="108" viewBox="0 0 88 108" fill="none" xmlns="http://www.w3.org/2000/svg">
<path d="M12.1798 90.6675C10.9098 86.8075 10.2898 82.7775 9.66983 78.7675C6.85983 60.5975 4.03983 42.3375 4.04983 23.9475C4.04983 18.5575 4.40982 12.8175 7.56982 8.44749C10.4098 4.51749 15.0998 2.3275 19.8198 1.1875C31.5098 -1.6325 43.7298 1.1075 55.4398 3.8275C58.8898 4.6275 62.4098 5.46749 65.4298 7.31749C68.7498 9.36749 71.2398 12.5175 73.4198 15.7475C85.5998 33.8275 90.2598 56.8275 86.0598 78.2275C84.9598 83.8275 83.1598 89.5475 79.1998 93.6675C74.5598 98.4975 67.7198 100.407 61.1498 101.707C50.3598 103.837 39.3398 104.887 28.3498 104.777C18.5898 104.687 15.2498 99.9575 12.1998 90.6575L12.1798 90.6675Z" fill="#F9D7DF"/>
<path d="M55.9699 21.8973C55.9099 22.9773 55.8699 24.1073 56.3199 25.0873C56.6599 25.8273 57.2599 26.4173 57.8999 26.9273C60.3899 28.9373 63.5199 29.9573 66.6399 30.6473C70.2199 31.4473 74.1699 31.8273 77.3699 30.0373C78.1199 29.6173 78.8299 29.0573 79.2399 28.2973C79.6999 27.4373 79.7199 26.4173 79.6799 25.4373C79.6099 23.9073 79.3999 22.3273 78.6399 20.9973C77.1199 18.3273 73.8699 17.2873 71.1199 15.9073C68.5799 14.6273 66.2899 12.8673 64.3799 10.7673C63.3099 9.57733 62.3399 8.26732 61.0599 7.30732C57.5899 4.70732 56.7899 7.09732 56.5699 10.2773C56.3099 14.1473 56.1699 18.0273 55.9699 21.8973V21.8973Z" fill="#F9A0BB"/>
<path d="M39.2299 47.9575C39.1999 45.0175 39.31 41.8375 40.88 39.5475C41.12 39.1975 41.4399 38.8475 41.8299 38.8675C42.1099 38.8875 42.36 39.0975 42.57 39.3175C44.68 41.4675 45.77 44.7275 46.12 47.9775C46.48 51.2275 46.1799 54.5175 45.9599 57.7775C45.6499 62.2175 45.48 66.6675 45.43 71.1175C48.78 67.7675 52.3599 64.2975 56.7099 63.4175C57.0599 63.3475 57.4499 63.2975 57.7699 63.4975C58.0499 63.6675 58.2199 64.0075 58.3299 64.3575C59.0499 66.5775 57.6599 68.9175 56.3399 70.7175C54.2199 73.6175 52 76.5275 49.19 78.4675C46.38 80.4075 42.84 81.2675 39.81 79.8275C38.38 79.1475 37.15 78.0075 35.94 76.8775C33.73 74.8175 31.4999 72.7375 29.7899 70.1075C28.0799 67.4775 26.92 64.2075 27.18 60.9275C28.6 60.5875 29.96 61.6675 31.12 62.6975L35.9599 66.9875C37.1099 68.0075 38.9899 70.4375 40.4099 70.5675C40.9999 67.4775 39.8399 62.8375 39.6399 59.5775C39.4099 55.7175 39.27 51.8475 39.24 47.9675L39.2299 47.9575Z" fill="white"/>
<path d="M4.14001 6.91769C4.14001 6.79769 5.29001 6.6477 7.48001 6.4677C9.68001 6.3177 12.91 6.1077 17.08 5.8277C25.43 5.4277 37.5 4.83769 52.42 4.11769C54.29 4.05769 56.47 3.99769 58.61 4.97769C60.7 5.96769 62.15 7.54769 63.63 8.88769C66.61 11.6677 69.7 14.5677 72.91 17.5677C74.52 19.1177 76.12 20.4777 77.83 22.2777C78.66 23.1877 79.48 24.3677 79.89 25.7377C80.3 27.0777 80.35 28.3877 80.37 29.5877C80.42 34.2677 80.47 39.0877 80.52 44.0177C80.61 53.8877 80.69 64.2477 80.79 74.9977C80.83 80.3677 80.87 85.8377 80.91 91.3877C80.93 94.2077 80.84 97.1977 79.93 100.198C79.47 101.688 78.74 103.218 77.56 104.518C76.4 105.828 74.72 106.778 73.02 107.098C71.33 107.428 69.84 107.388 68.45 107.378L64.21 107.348C61.39 107.328 58.6 107.308 55.82 107.288C50.27 107.248 44.79 107.198 39.42 107.158C28.63 107.038 18.36 107.028 8.34 106.788C7.03 106.678 5.67002 106.488 4.30002 105.948C2.94002 105.438 1.55 104.388 0.809998 102.928C0.0599976 101.468 0 99.9877 0 98.7377C0.04 97.5377 0.0700159 96.3477 0.110016 95.1577C0.260016 90.4677 0.51 85.9277 0.75 81.5377C1.28 72.7777 1.77002 64.6177 2.21002 57.1677C3.05002 42.2877 2.95 30.2377 2.44 21.9277C1.94 13.6177 1.29001 9.04769 1.57001 8.99769C1.69001 8.97769 1.96 10.1077 2.38 12.2677C2.82 14.4277 3.3 17.6477 3.75 21.8177C4.67 30.1477 5.13001 42.3077 4.60001 57.2677C4.28001 64.7277 3.93002 72.9077 3.55002 81.6777C3.37002 86.0577 3.17002 90.5877 3.08002 95.2477C3.08002 97.5477 2.75001 100.148 3.51001 101.518C4.19001 102.928 6.29002 103.558 8.58002 103.688C18.42 103.738 28.74 103.798 39.45 103.848C44.82 103.878 50.28 103.898 55.82 103.928C58.59 103.948 61.38 103.958 64.19 103.978C66.9 103.928 70.07 104.188 72.34 103.788C74.54 103.388 75.98 101.578 76.72 99.1777C77.45 96.7777 77.59 94.1077 77.56 91.3877C77.54 85.8377 77.52 80.3777 77.5 74.9977C77.48 64.2577 77.45 53.8877 77.43 44.0177C77.43 39.0877 77.43 34.2777 77.43 29.5977C77.46 27.2477 77.12 25.6777 75.7 24.1677C74.31 22.6677 72.54 21.0777 71.01 19.5677C67.85 16.5177 64.8 13.5777 61.87 10.7477C60.38 9.3277 59.05 7.90769 57.58 7.20769C56.14 6.48769 54.36 6.43769 52.53 6.47769C37.6 6.74769 25.52 6.96769 17.17 7.11769C13 7.11769 9.75002 7.11769 7.55002 7.11769C5.35002 7.07769 4.19 7.00769 4.19 6.88769L4.14001 6.91769Z" fill="black"/>
<path d="M76.7601 31.7478C76.6901 32.2078 74.3101 32.2578 70.5301 31.9578C68.6401 31.8078 66.4001 31.5778 63.9201 31.2678C62.7001 31.0978 61.3301 30.9878 59.7801 30.4778C58.2201 29.9678 56.6701 28.8578 55.6701 27.4378C53.6201 24.5678 53.2901 21.3978 53.3401 18.7278C53.4701 16.0378 53.9401 13.8578 54.2101 12.0278C54.8501 8.40781 54.6101 6.1778 55.0701 6.0378C55.5001 5.8678 56.6501 8.2578 56.5901 12.2078C56.6101 14.1478 56.39 16.4278 56.45 18.7378C56.54 20.9978 57.0201 23.5778 58.3801 25.4378C59.6901 27.3478 61.8201 27.7478 64.4101 28.2078C66.8601 28.6878 69.0701 29.1678 70.9101 29.6178C74.5901 30.5178 76.8301 31.3078 76.7601 31.7678V31.7478Z" fill="black"/>
<path d="M40.51 74.3076C39.58 74.3676 38.71 66.3476 38.57 56.3976C38.43 46.4476 39.07 38.4076 40 38.4376C40.93 38.4676 41.8 46.4876 41.94 56.3476C42.08 66.2076 41.44 74.2476 40.51 74.3076Z" fill="black"/>
<path d="M57.63 63.9978C57.94 64.3478 56.26 66.2478 53.29 69.0678C51.8 70.4778 49.99 72.1078 47.94 73.8778C46.91 74.7578 45.82 75.6777 44.7 76.6377C44.1 77.1377 43.48 77.6378 42.86 78.1578C41.68 79.1678 39.92 78.9677 38.85 77.8277C29.45 69.7077 22.33 62.5577 22.94 61.8577C23.55 61.1477 31.66 67.1578 41.06 75.2778L41.08 75.2977C41.63 74.8577 42.17 74.4278 42.71 74.0078C43.86 73.1178 44.97 72.2578 46.02 71.4478C48.15 69.8278 50.09 68.4078 51.76 67.2478C55.1 64.9278 57.33 63.6678 57.64 64.0078L57.63 63.9978Z" fill="black"/>
</svg>
