<svg width="109" height="81" viewBox="0 0 109 81" fill="none" xmlns="http://www.w3.org/2000/svg">
<path d="M10.3095 13.5368C11.1095 10.4768 12.1395 7.31675 14.3895 5.09675C17.1995 2.31675 21.3595 1.49674 25.2795 0.996744C50.2395 -2.21326 76.1595 2.38675 98.4995 13.9768C100.29 14.9068 102.1 15.9167 103.39 17.4667C105.05 19.4767 105.62 22.1368 106.09 24.7068C107.27 31.2268 108.06 37.8068 108.47 44.4168C108.84 50.4068 108.79 56.7768 105.66 61.8968C100.18 70.8668 87.9395 72.3167 77.4195 72.5267C65.9695 72.7467 54.5095 72.6268 43.0695 72.1668C35.4695 71.8668 22.4095 73.6867 15.4995 70.1167C8.73953 66.6267 8.37952 52.7767 7.73952 46.1267C6.69952 35.2267 7.53953 24.1368 10.3095 13.5468V13.5368Z" fill="#EAD9CE"/>
<path d="M4.16951 4.72662C4.16951 4.60662 5.3195 4.55662 7.4795 4.56662C9.6495 4.59662 12.8295 4.64662 16.9395 4.69662C25.1495 4.83662 37.0195 5.02662 51.6895 4.81662C59.0195 4.70662 67.0495 4.50664 75.6595 4.14664C79.9995 3.94664 84.4795 3.74662 89.0995 3.53662C91.4895 3.59662 94.2195 3.73662 96.6795 5.56662C97.8695 6.48662 98.7695 7.91662 99.0995 9.34662C99.4595 10.7766 99.4395 12.1166 99.4295 13.3366C99.3495 23.0466 99.2695 33.2366 99.1795 43.8066C99.1295 49.0866 99.0795 54.4666 99.0195 59.9266C98.9895 62.6566 98.9595 65.4066 98.9295 68.1666L98.8795 72.3266C98.8295 73.6666 98.9895 75.3166 98.1295 77.1666C97.2395 79.1066 95.1195 80.0666 93.5495 80.2966C91.9095 80.5866 90.4395 80.4966 89.0895 80.5066C86.3195 80.4966 83.5695 80.4866 80.8495 80.4666C75.3895 80.4366 70.0195 80.4066 64.7295 80.3866C54.1595 80.3166 43.9695 80.2466 34.2595 80.1766C29.3995 80.1366 24.6695 80.0966 20.0695 80.0566C17.7695 80.0366 15.4995 80.0166 13.2695 79.9866C11.0395 79.8866 8.92951 80.1666 6.35951 79.5666C5.11951 79.2566 3.69952 78.4566 2.95952 77.1266C2.22952 75.8266 2.1595 74.5766 2.0395 73.5566C1.8295 71.4766 1.61953 69.4366 1.40953 67.4366C1.02953 63.4266 0.739523 59.5766 0.529523 55.8966C-0.330477 41.1766 0.00950471 29.2366 0.479505 21.0266C0.729505 16.9166 1.0095 13.7366 1.2595 11.5766C1.5095 9.42663 1.6995 8.29661 1.8195 8.30661C2.0695 8.32661 1.8895 12.8666 1.7895 21.0666C1.7195 29.2666 1.74952 41.1366 2.89952 55.7366C3.17952 59.3866 3.53951 63.2066 3.98951 67.1666C4.22951 69.1466 4.46952 71.1666 4.70952 73.2366C4.93952 75.4566 5.32952 76.4466 7.05952 76.8566C8.70952 77.2666 11.0595 77.0466 13.2695 77.0966C15.4995 77.0966 17.7695 77.0866 20.0695 77.0766C24.6695 77.0766 29.4095 77.0666 34.2595 77.0566C43.9695 77.0566 54.1595 77.0566 64.7295 77.0666C70.0095 77.0766 75.3895 77.0866 80.8495 77.0966C83.5795 77.0966 86.3295 77.1166 89.0895 77.1166C91.8695 77.2066 94.5695 77.0666 95.0895 75.6666C95.4595 74.9466 95.4895 73.6966 95.4895 72.2766L95.5395 68.1166C95.5695 65.3466 95.6095 62.5966 95.6395 59.8766C95.7095 54.4166 95.7795 49.0466 95.8495 43.7566C95.9995 33.1866 96.1495 22.9966 96.2995 13.2866C96.3895 10.8366 96.1495 8.98661 94.7595 7.93661C93.3995 6.84661 91.1795 6.51663 89.0395 6.48663C84.4695 6.63663 80.0195 6.78664 75.7295 6.92664C67.0795 7.16664 59.0195 7.23661 51.6695 7.18661C36.9595 7.08661 25.0595 6.53661 16.8595 5.99661C12.7595 5.72661 9.56951 5.45662 7.41951 5.22662C5.26951 4.99662 4.13952 4.82663 4.14952 4.70663L4.16951 4.72662Z" fill="black"/>
<path d="M96.3797 8.20648C96.7197 8.50648 92.2597 14.3165 84.4097 23.1865C80.4797 27.6165 75.6997 32.7965 70.2297 38.3965C67.4897 41.2065 64.6197 44.0965 61.5297 47.0965C58.4297 49.9765 54.6097 53.3965 49.2497 53.8365C46.6297 54.0365 44.0597 53.2965 41.9397 52.1565C39.7997 51.0165 38.0097 49.5365 36.4097 48.0165C33.2297 44.9165 30.6797 41.7965 28.0397 38.8965C22.8897 33.0265 18.2497 27.7465 14.3497 23.3065C6.62966 14.3665 2.02968 8.67647 2.36968 8.35647C2.70968 8.03647 7.93967 13.1665 16.1097 21.6965C20.1597 25.9965 24.9797 31.1165 30.3297 36.8065C33.0097 39.6165 35.7297 42.8065 38.6697 45.6065C41.5997 48.3665 45.1797 50.7665 49.0097 50.4665C52.8497 50.2165 56.2597 47.4765 59.2597 44.6865C62.2997 41.7465 65.2297 38.9065 68.0297 36.2065C73.5897 30.7565 78.5297 25.7665 82.6597 21.5665C90.9197 13.1565 96.0097 7.89646 96.3697 8.21646L96.3797 8.20648Z" fill="black"/>
<path d="M28.1895 48.6467C28.9495 49.1267 24.9295 56.4367 17.5095 63.4267C13.9295 66.9467 9.8595 69.5567 7.5095 71.3267C5.0695 73.1467 4.90952 75.0266 4.42952 75.0866C4.21952 75.1066 3.89952 74.5767 3.95952 73.5167C4.00952 72.4567 4.65951 70.9767 5.82951 69.6367C8.26951 66.9867 11.6595 64.4467 15.1895 60.9867C22.3095 54.2967 27.3995 48.1067 28.1895 48.6567V48.6467Z" fill="black"/>
<path d="M95.1495 73.9267C94.7395 74.2067 93.2195 72.6767 90.7195 70.3267C88.2395 67.9567 84.6794 64.8667 80.6494 61.4167C76.6294 57.9667 73.0594 54.6267 70.7694 51.9067C68.4594 49.1967 67.3994 47.2367 67.7394 46.9467C68.1094 46.6367 69.7895 48.0167 72.4395 50.2067C75.0895 52.4167 78.7994 55.3867 82.8594 58.8667C86.9094 62.3467 90.3795 65.8667 92.4995 68.7467C94.6395 71.6167 95.5095 73.6867 95.1495 73.9367V73.9267Z" fill="black"/>
</svg>
