<svg width="108" height="83" viewBox="0 0 108 83" fill="none" xmlns="http://www.w3.org/2000/svg">
<path d="M5.31827 54.6427C4.42827 43.3627 6.44827 31.9027 4.45827 20.7527C3.93827 17.8327 3.14826 14.9327 3.10826 11.9727C3.06826 9.01274 3.92826 5.87272 6.18826 3.88272C8.22826 2.08272 11.0683 1.47273 13.7883 1.05273C24.0483 -0.527269 34.5883 -0.327272 44.7683 1.64273C45.7883 1.84273 46.8483 2.07274 47.6783 2.68274C50.2483 4.57274 49.1883 8.55275 50.4283 11.4427C51.4183 13.7627 53.8983 15.2227 56.4283 15.7427C58.9583 16.2627 61.5883 15.9827 64.1583 15.7527C74.2483 14.8427 84.4083 14.5927 94.5283 15.0027C95.6983 15.0527 96.8983 15.1127 97.9683 15.5827C99.3783 16.2027 100.378 17.4427 101.228 18.7027C106.448 26.4027 108.078 35.9727 107.578 45.1727C107.068 54.3727 104.568 63.3427 102.078 72.2427C101.818 73.1827 101.528 74.1627 100.808 74.8427C100.058 75.5527 98.9683 75.8027 97.9283 75.9927C75.7983 80.0627 53.2283 72.3627 30.6983 72.3427C24.0683 72.3427 17.1983 73.0127 10.7383 71.1727C6.90827 70.0827 6.66826 69.5627 6.43826 65.8227C6.20826 62.0827 5.58827 58.3727 5.28827 54.6327L5.31827 54.6427Z" fill="#EBF2AF"/>
<path d="M0.868241 12.0625C0.868241 12.0625 0.738241 11.7825 0.728241 11.2225C0.718241 10.6525 0.858235 9.79252 1.37824 8.78252C2.37824 6.82252 5.21823 4.3225 9.54823 4.0725C13.8382 3.7325 18.6082 5.09252 24.2882 4.50252C27.1382 4.34252 30.2482 4.0225 33.6282 4.2025C37.0082 4.4225 40.6982 5.20252 43.9682 7.50252C45.5782 8.62252 47.0182 10.3325 47.9082 12.1125C48.8282 13.8725 49.5782 15.1525 51.0282 15.3225C54.5482 15.6225 58.8382 15.3225 62.9782 14.9425C71.3582 14.2225 80.6782 12.3825 90.5782 14.7025C91.8082 14.9725 93.0082 15.3725 94.2082 15.8125C94.7882 16.0225 95.4283 16.2125 96.2383 16.7725C97.0783 17.2525 97.7482 18.6825 97.7182 19.4825C97.7482 21.9825 97.7782 24.5025 97.8082 27.0525C97.8482 32.0725 97.8982 37.2025 97.9382 42.4225C97.9782 47.6425 98.0182 52.9525 98.0582 58.3425C98.0782 61.0425 98.0882 63.7625 98.1082 66.5025C98.0682 69.2925 97.9782 72.2725 96.7682 75.2525C95.6682 78.2925 92.5882 80.7525 89.5482 81.3325C86.5182 82.0425 83.7582 81.8925 81.0882 82.0125C75.6982 82.1425 70.3782 82.2625 65.1582 82.3925C54.7082 82.5825 44.6082 82.6025 34.9782 82.3025C25.3582 82.0025 16.2082 81.3625 7.68823 80.4025C6.63823 80.2825 5.48823 80.1825 4.27823 79.7725C3.06823 79.3925 1.83824 78.4925 1.14824 77.3425C-0.21176 74.9825 -0.001758 72.6525 0.088242 70.6525C0.378242 66.7025 0.58823 62.9325 0.74823 59.3125C1.35823 44.8625 0.958232 33.1425 0.578232 25.0525C0.188232 16.9625 -0.171758 12.4825 0.088242 12.4525C0.208242 12.4425 0.438235 13.5425 0.768235 15.6625C1.08823 17.7825 1.49823 20.9125 1.88823 24.9625C2.66823 33.0525 3.43824 44.8325 3.12824 59.3925C3.04824 63.0325 2.89824 66.8525 2.67824 70.8025C2.57824 72.6825 2.62824 74.6525 3.42824 75.8925C4.15824 77.1325 5.81824 77.4425 7.98824 77.6125C16.4382 78.4525 25.5082 78.9825 35.0582 79.1925C44.6182 79.4125 54.6582 79.3225 65.0882 79.0925C70.2982 78.9525 75.6082 78.8125 80.9982 78.6625C83.6982 78.5525 86.4382 78.6325 88.7482 78.0725C91.0882 77.5325 92.7782 76.1625 93.6582 73.9625C95.3682 69.5225 94.5382 63.6925 94.7082 58.3725C94.6882 52.9825 94.6682 47.6725 94.6382 42.4525C94.6182 37.2325 94.6082 32.1025 94.5882 27.0825C94.5882 24.6125 94.5682 22.1625 94.5582 19.7525C94.4782 19.3225 94.5682 19.5425 94.3782 19.3325C94.1782 19.1725 93.6582 18.9525 93.0982 18.7625C92.0182 18.3625 90.9382 17.9825 89.8282 17.7325C80.8782 15.5125 71.7382 17.0925 63.2382 17.7425C58.8882 18.0625 54.9082 18.3525 50.5482 17.8925C49.3582 17.7125 48.0582 16.9225 47.3382 15.9925C46.5782 15.0725 46.1382 14.1225 45.7082 13.3025C44.9182 11.6725 43.9082 10.4625 42.5682 9.4525C39.9082 7.4825 36.5882 6.64252 33.4982 6.37252C30.3482 6.12252 27.2882 6.3425 24.3882 6.4225C18.4982 6.8325 13.4782 5.26249 9.63823 5.41249C5.71823 5.44249 3.06824 7.50249 1.97824 9.16249C0.868241 10.8925 1.06823 12.1225 0.88823 12.1025L0.868241 12.0625Z" fill="black"/>
</svg>
