<svg width="108" height="88" viewBox="0 0 108 88" fill="none" xmlns="http://www.w3.org/2000/svg">
<path d="M5.63322 56.1149C5.41322 51.1549 5.20323 46.1849 5.21323 41.2149C5.22323 33.4649 5.79324 25.7249 6.90324 18.0449C7.14324 16.3649 7.44322 14.6248 8.41322 13.2148C9.33322 11.8748 10.7732 10.9749 12.1632 10.1149L20.4432 5.00485C23.0832 3.37485 25.7732 1.72486 28.7732 0.864855C32.1132 -0.0951447 35.6532 -0.0351465 39.1332 0.0348535L56.8232 0.404852L76.4032 0.804854C79.3432 0.864854 82.3032 0.924854 85.1732 1.55485C90.8532 2.79485 95.7832 6.13485 100.553 9.40485C101.793 10.2549 103.053 11.1249 103.903 12.3549C104.583 13.3249 104.953 14.4649 105.293 15.5949C110.023 31.6149 107.723 48.9449 102.583 64.8449C101.223 69.0449 99.5832 73.3149 96.4332 76.4549C93.0032 79.8549 88.1932 81.5048 83.4932 82.7748C69.3332 86.5848 54.4633 87.8549 39.8333 86.5349C29.9533 85.6449 18.3832 84.7848 12.6832 75.8848C8.60324 69.5048 5.96322 63.7149 5.63322 56.1149V56.1149Z" fill="#C2E7EF"/>
<path d="M5.20313 61.4947C5.15313 57.5347 8.95314 52.5847 10.9631 49.1647C13.7831 44.3747 19.6331 42.4647 24.9831 40.9347C28.9031 39.8147 33.5931 38.8447 36.6731 41.5247C39.0631 43.5947 39.4932 47.0547 40.0132 50.1747C40.5332 53.2947 41.6431 56.7947 44.5531 58.0247C47.1531 59.1247 50.1231 57.9347 52.6031 56.5847C61.5531 51.7547 69.3031 44.7347 75.0031 36.3047C76.2631 34.4347 77.8331 32.2647 80.0931 32.2947C81.1631 32.3047 82.1431 32.8347 83.0531 33.4047C89.3131 37.2947 93.9731 43.3047 97.7331 49.6347C99.2131 52.1347 100.583 54.7147 101.423 57.4947C102.273 60.3247 102.563 63.2847 102.843 66.2247C103.323 71.2747 103.603 76.9747 100.203 80.7447C96.8332 84.4947 91.1731 84.8347 86.1331 84.9147C72.2831 85.1347 58.4331 85.3447 44.5931 84.8847C37.6831 84.6547 30.7831 84.2647 23.9031 83.6147C19.8431 83.2347 13.3131 83.5947 10.5631 79.8647C7.24314 75.3547 5.27314 66.7247 5.21314 61.4947H5.20313Z" fill="#B6D8B9"/>
<path d="M40.3429 18.2448C39.7929 18.8848 39.4729 19.6848 39.0329 20.4148C38.4229 21.4248 37.5729 22.2748 36.8729 23.2348C35.7629 24.7448 35.0229 26.5148 34.7329 28.3648C34.5529 29.4948 34.5729 30.7348 35.2429 31.6548C36.1129 32.8448 37.7529 33.1048 39.2229 33.2448C41.8129 33.5048 44.5929 33.6748 46.8429 32.3648C49.2429 30.9648 50.4929 28.0948 50.5629 25.3248C50.6829 20.3448 45.263 12.5648 40.333 18.2448H40.3429Z" fill="#F5F9CD"/>
<path d="M2.13295 15.5848C2.13295 15.5848 1.80297 15.4848 1.43297 14.9848C1.07297 14.4848 0.752977 13.5148 1.00298 12.2948C1.22298 11.1248 2.04296 9.60485 3.70296 8.77485C5.30296 7.90485 7.37296 7.69485 9.54296 7.60485C18.183 7.29485 30.583 5.84485 45.953 3.80485C53.653 2.85485 62.123 1.88484 71.313 1.58484C75.903 1.51484 80.673 1.50485 85.583 1.95485C88.053 2.16485 90.473 2.45484 93.063 2.85484C94.373 3.10484 95.753 3.46485 97.103 4.23485C98.443 4.96485 99.7029 6.39485 100.163 7.95485C100.653 9.48485 100.693 10.8348 100.843 12.0948C100.973 13.3848 101.103 14.6848 101.243 15.9948C101.483 18.6148 101.723 21.2648 101.963 23.9448C102.413 29.3048 102.793 34.7748 103.103 40.3648C103.713 51.5448 104.043 63.0648 103.943 74.9948C103.793 77.9948 103.563 81.5748 100.803 84.3548C99.413 85.6748 97.473 86.3049 95.863 86.4249C94.203 86.5749 92.793 86.4949 91.353 86.5049C85.593 86.4649 79.923 86.4248 74.353 86.3848C63.203 86.2848 52.4529 86.1948 42.2129 86.1048C31.9729 85.9948 22.233 85.8849 13.123 85.7849C10.823 85.7549 8.56297 85.7148 6.34297 85.6848C5.71297 85.6448 4.98296 85.5548 4.23296 85.1848C3.47296 84.8248 2.85297 84.1348 2.52297 83.4648C1.86297 82.1048 1.86297 80.8948 1.74297 79.8748C1.32297 75.6548 1.01298 71.5948 0.752977 67.7148C-0.257023 52.2048 -0.0770449 39.6148 0.292955 30.9448C0.482955 26.6048 0.72298 23.2448 0.94298 20.9748C1.16298 18.6948 1.34296 17.5048 1.45296 17.5148C1.57296 17.5148 1.62297 18.7248 1.62297 21.0048C1.62297 23.2848 1.62296 26.6448 1.61296 30.9748C1.64296 39.6248 1.83296 52.1448 3.14296 67.5448C3.47296 71.3948 3.85297 75.4148 4.34297 79.6048C4.45297 80.6748 4.56295 81.6548 4.88295 82.2448C5.18295 82.7848 5.50297 82.9248 6.49297 82.9948C8.67297 82.9948 10.883 82.9948 13.143 82.9948C22.253 82.9948 31.983 82.9949 42.233 83.0049C52.473 83.0349 63.233 83.0648 74.373 83.0948C79.943 83.1148 85.623 83.1448 91.373 83.1648C94.323 83.1648 97.093 83.3848 98.503 81.9148C100.023 80.4948 100.513 77.6748 100.583 74.9048C100.673 63.1948 100.373 51.6348 99.813 40.5448C99.533 34.9948 99.183 29.5448 98.763 24.2148C98.543 21.5548 98.313 18.9148 98.103 16.3048C97.983 15.0048 97.863 13.7048 97.743 12.4248C97.613 11.1248 97.533 9.86484 97.233 8.94484C96.753 7.18484 94.813 6.29485 92.503 5.85485C90.173 5.47485 87.703 5.14485 85.333 4.92485C80.573 4.44485 75.903 4.38484 71.393 4.40484C62.363 4.57484 53.943 5.39484 46.243 6.19484C30.873 7.92484 18.293 9.03484 9.58296 8.93484C7.43296 8.91484 5.57295 9.03484 4.16295 9.68484C2.74295 10.2848 1.99297 11.4648 1.68297 12.4748C1.06297 14.6148 2.32297 15.5448 2.15297 15.6048L2.13295 15.5848Z" fill="black"/>
<path d="M38.0731 64.3849C37.6131 64.5549 36.143 61.6149 33.623 56.9949C32.363 54.6849 30.833 51.9649 29.023 49.0149C28.123 47.5349 27.143 46.0049 26.103 44.4449C25.603 43.7149 24.9831 42.7349 24.5731 42.2449C24.3631 41.9949 24.193 41.9249 24.233 41.9449C24.233 41.9449 24.243 41.9149 23.963 42.0449C23.453 42.3249 22.4631 43.0849 21.7231 43.6049C20.9331 44.1749 20.143 44.7449 19.373 45.2949C17.843 46.4149 16.363 47.4949 14.953 48.5249C12.143 50.5949 9.61303 52.4649 7.48303 54.0349C3.22303 57.1649 0.503054 59.0449 0.193054 58.6849C-0.316946 57.9849 8.64303 48.6349 22.423 39.0349C23.023 38.7049 24.063 38.3949 25.053 38.6649C26.063 38.9349 26.693 39.5549 27.113 40.0449C27.933 41.0849 28.303 41.7849 28.873 42.6349C29.913 44.2749 30.853 45.8849 31.713 47.4449C33.423 50.5649 34.773 53.4749 35.783 55.9649C37.793 60.9549 38.4931 64.2149 38.0731 64.3749V64.3849Z" fill="black"/>
<path d="M99.0728 64.1246C98.7128 64.4146 95.1627 60.6646 89.7227 54.3646C87.0027 51.2146 83.8128 47.4246 80.3028 43.1846C79.4328 42.1246 78.5328 41.0346 77.6128 39.9246C76.7028 38.8046 75.8328 37.7646 74.9328 37.2546C74.0428 36.7946 73.5028 36.8346 72.4328 37.5346C71.4628 38.2546 70.1427 39.4546 68.9027 40.4446C63.7827 44.4746 58.4928 47.5446 53.8228 50.4046C49.1228 53.2346 45.0528 55.9046 41.8828 58.4646C35.4728 63.5346 33.0028 68.1246 32.5028 67.8346C32.1628 67.7446 33.9928 62.4946 40.3228 56.6646C43.4328 53.7546 47.5327 50.7746 52.1627 47.7846C56.7827 44.7646 61.9327 41.6546 66.7927 37.8146C68.0327 36.8346 69.0127 35.8946 70.5327 34.7746C71.2927 34.2546 72.2828 33.7546 73.4428 33.6546C74.6028 33.5446 75.7427 33.9046 76.5927 34.4146C78.2827 35.4546 79.2328 36.8246 80.1228 37.9246C81.0128 39.0646 81.8727 40.1746 82.7227 41.2546C86.0927 45.6046 89.0928 49.5446 91.5828 52.8846C96.5428 59.5646 99.4328 63.8446 99.0728 64.1346V64.1246Z" fill="black"/>
<path d="M42.1132 18.0948C42.1132 17.8948 42.7332 17.6048 43.8832 17.8948C45.0032 18.1848 46.5532 19.2848 47.3632 21.2648C47.7732 22.2448 48.0032 23.4348 47.8332 24.7648C47.6732 26.0948 46.9732 27.5148 45.9132 28.5148C43.7632 30.6248 40.3632 31.4048 37.1932 30.4848C34.0432 29.5448 31.3932 26.8648 31.3432 23.5348C31.3232 21.9148 32.0632 20.4348 32.9932 19.5048C33.9232 18.5548 34.9832 18.0148 35.9532 17.6948C40.0032 16.4548 42.3132 18.2848 42.0432 18.5848C41.9032 19.0748 39.6532 18.4248 36.8732 19.8948C35.5232 20.5848 34.2732 21.9548 34.4432 23.4448C34.4932 24.9348 36.1132 26.6748 38.1332 27.2548C40.1832 27.8648 42.4832 27.3848 43.7832 26.2448C45.1632 25.1348 45.4032 23.4848 45.0932 22.0248C44.4132 19.0048 42.0432 18.5548 42.1132 18.0948V18.0948Z" fill="black"/>
</svg>
