<svg width="110" height="102" viewBox="0 0 110 102" fill="none" xmlns="http://www.w3.org/2000/svg">
<path d="M40.0143 45.3854C39.9643 38.7954 40.2143 31.7154 44.1143 26.3954C46.6543 22.9254 50.5843 20.4654 52.3843 16.5654C53.5043 14.1254 53.6843 11.3354 54.8243 8.90543C56.8543 4.57543 62.1043 2.04543 66.7543 3.14543C71.4043 4.24543 74.9543 8.87543 74.8243 13.6554C74.7243 17.1354 73.0843 21.1954 75.4843 23.7254C76.3743 24.6654 77.6443 25.1154 78.8543 25.5754C87.2843 28.7154 95.2443 33.0754 102.424 38.4954C104.754 40.2554 107.194 42.4754 107.364 45.3954C107.504 47.9554 105.834 50.2554 105.384 52.7854C104.264 59.0754 110.794 65.1954 108.844 71.2754C107.674 74.9254 103.644 77.4554 103.524 81.2854C103.444 83.8254 105.174 86.3254 104.464 88.7654C104.154 89.8354 103.404 90.7154 102.614 91.4954C94.9643 99.0254 82.5843 99.0254 72.2443 96.1354C66.8643 94.6354 61.7143 92.4854 56.4643 90.5954C52.3543 89.1154 44.0743 88.3854 42.0743 84.8854C39.7143 80.7454 40.8743 70.3254 40.6243 65.5754C40.2643 58.8554 40.0643 52.1254 40.0143 45.3954V45.3854Z" fill="#D4D4F4"/>
<path d="M4.23432 50.0556C4.61432 45.9856 5.2943 41.7456 7.7143 38.4456C11.5043 33.2556 19.5243 31.7756 24.9243 35.2756C29.9043 38.5056 32.0243 44.7956 32.4243 50.7156C32.8243 56.6356 31.8743 62.5956 32.3543 68.5156C32.7743 73.6556 34.2743 78.6556 34.8343 83.7856C35.3943 88.9156 34.9043 94.4657 31.7943 98.5857C31.0643 99.5557 30.1443 100.456 28.9943 100.826C27.9843 101.146 26.8943 101.036 25.8543 100.856C2.17431 96.7556 2.47432 68.8756 4.23432 50.0656V50.0556Z" fill="#BEBEC6"/>
<path d="M2.50414 46.6652C2.34414 46.7152 2.37415 44.1152 5.41415 41.1952C6.91415 39.7952 9.15414 38.4152 12.0341 37.7752C14.8941 37.1052 18.2742 37.1352 21.8042 37.7152C23.5542 38.0052 25.4842 38.3352 27.4242 39.2652C28.3942 39.7252 29.3741 40.3852 30.1841 41.3152C30.9941 42.2452 31.5442 43.5252 31.7042 44.7352C31.9742 47.1652 31.7341 49.1052 31.7541 51.3452C31.7141 53.5352 31.6642 55.7852 31.6142 58.0952C31.3742 67.3452 31.1042 77.5052 30.8242 88.1752C30.7642 89.5452 30.6841 91.0352 30.1641 92.5752C29.6741 94.1152 28.5142 95.6452 27.0742 96.4852C24.1442 98.1652 21.2442 97.9752 18.7342 98.0152C13.7342 97.9452 8.10414 97.6652 3.96414 93.9652C1.94414 92.1652 0.824149 89.6252 0.384149 87.2852C-0.0758513 84.9252 -0.0358586 82.6752 0.0641414 80.5852C0.344141 76.4752 0.61415 72.6452 0.85415 69.1552C1.87415 55.2052 2.74414 46.5852 3.21414 46.6152C3.68414 46.6352 3.65413 55.2952 3.24413 69.2852C3.13413 72.7752 3.00414 76.5952 2.87414 80.6952C2.78414 84.6352 3.05414 89.0852 6.06414 91.6652C9.01414 94.3052 13.8941 94.7452 18.7541 94.7152C21.1941 94.7152 23.7042 94.6352 25.3342 93.6252C26.9542 92.7252 27.4041 90.6652 27.4641 88.0452C27.8341 77.3852 28.1942 67.2352 28.5142 57.9952C28.6042 55.6852 28.7042 53.4352 28.7942 51.2452C28.8442 49.1052 29.0941 46.7852 28.9341 45.1152C28.6741 41.8452 24.5841 40.6752 21.3841 40.0552C18.0541 39.3652 14.9941 39.1852 12.4041 39.6252C9.80414 40.0252 7.74415 41.0852 6.26415 42.1952C3.28415 44.4952 2.79414 46.7952 2.50414 46.6652V46.6652Z" fill="black"/>
<path d="M35.2641 45.3053C35.2041 45.3153 34.9241 44.3153 35.0941 42.3753C35.2141 40.4253 36.1241 37.5953 38.0941 34.4853C39.9841 31.3353 42.9441 27.9653 45.6741 23.7753C47.0041 21.6753 48.2541 19.3053 48.7241 16.6453C49.2541 14.0353 48.6541 11.0253 48.7541 7.61534C48.8341 5.94534 49.0341 3.94534 50.4041 2.23534C51.7141 0.565343 54.1041 -0.33466 56.2441 0.11534C60.4841 0.99534 63.2241 4.42534 65.1441 7.82534C67.0941 11.3353 68.2241 15.4553 68.2841 19.7553C68.3141 21.8753 67.9941 24.1453 67.5141 26.1753C67.0241 28.1753 67.0041 29.8353 67.9841 30.3753C68.9741 31.1053 71.1241 30.9253 73.3541 30.8253C75.5741 30.7453 77.8141 30.7553 80.0841 30.8253C84.6141 30.9853 89.2341 31.4553 93.8741 32.2853C96.1541 32.7653 98.5541 32.9553 101.144 34.3553C102.404 35.0553 103.604 36.2953 104.174 37.7753C104.784 39.2753 104.744 40.8753 104.494 42.2153C103.974 44.9053 102.914 47.0853 102.454 49.2153C102.224 50.2853 102.154 51.2153 102.334 52.1853C102.504 53.2153 102.924 54.3853 103.134 55.8453C103.404 57.2653 103.054 59.2253 102.184 60.4853C101.374 61.7653 100.454 62.6453 99.7841 63.4953C99.0941 64.3553 98.7741 65.0153 98.7641 65.7653C98.7441 66.5653 99.0441 67.6153 99.3941 68.7753C99.6941 69.9453 100.234 71.3053 99.8641 73.1353C99.6641 74.0253 99.1841 74.8853 98.5241 75.4953C97.8841 76.1053 97.2241 76.4453 96.6841 76.7353C95.5341 77.3153 94.9941 77.6753 94.8641 78.1253C94.6741 78.5053 94.7941 79.3053 95.2141 80.2853C95.5941 81.2553 96.1541 82.3253 96.5741 83.5953C96.9941 84.8453 97.1941 86.5453 96.5741 88.0453C95.2241 91.1253 92.3941 92.1253 90.1541 92.7853C87.7541 93.4453 85.4541 93.5053 83.3341 93.7253C81.1641 93.9253 79.0141 94.1153 76.8941 94.3053C68.3741 94.9653 60.4241 96.0153 52.6441 96.1553C48.7641 96.1553 44.9341 95.7653 41.4141 94.6453C39.7041 94.1053 37.5741 93.2553 36.5241 91.1253C35.6141 89.0153 35.9741 87.2653 35.9141 85.7053C36.0341 72.8153 36.1841 62.3853 36.3741 55.1753C36.4341 51.5753 36.6441 48.7553 36.8041 46.8553C36.9641 44.9553 37.1041 43.9653 37.2241 43.9753C37.5041 44.0053 37.4741 47.9653 37.6941 55.1653C37.9141 62.3753 38.1241 72.8053 38.3141 85.6953C38.3541 87.3153 38.2441 89.0153 38.7841 90.0253C39.2641 91.0253 40.6041 91.7053 42.1941 92.1453C45.4041 93.0953 48.9441 93.4153 52.6441 93.3453C60.0241 93.1053 68.1541 91.9453 76.6241 91.1953C78.7441 90.9853 80.8941 90.7753 83.0641 90.5553C85.2741 90.3153 87.4241 90.2253 89.3341 89.6653C91.2541 89.1553 93.1041 88.1353 93.5541 86.8553C94.1141 85.6153 93.1941 83.8253 92.1741 81.5053C91.7341 80.3953 91.1041 78.7553 91.7941 76.8953C92.4841 75.0553 94.2541 74.2453 95.1441 73.7753C96.1941 73.2253 96.5041 72.9053 96.6241 72.3753C96.7741 71.8453 96.5441 70.8153 96.2041 69.7153C95.8841 68.5853 95.4141 67.3053 95.4241 65.6853C95.4241 63.9853 96.3341 62.3953 97.1641 61.3953C98.0041 60.3453 98.8441 59.5053 99.3341 58.7053C99.8141 57.9053 99.9341 57.3053 99.8041 56.2953C99.6741 55.3053 99.2741 54.1553 99.0241 52.7753C98.7441 51.3453 98.8741 49.7853 99.1741 48.4953C99.7641 45.8753 100.834 43.6553 101.204 41.6253C101.594 39.6053 101.054 38.1553 99.4741 37.2453C97.9041 36.3253 95.5241 35.9853 93.2941 35.5453C88.8141 34.7153 84.3441 34.2453 79.9641 34.0553C77.7741 33.9653 75.6041 33.9453 73.4541 33.9953C71.4241 33.9353 68.9141 34.6053 66.2041 32.9253C64.8941 32.0453 64.1741 30.3953 64.1341 29.0453C64.0541 27.6853 64.3241 26.5453 64.5541 25.5053C65.0541 23.4953 65.3241 21.6953 65.3241 19.7653C65.3241 15.9853 64.3741 12.3053 62.6941 9.16534C61.0541 6.03534 58.6241 3.28534 55.7741 2.68534C54.4341 2.37534 53.1541 2.88534 52.3341 3.82534C51.5241 4.75534 51.2241 6.24534 51.1441 7.73534C50.9541 10.7653 51.5141 13.9253 50.8341 17.0553C50.1841 20.1253 48.7141 22.6553 47.2441 24.8053C44.2241 29.0953 41.1841 32.2553 39.1841 35.1953C34.8941 41.0053 35.6641 45.3753 35.2641 45.2953V45.3053Z" fill="black"/>
</svg>
