<svg width="105" height="114" viewBox="0 0 105 114" fill="none" xmlns="http://www.w3.org/2000/svg">
<g clip-path="url(#clip0_1211_3769)">
<path d="M27.5199 62.6797C25.4199 67.0597 21.9999 70.6397 18.7499 74.2597C15.4999 77.8697 12.2999 81.7297 10.8199 86.3597C9.33988 90.9897 9.93988 96.5897 13.4899 99.9097C15.2699 101.57 17.5899 102.51 19.8599 103.37C32.2199 108 45.1299 111.14 58.2399 112.67C65.0599 113.47 72.1999 113.78 78.5599 111.17C81.4999 109.96 84.1499 108.17 86.7799 106.39C91.9199 102.91 97.1799 99.2897 100.72 94.1897C104.26 89.0897 105.78 82.0897 102.86 76.6097C100.82 72.7597 96.9699 70.2197 93.0199 68.3797C89.0699 66.5397 84.8699 65.2297 81.1399 62.9897C77.9199 61.0597 75.1299 58.4797 72.0099 56.3697C64.0699 50.9897 54.3899 49.0197 44.9199 48.9797C41.6299 48.9697 35.3099 48.2897 32.7899 50.6497C29.8899 53.3697 29.1999 59.1997 27.5299 62.6797H27.5199Z" fill="#ECD1ED"/>
<path d="M36.48 25.4899C37.34 28.5599 38.89 31.5299 41.33 33.5799C43.23 35.1699 45.56 36.1399 47.93 36.8699C52.21 38.1899 56.7 38.8099 61.18 38.6899C62.93 38.6399 64.74 38.4699 66.24 37.5699C68.51 36.2199 69.6 33.5599 70.5 31.0699C71.71 27.7299 72.87 24.2799 72.72 20.7299C72.39 13.0999 66.06 6.98986 59.26 3.51986C52.99 0.319864 46.64 -2.50014 41.57 3.57986C36.58 9.56986 34.36 17.8799 36.49 25.4799L36.48 25.4899Z" fill="#ECD1ED"/>
<path d="M60.88 52.8696C61.04 52.6996 63.27 54.4696 67.17 57.8196C71.07 61.1696 76.64 66.0896 83.48 72.2296C86.8 75.3196 91.0499 78.6696 93.2 84.3296C94.2 87.1496 94.2 90.6196 92.68 93.5696C91.21 96.5596 88.58 98.7196 85.79 100.3C80.09 103.49 73.54 104.51 67.05 105.69C60.47 106.82 53.59 107.58 46.53 107.92C39.46 108.27 32.54 108.15 25.89 107.67C19.35 107.09 12.58 106.79 6.73995 103.45C3.85995 101.8 1.48995 99.0396 0.549955 95.8996C-0.420045 92.7296 0.0199549 89.4996 0.939955 86.7896C2.88996 81.3396 6.22995 77.2896 9.10995 73.7296C14.91 66.5996 19.65 60.8696 22.98 56.9596C26.31 53.0496 28.25 50.9496 28.43 51.0896C28.61 51.2296 27.03 53.5996 24.01 57.7696C20.99 61.9296 16.54 67.8896 10.98 75.1996C8.22995 78.8196 5.17996 82.8296 3.58995 87.6596C2.83995 90.0496 2.58995 92.6296 3.36995 94.9996C4.14995 97.3796 5.89996 99.3996 8.29996 100.76C13.18 103.51 19.61 103.87 26.12 104.37C32.65 104.8 39.44 104.89 46.37 104.55C53.3 104.22 60.05 103.49 66.51 102.43C72.97 101.31 79.27 100.33 84.29 97.5796C86.77 96.2196 88.91 94.4396 90.03 92.2296C91.2 90.0396 91.28 87.4796 90.54 85.2196C88.95 80.5796 85.09 77.1296 81.85 73.9796C75.22 67.6196 69.8999 62.4296 66.27 58.7796C62.6399 55.1396 60.71 53.0396 60.87 52.8696H60.88Z" fill="black"/>
<path d="M48.11 41.6797C37.7 41.6797 29.23 33.2097 29.23 22.7997C29.23 12.3897 37.7 3.90967 48.11 3.90967C58.52 3.90967 66.99 12.3797 66.99 22.7997C66.99 33.2197 58.52 41.6797 48.11 41.6797ZM48.11 6.71967C39.25 6.71967 32.04 13.9297 32.04 22.7897C32.04 31.6497 39.25 38.8597 48.11 38.8597C56.97 38.8597 64.18 31.6497 64.18 22.7897C64.18 13.9297 56.98 6.71967 48.11 6.71967Z" fill="black"/>
</g>
<defs>
<clipPath id="clip0_1211_3769">
<rect width="104.39" height="113.24" fill="white"/>
</clipPath>
</defs>
</svg>
