<svg width="113" height="94" viewBox="0 0 113 94" fill="none" xmlns="http://www.w3.org/2000/svg">
<path d="M67.6507 43.2502C66.4107 45.3702 65.7207 48.2102 67.0207 50.2902C68.0907 51.9902 70.1107 52.6302 71.9307 53.3302C75.2107 54.5902 78.2907 56.4502 80.9907 58.7802C83.7407 61.1602 86.1007 64.0202 88.9607 66.2602C93.3807 69.7202 98.8607 71.5102 104.361 71.8002C105.551 71.8602 106.781 71.8502 107.901 71.4202C110.521 70.4102 111.921 67.3502 112.341 64.4402C113.271 58.0402 110.611 51.4102 106.241 46.8602C101.871 42.3002 95.9907 39.6402 89.9807 38.3102C85.3907 37.3002 80.7007 37.0202 76.0207 36.9302C73.6607 36.8802 72.4207 36.4902 70.9607 38.2702C69.7707 39.7102 68.6107 41.6302 67.6507 43.2602V43.2502Z" fill="#C1EACA"/>
<path d="M72.2304 21.1403C72.5804 22.7003 73.1304 24.2603 74.1704 25.4303C75.4304 26.8503 77.2404 27.5303 78.9904 28.1203C81.1804 28.8603 83.4304 29.5303 85.7304 29.4203C87.2504 29.3503 88.7304 28.9403 90.1904 28.5303C90.8104 28.3603 91.4504 28.1703 91.9304 27.7303C92.4304 27.2703 92.6904 26.6003 92.9204 25.9403C94.5204 21.3903 95.3304 15.9303 92.6804 11.9603C91.7704 10.6003 90.5204 9.54033 89.2404 8.56033C86.0704 6.13033 78.9004 1.70032 75.3204 5.22032C71.7204 8.76032 71.1904 16.4603 72.2304 21.1303V21.1403Z" fill="#C1EACA"/>
<path d="M13.4206 61.4301C12.1906 62.6601 10.8706 63.8701 10.0706 65.4601C9.42064 66.7601 9.17064 68.2201 8.93064 69.6701C8.41064 72.8501 7.95063 76.2001 9.02063 79.2201C10.2006 82.5701 13.0506 84.9101 15.8306 86.9601C18.3606 88.8201 20.9806 90.6101 23.8406 91.8301C32.8406 95.6601 43.0106 93.4501 52.4806 91.2001L64.1506 88.4201C67.2806 87.6801 70.5506 86.8501 72.9506 84.6101C74.9406 82.7401 76.1106 80.0701 76.8106 77.3501C77.6006 74.2901 77.8506 71.0101 77.0706 67.9501C76.2906 64.8901 74.3806 62.0701 71.6606 60.7101C69.7606 59.7601 67.6206 59.5601 65.5706 59.1201C58.7306 57.6301 52.8006 53.3501 46.8806 49.4501C43.5806 47.2801 40.1806 45.2001 36.5306 43.7401C34.1706 42.8001 29.9206 40.8501 27.5806 42.5601C25.0606 44.4101 23.1406 49.3001 21.2906 51.9201C18.9006 55.3001 16.3206 58.5401 13.4206 61.4401V61.4301Z" fill="#CEEDE7"/>
<path d="M29.1104 14.1501C28.4104 16.5301 27.9305 19.0201 28.1705 21.5001C28.4105 23.9801 29.4604 26.4401 31.3604 27.9301C32.3504 28.7001 33.5104 29.1701 34.6604 29.6101C36.4004 30.2701 38.1504 30.8701 39.9304 31.4201C43.0704 32.3801 46.6805 33.1001 49.4205 31.2101C50.8705 30.2101 51.8505 28.6101 52.5905 26.9601C55.1605 21.2201 55.2104 14.1501 52.2404 8.63012C49.5504 3.63012 44.2104 0.0401215 38.7104 0.000121462C33.6104 -0.0398785 30.3904 9.81012 29.1104 14.1601V14.1501Z" fill="#CEEDE7"/>
<path d="M65.5908 60.5802C67.4308 62.5002 69.4408 64.5702 70.8408 66.8902C71.6208 66.8702 72.3808 66.8902 73.1608 66.8402C73.8808 66.8002 74.5708 66.7202 75.2808 66.6702C73.3008 62.6202 70.3508 60.1102 68.0008 57.8502C63.0208 53.2602 58.9008 49.5802 55.7808 46.9102C55.3808 47.5102 54.9608 48.1302 54.5308 48.7602C57.2708 51.8202 60.9908 55.8002 65.5808 60.5902L65.5908 60.5802Z" fill="black"/>
<path d="M49.4506 42.2304C49.2506 42.4504 50.2906 43.8704 52.2606 46.1704C52.6306 45.7204 52.9906 45.2804 53.3406 44.8604C51.0406 42.9804 49.6406 42.0104 49.4506 42.2304V42.2304Z" fill="black"/>
<path d="M72.4207 72.1302C72.2607 74.7602 70.5407 77.2102 67.5607 78.7802C63.8007 80.9302 58.8707 81.7402 53.7407 82.6602C48.6407 83.5302 43.3207 84.1302 37.8507 84.4002C32.3807 84.6802 27.0307 84.6102 21.8707 84.2702C16.7007 83.8902 11.7007 83.5502 8.15071 81.4602C4.59071 79.4602 3.57069 75.5402 4.78069 71.7502C5.92069 67.9202 8.2407 64.5702 10.3907 61.5102C19.0707 49.0902 24.1707 41.1802 23.6207 40.7302C23.0807 40.2802 17.0007 47.3702 7.6007 59.2002C5.2707 62.1702 2.5007 65.5802 0.830698 70.3902C0.0406979 72.7802 -0.379297 75.7302 0.460703 78.6802C1.2607 81.5902 3.3607 84.1702 5.8207 85.6602C10.8107 88.6802 16.3007 88.9102 21.5207 89.4302C26.8607 89.8502 32.4107 89.9602 38.0807 89.6702C43.7507 89.3802 49.2707 88.7302 54.5407 87.7502C59.7207 86.7302 65.0107 85.8602 69.7807 83.0302C72.1007 81.6202 74.3707 79.6602 75.6507 76.8702C76.4207 75.2802 76.6907 73.5202 76.6507 71.8202C75.5607 71.9102 74.4807 72.0402 73.3807 72.1002C73.0507 72.1202 72.7407 72.1002 72.4107 72.1202L72.4207 72.1302Z" fill="black"/>
<path d="M107.661 55.3904C106.141 51.3704 103.451 49.3304 101.451 47.4304C93.1806 39.9804 87.8306 35.6404 87.3606 36.1804C86.8906 36.7104 91.3906 42.0204 99.0406 50.1704C100.921 52.1604 103.031 54.3704 103.721 56.7804C104.391 59.1204 103.301 61.3104 100.531 62.8004C97.8705 64.3104 94.2506 64.9104 90.4506 65.5704C87.3506 66.0904 84.1206 66.4404 80.8306 66.6704C81.1006 67.2204 81.4106 67.7104 81.6406 68.3204C82.0106 69.4004 82.1906 70.6104 82.2206 71.8404C85.3006 71.5804 88.3405 71.2104 91.2505 70.6704C95.1005 69.9004 99.0906 69.2404 102.761 67.0504C104.541 65.9504 106.321 64.4304 107.341 62.2004C108.391 60.0004 108.361 57.4104 107.651 55.3904H107.661Z" fill="black"/>
<path d="M68.1806 35.0701C67.7206 34.6901 64.2706 38.3901 58.9106 44.8601C59.6306 45.4501 60.4407 46.1301 61.3407 46.9001C66.0407 39.8701 68.6406 35.4501 68.1806 35.0701V35.0701Z" fill="black"/>
<path d="M55.7805 46.9004C54.8805 46.1304 54.0705 45.4504 53.3505 44.8604C53.0005 45.2804 52.6405 45.7204 52.2705 46.1704C52.9205 46.9304 53.6805 47.7904 54.5405 48.7504C54.9705 48.1204 55.3905 47.4904 55.7905 46.9004H55.7805Z" fill="black"/>
<path d="M75.2706 66.6702C74.5606 66.7202 73.8705 66.8002 73.1505 66.8402C72.3705 66.8802 71.6106 66.8702 70.8306 66.8902C71.3706 67.7902 71.8406 68.7202 72.1406 69.7102C72.4006 70.5202 72.4606 71.3302 72.4206 72.1302C72.7506 72.1202 73.0606 72.1302 73.3906 72.1102C74.5006 72.0502 75.5706 71.9302 76.6606 71.8302C76.6306 70.6002 76.4506 69.3902 76.0806 68.3102C75.8506 67.6902 75.5406 67.2102 75.2706 66.6602V66.6702Z" fill="black"/>
<path d="M37.1807 35.2703C34.8507 35.2703 32.5407 34.7103 30.4007 33.6003C22.8607 29.6903 19.7307 20.0503 23.4307 12.1203C25.2707 8.1703 28.4807 5.2503 32.4707 3.8903C36.2907 2.6003 40.3707 2.9003 43.9707 4.7703C51.5107 8.6803 54.6307 18.3203 50.9407 26.2603C49.1007 30.2103 45.8907 33.1303 41.9107 34.4903C40.3607 35.0203 38.7607 35.2803 37.1807 35.2803V35.2703ZM37.2007 5.9103C35.9207 5.9103 34.6307 6.1203 33.3807 6.5503C30.1307 7.6603 27.5007 10.0503 25.9907 13.3003C22.9207 19.8903 25.4807 27.8703 31.7107 31.1003C34.6207 32.6203 37.9307 32.8703 41.0207 31.8203C44.2707 30.7103 46.8907 28.3203 48.4107 25.0703C51.4807 18.4803 48.9107 10.5003 42.6907 7.2703C40.9607 6.3703 39.0907 5.9203 37.2107 5.9203L37.2007 5.9103Z" fill="black"/>
<path d="M78.2307 33.0605C71.3207 33.0605 65.7007 27.1605 65.7007 19.9205C65.7007 12.6805 71.3207 6.77051 78.2307 6.77051C85.1407 6.77051 90.7607 12.6705 90.7607 19.9205C90.7607 27.1705 85.1407 33.0605 78.2307 33.0605ZM78.2307 9.58051C72.8707 9.58051 68.5107 14.2205 68.5107 19.9105C68.5107 25.6005 72.8707 30.2405 78.2307 30.2405C83.5907 30.2405 87.9507 25.6105 87.9507 19.9105C87.9507 14.2105 83.5907 9.58051 78.2307 9.58051Z" fill="black"/>
</svg>
