<svg width="108" height="107" viewBox="0 0 108 107" fill="none" xmlns="http://www.w3.org/2000/svg">
<path d="M106.5 49.3269C104.47 40.3469 100.15 31.9669 94.5401 24.6669C91.3301 20.4769 87.7001 16.6269 84.0001 12.8569C82.1601 10.9869 80.2901 9.10693 78.0601 7.70693C75.8001 6.28693 73.2501 5.39692 70.6901 4.61692C63.0901 2.29692 51.7401 -1.54308 43.7401 0.656924C35.6201 2.89692 28.9201 11.7469 24.1701 18.1369C17.6201 26.9469 11.5001 36.5769 9.91006 47.4369C7.52006 63.7569 16.3001 80.4969 29.6701 90.1669C43.0401 99.8369 60.2601 103.087 76.7201 101.937C79.4401 101.747 82.2101 101.427 84.7001 100.307C87.4001 99.0869 89.6001 96.9969 91.7201 94.9269C94.2701 92.4369 96.8001 89.9069 98.9801 87.0869C101.46 83.8769 103.47 80.2969 104.91 76.5069C108.19 67.9069 108.52 58.3069 106.49 49.3269H106.5Z" fill="#EFCCAC"/>
<path d="M40.6699 32.0469C40.9099 47.9569 41.2699 63.8669 41.7599 79.7769C41.7799 80.3969 41.8499 81.0969 42.3899 81.4569C43.0499 81.8969 43.9599 81.5269 44.6699 81.1569L88.4399 58.2369C88.6999 58.0969 88.9799 57.9469 89.0899 57.6869C89.3199 57.1669 88.7699 56.6469 88.2799 56.3269C73.7899 46.7069 57.7099 39.3769 41.7199 32.0969" fill="white"/>
<path d="M51.01 106.827C22.88 106.827 0 83.9469 0 55.8269C0 27.7069 22.88 4.81689 51.01 4.81689C79.14 4.81689 102.01 27.6969 102.01 55.8269C102.01 83.9569 79.13 106.827 51.01 106.827ZM51.01 8.56689C24.95 8.56689 3.75 29.7669 3.75 55.8269C3.75 81.8869 24.95 103.077 51.01 103.077C77.07 103.077 98.26 81.8769 98.26 55.8269C98.26 29.7769 77.06 8.56689 51.01 8.56689Z" fill="black"/>
<path d="M34.7498 32.0867C34.9098 31.7667 39.9298 33.7867 48.2298 37.6667C52.3798 39.6167 57.3298 42.0567 62.8298 45.0767C65.5698 46.5967 68.4498 48.2567 71.4198 50.0867C72.8998 51.0067 74.3998 51.9667 75.9198 52.9767C76.6698 53.4867 77.4298 54.0067 78.1998 54.5267C79.5898 55.2967 80.9298 56.7867 80.2298 58.3067C79.9898 58.9667 79.2898 59.4867 78.4398 59.9167L77.0098 60.7367C76.1798 61.2067 75.3498 61.6867 74.5098 62.1667C72.8298 63.1267 71.1298 64.0967 69.3998 65.0767C65.9398 67.0367 62.3898 69.0467 58.7798 71.0867C54.2398 73.6267 49.8198 76.1167 45.5398 78.5167C43.3998 79.7067 41.2898 80.8767 39.2298 82.0267L38.4598 82.4567C38.2698 82.5567 37.8598 82.8067 37.2798 83.0167C36.2298 83.4067 35.0798 83.3067 34.2898 82.6167C33.4798 81.9867 33.2098 80.7467 33.2198 79.7967L33.1998 78.0967C33.1498 69.0767 33.0998 60.9567 33.0498 54.1367C33.0698 40.4967 33.3098 32.0567 33.7798 32.0567C34.2498 32.0567 34.8498 40.4767 35.4398 54.0867C35.6898 60.8967 35.9798 69.0067 36.3098 78.0067L36.3598 79.7067C36.3698 79.9067 36.3798 79.8267 36.4098 79.8867C36.4398 79.9067 36.4798 79.8867 36.5098 79.8867L37.6598 79.2267C39.7098 78.0567 41.7998 76.8567 43.9298 75.6467C48.1998 73.2267 52.6098 70.7267 57.1398 68.1567C63.9198 64.3667 70.4398 60.7167 76.5398 57.3167C76.5398 57.2367 76.6198 57.2967 76.3898 57.1267C75.6498 56.5967 74.9098 56.0767 74.1798 55.5667C72.6998 54.5667 71.2398 53.5867 69.8198 52.6367C66.9498 50.7667 64.1498 49.0467 61.4898 47.4567C56.1498 44.2967 51.3398 41.6467 47.3298 39.4567C39.3098 35.0867 34.5898 32.4467 34.7598 32.0967L34.7498 32.0867Z" fill="black"/>
</svg>
